<svg id="Layer_1" data-name="Layer 1" xmlns="http://www.w3.org/2000/svg" viewBox="0 0 329.33 356.33"><defs><style>.cls-1{fill:#231f20;}</style></defs><title>Illustrations (1)</title><path class="cls-1" d="M147.78,248.31a2,2,0,0,0,2-1.76l0.85-6.42a2,2,0,0,0-4-.53L145.77,246a2,2,0,0,0,1.74,2.27Z"/><path class="cls-1" d="M153.75,245.9a2,2,0,0,0,2-1.9l0.4-6.32a2,2,0,1,0-4-.26l-0.4,6.32a2,2,0,0,0,1.89,2.15h0.13Z"/><path class="cls-1" d="M66.08,353.58a3.37,3.37,0,0,0,3.31-2.76,9.36,9.36,0,0,1,.9-2c1.48-2.84,3.72-7.14.84-14.28-0.59-1.46-1.39-3.09-2.24-4.81-4-8.21-9.6-19.45-2.89-32.19,8.27-15.7,7.34-19.1,1.59-32.56-0.83-1.95-1.77-4.15-2.8-6.68-5-12.26-1.45-16.26,2-20.14a17.87,17.87,0,0,0,3.46-5A3.37,3.37,0,0,0,64,230.62a13.1,13.1,0,0,1-2.27,3c-3.86,4.39-9.7,11-3.15,27.14,1,2.58,2,4.81,2.85,6.8,5.17,12.09,5.71,13.35-1.36,26.76-8.31,15.78-1.35,29.89,2.81,38.32,0.83,1.68,1.54,3.13,2,4.35,1.72,4.25.66,6.28-.57,8.63a13.86,13.86,0,0,0-1.55,3.94A3.38,3.38,0,0,0,66.08,353.58Z"/><path class="cls-1" d="M58,219.34a3.38,3.38,0,0,0,2.3-5.85c-4.19-3.89-4.78-16.15.7-26.73,4.24-8.19,3.07-12.59,2.13-16.13-0.49-1.85-.81-3.08-0.3-4.84a3.37,3.37,0,1,0-6.48-1.9,14.47,14.47,0,0,0,.25,8.47c0.77,2.91,1.44,5.42-1.6,11.3-6.58,12.71-6.26,28.32.7,34.78A3.36,3.36,0,0,0,58,219.34Z"/><path class="cls-1" d="M135.4,254a2,2,0,0,0,2-1.74l0.89-6.2a2,2,0,0,0-4-.57l-0.89,6.2a2,2,0,0,0,1.72,2.29Z"/><path class="cls-1" d="M141.87,250.29a2,2,0,0,0,2-1.77l0.74-5.79a2,2,0,1,0-4-.51L139.86,248a2,2,0,0,0,1.75,2.26Z"/><path class="cls-1" d="M129.73,256.07a2,2,0,0,0,2-1.92l0.33-6.15a2,2,0,1,0-4-.22l-0.33,6.15a2,2,0,0,0,1.91,2.13h0.11Z"/><path class="cls-1" d="M123.81,259.64a2,2,0,0,0,2-1.92l0.33-6.31a2,2,0,0,0-4-.21l-0.33,6.31a2,2,0,0,0,1.92,2.13h0.11Z"/><path class="cls-1" d="M118.07,262.86a2,2,0,0,0,2-1.87l0.45-6.12a2,2,0,1,0-4-.3L116,260.69a2,2,0,0,0,1.87,2.17h0.15Z"/><path class="cls-1" d="M160,246.53a2,2,0,0,0,2-1.9l0.4-6.32a2,2,0,0,0-4-.26l-0.4,6.32a2,2,0,0,0,1.89,2.15H160Z"/><path class="cls-1" d="M182.09,248.31a2,2,0,0,1-2-1.76l-0.85-6.42a2,2,0,0,1,4-.53L184.1,246a2,2,0,0,1-1.74,2.27Z"/><path class="cls-1" d="M176.12,245.9a2,2,0,0,1-2-1.9l-0.4-6.32a2,2,0,0,1,4-.26l0.4,6.32a2,2,0,0,1-1.89,2.15h-0.13Z"/><path class="cls-1" d="M191.07,218.08c-0.85-2.84-3.45-7.89-11.37-9.77-5.78-1.37-5.66-24.33-1.93-44.9a3.38,3.38,0,0,0-6.64-1.2,193.75,193.75,0,0,0-2.61,23.72c-0.72,17.77,2.43,27.24,9.62,29,3.47,0.82,5.71,2.6,6.46,5.14a6.37,6.37,0,0,1-1.31,6c-0.87.92-2.06,0.83-5.43,0.07s-8.05-1.83-12.23,1.3l-0.7.11-0.7-.11c-4.18-3.13-8.8-2.08-12.23-1.3s-4.56.86-5.43-.07a6.37,6.37,0,0,1-1.31-6c0.76-2.54,3-4.31,6.46-5.14,7.19-1.71,10.34-11.18,9.62-29a193.7,193.7,0,0,0-2.61-23.72,3.38,3.38,0,0,0-6.64,1.2c3.73,20.58,3.84,43.53-1.93,44.9-7.92,1.88-10.52,6.93-11.37,9.77a13.14,13.14,0,0,0,2.87,12.6c3.66,3.87,8.38,2.79,11.83,2s5.33-1.12,7,.4a3.38,3.38,0,0,0,1.57.79c0.08,0,1,.2,2.31.39v0.14l0.53-.07,0.53,0.07v-0.14c1.3-.19,2.24-0.38,2.31-0.39a3.38,3.38,0,0,0,1.57-.79c1.7-1.51,3.67-1.16,7-.4s8.18,1.86,11.83-2A13.14,13.14,0,0,0,191.07,218.08Z"/><path class="cls-1" d="M263.79,353.58a3.37,3.37,0,0,1-3.31-2.76,9.36,9.36,0,0,0-.9-2c-1.48-2.84-3.72-7.14-.84-14.28,0.59-1.46,1.39-3.09,2.24-4.81,4.05-8.21,9.6-19.45,2.89-32.19-8.27-15.7-7.34-19.1-1.59-32.56,0.83-1.95,1.77-4.15,2.8-6.68,5-12.26,1.45-16.26-2-20.14a17.87,17.87,0,0,1-3.46-5,3.37,3.37,0,0,1,6.26-2.52,13.1,13.1,0,0,0,2.27,3c3.86,4.39,9.7,11,3.15,27.14-1,2.58-2,4.81-2.85,6.8-5.17,12.09-5.71,13.35,1.36,26.76,8.31,15.78,1.35,29.89-2.81,38.32-0.83,1.68-1.54,3.13-2,4.35-1.72,4.25-.66,6.28.57,8.63a13.86,13.86,0,0,1,1.55,3.94A3.38,3.38,0,0,1,263.79,353.58Z"/><path class="cls-1" d="M271.86,219.34a3.38,3.38,0,0,1-2.3-5.85c4.19-3.89,4.78-16.15-.7-26.73-4.24-8.19-3.07-12.59-2.13-16.13,0.49-1.85.81-3.08,0.3-4.84a3.37,3.37,0,1,1,6.48-1.9,14.47,14.47,0,0,1-.25,8.47c-0.77,2.91-1.44,5.42,1.6,11.3,6.58,12.71,6.26,28.32-.7,34.78A3.36,3.36,0,0,1,271.86,219.34Z"/><path class="cls-1" d="M194.48,254a2,2,0,0,1-2-1.74l-0.89-6.2a2,2,0,0,1,4-.57l0.89,6.2a2,2,0,0,1-1.72,2.29Z"/><path class="cls-1" d="M188,250.29a2,2,0,0,1-2-1.77l-0.74-5.79a2,2,0,0,1,4-.51L190,248a2,2,0,0,1-1.75,2.26Z"/><path class="cls-1" d="M200.14,256.07a2,2,0,0,1-2-1.92L197.79,248a2,2,0,1,1,4-.22l0.33,6.15a2,2,0,0,1-1.91,2.13h-0.11Z"/><path class="cls-1" d="M206.06,259.64a2,2,0,0,1-2-1.92l-0.33-6.31a2,2,0,0,1,4-.21l0.33,6.31a2,2,0,0,1-1.92,2.13h-0.11Z"/><path class="cls-1" d="M211.8,262.86a2,2,0,0,1-2-1.87l-0.45-6.12a2,2,0,1,1,4-.3l0.45,6.12a2,2,0,0,1-1.87,2.17H211.8Z"/><path class="cls-1" d="M253.16,132.13c-3-4.45-4.27-21.39-4.34-31,0-.1,0-0.2,0-0.29-2-21-11.16-26.16-27.81-35.51L220.4,65c-7-4-10.56-4.32-14.63-4.73-3.53-.36-7.54-0.77-15.69-3.75-7.26-2.66-18.43-3.64-24.61-4V52.44l-0.53,0-0.53,0V52.5c-6.18.35-17.35,1.34-24.61,4-8.16,3-12.16,3.39-15.7,3.75C120,60.66,116.52,61,109.47,65l-0.59.33c-16.65,9.35-25.82,14.5-27.81,35.51,0,0.1,0,.2,0,0.29-0.07,9.63-1.32,26.57-4.34,31a3.37,3.37,0,1,0,5.58,3.79c5.07-7.47,5.47-31.23,5.5-34.61,1.68-17.36,7.88-20.85,24.38-30.11l0.59-.33c5.82-3.27,8.28-3.52,12-3.9s8.38-.86,17.33-4.13c6.47-2.37,17-3.27,22.82-3.6,5.78,0.33,16.35,1.23,22.82,3.6,8.95,3.27,13.59,3.75,17.33,4.13s6.18,0.63,12,3.9l0.59,0.33c16.5,9.27,22.71,12.75,24.38,30.11,0,3.39.43,27.14,5.5,34.61A3.37,3.37,0,0,0,253.16,132.13Z"/><path class="cls-1" d="M196.92,260.44a3.38,3.38,0,0,0-3.78-2.12,43.16,43.16,0,0,1-6-4.06c-3.14-2.45-13.63-9.71-22.17-5-8.54-4.75-19,2.51-22.17,5a43.16,43.16,0,0,1-6,4.06,3.37,3.37,0,0,0-1.81,6.47c0.07,0,7.23,2.76,11.37,6.88,5.11,5.09,12.69,6.83,18.44,6.83h0.41c5.75,0,13.33-1.74,18.45-6.83,4.14-4.12,11.3-6.86,11.37-6.88A3.38,3.38,0,0,0,196.92,260.44Zm-34.6-4.82a10.17,10.17,0,0,0,2.08,1.21v0.37l0.53-.17,0.53,0.17v-0.37a10.15,10.15,0,0,0,2.08-1.21c3.6-2.66,9.66-.16,14.23,3.09a22.31,22.31,0,0,0-7-.09c-2,.28-4.3.44-6.47,0.59-1.15.08-2.29,0.16-3.4,0.26-1.12-.1-2.25-0.18-3.4-0.26-2.17-.15-4.42-0.3-6.47-0.59a22.32,22.32,0,0,0-7,.09C152.67,255.47,158.72,253,162.33,255.62Zm2.61,16.09c-4.62.07-10.36-1.32-13.89-4.83a30.47,30.47,0,0,0-4.71-3.75c0.21,0,.42-0.05.63-0.09a19.94,19.94,0,0,1,7.54-.41c2.19,0.3,4.5.46,6.74,0.62l3.15,0.24v0.09h0.08l0.45,0,0.45,0h0.08v-0.09l3.15-.24c2.24-.15,4.56-0.31,6.74-0.62a19.94,19.94,0,0,1,7.54.41c0.21,0,.42.06,0.63,0.09a30.44,30.44,0,0,0-4.71,3.75C175.3,270.4,169.56,271.79,164.94,271.72Z"/><path class="cls-1" d="M169.86,246.53a2,2,0,0,1-2-1.9l-0.4-6.32a2,2,0,0,1,4-.26l0.4,6.32a2,2,0,0,1-1.89,2.15h-0.13Z"/><path class="cls-1" d="M260.87,174.63c-0.64-7.18-1.19-13.37-.72-17.95a3.38,3.38,0,0,0-6.72-.69c-0.53,5.22,0,11.71.71,19.23,1.44,16.27,3.23,36.51-5.85,52.74-4.29,7.66-7.82,15.09-11.24,22.27l-2.21,4.63-0.73-1.13a2,2,0,0,0-3.4,2.21l2.06,3.18c-0.57,1.15-1.14,2.28-1.7,3.39l-1.19-1.84a2,2,0,0,0-3.4,2.21l2.42,3.73q-1.1,2-2.24,3.92l-1.55-2.39a2,2,0,1,0-3.4,2.21l2.57,4q-0.87,1.3-1.78,2.54l-1.67-2.57a2,2,0,1,0-3.4,2.21l2.41,3.7c-0.27.32-.54,0.64-0.82,0.95L218,282.26l-2-3.11a2,2,0,1,0-3.4,2.21l2.48,3.82c-0.48.45-1,.9-1.48,1.35l-2-3a2,2,0,0,0-3.4,2.21l2.23,3.43q-1,.78-2,1.55l-2.11-3.25a2,2,0,1,0-3.4,2.21l2.2,3.38q-1.26.84-2.57,1.64L200.17,291a2,2,0,1,0-3.4,2.21l2.27,3.5c-0.83.45-1.68,0.89-2.54,1.32l-2.89-4.45a2,2,0,0,0-3.4,2.21l2.57,4q-0.95.41-1.91,0.79L188,296.15a2,2,0,0,0-3.4,2.21L187,302q-1.3.43-2.62,0.81l-3-4.59a2,2,0,1,0-3.4,2.21l2.23,3.43q-1.82.4-3.68,0.7l-1.68-3.57a2,2,0,0,0-3.67,1.72l1.11,2.38q-2.37.21-4.8,0.24l-0.09-3.33a2,2,0,0,0-4,.11l0.09,3.25-0.28,0H163c-1.2,0-2.39,0-3.58-.11l1.33-2.5a2,2,0,0,0-3.57-1.91l-2.13,4q-2.2-.29-4.34-0.72l2-3.1a2,2,0,1,0-3.4-2.21l-2.8,4.31q-1.83-.5-3.61-1.08l2.34-3.6a2,2,0,1,0-3.4-2.21L139,300.54q-1-.38-1.91-0.79l2.57-4a2,2,0,0,0-3.4-2.21L133.37,298c-0.86-.43-1.71-0.86-2.54-1.32l2.27-3.5a2,2,0,0,0-3.4-2.21l-2.38,3.67q-1.31-.8-2.57-1.64l2.2-3.38a2,2,0,1,0-3.4-2.21l-2.11,3.25q-1-.77-2-1.55l2.23-3.43a2,2,0,1,0-3.4-2.21l-2,3c-0.51-.45-1-0.9-1.48-1.35l2.48-3.82a2,2,0,0,0-3.4-2.21l-2,3.11-1.05-1.14c-0.28-.31-0.55-0.63-0.82-0.95l2.41-3.7a2,2,0,1,0-3.4-2.21l-1.67,2.57q-0.91-1.23-1.78-2.54l2.57-4a2,2,0,0,0-3.4-2.21l-1.55,2.39q-1.14-1.9-2.24-3.92l2.42-3.73a2,2,0,0,0-3.4-2.21l-1.19,1.84c-0.57-1.11-1.14-2.23-1.7-3.39l2.06-3.18a2,2,0,0,0-3.4-2.21L95,254.86l-2.21-4.63c-3.42-7.18-7-14.6-11.24-22.27-9.08-16.23-7.29-36.47-5.85-52.74,0.67-7.52,1.24-14,.71-19.23a3.38,3.38,0,0,0-6.72.69c0.47,4.57-.08,10.77-0.72,17.95-1.52,17.19-3.42,38.59,6.68,56.63,4.18,7.47,7.67,14.79,11,21.87,5.87,12.34,11.42,24,19.11,32.52C117.34,298.39,138.37,312,162.89,312l1.52,0.08v0.06l0.53,0,0.53,0v-0.06L167,312c24.52,0,45.55-13.65,57.06-26.39,7.69-8.52,13.24-20.17,19.11-32.52,3.37-7.08,6.85-14.4,11-21.87C264.29,213.21,262.4,191.82,260.87,174.63Z"/><path class="cls-1" d="M325.87,213.43a85.94,85.94,0,0,1,.79-9.54c1.65-14,3.9-33.23-10.66-61.42-11.62-22.49-10.34-30.8-8.57-42.3A104.5,104.5,0,0,0,309,78.44C307.91,50,291.94,38.11,278.15,31c-10.28-5.34-20.26-5.66-28.29-5.92-9.38-.3-14.4-0.69-17.25-5.66C224.88,5.86,176.39,3.29,165.4,3l-0.16,0h-0.6l-0.16,0c-11,.28-59.48,2.85-67.22,16.36-2.84,5-7.87,5.36-17.24,5.66-8,.26-18,0.58-28.29,5.92C37.93,38.11,22,50,20.88,78.44a104.46,104.46,0,0,0,1.56,21.73c1.77,11.49,3.05,19.8-8.57,42.3-14.57,28.2-12.31,47.4-10.66,61.42A85.94,85.94,0,0,1,4,213.43c0,4.77,1.76,10.31,3.8,16.71,4.48,14.05,10,31.54,1.71,52.44-13.15,33-.27,53.76.29,54.63a3.37,3.37,0,0,0,5.69-3.63c-0.12-.18-11.59-18.72.29-48.5,9.23-23.15,3-42.71-1.55-57-1.87-5.87-3.49-10.94-3.49-14.67a91.78,91.78,0,0,0-.84-10.33c-1.54-13.16-3.66-31.18,10-57.54C32.5,121.12,31,111.42,29.11,99.14A98.76,98.76,0,0,1,27.62,78.7C28.56,53.92,41.26,44,54.83,36.94c8.92-4.63,17.67-4.91,25.4-5.16,9.27-.3,18-0.58,22.88-9.05,4.4-7.69,40.24-12.52,61.82-13,21.59,0.45,57.42,5.28,61.82,13,4.85,8.47,13.61,8.75,22.88,9.05,7.72,0.25,16.47.53,25.4,5.16,13.58,7,26.27,17,27.21,41.75a98.73,98.73,0,0,1-1.49,20.45c-1.89,12.28-3.39,22,9.24,46.42,13.62,26.36,11.5,44.38,10,57.54a91.9,91.9,0,0,0-.84,10.33c0,3.72-1.62,8.79-3.49,14.67-4.55,14.28-10.78,33.84-1.55,57,11.88,29.78.41,48.31,0.29,48.5a3.37,3.37,0,1,0,5.69,3.63c0.56-.87,13.44-21.67.29-54.63-8.34-20.9-2.77-38.39,1.71-52.44C324.11,223.74,325.87,218.2,325.87,213.43Z"/><path class="cls-1" d="M302.46,292.89c-0.47-1.63-1-3.41-1.55-5.3-4.58-15.52-12.25-41.5-6.11-54.25,8.18-17,11.92-42,.81-56.83-7.72-10.29-13.29-27.13-16.56-50.07-0.76-5.34.69-9.58,2.36-14.49,3-8.71,6.34-18.58-.85-36.74-12.5-31.58-45.62-32.69-58.08-33.1-10.46-.35-14.57-2.66-19.78-5.58A67.64,67.64,0,0,0,192,31.4c-11.4-4.15-23.23-1.78-27-.83-3.8-1-15.64-3.32-27,.83a67.66,67.66,0,0,0-10.73,5.12c-5.2,2.92-9.31,5.23-19.78,5.58-12.47.42-45.58,1.52-58.08,33.1-7.19,18.16-3.82,28-.85,36.74,1.68,4.91,3.13,9.16,2.36,14.49-3.28,22.94-8.85,39.78-16.56,50.07-11.11,14.82-7.37,39.84.81,56.83,6.14,12.75-1.53,38.73-6.11,54.25-0.56,1.89-1.08,3.67-1.55,5.3-2.74,9.58.51,18.89,3.37,27.11,2.37,6.81,4.61,13.24,3.45,19a3.38,3.38,0,1,0,6.62,1.32c1.52-7.61-1.13-15.22-3.69-22.58-2.78-8-5.4-15.51-3.25-23,0.46-1.61,1-3.37,1.53-5.24,5.17-17.52,13-44,5.72-59.09-7.55-15.69-10.49-37.85-1.49-49.85,8.4-11.2,14.41-29.09,17.85-53.17,1-6.94-.86-12.38-2.66-17.63-2.72-8-5.54-16.23.73-32.08,9.64-24.35,32.87-28.2,52-28.84,12.11-.4,17.33-3.34,22.86-6.44a61.12,61.12,0,0,1,9.73-4.66c9.33-3.39,19.44-1.49,22.82-.69a3.36,3.36,0,0,0,1.84.44H165a3.36,3.36,0,0,0,1.84-.44c3.37-.8,13.48-2.71,22.82.69a61.1,61.1,0,0,1,9.73,4.66c5.53,3.11,10.75,6,22.86,6.44,19.16,0.64,42.4,4.49,52,28.84,6.27,15.85,3.46,24.1.73,32.08-1.79,5.26-3.65,10.69-2.66,17.63,3.44,24.07,9.44,42,17.85,53.17,9,12,6.06,34.16-1.49,49.85-7.27,15.09.55,41.57,5.72,59.09,0.55,1.87,1.07,3.63,1.53,5.24,2.15,7.52-.48,15.06-3.25,23-2.56,7.36-5.21,15-3.69,22.58a3.38,3.38,0,0,0,6.62-1.32c-1.16-5.8,1.08-12.23,3.45-19C302,311.78,305.2,302.46,302.46,292.89Z"/><path class="cls-1" d="M216.53,160L238,138.53a3.5,3.5,0,0,0-4.95-4.95L211.58,155l-21.47-21.47a3.5,3.5,0,1,0-4.95,4.95L206.63,160l-21.47,21.47a3.5,3.5,0,1,0,4.95,4.95l21.47-21.47L233,186.41a3.5,3.5,0,0,0,4.95-4.95Z"/><path class="cls-1" d="M128.92,160l21.47-21.47a3.5,3.5,0,0,0-4.95-4.95L124,155l-21.47-21.47a3.5,3.5,0,0,0-5,4.95L119,160,97.55,181.47a3.5,3.5,0,1,0,5,4.95L124,164.95l21.47,21.47a3.5,3.5,0,1,0,4.95-4.95Z"/></svg>