<svg id="Layer_1" data-name="Layer 1" xmlns="http://www.w3.org/2000/svg" viewBox="0 0 309.86 424.33"><defs><style>.cls-1{fill:#7c0a0c;}.cls-2{opacity:0.3;}.cls-3{fill:#fff;}.cls-4{fill:#231f20;}</style></defs><title>Illustrations (1)</title><path class="cls-1" d="M208.85,169.92a8.94,8.94,0,1,1,8.94-8.94A8.95,8.95,0,0,1,208.85,169.92Zm0-11.87a2.94,2.94,0,1,0,2.94,2.94A2.94,2.94,0,0,0,208.85,158Z"/><g class="cls-2"><path class="cls-3" d="M168,57.36c-42.84,0-80.38,10.24-83.77,54.28,0,0,.41,15.65-3.3,24.3s-11.75,25.68-10.11,41.74,0.58,28.87,10.46,50.7,18.18,41,29.71,53.77,31.58,25.28,54.65,25.28"/></g><path class="cls-4" d="M230.56,159.72c1.64-2.32,3-4.32,4.22-4.32h1.46a3.38,3.38,0,1,0,0-6.75H211.31c-10.18,0-17.7,2.36-22.37,7-3.47,3.46-5.23,8-5.23,13.57a3.37,3.37,0,0,0,3.38,3.38h21.07C221.47,172.61,226.94,164.86,230.56,159.72Zm-36.86.73c3.36-3.35,9.27-5,17.59-5h14.05l-0.3.43c-3.48,4.93-7.08,10-16.9,10H190.8A10.65,10.65,0,0,1,193.71,160.45Z"/><path class="cls-4" d="M244.46,141.56a3.37,3.37,0,0,0-3.37-3.37H206.66c-12.2,0-17.74,4.63-20.72,7.12-0.4.34-.9,0.75-1.12,0.89a3.37,3.37,0,0,0,2.38,6.31,10.37,10.37,0,0,0,3.06-2c2.48-2.08,6.64-5.55,16.39-5.55h34.42A3.37,3.37,0,0,0,244.46,141.56Z"/><path class="cls-4" d="M258.32,164.69c-0.13-3.44-.25-6.7-0.25-9.85a3.38,3.38,0,1,0-6.75,0c0,3.27.13,6.74,0.25,10.1,0.46,12.43.93,25.29-4.45,33.77-8,12.63-9.69,27.38-9.69,37.53,0,14.77-7.21,31.23-19.27,44a72.16,72.16,0,0,1-53,22.84,2.86,2.86,0,0,1-1.14,0,61.23,61.23,0,0,1-8.36-.58l2-3a2,2,0,0,0-3.4-2.21l-2.9,4.47q-1-.21-2-0.46l2.84-4.38a2,2,0,0,0-3.4-2.2l-3.34,5.15a2,2,0,0,0-.16.32c-1-.31-2-0.64-3-1l2.56-3.94a2,2,0,0,0-3.4-2.21l-3,4.64q-1-.41-1.89-0.83l2.71-4.17a2,2,0,0,0-3.4-2.2l-3,4.57q-1.27-.67-2.5-1.37l2.32-3.57a2,2,0,0,0-3.4-2.21l-2.38,3.67q-1.29-.83-2.53-1.7l2.16-3.33a2,2,0,0,0-3.4-2.21l-2,3.12q-1-.79-2-1.59l2.11-3.26a2,2,0,0,0-3.4-2.21L116,283.18c-0.5-.46-1-0.93-1.45-1.39l2.28-3.52a2,2,0,0,0-3.4-2.21l-1.77,2.72c-0.62-.7-1.23-1.42-1.83-2.16l2.1-3.23a2,2,0,0,0-3.4-2.21l-1.28,2q-0.88-1.27-1.74-2.61l2.14-3.3a2,2,0,0,0-3.4-2.21l-1.07,1.65q-1.11-1.94-2.2-4l1.9-2.92a2,2,0,0,0-3.4-2.21l-0.64,1q-0.84-1.68-1.69-3.41l1.49-2.29a2,2,0,0,0-3.4-2.21l-0.15.23-1.34-2.82c-3.42-7.18-7-14.6-11.24-22.26-9.08-16.23-7.29-36.47-5.85-52.74,0.67-7.52,1.24-14,.71-19.23a3.37,3.37,0,1,0-6.71.69c0.47,4.57-.08,10.77-0.72,18C68.5,189.65,66.6,211,76.7,229.08c4.18,7.47,7.66,14.79,11,21.87,5.87,12.34,11.42,24,19.11,32.52,11.52,12.76,32.59,26.39,57.15,26.39a2.86,2.86,0,0,1,1.14,0,78.85,78.85,0,0,0,57.92-25c13.22-14,21.11-32.21,21.11-48.66,0-9.26,1.5-22.65,8.64-33.92C259.32,192.07,258.81,178.15,258.32,164.69Z"/><path class="cls-4" d="M147.64,237.43l-0.85,6.42a2,2,0,0,0,1.74,2.27l0.27,0a2,2,0,0,0,2-1.76l0.85-6.42A2,2,0,1,0,147.64,237.43Z"/><path class="cls-4" d="M153.15,235.26l-0.4,6.32a2,2,0,0,0,1.89,2.15h0.13a2,2,0,0,0,2-1.9l0.4-6.32A2,2,0,1,0,153.15,235.26Z"/><path class="cls-4" d="M127.56,140.29c-9.46.15-12.51,0.1-15.46,0-1.39,0-2.73,0-4.67,0-4.51,0-8.77-2-9.74-2.91A3.38,3.38,0,0,0,91.48,140c1.35,4,9.69,7.09,16,7.09,1.89,0,3.19,0,4.55,0,2.86,0.05,6.11.11,15.68,0,13.87-.23,21.27,2.54,22.87,4.45a3.38,3.38,0,0,0,5.17-4.33C151.93,142.63,141.41,140.07,127.56,140.29Z"/><path class="cls-4" d="M132.82,172.44c3.88-.41,15-2.33,15.42-2.41a2.7,2.7,0,0,0,2.08-3.58,24.44,24.44,0,0,0-23.92-15.54c-16.54.7-26.36,6.63-26.77,6.88a2.7,2.7,0,0,0-.48,4.22,42.83,42.83,0,0,0,28.75,10.69A47.24,47.24,0,0,0,132.82,172.44Zm-6-13a2.82,2.82,0,1,1-2.82,2.82A2.83,2.83,0,0,1,126.78,159.46Zm16.93,5.86c-2.49.42-5.81,1-8.42,1.35a9.51,9.51,0,0,0,0-8.82A19.31,19.31,0,0,1,143.71,165.32Zm-25-8.21A9.53,9.53,0,0,0,118,166a39.23,39.23,0,0,1-11.84-5.36A57.54,57.54,0,0,1,118.74,157.11Z"/><path class="cls-4" d="M152.75,212.71c14.74-3.51,9.1-41.21,7-52.68a3.38,3.38,0,1,0-6.64,1.2c3.73,20.58,3.84,43.53-1.93,44.9-7.92,1.88-10.52,6.93-11.37,9.78a13.14,13.14,0,0,0,2.87,12.6c3.65,3.87,8.38,2.79,11.83,2s5.33-1.12,7,.4a4.17,4.17,0,0,0,2.25.86,26.18,26.18,0,0,0,4.05.06,47.42,47.42,0,0,0,7.09-1.36c0.62-.16,1.42-0.38,1.86-0.47l0.62,0.22a19.34,19.34,0,0,0,7,1.28c6.36,0,11-5.32,11-12.66s-5.92-10.29-8.94-10.29a3.38,3.38,0,0,0-.21,6.74,3.36,3.36,0,0,1,2.41,3.55c0,2.72-1.1,5.91-4.22,5.91a12.51,12.51,0,0,1-4.71-.89,11,11,0,0,0-3.48-.6c-2.51-.08-10,2.59-11.2,1.73-4.81-3.31-8.37-1.87-12-1.05-3.37.76-4.56,0.86-5.43-.07a6.37,6.37,0,0,1-1.31-6C147,215.31,149.28,213.53,152.75,212.71Z"/><path class="cls-4" d="M69.92,327.51c-4.05-8.21-9.6-19.45-2.89-32.18,8.27-15.7,7.34-19.1,1.59-32.56-0.83-1.95-1.77-4.15-2.8-6.68-5-12.26-1.45-16.27,2-20.14a17.89,17.89,0,0,0,3.46-5A3.38,3.38,0,0,0,65,228.44a13.08,13.08,0,0,1-2.27,3c-3.86,4.39-9.7,11-3.15,27.14,1,2.58,2,4.81,2.85,6.8,5.17,12.09,5.71,13.35-1.35,26.76-8.31,15.78-1.35,29.89,2.81,38.32,0.83,1.68,1.54,3.13,2,4.35,1.72,4.25.66,6.28-.57,8.63a13.83,13.83,0,0,0-1.55,3.94,3.37,3.37,0,1,0,6.64,1.22,9.33,9.33,0,0,1,.9-2c1.48-2.84,3.72-7.14.84-14.28C71.57,330.87,70.77,329.24,69.92,327.51Z"/><path class="cls-4" d="M56.74,216.26a3.37,3.37,0,0,0,4.59-4.95c-4.19-3.89-4.78-16.15.7-26.73,4.23-8.19,3.07-12.59,2.13-16.13-0.49-1.85-.81-3.08-0.29-4.84a3.38,3.38,0,1,0-6.48-1.9,14.47,14.47,0,0,0,.25,8.47c0.77,2.91,1.44,5.42-1.6,11.3C49.47,194.19,49.78,209.8,56.74,216.26Z"/><path class="cls-4" d="M137.6,241.61a2,2,0,0,0-2.29,1.72l-0.89,6.2a2,2,0,0,0,1.72,2.29l0.29,0a2,2,0,0,0,2-1.74l0.89-6.2A2,2,0,0,0,137.6,241.61Z"/><path class="cls-4" d="M141.62,240l-0.74,5.79a2,2,0,0,0,1.75,2.27l0.26,0a2,2,0,0,0,2-1.77l0.74-5.79A2,2,0,1,0,141.62,240Z"/><path class="cls-4" d="M130.65,253.89h0.11a2,2,0,0,0,2-1.92l0.33-6.15a2,2,0,1,0-4-.22l-0.33,6.15A2,2,0,0,0,130.65,253.89Z"/><path class="cls-4" d="M123.14,249l-0.33,6.31a2,2,0,0,0,1.92,2.13h0.11a2,2,0,0,0,2-1.92l0.33-6.31A2,2,0,0,0,123.14,249Z"/><path class="cls-4" d="M117.52,252.39l-0.45,6.12a2,2,0,0,0,1.87,2.17h0.15a2,2,0,0,0,2-1.87l0.45-6.12A2,2,0,0,0,117.52,252.39Z"/><path class="cls-4" d="M280.74,306.17c0-4,.06-8,0.06-12.06V152.81c0-43.15-11.81-76-35.1-97.51-29.16-27-66.44-27.3-74.85-27l-0.12,0c-0.59-.18-18.1-4-31.62,1a67.61,67.61,0,0,0-10.73,5.12c-5.2,2.92-9.31,5.23-19.78,5.58C96.13,40.34,63,41.44,50.52,73c-7.19,18.16-3.82,28-.84,36.74,1.68,4.91,3.13,9.16,2.36,14.5C48.76,147.2,43.18,164,35.47,174.33c-11.11,14.82-7.37,39.84.81,56.83,6.14,12.75-1.53,38.73-6.11,54.25-0.56,1.89-1.08,3.67-1.55,5.3-2.74,9.58.51,18.89,3.37,27.11,2.37,6.81,4.61,13.24,3.45,19a3.38,3.38,0,0,0,6.62,1.32c1.52-7.61-1.13-15.22-3.69-22.59-2.78-8-5.4-15.51-3.25-23,0.46-1.61,1-3.37,1.53-5.24,5.17-17.52,13-44,5.72-59.09-7.55-15.69-10.49-37.85-1.49-49.85,8.4-11.2,14.41-29.09,17.85-53.17,1-6.94-.86-12.38-2.66-17.63-2.72-8-5.54-16.23.73-32.08,9.64-24.35,32.87-28.2,52-28.84,12.11-.4,17.33-3.34,22.86-6.44a61.08,61.08,0,0,1,9.73-4.66c11.35-4.13,27.33-.51,27.33-0.51a2.85,2.85,0,0,0,1.51,0c3.91-.2,42.18-1.42,70.92,25.22C263,80.54,274,111.66,274,152.81v141.3c0,4,0,8-.06,12-0.25,36-.49,69.92,19.8,102.26a3.37,3.37,0,1,0,5.72-3.59C280.27,374.13,280.5,341.12,280.74,306.17Z"/><path class="cls-4" d="M170.88,2.3h-1l-0.21,0c-11.84.22-63.53,1.5-71.2,14.89-2.84,5-7.87,5.36-17.24,5.66-8,.26-18,0.58-28.29,5.92-13.79,7.16-29.76,19-30.84,47.49A104.5,104.5,0,0,0,23.64,98c1.77,11.49,3.05,19.8-8.57,42.3-14.57,28.2-12.31,47.4-10.66,61.42a85.93,85.93,0,0,1,.79,9.54C5.21,216,7,221.56,9,228c4.48,14.05,10,31.54,1.71,52.44-13.14,33-.26,53.76.29,54.63a3.38,3.38,0,0,0,5.7-3.62c-0.48-.76-11.51-18.94.28-48.51,9.23-23.15,3-42.71-1.55-57C13.57,220,12,215,12,211.25a91.9,91.9,0,0,0-.84-10.33c-1.55-13.16-3.66-31.17,10-57.54C33.7,118.94,32.21,109.24,30.32,97a98.77,98.77,0,0,1-1.49-20.45C29.77,51.75,42.46,41.81,56,34.77c8.92-4.63,17.67-4.91,25.4-5.16,9.27-.3,18-0.58,22.88-9.05,4.41-7.7,44.63-11.08,66.24-11.51,42,0.34,127.34,32,127.34,128.92v88.2c0,2.15,0,4.74-.14,8.18a3.38,3.38,0,0,0,3.28,3.47h0.1a3.37,3.37,0,0,0,3.37-3.28c0.1-3.5.14-6.16,0.14-8.36V138C304.65,36.22,215.21,2.8,170.88,2.3Z"/><path class="cls-4" d="M257.68,363.59v-103a3.38,3.38,0,0,0-6.75,0v103c0,18.5,5.48,37.93,16.29,57.75a3.38,3.38,0,0,0,5.93-3.23C262.88,399.29,257.68,380.95,257.68,363.59Z"/><path class="cls-4" d="M159.41,235.88L159,242.2a2,2,0,0,0,1.89,2.15H161a2,2,0,0,0,2-1.9l0.4-6.32A2,2,0,0,0,159.41,235.88Z"/><path class="cls-4" d="M252.9,135.49a3.37,3.37,0,0,0,3.38-3.37c0-50.17-33.12-79-88.21-79h0c-0.49-.07-16.71-2.67-27.24,1.18-8.16,3-12.16,3.39-15.7,3.75-4.07.42-7.58,0.77-14.63,4.73l-0.59.33c-16.65,9.35-25.82,14.5-27.81,35.51,0,0.1,0,.19,0,0.29-0.07,9.63-1.32,26.57-4.34,31a3.38,3.38,0,0,0,5.58,3.79c5.07-7.47,5.47-31.23,5.5-34.61C90.5,81.77,96.71,78.29,113.21,69l0.59-.33c5.82-3.27,8.28-3.52,12-3.9s8.38-.86,17.33-4.13,19.33-1.77,19.44-1.75l4.49,0.91a7.59,7.59,0,0,1,.94.07c24.3,0,45.87,6.1,59.49,17.64,14.62,12.39,22,30.75,22,54.59A3.37,3.37,0,0,0,252.9,135.49Z"/><path class="cls-4" d="M136.49,263.31a3.73,3.73,0,0,0,.85-0.1h0.08c1.9-.17,8.57,4.32,12.15,7.73,2.66,2.53,7.5,5.42,15.72,5.42q1,0,2.08-.06a28.6,28.6,0,0,0,18.32-7.57c0.37-.32.79-0.72,1.27-1.18,2.58-2.48,6.49-6.22,13.49-6a3.92,3.92,0,0,0,.85-0.09h0.36a3.75,3.75,0,0,0,0-7.5,34,34,0,0,1-6.77-1.24,27.36,27.36,0,0,1-9.52-4.49c-2.2-1.46-4.27-2.84-6.89-3.36-6.22-1.25-10.08.38-12.43,2.45l-0.39-.26c-7.95-5.65-15.93-.1-19.77,2.58a123.65,123.65,0,0,1-11.17,6.58A3.75,3.75,0,0,0,136.49,263.31Zm44.3-.26a21.4,21.4,0,0,1-13.84,5.76c-7.18.4-10.73-1.9-12.2-3.3a60.77,60.77,0,0,0-5.53-4.53c1.88-.17,3.63-0.31,5.07-0.34a28.18,28.18,0,0,1,7.35,1.31,18.82,18.82,0,0,0,4.41.87l0.42,0,0.47,0c1.62-.13,1.91-0.19,7.84-1.69a34.27,34.27,0,0,1,8.71-.52c-0.66.59-1.23,1.13-1.71,1.59S181.07,262.81,180.79,263.06Zm-19.41-9.84,0.13,0.09c2.59,1.71,3.5,2.19,3.71,2.3a3.75,3.75,0,0,0,5-1.55c0.43-.78,1.56-2.86,6.85-1.81a13.94,13.94,0,0,1,4.2,2.25l1.58,1a36.91,36.91,0,0,0-9.29.69c-5.75,1.46-5.82,1.46-7,1.56l-0.49,0a15.78,15.78,0,0,1-3.12-.7,34.07,34.07,0,0,0-8.73-1.48c-1.24,0-2.63.12-4.1,0.24l0.12-.08C155.76,251.95,158.68,251.27,161.38,253.21Z"/></svg>