<svg id="Layer_1" data-name="Layer 1" xmlns="http://www.w3.org/2000/svg" viewBox="0 0 814 208"><defs><style>.cls-1{fill:#4a494a;}.cls-2{fill:#0d0d0d;}.cls-3{fill:#171617;}.cls-4{fill:#8e8e8e;}</style></defs><title>Illustrations (1)</title><polygon class="cls-1" points="105.75 178.43 111.67 149.31 117.59 178.43 105.75 178.43"/><path class="cls-2" d="M203.42,149.89l-42.77-42.77a2.57,2.57,0,0,0-3.54,0l-34.06,34.06a2.47,2.47,0,0,0-.63,1.11L116,135.9a2.57,2.57,0,0,0-3.54,0L91.91,156.49A2.5,2.5,0,0,0,95.44,160l18.82-18.82,19.88,19.88a2.5,2.5,0,0,0,3.54-3.54l-12.2-12.2a2.47,2.47,0,0,0,1.11-.63l32.29-32.29,41,41A2.5,2.5,0,0,0,203.42,149.89Z"/><path class="cls-2" d="M274.61,109.79a2.49,2.49,0,0,1-1.81-.78L236.91,71.22l-23,28.31A2.5,2.5,0,0,1,210,96.38l24.82-30.52a2.5,2.5,0,0,1,3.75-.14l37.84,39.85A2.5,2.5,0,0,1,274.61,109.79Z"/><path class="cls-3" d="M640.45,116a2.49,2.49,0,0,1-1.93-.91L602.45,71.34l-25.1,29.73a2.5,2.5,0,0,1-3.82-3.23l27-32a2.56,2.56,0,0,1,1.92-.89,2.5,2.5,0,0,1,1.91.91l38,46A2.5,2.5,0,0,1,640.45,116Z"/><path class="cls-3" d="M569.13,149.89l-42.77-42.77a2.5,2.5,0,0,0-3.54,0L487.9,142.05l-6.15-6.15a2.57,2.57,0,0,0-3.54,0l-20.59,20.59a2.5,2.5,0,1,0,3.54,3.54L480,141.2l19.88,19.88a2.5,2.5,0,1,0,3.54-3.54l-12-12,33.16-33.16,41,41A2.5,2.5,0,0,0,569.13,149.89Z"/><path class="cls-3" d="M807.59,187.18l-104-111.41a2.5,2.5,0,0,0-3.28-.33L689.2,83.36a2.47,2.47,0,0,0-.79,1L624.49,4.63a2.5,2.5,0,0,0-3.95.06l-68.42,91L515.19,49.51a2.5,2.5,0,0,0-1.94-.94,2.6,2.6,0,0,0-1.95.91L456.1,116.74l-10-7.47a2.5,2.5,0,0,0-3.42.41l-35.52,42.82-0.08-.1L337.89,75.8a2.5,2.5,0,0,0-3.34-.33l-11.9,8.79L258.78,4.63a2.4,2.4,0,0,0-2-.94,2.5,2.5,0,0,0-2,1L186.48,95.75l-37-46.24a2.5,2.5,0,0,0-1.92-.94,2.53,2.53,0,0,0-1.94.89l-56,66.73-9.27-6.93a2.5,2.5,0,0,0-3.42.41L11.49,188.61a2.5,2.5,0,0,0,3.85,3.19l64-77.11,24.23,18.11a2.5,2.5,0,1,0,3-4l-12.85-9.61L147.49,55l74.13,92.66a2.48,2.48,0,0,0,1.3.84l-50.22,50.22a2.5,2.5,0,1,0,3.54,3.54L241.52,137l58.36,58.36a2.5,2.5,0,0,0,3.54-3.54l-36.2-36.2,5.54-5.93,53,51.49a2.5,2.5,0,1,0,3.48-3.59l-54.85-53.27a2.5,2.5,0,0,0-3.57.09l-7.16,7.66-20.4-20.4a2.5,2.5,0,0,0-3.54,0L226,145.45a2.49,2.49,0,0,0-.46-0.9l-35.84-44.8a2.5,2.5,0,0,0,.27-0.29l67-89.19L374.74,157.18a2.5,2.5,0,1,0,3.9-3.13l-52.86-65.9,9.92-7.32,67.68,74.91a2.46,2.46,0,0,0,.67.51L377.2,188.61A2.5,2.5,0,1,0,381,191.8l64-77.11,24.23,18.11a2.5,2.5,0,0,0,3-4l-12.13-9.06L513.22,55l74.11,92.63a2.47,2.47,0,0,0,1.3.84L538.4,198.73a2.5,2.5,0,1,0,3.54,3.54L607.23,137l62.85,62.85a2.5,2.5,0,0,0,3.54-3.54l-40.68-40.68,0.07-.06,5.47-5.87,47.92,46.39a2.5,2.5,0,1,0,3.48-3.59l-49.75-48.16a2.5,2.5,0,0,0-3.57.09l-7.15,7.67L609,131.67a2.57,2.57,0,0,0-3.54,0l-13.78,13.78a2.49,2.49,0,0,0-.46-0.9L555.3,99.64a2.49,2.49,0,0,0,.42-0.43L622.6,10.27,740.45,157.18a2.5,2.5,0,1,0,3.9-3.13L691.22,87.82a2.49,2.49,0,0,0,.88-0.4l9.3-6.65L803.93,190.59A2.5,2.5,0,0,0,807.59,187.18Z"/><polygon class="cls-1" points="68.4 178.06 74.32 148.94 80.24 178.06 68.4 178.06"/><polygon class="cls-1" points="128.22 168.47 134.14 139.35 140.06 168.47 128.22 168.47"/><polygon class="cls-1" points="86.18 162.16 92.11 133.04 98.03 162.16 86.18 162.16"/><polygon class="cls-1" points="281.75 101.32 287.67 72.2 293.59 101.32 281.75 101.32"/><polygon class="cls-1" points="244.4 96.39 250.32 67.27 256.24 96.39 244.4 96.39"/><polygon class="cls-1" points="262.18 79.49 268.11 50.37 274.03 79.49 262.18 79.49"/><polygon class="cls-1" points="517.08 178.43 523 149.31 528.92 178.43 517.08 178.43"/><polygon class="cls-1" points="479.73 177.39 485.65 148.27 491.58 177.39 479.73 177.39"/><polygon class="cls-1" points="341.07 177.39 346.99 148.27 352.91 177.39 341.07 177.39"/><polygon class="cls-1" points="319.07 170.39 324.99 141.27 330.91 170.39 319.07 170.39"/><polygon class="cls-1" points="497.52 163.49 503.44 134.37 509.36 163.49 497.52 163.49"/><polygon class="cls-1" points="583.73 127.39 589.65 98.27 595.58 127.39 583.73 127.39"/><polygon class="cls-1" points="627.52 72.49 633.44 43.37 639.36 72.49 627.52 72.49"/><polygon class="cls-1" points="700.08 178.61 706 149.49 711.92 178.61 700.08 178.61"/><path class="cls-4" d="M687.92,143.06a2.49,2.49,0,0,1-1.77-.73l-17.22-17.22a2.5,2.5,0,1,1,3.54-3.54l17.22,17.22A2.5,2.5,0,0,1,687.92,143.06Z"/><path class="cls-4" d="M716,156.64a2.49,2.49,0,0,1-1.77-.73L665,106.68a2.5,2.5,0,0,1,3.54-3.54l49.23,49.23A2.5,2.5,0,0,1,716,156.64Z"/><path class="cls-4" d="M340.88,147.67a2.5,2.5,0,0,1-2-1l-36.86-47A2.5,2.5,0,0,1,306,96.58l36.86,47A2.5,2.5,0,0,1,340.88,147.67Z"/><path class="cls-4" d="M302.57,128.27a2.5,2.5,0,0,1-2-1l-11.64-15.52a2.5,2.5,0,1,1,4-3l11.64,15.52A2.5,2.5,0,0,1,302.57,128.27Z"/><path class="cls-4" d="M169.91,155.18a2.49,2.49,0,0,1-1.77-.73l-12.37-12.37a2.5,2.5,0,0,1,3.54-3.54l12.37,12.37A2.5,2.5,0,0,1,169.91,155.18Z"/><path class="cls-4" d="M588.3,173a2.5,2.5,0,0,1-1.61-4.42l15-12.61a2.5,2.5,0,0,1,3.21,3.83l-15,12.61A2.49,2.49,0,0,1,588.3,173Z"/><polygon class="cls-1" points="682.52 161.49 688.44 132.37 694.36 161.49 682.52 161.49"/></svg>