<svg id="Layer_1" data-name="Layer 1" xmlns="http://www.w3.org/2000/svg" viewBox="0 0 470 177"><defs><style>.cls-1{fill:#231f20;}</style></defs><title>Illustrations (1)</title><path class="cls-1" d="M131.42,2.54H145v4h-4.6v24H136v-24h-4.6v-4Z"/><path class="cls-1" d="M153.34,30.54h-4.4v-28h4.4v12h5v-12h4.48v28h-4.48v-12h-5v12Z"/><path class="cls-1" d="M172.42,14.34h6v4h-6v8.2H180v4H168v-28h12v4h-7.6v7.8Z"/><path class="cls-1" d="M202.14,30.54a8.6,8.6,0,0,1-.4-3.44V22.7c0-2.6-.88-3.56-2.88-3.56h-1.52v11.4h-4.4v-28h6.64c4.56,0,6.52,2.12,6.52,6.44v2.2c0,2.88-.92,4.76-2.88,5.68,2.2,0.92,2.92,3,2.92,6v4.32a8.24,8.24,0,0,0,.48,3.4h-4.48Zm-4.8-24v8.6h1.72c1.64,0,2.64-.72,2.64-3V9.42c0-2-.68-2.88-2.24-2.88h-2.12Z"/><path class="cls-1" d="M215.42,14.34h6v4h-6v8.2H223v4H211v-28h12v4h-7.6v7.8Z"/><path class="cls-1" d="M226.46,2.54h13.6v4h-4.6v24h-4.4v-24h-4.6v-4Z"/><path class="cls-1" d="M248.18,2.54v21.6c0,2,.88,2.72,2.28,2.72s2.28-.72,2.28-2.72V2.54h4.16V23.86c0,4.48-2.24,7-6.56,7s-6.56-2.56-6.56-7V2.54h4.4Z"/><path class="cls-1" d="M271.1,30.54a8.6,8.6,0,0,1-.4-3.44V22.7c0-2.6-.88-3.56-2.88-3.56H266.3v11.4h-4.4v-28h6.64c4.56,0,6.52,2.12,6.52,6.44v2.2c0,2.88-.92,4.76-2.88,5.68,2.2,0.92,2.92,3,2.92,6v4.32a8.24,8.24,0,0,0,.48,3.4H271.1Zm-4.8-24v8.6H268c1.64,0,2.64-.72,2.64-3V9.42c0-2-.68-2.88-2.24-2.88H266.3Z"/><path class="cls-1" d="M283.9,10.26V30.54h-4v-28h5.52L290,19.3V2.54h3.92v28h-4.52Z"/><path class="cls-1" d="M306.9,9.26c0-4.48,2.36-7,6.68-7s6.68,2.56,6.68,7V23.82c0,4.48-2.36,7-6.68,7s-6.68-2.56-6.68-7V9.26Zm4.4,14.84c0,2,.88,2.76,2.28,2.76s2.28-.76,2.28-2.76V9c0-2-.88-2.76-2.28-2.76S311.3,7,311.3,9V24.1Z"/><path class="cls-1" d="M329.5,15h5.68v4H329.5V30.54h-4.4v-28h11.64v4H329.5V15Z"/><path class="cls-1" d="M20.76,171.46A12.76,12.76,0,0,1,8.08,158.6V122.54H20.21v37.86H37.79V63.12H23.11V52.07H51V158.6a12.91,12.91,0,0,1-12.86,12.86H20.76Z"/><path class="cls-1" d="M78,172.55a12.91,12.91,0,0,1-12.86-12.86V63.84A12.91,12.91,0,0,1,78,51H97.57a12.91,12.91,0,0,1,12.86,12.86v95.84a12.91,12.91,0,0,1-12.86,12.86H78ZM97.21,62H78.55v99.46H97.21V62Z"/><path class="cls-1" d="M157.72,171.46V63.3H138.15V171.46H124.92V52.07h13.23v6.7c1.81-4.53,4.71-6.7,10.51-6.7h9.78A12.91,12.91,0,0,1,171.3,64.93V171.46H157.72Z"/><path class="cls-1" d="M227.1,172.55a12.91,12.91,0,0,1-12.86-12.86V142.83h13.23v18.66H243V137L216.77,91.38a18.15,18.15,0,0,1-2.54-8.51v-19A12.91,12.91,0,0,1,227.1,51h16.31a12.8,12.8,0,0,1,12.86,12.86V80.69H243V62H227.46v22.1l26.45,45.65a16.66,16.66,0,0,1,2.36,8.33v21.56a12.8,12.8,0,0,1-12.86,12.86H227.1Z"/><path class="cls-1" d="M302.1,171.46V63.3H282.54V171.46H269.31V52.07h13.23v6.7c1.81-4.53,4.71-6.7,10.51-6.7h9.78a12.91,12.91,0,0,1,12.86,12.86V171.46H302.1Z"/><path class="cls-1" d="M342.69,172.55a12.91,12.91,0,0,1-12.86-12.86V63.84A12.91,12.91,0,0,1,342.69,51h19.57a12.91,12.91,0,0,1,12.86,12.86v95.84a12.91,12.91,0,0,1-12.86,12.86H342.69ZM361.89,62H343.23v99.46h18.66V62Z"/><path class="cls-1" d="M433.63,171.46c-5.25,0-8.15-5.62-8.88-8.51-0.91,3.08-3.62,8.51-9.42,8.51H402.11a12.91,12.91,0,0,1-12.86-12.86V52.07h13.59V160.23h15.4V52.07h13V160.23h15.4V52.07h13.41V158.6a12.76,12.76,0,0,1-12.68,12.86H433.63Z"/></svg>