<svg id="Layer_1" data-name="Layer 1" xmlns="http://www.w3.org/2000/svg" viewBox="0 0 294 357"><defs><style>.cls-1{fill:#fff;opacity:0.4;}.cls-2{fill:#231f20;}.cls-3{fill:#70aadc;}</style></defs><title>Illustrations (1)</title><path class="cls-1" d="M169.58,56.38c-42.84,0-80.38,10.24-83.77,54.28,0,0,.41,15.65-3.3,24.3S70.76,160.64,72.41,176.7,73,205.57,82.87,227.4s18.18,41,29.71,53.77,31.58,25.28,54.65,25.28"/><path class="cls-2" d="M150.41,247.4a2,2,0,0,0,2-1.76l0.85-6.42a2,2,0,0,0-4-.53l-0.85,6.42a2,2,0,0,0,1.74,2.27Z"/><path class="cls-2" d="M156.38,245a2,2,0,0,0,2-1.9l0.4-6.32a2,2,0,1,0-4-.26l-0.4,6.32a2,2,0,0,0,1.89,2.15h0.13Z"/><path class="cls-2" d="M154.74,154a3.38,3.38,0,0,0,2.59-5.54c-3.79-4.52-14.31-7.11-28.15-6.87-9.46.15-12.51,0.1-15.46,0-1.39,0-2.73,0-4.67,0-4.51,0-8.77-2-9.74-2.91a3.38,3.38,0,0,0-6.23,2.57c1.35,4,9.69,7.08,16,7.08,1.89,0,3.19,0,4.55,0,2.87,0.05,6.12.11,15.69,0,13.83-.22,21.27,2.54,22.87,4.45A3.37,3.37,0,0,0,154.74,154Z"/><path class="cls-2" d="M151.92,167.7A24.47,24.47,0,0,0,128,152.17c-16.55.7-26.36,6.63-26.77,6.88a2.7,2.7,0,0,0-.48,4.22A42.83,42.83,0,0,0,129.49,174a47.26,47.26,0,0,0,4.93-.26c3.88-.41,14.95-2.33,15.42-2.41A2.7,2.7,0,0,0,151.92,167.7Zm-23.53-7a2.82,2.82,0,1,1-2.83,2.82A2.83,2.83,0,0,1,128.39,160.72Zm-8-2.35a9.53,9.53,0,0,0-.78,8.88,39.26,39.26,0,0,1-11.84-5.36A57.56,57.56,0,0,1,120.34,158.37Zm16.55,9.55a9.51,9.51,0,0,0,0-8.83,19.3,19.3,0,0,1,8.46,7.48C142.82,167,139.5,167.54,136.89,167.92Z"/><path class="cls-2" d="M68.71,352.67A3.37,3.37,0,0,0,72,349.9a9.36,9.36,0,0,1,.9-2c1.48-2.84,3.72-7.14.84-14.28-0.59-1.46-1.39-3.09-2.24-4.81-4-8.21-9.6-19.45-2.89-32.19,8.27-15.7,7.34-19.1,1.59-32.56-0.83-1.95-1.77-4.15-2.8-6.68-5-12.26-1.45-16.26,2-20.14a17.87,17.87,0,0,0,3.46-5,3.37,3.37,0,1,0-6.26-2.52,13.1,13.1,0,0,1-2.27,3c-3.86,4.39-9.7,11-3.15,27.14,1,2.58,2,4.81,2.85,6.8,5.17,12.09,5.71,13.35-1.36,26.76-8.31,15.78-1.35,29.89,2.81,38.32,0.83,1.68,1.54,3.13,2,4.35,1.72,4.25.66,6.28-.57,8.63a13.86,13.86,0,0,0-1.55,3.94A3.38,3.38,0,0,0,68.71,352.67Z"/><path class="cls-2" d="M60.64,218.42a3.38,3.38,0,0,0,2.3-5.85c-4.19-3.89-4.78-16.15.7-26.73,4.24-8.19,3.07-12.59,2.13-16.13-0.49-1.85-.81-3.08-0.3-4.84A3.37,3.37,0,0,0,59,163a14.47,14.47,0,0,0,.25,8.47c0.77,2.91,1.44,5.42-1.6,11.3-6.58,12.71-6.26,28.32.7,34.78A3.36,3.36,0,0,0,60.64,218.42Z"/><path class="cls-2" d="M138,253.1a2,2,0,0,0,2-1.74l0.89-6.2a2,2,0,0,0-4-.57l-0.89,6.2a2,2,0,0,0,1.72,2.29Z"/><path class="cls-2" d="M144.5,249.37a2,2,0,0,0,2-1.77l0.74-5.79a2,2,0,1,0-4-.51l-0.74,5.79a2,2,0,0,0,1.75,2.26Z"/><path class="cls-2" d="M132.36,255.15a2,2,0,0,0,2-1.92l0.33-6.15a2,2,0,0,0-4-.22L130.34,253a2,2,0,0,0,1.91,2.13h0.11Z"/><path class="cls-2" d="M126.44,258.72a2,2,0,0,0,2-1.92l0.33-6.31a2,2,0,1,0-4-.21l-0.33,6.31a2,2,0,0,0,1.92,2.13h0.11Z"/><path class="cls-2" d="M120.7,261.95a2,2,0,0,0,2-1.87l0.45-6.12a2,2,0,1,0-4-.3l-0.45,6.12a2,2,0,0,0,1.87,2.17h0.15Z"/><path class="cls-2" d="M162.64,245.61a2,2,0,0,0,2-1.9l0.4-6.32a2,2,0,0,0-4-.26l-0.4,6.32a2,2,0,0,0,1.89,2.15h0.13Z"/><circle class="cls-3" cx="204.81" cy="163.54" r="8.9"/><path class="cls-2" d="M209.26,92.75a3.38,3.38,0,0,0,3.15-4.58l-5.32-13.93a3.37,3.37,0,0,0-6.18-.29L194,87.87a3.37,3.37,0,1,0,6,3l3.47-7,2.56,6.72A3.38,3.38,0,0,0,209.26,92.75Z"/><path class="cls-2" d="M186.21,113.74a2.69,2.69,0,0,0,.66-0.08c4-1,7.52-3.67,10-6.14l0.35,3.14a2.7,2.7,0,0,0,5.37-.59l-1-9.35a2.7,2.7,0,0,0-4.93-1.2c0,0.07-5,7.39-11.1,8.91A2.7,2.7,0,0,0,186.21,113.74Z"/><path class="cls-2" d="M230,109h0.1a2.7,2.7,0,0,0,2.6-2.8l-0.39-10.29a2.7,2.7,0,0,0-5-1.29c0,0.06-3.7,6-8.89,8.33a2.7,2.7,0,0,0,2.19,4.93,23,23,0,0,0,6.58-4.63l0.12,3.15A2.7,2.7,0,0,0,230,109Z"/><path class="cls-2" d="M192.86,218.66a3.38,3.38,0,0,0-4.55-1.43,46.75,46.75,0,0,0-7.81,5.88,37,37,0,0,1-4.11,3.28c-1.67.91-5.52,0.69-8.29,0.3h0l-1.23-.19c-4.18-3.13-8.8-2.08-12.23-1.3s-4.56.86-5.43-.07a6.37,6.37,0,0,1-1.31-6c0.76-2.54,3-4.31,6.46-5.14,7.19-1.71,10.34-11.18,9.62-29a193.7,193.7,0,0,0-2.61-23.72,3.38,3.38,0,0,0-6.64,1.21c3.73,20.58,3.84,43.53-1.93,44.9-7.92,1.88-10.52,6.93-11.37,9.77a13.14,13.14,0,0,0,2.87,12.6c3.66,3.87,8.38,2.79,11.83,2s5.33-1.12,7,.4a3.38,3.38,0,0,0,1.57.79c0.07,0,.93.19,2.14,0.37h0a35.19,35.19,0,0,0,4.92.55,16.92,16.92,0,0,0,7.82-1.57,36,36,0,0,0,5.3-4.11,43,43,0,0,1,6.52-5A3.38,3.38,0,0,0,192.86,218.66Z"/><path class="cls-2" d="M197.45,229.67a3.37,3.37,0,0,0,2.7-1.35c3.86-5.15,8.55-15.56,1.6-21.9-6.42-5.85-9.25-6.24-14.52-4.41a3.38,3.38,0,1,0,2.22,6.38c2.85-1,3.22-1.12,7.75,3,4.16,3.79-2.38,12.77-2.45,12.86A3.38,3.38,0,0,0,197.45,229.67Z"/><path class="cls-2" d="M237.45,164.37a3.37,3.37,0,0,0,2.51-1.12c3-3.32.24-15-4.08-21.66-5.86-9-14.94-12-25.57-8.56a3.37,3.37,0,1,0,2.1,6.42c6.13-2,11-1.24,14.92,2.35,6,5.51,7.45,15.4,7.16,17.6A3.38,3.38,0,0,0,237.45,164.37Z"/><path class="cls-2" d="M230.36,165.26c-2.18-6.53-10-18-23.73-14.73A109.7,109.7,0,0,0,180,161.24a11.82,11.82,0,0,1-2.14-7.33c0.28-2.65,2-5.09,5.09-7.25a3.37,3.37,0,1,0-3.87-5.53c-4.79,3.35-7.46,7.43-7.94,12.13-0.8,7.89,5.14,14.28,5.4,14.55a3.29,3.29,0,0,0,3.39.91c3.36,1.85,12,6,20.87,6a24.89,24.89,0,0,0,5.31-.55c4.94-1.08,9.1-1.84,12.45-2.45,4.78-.87,7.93-1.45,10-2.32A3.38,3.38,0,0,0,230.36,165.26Zm-13-.15c-3.4.62-7.63,1.4-12.68,2.5-5.89,1.29-12.58-.76-17.15-2.71a99.27,99.27,0,0,1,20.7-7.8c7.63-1.81,12.09,3.38,14.23,7C221,164.44,219.24,164.76,217.31,165.11Z"/><path class="cls-2" d="M173.49,132.7a57.4,57.4,0,0,0,10.13-1.24,76.62,76.62,0,0,0,12.42-4,99.61,99.61,0,0,1,18.8-5.68,3.38,3.38,0,1,0-1.15-6.65,105.12,105.12,0,0,0-20.05,6,71.07,71.07,0,0,1-11.28,3.66c-6.86,1.3-9.17,1.13-9.42,1.11a3.37,3.37,0,0,0-1.19,6.64A9.18,9.18,0,0,0,173.49,132.7Z"/><path class="cls-2" d="M207.53,244a3.38,3.38,0,0,0,3.31-2.73h0c0-.19,3.77-18.71,15.86-28.13,14-10.88,17.44-21.92,17.58-22.38a3.37,3.37,0,0,0-6.46-2c0,0.08-3.13,9.55-15.27,19-14.11,11-18.17,31.31-18.34,32.17a3.38,3.38,0,0,0,2.67,4A3.47,3.47,0,0,0,207.53,244Z"/><path class="cls-2" d="M218.33,250.77a3.36,3.36,0,0,0,2.39-1c2.52-2.52,4.72-7,7.13-14.4,1.92-5.95,10.43-11.1,14-12.53a3.38,3.38,0,0,0-2.51-6.27c-4,1.6-15,7.72-17.93,16.72-2,6.11-3.82,10-5.48,11.7A3.37,3.37,0,0,0,218.33,250.77Z"/><path class="cls-2" d="M290.73,130.66a3.37,3.37,0,0,0-3.6-.67l-29.2,11.92,0.12-5.84h0c0-1,.36-25.36-1.34-39.93-1.67-14.37-4-32.6-4.06-32.78a3.38,3.38,0,0,0-6.57-.58c-2.35,7.46-3.54,8.42-3.75,8.53a7.22,7.22,0,0,1-1.38,0l-0.28,0c-0.88-11.43-3.1-23.32-8.42-25.52a3.37,3.37,0,0,0-4.65,3.41,44.36,44.36,0,0,1-1,12.84,84.29,84.29,0,0,0-17.38-5l-1-4.36a2.7,2.7,0,0,0-4.94-.83L201.4,55c-10.5-2.39-26.27-3.35-33.31-3.27V51.52c-5.88.3-18,1.24-25.67,4.05-8.16,3-12.16,3.39-15.7,3.75-4.07.42-7.58,0.77-14.63,4.73l-0.59.33C94.86,73.74,85.69,78.89,83.7,99.9c0,0.1,0,.2,0,0.29-0.07,9.63-1.32,26.57-4.34,31A3.38,3.38,0,0,0,84.93,135c5.07-7.47,5.47-31.23,5.5-34.61C92.11,83,98.31,79.55,114.81,70.28l0.59-.33c5.82-3.27,8.28-3.52,12-3.9s8.38-.86,17.33-4.13c6.33-2.32,16.6-3.23,22.45-3.58v0.13a175.28,175.28,0,0,1,30.46,2.62l-0.11.18a2.7,2.7,0,0,0,4.6,2.82l2.31-3.77,1.17,5.3a2.7,2.7,0,0,0,5.27-1.17l-0.07-.32a85.37,85.37,0,0,1,13.32,4.16A11.43,11.43,0,0,1,221.92,71a3.38,3.38,0,1,0,4.39,5.13c3.58-3.06,5.62-7.55,6.76-12a165.51,165.51,0,0,1,1.41,20.48,3.38,3.38,0,0,0,3.38,3.35h0a3.38,3.38,0,0,0,3.35-3.4c0-2-.06-4.17-0.15-6.48,2.7,0.09,4.68-.5,6.36-2.29,0.79,6.29,1.77,14.19,2.58,21.17,1.64,14.12,1.3,38.8,1.29,39h0l-0.23,10.93a3.37,3.37,0,0,0,4.65,3.2l26.9-11c-3.83,10.19-11.33,29-18.55,40.31-1.37,2.15-4.76,3.86-7.23,5.11a16.85,16.85,0,0,0-4.12,2.53c-7.62,7.46-6.28,22.4-5.31,33.3,0.2,2.25.39,4.38,0.46,6,0.44,11.44-.88,20.54-22.38,42.09-4.6,4.61-8.53,9.06-12,13-13.05,14.78-21.06,23.8-46.31,23.09v0l-2.12,0a59.65,59.65,0,0,1-6.07-.31l1.65-2.54a2,2,0,1,0-3.4-2.21l-2.68,4.13q-1-.18-2.06-0.4l2.66-4.1a2,2,0,0,0-3.4-2.21l-3.34,5.15s0,0.09-.07.13c-1-.28-2-0.59-3-0.92l2.48-3.82a2,2,0,1,0-3.4-2.21l-3,4.59q-1-.39-1.91-0.8l2.7-4.16a2,2,0,1,0-3.4-2.21l-3,4.62q-1.28-.65-2.53-1.34l2.37-3.65a2,2,0,0,0-3.4-2.21l-2.47,3.8q-1.3-.82-2.55-1.67l2.26-3.49a2,2,0,0,0-3.4-2.21L124,289.85q-1-.77-2-1.57l2.26-3.49a2,2,0,1,0-3.4-2.21l-2,3c-0.5-.45-1-0.91-1.47-1.36l2.49-3.83a2,2,0,0,0-3.4-2.21l-2,3.11-1.05-1.14c-0.28-.31-0.55-0.63-0.82-0.95l2.41-3.7a2,2,0,0,0-3.4-2.21L110,275.91q-0.91-1.23-1.78-2.54l2.57-4a2,2,0,0,0-3.4-2.21l-1.55,2.39q-1.14-1.9-2.24-3.92l2.42-3.73a2,2,0,0,0-3.4-2.21l-1.19,1.84c-0.57-1.11-1.14-2.23-1.7-3.39l2.06-3.18a2,2,0,0,0-3.4-2.21l-0.74,1.13-2.21-4.63c-3.42-7.18-7-14.6-11.24-22.27-9.08-16.23-7.29-36.47-5.85-52.74,0.67-7.52,1.24-14,.71-19.23a3.38,3.38,0,0,0-6.72.69c0.47,4.57-.08,10.77-0.72,17.95-1.52,17.19-3.42,38.59,6.68,56.63,4.18,7.47,7.67,14.79,11,21.87,5.87,12.34,11.42,24,19.11,32.52,11.51,12.74,32.72,26.52,57.24,26.56l1.49,0h0c0.91,0,1.82,0,2.69,0,26.24,0,35.76-10.79,48.68-25.42,3.56-4,7.25-8.21,11.7-12.68,21.42-21.47,24.91-32.3,24.35-47.12-0.07-1.83-.27-4-0.48-6.38-0.81-9-2-22.66,3.31-27.88a24,24,0,0,1,2.44-1.33c3.17-1.6,7.52-3.8,9.88-7.51,10.67-16.73,21.38-47.54,21.83-48.84A3.37,3.37,0,0,0,290.73,130.66Z"/><path class="cls-2" d="M205.47,190.57a46.22,46.22,0,0,0,9.08-1,3.37,3.37,0,0,0-1.32-6.62c-12.55,2.5-18.91-1.21-24-4.2-1.24-.72-2.4-1.4-3.58-2a3.37,3.37,0,0,0-2.87,6.11c0.91,0.43,1.9,1,3,1.68C190,187.1,196,190.57,205.47,190.57Z"/><path class="cls-2" d="M14.28,337.86a3.37,3.37,0,0,1-2.85-1.56c-0.56-.87-13.44-21.67-0.29-54.63,8.34-20.9,2.77-38.39-1.71-52.44-2-6.41-3.8-11.94-3.8-16.71A86,86,0,0,0,4.84,203c-1.65-14-3.9-33.23,10.66-61.42,11.62-22.49,10.34-30.8,8.57-42.3a104.49,104.49,0,0,1-1.56-21.73C23.59,49.06,39.56,37.19,53.35,30c10.28-5.34,20.26-5.66,28.29-5.92,9.38-.3,14.4-0.69,17.24-5.66,7.93-13.85,58.68-16.21,68-16.38A3.38,3.38,0,0,1,167,8.83c-21.54.4-57.81,5.24-62.25,13-4.85,8.47-13.61,8.75-22.88,9.05-7.72.25-16.47,0.53-25.39,5.16-13.58,7-26.27,17-27.21,41.75a98.75,98.75,0,0,0,1.49,20.45c1.89,12.28,3.39,22-9.24,46.42C7.88,171,10,189,11.54,202.19a91.83,91.83,0,0,1,.84,10.33c0,3.72,1.61,8.79,3.49,14.67,4.55,14.28,10.78,33.84,1.55,57C5.54,314,17,332.48,17.12,332.67A3.38,3.38,0,0,1,14.28,337.86Z"/><path class="cls-2" d="M39.17,342.15a3.38,3.38,0,0,1-3.31-4c1.16-5.8-1.08-12.23-3.45-19C29.55,310.86,26.3,301.54,29,292c0.47-1.63,1-3.41,1.55-5.3,4.58-15.52,12.25-41.5,6.11-54.25-8.18-17-11.92-42-.81-56.83,7.72-10.29,13.29-27.13,16.56-50.07,0.76-5.34-.69-9.58-2.36-14.49-3-8.71-6.34-18.58.85-36.74C63.44,42.7,96.56,41.6,109,41.18c10.46-.35,14.57-2.66,19.78-5.58a67.65,67.65,0,0,1,10.73-5.12c13.53-4.92,27.68-.67,28.27-0.49a3.37,3.37,0,0,1-2,6.45h0c-0.12,0-12.63-3.75-24,.38a61.09,61.09,0,0,0-9.73,4.66c-5.53,3.11-10.75,6-22.86,6.44-19.16.64-42.4,4.49-52,28.84-6.27,15.85-3.46,24.1-.73,32.08,1.79,5.25,3.65,10.69,2.66,17.63-3.44,24.07-9.44,42-17.85,53.17-9,12-6.07,34.16,1.49,49.85,7.27,15.09-.55,41.57-5.72,59.09-0.55,1.87-1.07,3.63-1.53,5.24-2.15,7.52.48,15.06,3.25,23,2.56,7.36,5.21,15,3.69,22.58A3.38,3.38,0,0,1,39.17,342.15Z"/><path class="cls-2" d="M205,257.11a6,6,0,0,0-3.56-3.12c-3.15-.29-7.66-2.32-11.64-4.11-5.09-2.3-9.12-4.11-12.3-3.62a28,28,0,0,0-6.47,2.05,23.74,23.74,0,0,1-3,1.11c-8.62-5.3-19.45,1.43-22.65,3.93a23.68,23.68,0,0,1-8.16,4.23,3.37,3.37,0,0,0,.49,6.36c1.07,0.42,7.4,3,11.2,6.82,5.11,5.09,12.69,6.83,18.44,6.83,0.26,0,.49,0,0.74,0h0c0.48,0,1,0,1.62,0,4.24,0,11.39-.68,17-4.65a61.62,61.62,0,0,0,7.71-6.38,18.4,18.4,0,0,1,8.47-5.16A3.38,3.38,0,0,0,205,257.11ZM165,254.71c1.16,0.86,1.94,1.39,3.11,1.21h0a16,16,0,0,0,5.58-1.37,22.58,22.58,0,0,1,4.92-1.62c1.27-.13,5.62,1.81,8.5,3.1l0.92,0.41a95.31,95.31,0,0,0-12.25,1.31c-1.66.27-3.09,0.49-4.38,0.6-4.59.38-10.09-.3-14.1-0.79l-1.12-.14a25.93,25.93,0,0,0-5,.06C155.68,254.4,161.47,252.13,165,254.71Zm17.9,12.71c-5.68,4-13.69,3.6-15.22,3.46-4.7.18-10.3-1.26-14-4.9a31.46,31.46,0,0,0-5.3-4.14,34.23,34.23,0,0,1,7.27-.43l1.11,0.14c4.19,0.52,9.92,1.22,14.92.81,1.44-.12,2.94-0.36,4.68-0.64a88.36,88.36,0,0,1,14.81-1.33c-0.45.41-.9,0.84-1.37,1.28A54.9,54.9,0,0,1,182.86,267.42Z"/></svg>