<svg id="Layer_1" data-name="Layer 1" xmlns="http://www.w3.org/2000/svg" viewBox="0 0 309.86 401"><defs><style>.cls-1{fill:#231f20;}.cls-2{fill:#d23927;}.cls-3{fill:#fff;}.cls-4{opacity:0.4;}</style></defs><title>Illustrations (1)</title><path class="cls-1" d="M204.51,219.42s-1.41-26.08,13.63-26.08h15S234.59,222,204.51,219.42Z"/><path class="cls-2" d="M217.8,211.22a8.28,8.28,0,0,0,1.58-.15A8,8,0,0,0,223.92,198l-3.59,3a3.33,3.33,0,1,1-5.87,2.14h-4.7A8,8,0,0,0,217.8,211.22Z"/><circle class="cls-3" cx="220.45" cy="200.43" r="2.24"/><path class="cls-1" d="M194.88,233.05a2.82,2.82,0,0,0,2.82-2.82v-32.9c0-10.51,3.88-14.8,13.39-14.8h23a2.82,2.82,0,0,0,0-5.64h-23c-12.81,0-19,6.69-19,20.44v32.9A2.82,2.82,0,0,0,194.88,233.05Z"/><path class="cls-1" d="M183.46,195a2.82,2.82,0,0,0,2.82-2.82c0-14.88,1.85-32,16.29-32a2.82,2.82,0,1,0,0-5.64c-21.93,0-21.93,28.3-21.93,37.6A2.82,2.82,0,0,0,183.46,195Z"/><g class="cls-4"><path class="cls-3" d="M166.78,99.49c-42.84,0-78.46,10.5-81.85,54.53,0,0,.41,15.65-3.3,24.3S69.89,204,71.53,220.06s0.58,28.87,10.46,50.7,18.18,41,29.71,53.77S142.34,350,165.41,350"/></g><path d="M244,266.46a2.82,2.82,0,0,0-2.82-2.82c-16.67,0-26.32,5.79-26.32,35.4,0,27.56-10.42,39.73-27.14,44.53l-7.15-7.15a4.08,4.08,0,0,0-2.88-1.2h-12v10.43a3.34,3.34,0,0,0-1-.17,61,61,0,0,1-7.11-.43l1.62-2.5a2,2,0,0,0-3.4-2.21l-2.62,4q-1-.19-2-0.42l2.58-4a2,2,0,0,0-3.4-2.21L147,342.91q-1.5-.44-3-0.94l2.37-3.65a2,2,0,0,0-3.4-2.21l-2.86,4.4q-1-.39-1.9-0.81l2.58-4a2,2,0,0,0-3.4-2.2L134.57,338q-1.28-.65-2.52-1.34l2.24-3.45a2,2,0,0,0-3.4-2.21l-2.34,3.6q-1.31-.81-2.56-1.66l2.14-3.3a2,2,0,0,0-3.4-2.21l-2,3.14c-0.68-.51-1.35-1-2-1.56l2.15-3.31a2,2,0,0,0-3.4-2.21l-1.86,2.86q-0.75-.68-1.47-1.36l2.37-3.65a2,2,0,0,0-3.4-2.21L113.21,322l-0.64-.7q-0.62-.69-1.22-1.41l2.26-3.49a2,2,0,0,0-3.4-2.2l-1.5,2.3c-0.6-.83-1.18-1.69-1.76-2.57l2.38-3.67a2,2,0,0,0-3.4-2.2l-1.35,2.07q-1.13-1.92-2.22-3.94l2.2-3.39a2,2,0,0,0-3.4-2.21l-1,1.48q-0.85-1.67-1.7-3.4l1.82-2.81a2,2,0,0,0-3.4-2.21l-0.49.76-1.92-4c-3.42-7.18-7-14.6-11.24-22.26-9.08-16.23-7.29-36.47-5.85-52.73,0.67-7.52,1.24-14,.71-19.24a3.37,3.37,0,1,0-6.71.69c0.47,4.57-.08,10.77-0.72,18-1.52,17.19-3.42,38.58,6.68,56.63,4.18,7.47,7.66,14.79,11,21.87,5.88,12.35,11.42,24,19.12,32.52,11.52,12.76,32.59,26.39,57.15,26.39h0c18-.15,31.29-3.69,40-10.53,10.68-8.41,15.87-22.37,15.87-42.66,0-27.69,8.19-29.76,20.68-29.76A2.82,2.82,0,0,0,244,266.46Z"/><path d="M148.35,279.81l-0.85,6.42a2,2,0,0,0,1.74,2.27l0.27,0a2,2,0,0,0,2-1.76l0.85-6.42A2,2,0,1,0,148.35,279.81Z"/><path d="M153.85,277.64l-0.4,6.32a2,2,0,0,0,1.89,2.15h0.13a2,2,0,0,0,2-1.9l0.4-6.32A2,2,0,1,0,153.85,277.64Z"/><path d="M128.27,182.67c-9.46.15-12.51,0.1-15.46,0-1.39,0-2.73,0-4.67,0-4.51,0-8.77-2-9.74-2.91a3.38,3.38,0,0,0-6.23,2.57c1.35,4,9.69,7.08,16,7.08,1.89,0,3.19,0,4.55,0,2.86,0.05,6.11.11,15.68,0,13.87-.23,21.27,2.54,22.87,4.45a3.38,3.38,0,0,0,5.17-4.33C152.63,185,142.11,182.46,128.27,182.67Z"/><path d="M150.81,211.1a2.69,2.69,0,0,0,.2-2.27c-2-5.64-9.65-16.17-23.92-15.54-16.54.7-26.36,6.63-26.77,6.88a2.7,2.7,0,0,0-.48,4.22,42.83,42.83,0,0,0,28.75,10.69,47.23,47.23,0,0,0,4.93-.26c3.88-.41,15-2.33,15.42-2.41A2.7,2.7,0,0,0,150.81,211.1Zm-23.33-9.26a2.82,2.82,0,1,1-2.82,2.82A2.83,2.83,0,0,1,127.48,201.85Zm-8-2.35a9.53,9.53,0,0,0-.78,8.88A39.25,39.25,0,0,1,106.81,203,57.54,57.54,0,0,1,119.44,199.5ZM136,209.05a9.5,9.5,0,0,0,0-8.83,19.29,19.29,0,0,1,8.46,7.48C141.92,208.12,138.6,208.67,136,209.05Z"/><path d="M153.46,255.09c14.74-3.51,9.1-41.2,7-52.68a3.38,3.38,0,1,0-6.64,1.2c3.73,20.58,3.84,43.53-1.93,44.9-7.92,1.88-10.52,6.93-11.37,9.78a13.14,13.14,0,0,0,2.87,12.6c3.66,3.87,8.38,2.8,11.83,2s5.33-1.12,7,.4a3.38,3.38,0,1,0,4.49-5c-4.37-3.9-9.37-2.77-13-1.94-3.37.76-4.56,0.86-5.43-.07a6.37,6.37,0,0,1-1.31-6C147.75,257.69,150,255.91,153.46,255.09Z"/><path d="M70.62,369.9c-4.05-8.21-9.6-19.45-2.89-32.19,8.27-15.7,7.34-19.1,1.59-32.56-0.83-1.95-1.77-4.15-2.8-6.68-5-12.26-1.45-16.26,2-20.14a17.84,17.84,0,0,0,3.46-5,3.37,3.37,0,1,0-6.26-2.52,13.11,13.11,0,0,1-2.27,3c-3.86,4.39-9.7,11-3.15,27.14,1,2.58,2,4.81,2.85,6.8,5.17,12.09,5.71,13.35-1.35,26.76-8.31,15.78-1.35,29.89,2.81,38.32,0.83,1.68,1.54,3.13,2,4.35,1.71,4.25.66,6.28-.57,8.63a13.86,13.86,0,0,0-1.55,3.94A3.37,3.37,0,1,0,71.12,391a9.31,9.31,0,0,1,.9-2c1.48-2.84,3.72-7.14.84-14.28C72.28,373.25,71.47,371.62,70.62,369.9Z"/><path d="M37.34,329.7c5.17-17.52,13-44,5.72-59.09-7.55-15.69-10.49-37.85-1.49-49.85C50,209.56,56,191.67,59.42,167.6c1-6.94-.86-12.38-2.66-17.63-2.72-8-5.54-16.23.73-32.08,9.64-24.35,32.87-28.2,52-28.84,12.11-.4,17.33-3.34,22.86-6.44A61.06,61.06,0,0,1,142.12,78c11.35-4.13,23.86-.42,24-0.38a3.37,3.37,0,0,0,2-6.45c-0.6-.18-14.75-4.43-28.27.49a67.64,67.64,0,0,0-10.73,5.12c-5.2,2.92-9.31,5.23-19.78,5.58-12.47.42-45.58,1.52-58.08,33.1-7.19,18.16-3.82,28-.85,36.74,1.68,4.91,3.13,9.16,2.36,14.49-3.28,22.94-8.85,39.78-16.56,50.07-11.11,14.82-7.37,39.84.81,56.83,6.14,12.75-1.53,38.73-6.11,54.25-0.56,1.89-1.08,3.67-1.55,5.3-2.74,9.58.51,18.89,3.37,27.11,2.37,6.81,4.61,13.24,3.45,19a3.38,3.38,0,1,0,6.62,1.32c1.52-7.61-1.13-15.22-3.69-22.58-2.78-8-5.4-15.51-3.25-23C36.27,333.33,36.79,331.58,37.34,329.7Z"/><path d="M59.74,259.55A3.37,3.37,0,0,0,62,253.7c-4.19-3.89-4.77-16.14.7-26.73,4.23-8.19,3.07-12.59,2.13-16.13-0.49-1.85-.81-3.08-0.3-4.84a3.37,3.37,0,1,0-6.48-1.9,14.48,14.48,0,0,0,.25,8.47c0.77,2.91,1.44,5.42-1.6,11.3-6.58,12.71-6.26,28.32.7,34.78A3.36,3.36,0,0,0,59.74,259.55Z"/><path d="M138.3,284a2,2,0,0,0-2.29,1.72l-0.89,6.2a2,2,0,0,0,1.72,2.29l0.29,0a2,2,0,0,0,2-1.74l0.89-6.2A2,2,0,0,0,138.3,284Z"/><path d="M142.32,282.43l-0.74,5.79a2,2,0,0,0,1.75,2.26l0.26,0a2,2,0,0,0,2-1.77l0.74-5.79A2,2,0,0,0,142.32,282.43Z"/><path d="M131.9,286.08a2,2,0,0,0-2.13,1.91l-0.33,6.15a2,2,0,0,0,1.91,2.13h0.11a2,2,0,0,0,2-1.92l0.33-6.15A2,2,0,0,0,131.9,286.08Z"/><path d="M123.85,291.41l-0.34,6.31a2,2,0,0,0,1.92,2.13h0.11a2,2,0,0,0,2-1.92l0.34-6.31A2,2,0,0,0,123.85,291.41Z"/><path d="M118.23,294.78l-0.46,6.12a2,2,0,0,0,1.87,2.17h0.15a2,2,0,0,0,2-1.87l0.45-6.12A2,2,0,1,0,118.23,294.78Z"/><path d="M168.4,94.81c-0.49-.07-16.35-2-26.88,1.89-8.16,3-12.16,3.39-15.7,3.75-4.07.42-7.58,0.77-14.62,4.73l-0.59.33C94,114.87,84.78,120,82.8,141c0,0.1,0,.2,0,0.29-0.07,9.63-1.31,26.56-4.34,31A3.38,3.38,0,0,0,84,176.14c5.07-7.47,5.47-31.23,5.5-34.61,1.68-17.36,7.88-20.85,24.39-30.12l0.59-.33c5.82-3.27,8.28-3.52,12-3.9s8.38-.86,17.33-4.13,19.33-1.77,19.44-1.76l4.13,0.2A3.38,3.38,0,0,0,168.4,94.81Z"/><path d="M160.11,278.26l-0.4,6.32a2,2,0,0,0,1.89,2.15h0.13a2,2,0,0,0,2-1.9l0.4-6.32A2,2,0,1,0,160.11,278.26Z"/><path d="M170,328.1h2.12a8.49,8.49,0,0,0,6-2.49l9.68-9.68a7.12,7.12,0,0,0,2.09-5v-13c0-7.83-4.39-8.46-8.46-8.46h-15.1c-8.72-4.29-18.84,2.7-21.87,5.06a42.78,42.78,0,0,1-6,4.06,3.37,3.37,0,0,0-1.81,6.47c2,0.75,7.91,3.44,11.37,6.88a23,23,0,0,0,15.67,6.66,17,17,0,0,0,2-.14v9.7H170Zm-5.85-32.18a3.33,3.33,0,0,0,1.54.54v3.37a17,17,0,0,1-5.92-.47c-0.95-.19-1.93-0.38-3-0.54a22.23,22.23,0,0,0-7,.09C154.31,295.77,160.33,293.34,164.18,295.92Zm-11.4,11.17a30.46,30.46,0,0,0-4.71-3.75c0.21,0,.42,0,0.63-0.09a20,20,0,0,1,7.54-.41c1,0.14,1.89.32,2.77,0.5a25.78,25.78,0,0,0,5.18.66c0.49,0,1,0,1.53-.09v7.67C161.84,312.47,156.33,310.64,152.78,307.1Z"/><path d="M306.95,240l-32.41-28,29.65-19.82a2.65,2.65,0,0,0,.26-4.21L275.71,163.2l17.07-13a2.65,2.65,0,0,0,.15-4.09l-28.68-25.29V4.41h-2.82c-21.63,0-48.35,25.18-59.46,41.4l-8.73-8.73L184,46.32l-9.4-9.4L165.53,46l-0.22.22c-9.53.17-58.24-.43-66.15,13.38-2.84,5-7.87,5.36-17.24,5.66-8,.26-18,0.58-28.29,5.92-13.79,7.16-29.76,19-30.84,47.49a104.5,104.5,0,0,0,1.56,21.73c1.77,11.49,3.05,19.8-8.57,42.3C1.21,210.87,3.47,230.08,5.12,244.1a86,86,0,0,1,.79,9.54c0,4.77,1.76,10.31,3.8,16.71,4.48,14.05,10,31.54,1.71,52.44-13.15,33-.27,53.76.29,54.63a3.37,3.37,0,0,0,5.69-3.63c-0.12-.18-11.59-18.72.29-48.5,9.23-23.15,3-42.71-1.55-57-1.87-5.87-3.49-10.94-3.49-14.67a91.9,91.9,0,0,0-.84-10.33c-1.55-13.16-3.66-31.18,10-57.54C34.4,161.33,32.91,151.63,31,139.35a98.73,98.73,0,0,1-1.49-20.45C30.47,94.13,43.17,84.2,56.74,77.15c8.92-4.63,17.67-4.91,25.4-5.16,9.27-.3,18-0.58,22.88-9.05,4.43-7.74,39-9.58,60.51-10a5.92,5.92,0,0,0,.61-0.07l0.13,0a2.45,2.45,0,0,0,1.07-.47,3.38,3.38,0,0,0,.92-0.91l6.33-6.57,9.4,9.4,9.24-9.24,5.71,5.71a19.29,19.29,0,0,0,4.47,22.71L264.24,128v-0.12L287,147.92l-17.1,13a2.65,2.65,0,0,0-.12,4.11l28.57,24.64L268.7,209.54a2.65,2.65,0,0,0-.26,4.21L301,241.9,228.53,299a2.65,2.65,0,1,0,3.28,4.16l75-59.08A2.65,2.65,0,0,0,306.95,240ZM204.48,52.35h0c9.33-16,34.92-39.9,54.12-42.13V115.36L207.18,69.28A13.62,13.62,0,0,1,204.48,52.35Z"/></svg>