<?xml version="1.0" encoding="UTF-8" standalone="no"?>
<svg width="1432px" height="639px" viewBox="0 0 1432 639" version="1.1" xmlns="http://www.w3.org/2000/svg" xmlns:xlink="http://www.w3.org/1999/xlink">
    <!-- Generator: Sketch 3.7.1 (28215) - http://www.bohemiancoding.com/sketch -->
    <title>Group 220 Copy</title>
    <desc>Created with Sketch.</desc>
    <defs></defs>
    <g id="Page-1" stroke="none" stroke-width="1" fill="none" fill-rule="evenodd">
        <g id="Results_Desktop-" transform="translate(-4.000000, -4.000000)">
            <g id="Group-220-Copy" transform="translate(4.000000, 4.000000)">
                <path d="M167.471644,172.77998 C167.471644,176.658036 164.327965,179.80322 160.448404,179.80322 C156.570347,179.80322 153.426669,176.658036 153.426669,172.77998 C153.426669,168.901924 156.570347,165.75674 160.448404,165.75674 C164.327965,165.75674 167.471644,168.901924 167.471644,172.77998" id="Fill-2" fill="#CCCCCB"></path>
                <path d="M291.959212,233.049221 C291.959212,237.204174 288.589802,240.573583 284.434849,240.573583 C280.279896,240.573583 276.910487,237.204174 276.910487,233.049221 C276.910487,228.894268 280.279896,225.524858 284.434849,225.524858 C288.589802,225.524858 291.959212,228.894268 291.959212,233.049221" id="Fill-6" fill="#F2F2F2"></path>
                <path d="M205.59503,173.281554 C205.59503,174.666037 204.472396,175.790176 203.086408,175.790176 C201.701925,175.790176 200.57929,174.666037 200.57929,173.281554 C200.57929,171.897071 201.701925,170.772932 203.086408,170.772932 C204.472396,170.772932 205.59503,171.897071 205.59503,173.281554" id="Fill-8" fill="#F2F2F2"></path>
                <path d="M328.19609,265.945282 C328.19609,267.329765 327.073455,268.453905 325.687468,268.453905 C324.302985,268.453905 323.18035,267.329765 323.18035,265.945282 C323.18035,264.5608 324.302985,263.43666 325.687468,263.43666 C327.073455,263.43666 328.19609,264.5608 328.19609,265.945282" id="Fill-10" fill="#F2F2F2"></path>
                <path d="M254.754249,145.692275 C254.754249,147.355159 253.407388,148.70202 251.744504,148.70202 C250.08162,148.70202 248.734759,147.355159 248.734759,145.692275 C248.734759,144.029391 250.08162,142.68253 251.744504,142.68253 C253.407388,142.68253 254.754249,144.029391 254.754249,145.692275" id="Fill-14" fill="#CCCCCB"></path>
                <path d="M144.396982,111.581781 C144.396982,113.244666 143.050121,114.591526 141.387237,114.591526 C139.724353,114.591526 138.377492,113.244666 138.377492,111.581781 C138.377492,109.918897 139.724353,108.572036 141.387237,108.572036 C143.050121,108.572036 144.396982,109.918897 144.396982,111.581781" id="Fill-16" fill="#CCCCCB"></path>
                <path d="M197.569094,46.8722638 C197.569094,51.0272168 194.199684,54.3966263 190.044731,54.3966263 C185.889778,54.3966263 182.520369,51.0272168 182.520369,46.8722638 C182.520369,42.7173108 185.889778,39.3479013 190.044731,39.3479013 C194.199684,39.3479013 197.569094,42.7173108 197.569094,46.8722638" id="Fill-18" fill="#F2F2F2"></path>
                <path d="M205.59503,82.9892039 C205.59503,84.3736866 204.472396,85.4978263 203.086408,85.4978263 C201.701925,85.4978263 200.57929,84.3736866 200.57929,82.9892039 C200.57929,81.6047212 201.701925,80.4805814 203.086408,80.4805814 C204.472396,80.4805814 205.59503,81.6047212 205.59503,82.9892039" id="Fill-20" fill="#F2F2F2"></path>
                <path d="M254.754249,55.3999248 C254.754249,57.062809 253.407388,58.4096698 251.744504,58.4096698 C250.08162,58.4096698 248.734759,57.062809 248.734759,55.3999248 C248.734759,53.7370407 250.08162,52.3901798 251.744504,52.3901798 C253.407388,52.3901798 254.754249,53.7370407 254.754249,55.3999248" id="Fill-22" fill="#CCCCCB"></path>
                <path d="M144.396982,21.2894313 C144.396982,22.9523154 143.050121,24.2991763 141.387237,24.2991763 C139.724353,24.2991763 138.377492,22.9523154 138.377492,21.2894313 C138.377492,19.6265472 139.724353,18.2796863 141.387237,18.2796863 C143.050121,18.2796863 144.396982,19.6265472 144.396982,21.2894313" id="Fill-24" fill="#CCCCCB"></path>
                <path d="M35.0065962,342.881437 C31.3241732,344.097374 27.3528147,342.097399 26.1353728,338.414976 C24.9194359,334.732553 26.9194114,330.759689 30.6033393,329.543752 C34.2857623,328.327815 38.2571208,330.327791 39.4730578,334.010214 C40.6889948,337.694142 38.6890192,341.6655 35.0065962,342.881437" id="Fill-26" fill="#CCCCCB"></path>
                <path d="M46.4839578,379.239609 C45.1686993,379.674517 43.7496045,378.959702 43.3162012,377.644444 C42.8812931,376.329185 43.5961075,374.91009 44.9113661,374.476687 C46.2266246,374.041779 47.6442145,374.756593 48.0791227,376.071852 C48.5140308,377.387111 47.7992164,378.8047 46.4839578,379.239609" id="Fill-30" fill="#F2F2F2"></path>
                <path d="M88.0959398,417.268941 C86.5173286,417.789626 84.8153178,416.933354 84.2946319,415.354743 C83.7724411,413.776132 84.6302185,412.074121 86.2088297,411.553435 C87.787441,411.031244 89.4894518,411.889021 90.0101377,413.467633 C90.5308235,415.046244 89.6745511,416.748255 88.0959398,417.268941" id="Fill-32" fill="#CCCCCB"></path>
                <path d="M164.00201,331.982248 C160.056234,333.285467 155.800455,331.142529 154.497235,327.196753 C153.19552,323.250978 155.336954,318.995198 159.28273,317.691979 C163.23001,316.388759 167.484285,318.531697 168.787504,322.477473 C170.090724,326.424754 167.947786,330.679028 164.00201,331.982248" id="Fill-36" fill="#F2F2F2"></path>
                <path d="M132.223015,350.928141 C130.907757,351.363049 129.488662,350.648235 129.055259,349.332976 C128.62035,348.017718 129.335165,346.598623 130.650423,346.16522 C131.965682,345.730312 133.383272,346.445126 133.81818,347.760385 C134.253088,349.075643 133.538274,350.493233 132.223015,350.928141" id="Fill-38" fill="#F2F2F2"></path>
                <path d="M173.834997,388.957473 C172.256386,389.478159 170.554375,388.621887 170.033689,387.043275 C169.511499,385.464664 170.369276,383.762653 171.947887,383.241967 C173.526498,382.719777 175.228509,383.577554 175.749195,385.156165 C176.269881,386.734777 175.413608,388.436787 173.834997,388.957473" id="Fill-40" fill="#CCCCCB"></path>
                <path d="M171.622383,273.470096 C170.043772,273.990782 168.341761,273.13451 167.821075,271.555898 C167.298884,269.977287 168.156662,268.275276 169.735273,267.75459 C171.313884,267.2324 173.015895,268.090177 173.536581,269.668788 C174.057267,271.2474 173.200994,272.94941 171.622383,273.470096" id="Fill-42" fill="#CCCCCB"></path>
                <path d="M264.352777,325.584282 C262.774166,326.104968 261.072155,325.248696 260.551469,323.670085 C260.029279,322.091473 260.887056,320.389463 262.465667,319.868777 C264.044278,319.346586 265.746289,320.204363 266.266975,321.782974 C266.787661,323.361586 265.931389,325.063597 264.352777,325.584282" id="Fill-44" fill="#CCCCCB"></path>
                <path d="M47.1268394,232.014019 C46.7235335,233.339812 45.3240021,234.087733 43.9982094,233.684427 C42.6724168,233.282627 41.9244951,231.88159 42.327801,230.555798 C42.7296019,229.230005 44.1306382,228.482083 45.4564309,228.885389 C46.7807187,229.28719 47.5301452,230.688226 47.1268394,232.014019" id="Fill-50" fill="#F2F2F2"></path>
                <path d="M6.50446153,155.190127 C6.02139745,156.780778 4.34045487,157.677682 2.74980463,157.194617 C1.1591544,156.711553 0.262250388,155.030611 0.745314461,153.439961 C1.22837853,151.84931 2.90932112,150.952406 4.49997135,151.43547 C6.09062159,151.918534 6.9875256,153.599477 6.50446153,155.190127" id="Fill-52" fill="#CCCCCB"></path>
                <path d="M73.3712139,145.619891 C72.967908,146.945683 71.5683766,147.693605 70.2425839,147.290299 C68.9167913,146.888498 68.1688696,145.487462 68.5721754,144.161669 C68.9739764,142.835876 70.3750127,142.087955 71.7008054,142.491261 C73.0250932,142.893062 73.7745197,144.294098 73.3712139,145.619891" id="Fill-56" fill="#F2F2F2"></path>
                <path d="M138.377492,171.776682 C138.377492,173.439566 137.030631,174.786427 135.367747,174.786427 C133.704863,174.786427 132.358002,173.439566 132.358002,171.776682 C132.358002,170.113797 133.704863,168.766937 135.367747,168.766937 C137.030631,168.766937 138.377492,170.113797 138.377492,171.776682" id="Fill-58" fill="#CCCCCB"></path>
                <path d="M32.7489865,68.7959989 C32.2659224,70.3866491 30.5849798,71.2835531 28.9943296,70.8004891 C27.4036794,70.317425 26.5067754,68.6364824 26.9898394,67.0458322 C27.4729035,65.4551819 29.1538461,64.5582779 30.7444963,65.041342 C32.3351466,65.5244061 33.2320506,67.2053486 32.7489865,68.7959989" id="Fill-60" fill="#CCCCCB"></path>
                <path d="M205.59503,613.205899 C205.59503,614.590381 204.472396,615.714521 203.086408,615.714521 C201.701925,615.714521 200.57929,614.590381 200.57929,613.205899 C200.57929,611.821416 201.701925,610.697276 203.086408,610.697276 C204.472396,610.697276 205.59503,611.821416 205.59503,613.205899" id="Fill-66" fill="#F2F2F2"></path>
                <path d="M197.569094,486.796608 C197.569094,490.951561 194.199684,494.320971 190.044731,494.320971 C185.889778,494.320971 182.520369,490.951561 182.520369,486.796608 C182.520369,482.641656 185.889778,479.272246 190.044731,479.272246 C194.199684,479.272246 197.569094,482.641656 197.569094,486.796608" id="Fill-70" fill="#F2F2F2"></path>
                <path d="M205.59503,522.913549 C205.59503,524.298031 204.472396,525.422171 203.086408,525.422171 C201.701925,525.422171 200.57929,524.298031 200.57929,522.913549 C200.57929,521.529066 201.701925,520.404926 203.086408,520.404926 C204.472396,520.404926 205.59503,521.529066 205.59503,522.913549" id="Fill-72" fill="#F2F2F2"></path>
                <path d="M144.396982,461.213776 C144.396982,462.87666 143.050121,464.223521 141.387237,464.223521 C139.724353,464.223521 138.377492,462.87666 138.377492,461.213776 C138.377492,459.550892 139.724353,458.204031 141.387237,458.204031 C143.050121,458.204031 144.396982,459.550892 144.396982,461.213776" id="Fill-80" fill="#CCCCCB"></path>
                <path d="M32.7489865,508.720494 C32.2659224,510.311144 30.5849798,511.208048 28.9943296,510.724984 C27.4036794,510.24192 26.5067754,508.560978 26.9898394,506.970327 C27.4729035,505.379677 29.1538461,504.482773 30.7444963,504.965837 C32.3351466,505.448901 33.2320506,507.129844 32.7489865,508.720494" id="Fill-98" fill="#CCCCCB"></path>
                <path d="M1367.3566,173.281554 C1367.3566,174.666037 1366.23397,175.790176 1364.84798,175.790176 C1363.4635,175.790176 1362.34086,174.666037 1362.34086,173.281554 C1362.34086,171.897071 1363.4635,170.772932 1364.84798,170.772932 C1366.23397,170.772932 1367.3566,171.897071 1367.3566,173.281554" id="Fill-104" fill="#F2F2F2"></path>
                <path d="M1416.51582,145.692275 C1416.51582,147.355159 1415.16896,148.70202 1413.50608,148.70202 C1411.84319,148.70202 1410.49633,147.355159 1410.49633,145.692275 C1410.49633,144.029391 1411.84319,142.68253 1413.50608,142.68253 C1415.16896,142.68253 1416.51582,144.029391 1416.51582,145.692275" id="Fill-106" fill="#CCCCCB"></path>
                <path d="M1306.15855,111.581781 C1306.15855,113.244666 1304.81169,114.591526 1303.14881,114.591526 C1301.48592,114.591526 1300.13906,113.244666 1300.13906,111.581781 C1300.13906,109.918897 1301.48592,108.572036 1303.14881,108.572036 C1304.81169,108.572036 1306.15855,109.918897 1306.15855,111.581781" id="Fill-108" fill="#CCCCCB"></path>
                <path d="M1359.33067,46.8722638 C1359.33067,51.0272168 1355.96126,54.3966263 1351.8063,54.3966263 C1347.65135,54.3966263 1344.28194,51.0272168 1344.28194,46.8722638 C1344.28194,42.7173108 1347.65135,39.3479013 1351.8063,39.3479013 C1355.96126,39.3479013 1359.33067,42.7173108 1359.33067,46.8722638" id="Fill-110" fill="#F2F2F2"></path>
                <path d="M1367.3566,82.9892039 C1367.3566,84.3736866 1366.23397,85.4978263 1364.84798,85.4978263 C1363.4635,85.4978263 1362.34086,84.3736866 1362.34086,82.9892039 C1362.34086,81.6047212 1363.4635,80.4805814 1364.84798,80.4805814 C1366.23397,80.4805814 1367.3566,81.6047212 1367.3566,82.9892039" id="Fill-112" fill="#F2F2F2"></path>
                <path d="M1416.51582,55.3999248 C1416.51582,57.062809 1415.16896,58.4096698 1413.50608,58.4096698 C1411.84319,58.4096698 1410.49633,57.062809 1410.49633,55.3999248 C1410.49633,53.7370407 1411.84319,52.3901798 1413.50608,52.3901798 C1415.16896,52.3901798 1416.51582,53.7370407 1416.51582,55.3999248" id="Fill-114" fill="#CCCCCB"></path>
                <path d="M1306.15855,21.2894313 C1306.15855,22.9523154 1304.81169,24.2991763 1303.14881,24.2991763 C1301.48592,24.2991763 1300.13906,22.9523154 1300.13906,21.2894313 C1300.13906,19.6265472 1301.48592,18.2796863 1303.14881,18.2796863 C1304.81169,18.2796863 1306.15855,19.6265472 1306.15855,21.2894313" id="Fill-116" fill="#CCCCCB"></path>
                <path d="M1317.3053,403.356695 C1316.4114,404.414621 1314.82828,404.547049 1313.77035,403.653155 C1312.71242,402.759261 1312.58,401.17764 1313.47389,400.11821 C1314.36778,399.060284 1315.95091,398.927856 1317.00884,399.82175 C1318.06676,400.715644 1318.19919,402.29877 1317.3053,403.356695" id="Fill-122" fill="#F2F2F2"></path>
                <path d="M1372.66053,414.014052 C1371.58755,415.284164 1369.6884,415.443681 1368.41979,414.370707 C1367.14968,413.297733 1366.99017,411.398583 1368.06314,410.128471 C1369.13611,408.859864 1371.03526,408.700347 1372.30387,409.771816 C1373.57398,410.84479 1373.7335,412.743939 1372.66053,414.014052" id="Fill-124" fill="#CCCCCB"></path>
                <path d="M1310.38649,316.729914 C1309.31352,318.000026 1307.41437,318.159542 1306.14576,317.086568 C1304.87565,316.013594 1304.71613,314.114445 1305.78911,312.844333 C1306.86208,311.57422 1308.76123,311.416209 1310.02984,312.487678 C1311.29995,313.560652 1311.45947,315.459801 1310.38649,316.729914" id="Fill-126" fill="#CCCCCB"></path>
                <path d="M1392.76637,301.625057 C1390.08469,304.798833 1385.33682,305.197624 1382.16304,302.515941 C1378.98927,299.832754 1378.59048,295.086386 1381.27216,291.911105 C1383.95384,288.737329 1388.70171,288.338538 1391.87549,291.021725 C1395.04927,293.703408 1395.44806,298.451281 1392.76637,301.625057" id="Fill-128" fill="#F2F2F2"></path>
                <path d="M1249.27115,216.381514 C1246.58947,219.55529 1241.84159,219.954081 1238.66782,217.272398 C1235.49404,214.58921 1235.09525,209.842842 1237.77693,206.667562 C1240.45862,203.493785 1245.20649,203.094994 1248.38027,205.778182 C1251.55404,208.459865 1251.95283,213.207737 1249.27115,216.381514" id="Fill-128-Copy" fill="#F2F2F2"></path>
                <path d="M1375.58479,334.391549 C1374.6909,335.449474 1373.10777,335.581903 1372.04985,334.688009 C1370.99192,333.794114 1370.85949,332.212493 1371.75339,331.153063 C1372.64728,330.095138 1374.23041,329.962709 1375.28833,330.856603 C1376.34626,331.750498 1376.47869,333.333623 1375.58479,334.391549" id="Fill-132" fill="#F2F2F2"></path>
                <path d="M1430.94017,345.048755 C1429.8672,346.318867 1427.96805,346.478384 1426.69944,345.40541 C1425.42933,344.332436 1425.26981,342.433286 1426.34279,341.163174 C1427.41576,339.894567 1429.31491,339.73505 1430.58352,340.806519 C1431.85363,341.879493 1432.01315,343.778642 1430.94017,345.048755" id="Fill-134" fill="#CCCCCB"></path>
                <path d="M1368.66599,247.764617 C1367.59302,249.034729 1365.69387,249.194245 1364.42526,248.121271 C1363.15515,247.048297 1362.99563,245.149148 1364.06861,243.879036 C1365.14158,242.610428 1367.04073,242.450912 1368.30934,243.522381 C1369.57945,244.595355 1369.73897,246.494504 1368.66599,247.764617" id="Fill-136" fill="#CCCCCB"></path>
                <path d="M1359.33067,600.163771 C1359.33067,604.318724 1355.96126,607.688133 1351.8063,607.688133 C1347.65135,607.688133 1344.28194,604.318724 1344.28194,600.163771 C1344.28194,596.008818 1347.65135,592.639408 1351.8063,592.639408 C1355.96126,592.639408 1359.33067,596.008818 1359.33067,600.163771" id="Fill-140" fill="#F2F2F2"></path>
                <path d="M1367.3566,636.280711 C1367.3566,637.665193 1366.23397,638.789333 1364.84798,638.789333 C1363.4635,638.789333 1362.34086,637.665193 1362.34086,636.280711 C1362.34086,634.896228 1363.4635,633.772088 1364.84798,633.772088 C1366.23397,633.772088 1367.3566,634.896228 1367.3566,636.280711" id="Fill-142" fill="#F2F2F2"></path>
                <path d="M1416.51582,608.691281 C1416.51582,610.354165 1415.16896,611.701026 1413.50608,611.701026 C1411.84319,611.701026 1410.49633,610.354165 1410.49633,608.691281 C1410.49633,607.028397 1411.84319,605.681536 1413.50608,605.681536 C1415.16896,605.681536 1416.51582,607.028397 1416.51582,608.691281" id="Fill-144" fill="#CCCCCB"></path>
                <path d="M1306.15855,574.580938 C1306.15855,576.243822 1304.81169,577.590683 1303.14881,577.590683 C1301.48592,577.590683 1300.13906,576.243822 1300.13906,574.580938 C1300.13906,572.918054 1301.48592,571.571193 1303.14881,571.571193 C1304.81169,571.571193 1306.15855,572.918054 1306.15855,574.580938" id="Fill-146" fill="#CCCCCB"></path>
                <path d="M1359.33067,509.871421 C1359.33067,514.026374 1355.96126,517.395783 1351.8063,517.395783 C1347.65135,517.395783 1344.28194,514.026374 1344.28194,509.871421 C1344.28194,505.716468 1347.65135,502.347058 1351.8063,502.347058 C1355.96126,502.347058 1359.33067,505.716468 1359.33067,509.871421" id="Fill-150" fill="#F2F2F2"></path>
                <path d="M1367.3566,545.988361 C1367.3566,547.372843 1366.23397,548.496983 1364.84798,548.496983 C1363.4635,548.496983 1362.34086,547.372843 1362.34086,545.988361 C1362.34086,544.603878 1363.4635,543.479738 1364.84798,543.479738 C1366.23397,543.479738 1367.3566,544.603878 1367.3566,545.988361" id="Fill-152" fill="#F2F2F2"></path>
                <path d="M1416.51582,518.398931 C1416.51582,520.061815 1415.16896,521.408676 1413.50608,521.408676 C1411.84319,521.408676 1410.49633,520.061815 1410.49633,518.398931 C1410.49633,516.736047 1411.84319,515.389186 1413.50608,515.389186 C1415.16896,515.389186 1416.51582,516.736047 1416.51582,518.398931" id="Fill-154" fill="#CCCCCB"></path>
                <path d="M1306.15855,484.288588 C1306.15855,485.951472 1304.81169,487.298333 1303.14881,487.298333 C1301.48592,487.298333 1300.13906,485.951472 1300.13906,484.288588 C1300.13906,482.625704 1301.48592,481.278843 1303.14881,481.278843 C1304.81169,481.278843 1306.15855,482.625704 1306.15855,484.288588" id="Fill-156" fill="#CCCCCB"></path>
                <path d="M376.908362,140.670967 C374.586343,143.777024 370.184591,144.41208 367.078535,142.090062 C363.972478,139.766539 363.337421,135.366291 365.65944,132.260234 C367.982963,129.154178 372.38321,128.519121 375.489267,130.84114 C378.595324,133.163158 379.23038,137.56491 376.908362,140.670967" id="Fill-158" fill="#CCCCCB"></path>
                <path d="M407.138993,163.90364 C406.309808,165.012731 404.737216,165.239967 403.628125,164.410782 C402.519034,163.580092 402.291799,162.009006 403.122488,160.899915 C403.951673,159.790823 405.52276,159.563588 406.631851,160.392772 C407.742447,161.221957 407.968178,162.794549 407.138993,163.90364" id="Fill-160" fill="#F2F2F2"></path>
                <path d="M463.030409,171.248772 C462.035688,172.580584 460.148578,172.851461 458.818271,171.856741 C457.486459,170.860515 457.214077,168.97491 458.210303,167.644603 C459.205023,166.31279 461.090628,166.040409 462.422441,167.036634 C463.754253,168.031355 464.02513,169.91696 463.030409,171.248772" id="Fill-162" fill="#CCCCCB"></path>
                <path d="M395.078644,77.841938 C394.083923,79.1737501 392.196813,79.4446272 390.866506,78.4499065 C389.534693,77.4536809 389.262312,75.5680756 390.258537,74.2377683 C391.253258,72.9059562 393.138863,72.6335742 394.470675,73.6297998 C395.802487,74.6245206 396.073364,76.5101258 395.078644,77.841938" id="Fill-164" fill="#CCCCCB"></path>
                <path d="M476.413993,57.8626487 C473.924934,61.1899218 469.210168,61.871629 465.88139,59.3825699 C462.554117,56.8935108 461.873915,52.1787452 464.362974,48.8499673 C466.850528,45.5226942 471.566798,44.8424918 474.894072,47.330046 C478.22285,49.8191052 478.903052,54.5353756 476.413993,57.8626487" id="Fill-166" fill="#F2F2F2"></path>
                <path d="M461.212222,91.5933124 C460.383037,92.7024034 458.810446,92.9296392 457.701355,92.1004544 C456.592264,91.2697648 456.365028,89.6986779 457.195717,88.5895869 C458.024902,87.4804959 459.595989,87.2532601 460.70508,88.0824449 C461.815676,88.9116296 462.041407,90.4842214 461.212222,91.5933124" id="Fill-168" fill="#F2F2F2"></path>
                <path d="M517.103638,98.9384446 C516.108918,100.270257 514.221808,100.541134 512.8915,99.5464131 C511.559688,98.5501875 511.287306,96.6645823 512.283532,95.334275 C513.278252,94.0024628 515.163858,93.7300809 516.49567,94.7263065 C517.827482,95.7210272 518.098359,97.6066324 517.103638,98.9384446" id="Fill-170" fill="#CCCCCB"></path>
                <path d="M449.152023,5.53161034 C448.157303,6.86342251 446.270193,7.13429956 444.939885,6.13957883 C443.608073,5.14335324 443.335691,3.25774799 444.331917,1.9274407 C445.326638,0.595628536 447.212243,0.323246613 448.544055,1.31947221 C449.875867,2.31419293 450.146744,4.19979818 449.152023,5.53161034" id="Fill-172" fill="#CCCCCB"></path>
                <path d="M1036.82039,68.4250478 C1033.01908,69.1985523 1029.31107,66.7441052 1028.53757,62.9443022 C1027.76406,59.1429942 1030.21851,55.4349884 1034.01831,54.6614839 C1037.81962,53.8879794 1041.52763,56.3424265 1042.30113,60.1422296 C1043.07464,63.9435375 1040.62169,67.6515433 1036.82039,68.4250478" id="Fill-174" fill="#CCCCCB"></path>
                <path d="M1077.72297,90.8142399 C1073.65079,91.6434247 1069.67792,89.0144124 1068.84874,84.9422274 C1068.01955,80.8700424 1070.65007,76.897179 1074.72075,76.0679943 C1078.79294,75.2388095 1082.7673,77.8678218 1083.59498,81.9400068 C1084.42417,86.0121918 1081.79516,89.9850552 1077.72297,90.8142399" id="Fill-176" fill="#F2F2F2"></path>
                <path d="M1043.93256,105.882528 C1042.57517,106.159425 1041.25088,105.282084 1040.97398,103.924689 C1040.69859,102.567294 1041.57443,101.243006 1042.93182,100.967615 C1044.28922,100.690718 1045.61351,101.566554 1045.8904,102.923949 C1046.1658,104.281344 1045.28996,105.605632 1043.93256,105.882528" id="Fill-178" fill="#F2F2F2"></path>
                <path d="M1080.77229,148.551382 C1079.14402,148.882454 1077.55488,147.830548 1077.2223,146.202276 C1076.89123,144.574004 1077.94313,142.984859 1079.57141,142.652282 C1081.20118,142.32121 1082.79033,143.373116 1083.1214,145.001388 C1083.45247,146.631165 1082.40057,148.22031 1080.77229,148.551382" id="Fill-180" fill="#CCCCCB"></path>
                <path d="M1166.2012,72.8055812 C1162.12901,73.6347659 1158.15615,71.0057537 1157.32696,66.9335687 C1156.49778,62.8613837 1159.1283,58.8885203 1163.19898,58.0593355 C1167.27116,57.2301508 1171.24553,59.859163 1172.07321,63.931348 C1172.90239,68.003533 1170.27338,71.9763964 1166.2012,72.8055812" id="Fill-184" fill="#F2F2F2"></path>
                <path d="M1132.41079,87.8737191 C1131.0534,88.1506156 1129.72911,87.2732749 1129.45221,85.9158799 C1129.17682,84.5584849 1130.05266,83.2341971 1131.41005,82.9588055 C1132.76745,82.6819089 1134.09173,83.5577447 1134.36863,84.9151397 C1134.64402,86.2725347 1133.76819,87.5968225 1132.41079,87.8737191" id="Fill-186" fill="#F2F2F2"></path>
                <path d="M1169.25052,130.542573 C1167.62225,130.873645 1166.0331,129.821739 1165.70053,128.193467 C1165.36945,126.565195 1166.42136,124.97605 1168.04963,124.643473 C1169.67941,124.312401 1171.26855,125.364307 1171.59963,126.992579 C1171.9307,128.622356 1170.87879,130.211501 1169.25052,130.542573" id="Fill-188" fill="#CCCCCB"></path>
                <path d="M1180.66498,15.5992074 C1179.03671,15.9302793 1177.44756,14.8783735 1177.11498,13.2501014 C1176.78391,11.6218294 1177.83582,10.032684 1179.46409,9.70010718 C1181.09387,9.36903522 1182.68301,10.4209411 1183.01408,12.0492132 C1183.34516,13.6789901 1182.29325,15.2681354 1180.66498,15.5992074" id="Fill-190" fill="#CCCCCB"></path>
                <path d="M810.229627,31.2164732 C814.106178,31.0975883 817.346169,34.1419454 817.465054,38.0200018 C817.585444,41.8965534 814.539582,45.135039 810.66303,45.2554288 C806.786479,45.3743137 803.546488,42.3284518 803.426098,38.4519002 C803.307213,34.5753487 806.353075,31.3353582 810.229627,31.2164732" id="Fill-192" fill="#CCCCCB"></path>
                <path d="M773.703361,2.23127446 C777.85681,2.1033603 781.32855,5.36592388 781.456465,9.51937199 C781.584379,13.674325 778.32031,17.144561 774.166862,17.2724751 C770.013414,17.4003893 766.543178,14.1378257 766.415264,9.98437759 C766.285845,5.83092948 769.549913,2.35918862 773.703361,2.23127446" id="Fill-194" fill="#F2F2F2"></path>
                <path d="M749.771825,56.1668079 C751.433205,56.1156422 752.822202,57.4203667 752.873368,59.0817459 C752.924533,60.7431251 751.618304,62.1321225 749.956925,62.1832881 C748.295546,62.2344538 746.908053,60.9297293 746.856887,59.2683501 C746.805722,57.6069708 748.110446,56.2179735 749.771825,56.1668079" id="Fill-196" fill="#CCCCCB"></path>
                <path d="M719.980166,34.0000359 C723.856717,33.881151 727.096708,36.9255081 727.215593,40.8035645 C727.335982,44.6801161 724.29012,47.9186017 720.413569,48.0389915 C716.537017,48.1578764 713.297027,45.1120145 713.176637,41.2354629 C713.057752,37.3589113 716.103614,34.1189208 719.980166,34.0000359" id="Fill-198" fill="#CCCCCB"></path>
                <path d="M749.771825,507.737361 C751.433205,507.686195 752.822202,508.99092 752.873368,510.652299 C752.924533,512.313678 751.618304,513.702675 749.956925,513.753841 C748.295546,513.805007 746.908053,512.500282 746.856887,510.838903 C746.805722,509.177524 748.110446,507.788526 749.771825,507.737361" id="Fill-202" fill="#CCCCCB"></path>
                <path d="M683.4539,5.01498761 C687.607348,4.88707345 691.079089,8.14963704 691.207003,12.3030851 C691.334917,16.4580381 688.070849,19.9282741 683.917401,20.0561883 C679.763953,20.1841024 676.293717,16.9215389 676.165803,12.7680907 C676.036384,8.61464264 679.300452,5.14290178 683.4539,5.01498761" id="Fill-206" fill="#F2F2F2"></path>
                <path d="M659.522364,58.950521 C661.183743,58.8993554 662.572741,60.2040798 662.623906,61.8654591 C662.675072,63.5268383 661.368843,64.9158356 659.707464,64.9670013 C658.046084,65.0181669 656.658592,63.7134425 656.607426,62.0520632 C656.556261,60.390684 657.860985,59.0016867 659.522364,58.950521" id="Fill-208" fill="#CCCCCB"></path>
                <path d="M109.692215,220.839438 L109.692215,220.839438 C109.287404,220.839438 108.476278,221.244248 108.071467,221.244248 C107.666656,221.244248 106.85553,220.839438 106.85553,220.839438 C106.450719,220.434627 106.045909,219.623501 106.045909,219.21869 C106.045909,218.813879 106.450719,218.002753 106.450719,217.597942 C106.85553,217.597942 107.666656,217.193132 108.071467,217.193132 C109.287404,217.193132 110.097025,218.002753 110.097025,219.21869 C110.097025,219.623501 109.692215,220.434627 109.692215,220.839438 M126.709313,235.019851 L125.088565,233.399104 L126.709313,231.778356 C127.518934,230.968735 127.518934,229.752798 126.709313,228.943176 C125.898187,228.13205 124.683754,228.13205 123.872628,228.943176 L122.251881,230.563924 L113.338521,221.649059 C113.338521,221.649059 113.338521,221.244248 113.743331,221.244248 L126.302997,221.244248 L126.302997,223.269807 C126.302997,224.485744 127.114124,225.29687 128.330061,225.29687 C129.544493,225.29687 130.355619,224.485744 130.355619,223.269807 L130.355619,221.244248 L132.381177,221.244248 C133.597114,221.244248 134.406736,220.434627 134.406736,219.21869 C134.406736,218.002753 133.597114,217.193132 132.381177,217.193132 L130.355619,217.193132 L130.355619,215.167573 C130.355619,213.951636 129.544493,213.142015 128.330061,213.142015 C127.114124,213.142015 126.302997,213.951636 126.302997,215.167573 L126.302997,217.193132 L113.743331,217.193132 C113.743331,217.193132 113.743331,216.788321 113.338521,216.788321 L122.251881,207.874961 L123.872628,209.089393 C124.683754,209.90052 125.898187,209.90052 126.709313,209.089393 C127.518934,208.279772 127.518934,207.063835 126.709313,206.254213 L125.088565,205.038276 L126.709313,203.417529 C127.518934,202.607907 127.518934,201.39197 126.709313,200.580844 C125.898187,199.771223 124.683754,199.771223 123.872628,200.580844 L122.251881,202.201592 L121.035944,200.580844 C120.226322,199.771223 119.010385,199.771223 118.200764,200.580844 C117.389637,201.39197 117.389637,202.607907 118.200764,203.417529 L119.416701,205.038276 L110.501836,213.951636 C110.501836,213.951636 110.097025,213.951636 110.097025,213.546826 L110.097025,200.98716 L112.122584,200.98716 C113.338521,200.98716 114.149647,200.176033 114.149647,198.961601 C114.149647,197.745664 113.338521,196.934538 112.122584,196.934538 L110.097025,196.934538 L110.097025,194.90898 C110.097025,193.694548 109.287404,192.883421 108.071467,192.883421 C106.85553,192.883421 106.045909,193.694548 106.045909,194.90898 L106.045909,196.934538 L104.02035,196.934538 C102.804413,196.934538 101.994792,197.745664 101.994792,198.961601 C101.994792,200.176033 102.804413,200.98716 104.02035,200.98716 L106.045909,200.98716 L106.045909,213.546826 C106.045909,213.546826 105.641098,213.546826 105.641098,213.951636 L96.727738,205.038276 L97.9421701,203.417529 C98.7532964,202.607907 98.7532964,201.39197 97.9421701,200.580844 C97.1325487,199.771223 95.9166117,199.771223 95.1069903,200.580844 L93.8910533,202.201592 L92.2703057,200.580844 C91.4606843,199.771223 90.2447473,199.771223 89.433621,200.580844 C88.6239996,201.39197 88.6239996,202.607907 89.433621,203.417529 L91.0543687,205.038276 L89.433621,206.254213 C88.6239996,207.063835 88.6239996,208.279772 89.433621,209.089393 C90.2447473,209.90052 91.4606843,209.90052 92.2703057,209.089393 L93.8910533,207.874961 L102.804413,216.788321 C102.804413,216.788321 102.804413,217.193132 102.399602,217.193132 L89.8399366,217.193132 L89.8399366,215.167573 C89.8399366,213.951636 89.0288103,213.142015 87.8143782,213.142015 C86.5984412,213.142015 85.7873149,213.951636 85.7873149,215.167573 L85.7873149,217.193132 L83.7617565,217.193132 C82.5473244,217.193132 81.7361981,218.002753 81.7361981,219.21869 C81.7361981,220.434627 82.5473244,221.244248 83.7617565,221.244248 L85.7873149,221.244248 L85.7873149,223.269807 C85.7873149,224.485744 86.5984412,225.29687 87.8143782,225.29687 C89.0288103,225.29687 89.8399366,224.485744 89.8399366,223.269807 L89.8399366,221.244248 L102.399602,221.244248 C102.399602,221.244248 102.399602,221.649059 102.804413,221.649059 L93.8910533,230.563924 L92.2703057,229.347987 C91.4606843,228.536861 90.2447473,228.536861 89.433621,229.347987 C88.6239996,230.157608 88.6239996,231.373545 89.433621,232.183167 L91.0543687,233.399104 L89.433621,235.019851 C88.6239996,235.830978 88.6239996,237.04541 89.433621,237.856536 C90.2447473,238.666157 91.4606843,238.666157 92.2703057,237.856536 L93.8910533,236.235788 L95.511801,237.856536 C96.3214224,238.666157 97.5373594,238.666157 98.3484857,237.856536 C99.1581071,237.04541 99.1581071,235.830978 98.3484857,235.019851 L96.727738,233.399104 L105.641098,224.485744 C105.641098,224.485744 106.045909,224.485744 106.045909,224.890555 L106.045909,237.45022 L104.02035,237.45022 C102.804413,237.45022 101.994792,238.261347 101.994792,239.477284 C101.994792,240.691716 102.804413,241.502842 104.02035,241.502842 L106.045909,241.502842 L106.045909,243.5284 C106.045909,244.744337 106.85553,245.553959 108.071467,245.553959 C109.287404,245.553959 110.097025,244.744337 110.097025,243.5284 L110.097025,241.502842 L112.122584,241.502842 C113.338521,241.502842 114.149647,240.691716 114.149647,239.477284 C114.149647,238.261347 113.338521,237.45022 112.122584,237.45022 L110.097025,237.45022 L110.097025,224.890555 C110.097025,224.890555 110.501836,224.890555 110.501836,224.485744 L119.416701,233.399104 L118.200764,235.019851 C117.389637,235.830978 117.389637,237.04541 118.200764,237.856536 C119.010385,238.666157 120.226322,238.666157 121.035944,237.856536 L122.656691,236.235788 L124.277439,237.856536 C125.088565,238.666157 126.302997,238.666157 127.114124,237.856536 C127.518934,237.04541 127.518934,235.830978 126.709313,235.019851" id="Fill-210" fill="#9CAAB2"></path>
                <path d="M890.678606,49.9205336 L890.678606,49.9205336 C890.273795,49.9205336 889.462669,50.3253443 889.057858,50.3253443 C888.653048,50.3253443 887.841921,49.9205336 887.841921,49.9205336 C887.437111,49.5157229 887.0323,48.7045966 887.0323,48.2997859 C887.0323,47.8949752 887.437111,47.0838489 887.437111,46.6790382 C887.841921,46.6790382 888.653048,46.2742275 889.057858,46.2742275 C890.273795,46.2742275 891.083417,47.0838489 891.083417,48.2997859 C891.083417,48.7045966 890.678606,49.5157229 890.678606,49.9205336 M907.695704,64.1009472 L906.074956,62.4801995 L907.695704,60.8594518 C908.505326,60.0498304 908.505326,58.8338934 907.695704,58.024272 C906.884578,57.2131457 905.670146,57.2131457 904.859019,58.024272 L903.238272,59.6450197 L894.324912,50.730155 C894.324912,50.730155 894.324912,50.3253443 894.729723,50.3253443 L907.289389,50.3253443 L907.289389,52.3509027 C907.289389,53.5668396 908.100515,54.3779659 909.316452,54.3779659 C910.530884,54.3779659 911.34201,53.5668396 911.34201,52.3509027 L911.34201,50.3253443 L913.367569,50.3253443 C914.583506,50.3253443 915.393127,49.5157229 915.393127,48.2997859 C915.393127,47.0838489 914.583506,46.2742275 913.367569,46.2742275 L911.34201,46.2742275 L911.34201,44.2486691 C911.34201,43.0327321 910.530884,42.2231107 909.316452,42.2231107 C908.100515,42.2231107 907.289389,43.0327321 907.289389,44.2486691 L907.289389,46.2742275 L894.729723,46.2742275 C894.729723,46.2742275 894.729723,45.8694168 894.324912,45.8694168 L903.238272,36.956057 L904.859019,38.1704891 C905.670146,38.9816153 906.884578,38.9816153 907.695704,38.1704891 C908.505326,37.3608677 908.505326,36.1449307 907.695704,35.3353093 L906.074956,34.1193723 L907.695704,32.4986246 C908.505326,31.6890032 908.505326,30.4730662 907.695704,29.6619399 C906.884578,28.8523185 905.670146,28.8523185 904.859019,29.6619399 L903.238272,31.2826876 L902.022335,29.6619399 C901.212713,28.8523185 899.996776,28.8523185 899.187155,29.6619399 C898.376029,30.4730662 898.376029,31.6890032 899.187155,32.4986246 L900.403092,34.1193723 L891.488227,43.0327321 C891.488227,43.0327321 891.083417,43.0327321 891.083417,42.6279214 L891.083417,30.0682555 L893.108975,30.0682555 C894.324912,30.0682555 895.136038,29.2571292 895.136038,28.0426971 C895.136038,26.8267601 894.324912,26.0156339 893.108975,26.0156339 L891.083417,26.0156339 L891.083417,23.9900755 C891.083417,22.7756434 890.273795,21.9645171 889.057858,21.9645171 C887.841921,21.9645171 887.0323,22.7756434 887.0323,23.9900755 L887.0323,26.0156339 L885.006741,26.0156339 C883.790804,26.0156339 882.981183,26.8267601 882.981183,28.0426971 C882.981183,29.2571292 883.790804,30.0682555 885.006741,30.0682555 L887.0323,30.0682555 L887.0323,42.6279214 C887.0323,42.6279214 886.627489,42.6279214 886.627489,43.0327321 L877.714129,34.1193723 L878.928561,32.4986246 C879.739688,31.6890032 879.739688,30.4730662 878.928561,29.6619399 C878.11894,28.8523185 876.903003,28.8523185 876.093382,29.6619399 L874.877445,31.2826876 L873.256697,29.6619399 C872.447076,28.8523185 871.231139,28.8523185 870.420012,29.6619399 C869.610391,30.4730662 869.610391,31.6890032 870.420012,32.4986246 L872.04076,34.1193723 L870.420012,35.3353093 C869.610391,36.1449307 869.610391,37.3608677 870.420012,38.1704891 C871.231139,38.9816153 872.447076,38.9816153 873.256697,38.1704891 L874.877445,36.956057 L883.790804,45.8694168 C883.790804,45.8694168 883.790804,46.2742275 883.385994,46.2742275 L870.826328,46.2742275 L870.826328,44.2486691 C870.826328,43.0327321 870.015202,42.2231107 868.800769,42.2231107 C867.584832,42.2231107 866.773706,43.0327321 866.773706,44.2486691 L866.773706,46.2742275 L864.748148,46.2742275 C863.533716,46.2742275 862.722589,47.0838489 862.722589,48.2997859 C862.722589,49.5157229 863.533716,50.3253443 864.748148,50.3253443 L866.773706,50.3253443 L866.773706,52.3509027 C866.773706,53.5668396 867.584832,54.3779659 868.800769,54.3779659 C870.015202,54.3779659 870.826328,53.5668396 870.826328,52.3509027 L870.826328,50.3253443 L883.385994,50.3253443 C883.385994,50.3253443 883.385994,50.730155 883.790804,50.730155 L874.877445,59.6450197 L873.256697,58.4290827 C872.447076,57.6179564 871.231139,57.6179564 870.420012,58.4290827 C869.610391,59.2387041 869.610391,60.4546411 870.420012,61.2642625 L872.04076,62.4801995 L870.420012,64.1009472 C869.610391,64.9120734 869.610391,66.1265055 870.420012,66.9376318 C871.231139,67.7472532 872.447076,67.7472532 873.256697,66.9376318 L874.877445,65.3168841 L876.498192,66.9376318 C877.307814,67.7472532 878.523751,67.7472532 879.334877,66.9376318 C880.144498,66.1265055 880.144498,64.9120734 879.334877,64.1009472 L877.714129,62.4801995 L886.627489,53.5668396 C886.627489,53.5668396 887.0323,53.5668396 887.0323,53.9716503 L887.0323,66.5313162 L885.006741,66.5313162 C883.790804,66.5313162 882.981183,67.3424425 882.981183,68.5583795 C882.981183,69.7728116 883.790804,70.5839379 885.006741,70.5839379 L887.0323,70.5839379 L887.0323,72.6094963 C887.0323,73.8254333 887.841921,74.6350547 889.057858,74.6350547 C890.273795,74.6350547 891.083417,73.8254333 891.083417,72.6094963 L891.083417,70.5839379 L893.108975,70.5839379 C894.324912,70.5839379 895.136038,69.7728116 895.136038,68.5583795 C895.136038,67.3424425 894.324912,66.5313162 893.108975,66.5313162 L891.083417,66.5313162 L891.083417,53.9716503 C891.083417,53.9716503 891.488227,53.9716503 891.488227,53.5668396 L900.403092,62.4801995 L899.187155,64.1009472 C898.376029,64.9120734 898.376029,66.1265055 899.187155,66.9376318 C899.996776,67.7472532 901.212713,67.7472532 902.022335,66.9376318 L903.643083,65.3168841 L905.26383,66.9376318 C906.074956,67.7472532 907.289389,67.7472532 908.100515,66.9376318 C908.505326,66.1265055 908.505326,64.9120734 907.695704,64.1009472" id="Fill-212" fill="#9CAAB2"></path>
                <path d="M1192.95602,384.709717 L1192.95602,384.709717 C1192.55121,384.709717 1191.74008,385.114527 1191.33527,385.114527 C1190.93046,385.114527 1190.11933,384.709717 1190.11933,384.709717 C1189.71452,384.304906 1189.30971,383.49378 1189.30971,383.088969 C1189.30971,382.684158 1189.71452,381.873032 1189.71452,381.468221 C1190.11933,381.468221 1190.93046,381.063411 1191.33527,381.063411 C1192.55121,381.063411 1193.36083,381.873032 1193.36083,383.088969 C1193.36083,383.49378 1192.95602,384.304906 1192.95602,384.709717 M1209.97311,398.89013 L1208.35237,397.269383 L1209.97311,395.648635 C1210.78274,394.839014 1210.78274,393.623077 1209.97311,392.813455 C1209.16199,392.002329 1207.94756,392.002329 1207.13643,392.813455 L1205.51568,394.434203 L1196.60232,385.519338 C1196.60232,385.519338 1196.60232,385.114527 1197.00713,385.114527 L1209.5668,385.114527 L1209.5668,387.140086 C1209.5668,388.356023 1210.37793,389.167149 1211.59386,389.167149 C1212.80829,389.167149 1213.61942,388.356023 1213.61942,387.140086 L1213.61942,385.114527 L1215.64498,385.114527 C1216.86092,385.114527 1217.67054,384.304906 1217.67054,383.088969 C1217.67054,381.873032 1216.86092,381.063411 1215.64498,381.063411 L1213.61942,381.063411 L1213.61942,379.037852 C1213.61942,377.821915 1212.80829,377.012294 1211.59386,377.012294 C1210.37793,377.012294 1209.5668,377.821915 1209.5668,379.037852 L1209.5668,381.063411 L1197.00713,381.063411 C1197.00713,381.063411 1197.00713,380.6586 1196.60232,380.6586 L1205.51568,371.74524 L1207.13643,372.959672 C1207.94756,373.770799 1209.16199,373.770799 1209.97311,372.959672 C1210.78274,372.150051 1210.78274,370.934114 1209.97311,370.124492 L1208.35237,368.908555 L1209.97311,367.287808 C1210.78274,366.478186 1210.78274,365.262249 1209.97311,364.451123 C1209.16199,363.641502 1207.94756,363.641502 1207.13643,364.451123 L1205.51568,366.071871 L1204.29975,364.451123 C1203.49012,363.641502 1202.27419,363.641502 1201.46457,364.451123 C1200.65344,365.262249 1200.65344,366.478186 1201.46457,367.287808 L1202.6805,368.908555 L1193.76564,377.821915 C1193.76564,377.821915 1193.36083,377.821915 1193.36083,377.417105 L1193.36083,364.857439 L1195.38639,364.857439 C1196.60232,364.857439 1197.41345,364.046312 1197.41345,362.83188 C1197.41345,361.615943 1196.60232,360.804817 1195.38639,360.804817 L1193.36083,360.804817 L1193.36083,358.779259 C1193.36083,357.564827 1192.55121,356.7537 1191.33527,356.7537 C1190.11933,356.7537 1189.30971,357.564827 1189.30971,358.779259 L1189.30971,360.804817 L1187.28415,360.804817 C1186.06822,360.804817 1185.25859,361.615943 1185.25859,362.83188 C1185.25859,364.046312 1186.06822,364.857439 1187.28415,364.857439 L1189.30971,364.857439 L1189.30971,377.417105 C1189.30971,377.417105 1188.9049,377.417105 1188.9049,377.821915 L1179.99154,368.908555 L1181.20597,367.287808 C1182.0171,366.478186 1182.0171,365.262249 1181.20597,364.451123 C1180.39635,363.641502 1179.18041,363.641502 1178.37079,364.451123 L1177.15486,366.071871 L1175.53411,364.451123 C1174.72449,363.641502 1173.50855,363.641502 1172.69742,364.451123 C1171.8878,365.262249 1171.8878,366.478186 1172.69742,367.287808 L1174.31817,368.908555 L1172.69742,370.124492 C1171.8878,370.934114 1171.8878,372.150051 1172.69742,372.959672 C1173.50855,373.770799 1174.72449,373.770799 1175.53411,372.959672 L1177.15486,371.74524 L1186.06822,380.6586 C1186.06822,380.6586 1186.06822,381.063411 1185.6634,381.063411 L1173.10374,381.063411 L1173.10374,379.037852 C1173.10374,377.821915 1172.29261,377.012294 1171.07818,377.012294 C1169.86224,377.012294 1169.05112,377.821915 1169.05112,379.037852 L1169.05112,381.063411 L1167.02556,381.063411 C1165.81113,381.063411 1165,381.873032 1165,383.088969 C1165,384.304906 1165.81113,385.114527 1167.02556,385.114527 L1169.05112,385.114527 L1169.05112,387.140086 C1169.05112,388.356023 1169.86224,389.167149 1171.07818,389.167149 C1172.29261,389.167149 1173.10374,388.356023 1173.10374,387.140086 L1173.10374,385.114527 L1185.6634,385.114527 C1185.6634,385.114527 1185.6634,385.519338 1186.06822,385.519338 L1177.15486,394.434203 L1175.53411,393.218266 C1174.72449,392.40714 1173.50855,392.40714 1172.69742,393.218266 C1171.8878,394.027887 1171.8878,395.243824 1172.69742,396.053446 L1174.31817,397.269383 L1172.69742,398.89013 C1171.8878,399.701257 1171.8878,400.915689 1172.69742,401.726815 C1173.50855,402.536436 1174.72449,402.536436 1175.53411,401.726815 L1177.15486,400.106067 L1178.7756,401.726815 C1179.58522,402.536436 1180.80116,402.536436 1181.61229,401.726815 C1182.42191,400.915689 1182.42191,399.701257 1181.61229,398.89013 L1179.99154,397.269383 L1188.9049,388.356023 C1188.9049,388.356023 1189.30971,388.356023 1189.30971,388.760834 L1189.30971,401.320499 L1187.28415,401.320499 C1186.06822,401.320499 1185.25859,402.131626 1185.25859,403.347563 C1185.25859,404.561995 1186.06822,405.373121 1187.28415,405.373121 L1189.30971,405.373121 L1189.30971,407.398679 C1189.30971,408.614616 1190.11933,409.424238 1191.33527,409.424238 C1192.55121,409.424238 1193.36083,408.614616 1193.36083,407.398679 L1193.36083,405.373121 L1195.38639,405.373121 C1196.60232,405.373121 1197.41345,404.561995 1197.41345,403.347563 C1197.41345,402.131626 1196.60232,401.320499 1195.38639,401.320499 L1193.36083,401.320499 L1193.36083,388.760834 C1193.36083,388.760834 1193.76564,388.760834 1193.76564,388.356023 L1202.6805,397.269383 L1201.46457,398.89013 C1200.65344,399.701257 1200.65344,400.915689 1201.46457,401.726815 C1202.27419,402.536436 1203.49012,402.536436 1204.29975,401.726815 L1205.92049,400.106067 L1207.54124,401.726815 C1208.35237,402.536436 1209.5668,402.536436 1210.37793,401.726815 C1210.78274,400.915689 1210.78274,399.701257 1209.97311,398.89013" id="Fill-216" fill="#9CAAB2"></path>
            </g>
            <g id="Group-220-Copy-2" transform="translate(720.850896, -251.000000) scale(-1, 1) translate(-720.850896, 251.000000) translate(1.850896, -604.000000)">
                <path d="M170.471644,612.704325 C170.471644,616.582381 167.327965,619.727565 163.448404,619.727565 C159.570347,619.727565 156.426669,616.582381 156.426669,612.704325 C156.426669,608.826268 159.570347,605.681085 163.448404,605.681085 C167.327965,605.681085 170.471644,608.826268 170.471644,612.704325" id="Fill-62" fill="#CCCCCB"></path>
                <path d="M208.59503,613.205899 C208.59503,614.590381 207.472396,615.714521 206.086408,615.714521 C204.701925,615.714521 203.57929,614.590381 203.57929,613.205899 C203.57929,611.821416 204.701925,610.697276 206.086408,610.697276 C207.472396,610.697276 208.59503,611.821416 208.59503,613.205899" id="Fill-66" fill="#F2F2F2"></path>
                <path d="M50.1268394,671.938364 C49.7235335,673.264156 48.3240021,674.012078 46.9982094,673.608772 C45.6724168,673.206971 44.9244951,671.805935 45.327801,670.480142 C45.7296019,669.15435 47.1306382,668.406428 48.4564309,668.809734 C49.7807187,669.211535 50.5301452,670.612571 50.1268394,671.938364" id="Fill-86" fill="#F2F2F2"></path>
                <path d="M105.260552,701.993376 C105.260552,703.65626 103.913691,705.003121 102.250807,705.003121 C100.587923,705.003121 99.2410622,703.65626 99.2410622,701.993376 C99.2410622,700.330492 100.587923,698.983631 102.250807,698.983631 C103.913691,698.983631 105.260552,700.330492 105.260552,701.993376" id="Fill-88" fill="#CCCCCB"></path>
                <path d="M141.377492,611.701026 C141.377492,613.36391 140.030631,614.710771 138.367747,614.710771 C136.704863,614.710771 135.358002,613.36391 135.358002,611.701026 C135.358002,610.038142 136.704863,608.691281 138.367747,608.691281 C140.030631,608.691281 141.377492,610.038142 141.377492,611.701026" id="Fill-96" fill="#CCCCCB"></path>
                <path d="M1332.23322,635.778986 C1332.23322,639.657043 1329.08954,642.802226 1325.20998,642.802226 C1321.33192,642.802226 1318.18824,639.657043 1318.18824,635.778986 C1318.18824,631.90093 1321.33192,628.755746 1325.20998,628.755746 C1329.08954,628.755746 1332.23322,631.90093 1332.23322,635.778986" id="Fill-138" fill="#CCCCCB"></path>
                <path d="M1370.3566,636.280711 C1370.3566,637.665193 1369.23397,638.789333 1367.84798,638.789333 C1366.4635,638.789333 1365.34086,637.665193 1365.34086,636.280711 C1365.34086,634.896228 1366.4635,633.772088 1367.84798,633.772088 C1369.23397,633.772088 1370.3566,634.896228 1370.3566,636.280711" id="Fill-142" fill="#F2F2F2"></path>
                <path d="M1419.51582,608.691281 C1419.51582,610.354165 1418.16896,611.701026 1416.50608,611.701026 C1414.84319,611.701026 1413.49633,610.354165 1413.49633,608.691281 C1413.49633,607.028397 1414.84319,605.681536 1416.50608,605.681536 C1418.16896,605.681536 1419.51582,607.028397 1419.51582,608.691281" id="Fill-144" fill="#CCCCCB"></path>
            </g>
        </g>
    </g>
</svg>