<?xml version="1.0" encoding="UTF-8" standalone="no"?>
<svg width="371px" height="175px" viewBox="0 0 371 175" version="1.1" xmlns="http://www.w3.org/2000/svg" xmlns:xlink="http://www.w3.org/1999/xlink">
    <!-- Generator: Sketch 3.7.1 (28215) - http://www.bohemiancoding.com/sketch -->
    <title>Group 220 Copy 4</title>
    <desc>Created with Sketch.</desc>
    <defs></defs>
    <g id="Page-1" stroke="none" stroke-width="1" fill="none" fill-rule="evenodd">
        <g id="Results_Mobile-" transform="translate(-4.000000, -1.000000)">
            <g id="Group-220-Copy-4" transform="translate(-15.000000, -7.000000)">
                <path d="M47.718496,49.4488439 C47.718496,50.558726 46.8227526,51.4588632 45.7173307,51.4588632 C44.6123375,51.4588632 43.7165941,50.558726 43.7165941,49.4488439 C43.7165941,48.3389618 44.6123375,47.4388246 45.7173307,47.4388246 C46.8227526,47.4388246 47.718496,48.3389618 47.718496,49.4488439" id="Fill-2" fill="#CCCCCB"></path>
                <path d="M83.1893338,66.6976263 C83.1893338,67.8867549 82.2292718,68.8510646 81.0453812,68.8510646 C79.8614906,68.8510646 78.9014286,67.8867549 78.9014286,66.6976263 C78.9014286,65.5084976 79.8614906,64.544188 81.0453812,64.544188 C82.2292718,64.544188 83.1893338,65.5084976 83.1893338,66.6976263" id="Fill-6" fill="#F2F2F2"></path>
                <path d="M58.5811747,49.5923921 C58.5811747,49.9886247 58.261297,50.3103484 57.866381,50.3103484 C57.4718937,50.3103484 57.152016,49.9886247 57.152016,49.5923921 C57.152016,49.1961594 57.4718937,48.8744357 57.866381,48.8744357 C58.261297,48.8744357 58.5811747,49.1961594 58.5811747,49.5923921" id="Fill-8" fill="#F2F2F2"></path>
                <path d="M93.5144807,76.1123293 C93.5144807,76.508562 93.194603,76.8302857 92.799687,76.8302857 C92.4051997,76.8302857 92.085322,76.508562 92.085322,76.1123293 C92.085322,75.7160967 92.4051997,75.394373 92.799687,75.394373 C93.194603,75.394373 93.5144807,75.7160967 93.5144807,76.1123293" id="Fill-10" fill="#F2F2F2"></path>
                <path d="M72.5883459,41.696466 C72.5883459,42.1723758 72.2045784,42.5578413 71.7307648,42.5578413 C71.2569513,42.5578413 70.8731838,42.1723758 70.8731838,41.696466 C70.8731838,41.2205561 71.2569513,40.8350907 71.7307648,40.8350907 C72.2045784,40.8350907 72.5883459,41.2205561 72.5883459,41.696466" id="Fill-14" fill="#CCCCCB"></path>
                <path d="M41.1437224,31.934198 C41.1437224,32.4101078 40.7599549,32.7955733 40.2861413,32.7955733 C39.8123278,32.7955733 39.4285603,32.4101078 39.4285603,31.934198 C39.4285603,31.4582881 39.8123278,31.0728227 40.2861413,31.0728227 C40.7599549,31.0728227 41.1437224,31.4582881 41.1437224,31.934198" id="Fill-16" fill="#CCCCCB"></path>
                <path d="M56.2943063,13.4146286 C56.2943063,14.6037572 55.3342443,15.5680669 54.1503537,15.5680669 C52.9664631,15.5680669 52.0064011,14.6037572 52.0064011,13.4146286 C52.0064011,12.2254999 52.9664631,11.2611903 54.1503537,11.2611903 C55.3342443,11.2611903 56.2943063,12.2254999 56.2943063,13.4146286" id="Fill-18" fill="#F2F2F2"></path>
                <path d="M58.5811747,23.7511324 C58.5811747,24.1473651 58.261297,24.4690888 57.866381,24.4690888 C57.4718937,24.4690888 57.152016,24.1473651 57.152016,23.7511324 C57.152016,23.3548998 57.4718937,23.0331761 57.866381,23.0331761 C58.261297,23.0331761 58.5811747,23.3548998 58.5811747,23.7511324" id="Fill-20" fill="#F2F2F2"></path>
                <path d="M72.5883459,15.8552063 C72.5883459,16.3311162 72.2045784,16.7165817 71.7307648,16.7165817 C71.2569513,16.7165817 70.8731838,16.3311162 70.8731838,15.8552063 C70.8731838,15.3792965 71.2569513,14.993831 71.7307648,14.993831 C72.2045784,14.993831 72.5883459,15.3792965 72.5883459,15.8552063" id="Fill-22" fill="#CCCCCB"></path>
                <path d="M25.1015972,119.420472 C24.651796,119.56949 24.1668339,119.324428 24.0184724,118.872637 C23.8696821,118.420846 24.1140927,117.933738 24.5638939,117.78472 C25.0136952,117.635271 25.4986572,117.880763 25.6470188,118.332555 C25.7953803,118.784346 25.5513985,119.271454 25.1015972,119.420472" id="Fill-32" fill="#CCCCCB"></path>
                <path d="M46.7298766,95.0118083 C45.6055878,95.3847838 44.3929683,94.7714846 44.0216357,93.6422216 C43.6507319,92.5129585 44.2609008,91.2949738 45.3851895,90.9219983 C46.509907,90.5490228 47.7220978,91.162322 48.0934304,92.2915851 C48.464763,93.4212788 47.8541653,94.6388328 46.7298766,95.0118083" id="Fill-36" fill="#F2F2F2"></path>
                <path d="M37.6749357,100.434037 C37.3001728,100.558505 36.8958234,100.353929 36.7723317,99.9775078 C36.6484113,99.6010868 36.8520867,99.1949484 37.2268497,99.0709103 C37.6016126,98.9464416 38.0055332,99.1510182 38.1294537,99.5274392 C38.2533742,99.9038603 38.0496987,100.309568 37.6749357,100.434037" id="Fill-38" fill="#F2F2F2"></path>
                <path d="M49.5316367,111.317859 C49.0818354,111.466876 48.5968734,111.221815 48.4485118,110.770024 C48.2997215,110.318232 48.5441321,109.831125 48.9939334,109.682107 C49.4437346,109.532658 49.9286967,109.77815 50.0770582,110.229941 C50.2254197,110.681733 49.9814379,111.168841 49.5316367,111.317859" id="Fill-40" fill="#CCCCCB"></path>
                <path d="M48.901186,78.2658968 C48.4513847,78.4149148 47.9664227,78.1698535 47.8180611,77.7180621 C47.6692708,77.2662708 47.9136814,76.779163 48.3634827,76.6301451 C48.8132839,76.4806965 49.298246,76.7261884 49.4466075,77.1779798 C49.594969,77.6297712 49.3509872,78.1168789 48.901186,78.2658968" id="Fill-42" fill="#CCCCCB"></path>
                <path d="M75.3233004,93.1807397 C74.8734992,93.3297577 74.3885371,93.0846964 74.2401756,92.632905 C74.0913853,92.1811137 74.3357959,91.6940059 74.7855971,91.544988 C75.2353984,91.3955394 75.7203604,91.6410313 75.8687219,92.0928227 C76.0170835,92.5446141 75.7731017,93.0317218 75.3233004,93.1807397" id="Fill-44" fill="#CCCCCB"></path>
                <path d="M20.9060107,41.6757499 C20.7910948,42.0551857 20.3923196,42.2692375 20.0145552,42.1538132 C19.6367907,42.0388196 19.4236819,41.6378494 19.5385977,41.2584136 C19.6530848,40.8789777 20.0522888,40.664926 20.4300532,40.7803503 C20.8073889,40.8953439 21.0209265,41.2963141 20.9060107,41.6757499" id="Fill-56" fill="#F2F2F2"></path>
                <path d="M39.4285603,49.1617044 C39.4285603,49.6376143 39.0447928,50.0230797 38.5709793,50.0230797 C38.0971658,50.0230797 37.7133983,49.6376143 37.7133983,49.1617044 C37.7133983,48.6857945 38.0971658,48.3003291 38.5709793,48.3003291 C39.0447928,48.3003291 39.4285603,48.6857945 39.4285603,49.1617044" id="Fill-58" fill="#CCCCCB"></path>
                <path d="M58.5811747,175.496737 C58.5811747,175.89297 58.261297,176.214694 57.866381,176.214694 C57.4718937,176.214694 57.152016,175.89297 57.152016,175.496737 C57.152016,175.100505 57.4718937,174.778781 57.866381,174.778781 C58.261297,174.778781 58.5811747,175.100505 58.5811747,175.496737" id="Fill-66" fill="#F2F2F2"></path>
                <path d="M56.2943063,139.318974 C56.2943063,140.508102 55.3342443,141.472412 54.1503537,141.472412 C52.9664631,141.472412 52.0064011,140.508102 52.0064011,139.318974 C52.0064011,138.129845 52.9664631,137.165535 54.1503537,137.165535 C55.3342443,137.165535 56.2943063,138.129845 56.2943063,139.318974" id="Fill-70" fill="#F2F2F2"></path>
                <path d="M58.5811747,149.655478 C58.5811747,150.05171 58.261297,150.373434 57.866381,150.373434 C57.4718937,150.373434 57.152016,150.05171 57.152016,149.655478 C57.152016,149.259245 57.4718937,148.937521 57.866381,148.937521 C58.261297,148.937521 58.5811747,149.259245 58.5811747,149.655478" id="Fill-72" fill="#F2F2F2"></path>
                <path d="M41.1437224,131.997283 C41.1437224,132.473193 40.7599549,132.858659 40.2861413,132.858659 C39.8123278,132.858659 39.4285603,132.473193 39.4285603,131.997283 C39.4285603,131.521374 39.8123278,131.135908 40.2861413,131.135908 C40.7599549,131.135908 41.1437224,131.521374 41.1437224,131.997283" id="Fill-80" fill="#CCCCCB"></path>
                <path d="M389.607453,49.5923921 C389.607453,49.9886247 389.287575,50.3103484 388.892659,50.3103484 C388.498171,50.3103484 388.178294,49.9886247 388.178294,49.5923921 C388.178294,49.1961594 388.498171,48.8744357 388.892659,48.8744357 C389.287575,48.8744357 389.607453,49.1961594 389.607453,49.5923921" id="Fill-104" fill="#F2F2F2"></path>
                <path d="M372.17,31.934198 C372.17,32.4101078 371.786233,32.7955733 371.312419,32.7955733 C370.838606,32.7955733 370.454838,32.4101078 370.454838,31.934198 C370.454838,31.4582881 370.838606,31.0728227 371.312419,31.0728227 C371.786233,31.0728227 372.17,31.4582881 372.17,31.934198" id="Fill-108" fill="#CCCCCB"></path>
                <path d="M387.320584,13.4146286 C387.320584,14.6037572 386.360522,15.5680669 385.176631,15.5680669 C383.992741,15.5680669 383.032679,14.6037572 383.032679,13.4146286 C383.032679,12.2254999 383.992741,11.2611903 385.176631,11.2611903 C386.360522,11.2611903 387.320584,12.2254999 387.320584,13.4146286" id="Fill-110" fill="#F2F2F2"></path>
                <path d="M389.607453,23.7511324 C389.607453,24.1473651 389.287575,24.4690888 388.892659,24.4690888 C388.498171,24.4690888 388.178294,24.1473651 388.178294,23.7511324 C388.178294,23.3548998 388.498171,23.0331761 388.892659,23.0331761 C389.287575,23.0331761 389.607453,23.3548998 389.607453,23.7511324" id="Fill-112" fill="#F2F2F2"></path>
                <path d="M375.346094,115.43885 C375.091393,115.741624 374.640305,115.779524 374.338865,115.523696 C374.037426,115.267867 373.999692,114.815215 374.254394,114.51201 C374.509095,114.209237 374.960183,114.171337 375.261623,114.427165 C375.563062,114.682993 375.600796,115.136077 375.346094,115.43885" id="Fill-122" fill="#F2F2F2"></path>
                <path d="M391.118725,118.488937 C390.812997,118.852438 390.271863,118.898091 389.910393,118.59101 C389.548494,118.28393 389.503042,117.740402 389.80877,117.376902 C390.114497,117.013832 390.655631,116.968179 391.017101,117.274829 C391.379001,117.581909 391.424452,118.125437 391.118725,118.488937" id="Fill-124" fill="#CCCCCB"></path>
                <path d="M373.374687,90.6466597 C373.068959,91.0101601 372.527826,91.055813 372.166355,90.7487327 C371.804456,90.4416523 371.759004,89.8981245 372.064732,89.5346241 C372.37046,89.1711237 372.911593,89.1259015 373.273064,89.4325512 C373.634963,89.7396315 373.680415,90.2831593 373.374687,90.6466597" id="Fill-126" fill="#CCCCCB"></path>
                <path d="M355.9608,61.9274043 C355.196696,62.8357246 353.843861,62.9498568 352.939542,62.1823714 C352.035223,61.4144553 351.921594,60.0560664 352.685698,59.1473155 C353.449803,58.2389952 354.802637,58.1248629 355.706956,58.892779 C356.611275,59.6602645 356.724905,61.019084 355.9608,61.9274043" id="Fill-128-Copy" fill="#F2F2F2"></path>
                <path d="M279.102749,61.7469712 C278.338644,62.6552915 276.98581,62.7694237 276.081491,62.0019383 C275.177172,61.2340222 275.063542,59.8756333 275.827647,58.9668824 C276.591752,58.0585621 277.944586,57.9444299 278.848905,58.7123459 C279.753224,59.4798314 279.866854,60.8386509 279.102749,61.7469712" id="Fill-128-Copy-2" fill="#F2F2F2"></path>
                <path d="M389.980543,70.9091056 C389.674815,71.2726059 389.133682,71.3182588 388.772211,71.0111785 C388.410312,70.7040982 388.36486,70.1605704 388.670588,69.79707 C388.976316,69.4340003 389.517449,69.3883474 389.87892,69.694997 C390.240819,70.0020773 390.286271,70.5456052 389.980543,70.9091056" id="Fill-136" fill="#CCCCCB"></path>
                <path d="M387.320584,171.76414 C387.320584,172.953268 386.360522,173.917578 385.176631,173.917578 C383.992741,173.917578 383.032679,172.953268 383.032679,171.76414 C383.032679,170.575011 383.992741,169.610701 385.176631,169.610701 C386.360522,169.610701 387.320584,170.575011 387.320584,171.76414" id="Fill-140" fill="#F2F2F2"></path>
                <path d="M389.607453,182.100643 C389.607453,182.496876 389.287575,182.8186 388.892659,182.8186 C388.498171,182.8186 388.178294,182.496876 388.178294,182.100643 C388.178294,181.704411 388.498171,181.382687 388.892659,181.382687 C389.287575,181.382687 389.607453,181.704411 389.607453,182.100643" id="Fill-142" fill="#F2F2F2"></path>
                <path d="M372.17,164.442449 C372.17,164.918359 371.786233,165.303825 371.312419,165.303825 C370.838606,165.303825 370.454838,164.918359 370.454838,164.442449 C370.454838,163.966539 370.838606,163.581074 371.312419,163.581074 C371.786233,163.581074 372.17,163.966539 372.17,164.442449" id="Fill-146" fill="#CCCCCB"></path>
                <path d="M387.320584,145.92288 C387.320584,147.112009 386.360522,148.076318 385.176631,148.076318 C383.992741,148.076318 383.032679,147.112009 383.032679,145.92288 C383.032679,144.733751 383.992741,143.769442 385.176631,143.769442 C386.360522,143.769442 387.320584,144.733751 387.320584,145.92288" id="Fill-150" fill="#F2F2F2"></path>
                <path d="M389.607453,156.259384 C389.607453,156.655616 389.287575,156.97734 388.892659,156.97734 C388.498171,156.97734 388.178294,156.655616 388.178294,156.259384 C388.178294,155.863151 388.498171,155.541427 388.892659,155.541427 C389.287575,155.541427 389.607453,155.863151 389.607453,156.259384" id="Fill-152" fill="#F2F2F2"></path>
                <path d="M372.17,138.60119 C372.17,139.0771 371.786233,139.462565 371.312419,139.462565 C370.838606,139.462565 370.454838,139.0771 370.454838,138.60119 C370.454838,138.12528 370.838606,137.739814 371.312419,137.739814 C371.786233,137.739814 372.17,138.12528 372.17,138.60119" id="Fill-156" fill="#CCCCCB"></path>
                <path d="M107.394301,40.2593905 C106.732677,41.1483298 105.478465,41.33008 104.593441,40.6655289 C103.708418,40.0005472 103.527468,38.7412165 104.189092,37.8522771 C104.851145,36.9633378 106.104928,36.7815876 106.989952,37.4461387 C107.874975,38.1106897 108.055925,39.3704511 107.394301,40.2593905" id="Fill-158" fill="#CCCCCB"></path>
                <path d="M236.528885,40.4427085 C235.867261,41.3316479 234.613049,41.5133981 233.728025,40.848847 C232.843001,40.1838653 232.662052,38.9245345 233.323675,38.0355952 C233.985728,37.1466559 235.239511,36.9649057 236.124535,37.6294567 C237.009559,38.2940078 237.190508,39.5537692 236.528885,40.4427085" id="Fill-158-Copy" fill="#CCCCCB"></path>
                <path d="M116.008059,46.9084758 C115.771796,47.2258926 115.32371,47.2909264 115.007691,47.0536175 C114.691672,46.8158779 114.626925,46.36624 114.863617,46.0488232 C115.099881,45.7314064 115.547538,45.6663726 115.863557,45.9036815 C116.180004,46.1409904 116.244323,46.591059 116.008059,46.9084758" id="Fill-160" fill="#F2F2F2"></path>
                <path d="M131.933468,49.0106192 C131.650037,49.3917778 131.112334,49.4693015 130.733283,49.184617 C130.353803,48.8995018 130.276192,48.3598501 130.560052,47.9791222 C130.843482,47.5979636 131.380757,47.5200092 131.760236,47.8051244 C132.139716,48.089809 132.216898,48.6294606 131.933468,49.0106192" id="Fill-162" fill="#CCCCCB"></path>
                <path d="M190.336169,49.0935631 C190.052739,49.4747217 189.515035,49.5522455 189.135985,49.2675609 C188.756505,48.9824457 188.678894,48.442794 188.962753,48.0620661 C189.246184,47.6809076 189.783458,47.6029531 190.162938,47.8880683 C190.542418,48.1727529 190.6196,48.7124045 190.336169,49.0935631" id="Fill-162-Copy" fill="#CCCCCB"></path>
                <path d="M112.571646,22.2780084 C112.288216,22.6591669 111.750513,22.7366907 111.371462,22.4520062 C110.991982,22.1668909 110.914371,21.6272393 111.19823,21.2465114 C111.481661,20.8653528 112.018935,20.7873984 112.398415,21.0725136 C112.777895,21.3571981 112.855077,21.8968498 112.571646,22.2780084" id="Fill-164" fill="#CCCCCB"></path>
                <path d="M135.746916,16.5600267 C135.037697,17.5122771 133.694296,17.7073786 132.745811,16.9950212 C131.797756,16.2826638 131.603942,14.9333194 132.313162,13.9806383 C133.021952,13.0283879 134.365782,12.8337171 135.313838,13.5456438 C136.262322,14.2580011 136.456136,15.6077763 135.746916,16.5600267" id="Fill-166" fill="#F2F2F2"></path>
                <path d="M131.415403,26.2135891 C131.179139,26.5310059 130.731053,26.5960398 130.415035,26.3587309 C130.099016,26.1209913 130.034269,25.6713534 130.270961,25.3539366 C130.507225,25.0365197 130.954882,24.9714859 131.270901,25.2087948 C131.587348,25.4461037 131.651667,25.8961723 131.415403,26.2135891" id="Fill-168" fill="#F2F2F2"></path>
                <path d="M147.340811,28.3157325 C147.057381,28.6968911 146.519678,28.7744149 146.140627,28.4897303 C145.761147,28.2046151 145.683536,27.6649635 145.967395,27.2842356 C146.250826,26.903077 146.7881,26.8251225 147.16758,27.1102378 C147.54706,27.3949223 147.624242,27.9345739 147.340811,28.3157325" id="Fill-170" fill="#CCCCCB"></path>
                <path d="M295.426189,19.5829372 C294.343064,19.8043107 293.286524,19.1018591 293.066126,18.0143728 C292.845727,16.9264558 293.545085,15.8652414 294.627781,15.6438679 C295.710905,15.4224944 296.767445,16.124946 296.987844,17.2124324 C297.208242,18.3003494 296.509313,19.3615638 295.426189,19.5829372" id="Fill-174" fill="#CCCCCB"></path>
                <path d="M307.080758,25.9906221 C305.920451,26.227931 304.788444,25.4755197 304.55218,24.3100789 C304.315916,23.1446381 305.065442,22.0076226 306.225321,21.7703137 C307.385628,21.5330048 308.518063,22.2854162 308.753898,23.450857 C308.990162,24.6162978 308.241065,25.7533132 307.080758,25.9906221" id="Fill-176" fill="#F2F2F2"></path>
                <path d="M297.452695,30.3030977 C297.065926,30.3823442 296.688591,30.1312533 296.609693,29.742773 C296.531225,29.3542928 296.780781,28.9752876 297.16755,28.8964718 C297.554319,28.8172252 297.931654,29.0678855 298.010552,29.4563657 C298.089021,29.844846 297.839464,30.2238511 297.452695,30.3030977" id="Fill-178" fill="#F2F2F2"></path>
                <path d="M307.949616,42.5147295 C307.485665,42.6094807 307.032862,42.3084301 306.938099,41.842426 C306.843765,41.376422 307.14349,40.9216158 307.607441,40.8264338 C308.071821,40.7316825 308.524624,41.0327332 308.618958,41.4987373 C308.713292,41.965172 308.413567,42.4199782 307.949616,42.5147295" id="Fill-180" fill="#CCCCCB"></path>
                <path d="M332.291282,20.836626 C331.130974,21.0739349 329.998968,20.3215235 329.762704,19.1560827 C329.52644,17.9906419 330.275966,16.8536265 331.435845,16.6163176 C332.596152,16.3790087 333.728587,17.13142 333.964422,18.2968608 C334.200686,19.4623016 333.451589,20.5993171 332.291282,20.836626" id="Fill-184" fill="#F2F2F2"></path>
                <path d="M322.663219,25.1490584 C322.27645,25.228305 321.899115,24.9772141 321.820217,24.5887338 C321.741749,24.2002535 321.991305,23.8212484 322.378074,23.7424325 C322.764843,23.663186 323.142178,23.9138462 323.221076,24.3023265 C323.299545,24.6908068 323.049988,25.0698119 322.663219,25.1490584" id="Fill-186" fill="#F2F2F2"></path>
                <path d="M333.16014,37.3606902 C332.696188,37.4554415 332.243386,37.1543908 332.148623,36.6883868 C332.054289,36.2223827 332.354014,35.7675766 332.817965,35.6723946 C333.282345,35.5776433 333.735148,35.878694 333.829482,36.344698 C333.923816,36.8111328 333.624091,37.2659389 333.16014,37.3606902" id="Fill-188" fill="#CCCCCB"></path>
                <path d="M230.8626,8.93401256 C231.967165,8.89998823 232.890351,9.77126937 232.924225,10.8811515 C232.958528,11.9906029 232.090656,12.9174427 230.986092,12.9518977 C229.881528,12.9859221 228.958342,12.1142102 228.924038,11.0047588 C228.890164,9.89530742 229.758036,8.96803688 230.8626,8.93401256" id="Fill-192" fill="#CCCCCB"></path>
                <path d="M213.63607,16.0746848 C214.109455,16.0600414 214.505228,16.4334476 214.519807,16.9089268 C214.534386,17.3844059 214.162196,17.7819307 213.688811,17.796574 C213.215427,17.8112174 212.820082,17.4378112 212.805503,16.962332 C212.790924,16.4868529 213.162685,16.0893281 213.63607,16.0746848" id="Fill-196" fill="#CCCCCB"></path>
                <path d="M205.14739,9.73065552 C206.251954,9.6966312 207.17514,10.5679123 207.209015,11.6777944 C207.243318,12.7872459 206.375446,13.7140857 205.270882,13.7485407 C204.166317,13.782565 203.243131,12.9108532 203.208828,11.8014018 C203.174954,10.6919504 204.042826,9.76467985 205.14739,9.73065552" id="Fill-198" fill="#CCCCCB"></path>
                <path d="M187.92086,16.8713708 C188.394244,16.8567274 188.790018,17.2301336 188.804597,17.7056128 C188.819176,18.181092 188.446986,18.5786167 187.973601,18.5932601 C187.500216,18.6079034 187.104871,18.2344972 187.090292,17.7590181 C187.075714,17.2835389 187.447475,16.8860142 187.92086,16.8713708" id="Fill-208" fill="#CCCCCB"></path>
                <path d="M31.255127,63.2032419 L31.255127,63.2032419 C31.1397824,63.2032419 30.9086643,63.3190969 30.7933196,63.3190969 C30.677975,63.3190969 30.4468569,63.2032419 30.4468569,63.2032419 C30.3315123,63.087387 30.2161676,62.8552463 30.2161676,62.7393913 C30.2161676,62.6235363 30.3315123,62.3913957 30.3315123,62.2755407 C30.4468569,62.2755407 30.677975,62.1596857 30.7933196,62.1596857 C31.1397824,62.1596857 31.3704717,62.3913957 31.3704717,62.7393913 C31.3704717,62.8552463 31.255127,63.087387 31.255127,63.2032419 M36.1038902,67.2616118 L35.6420828,66.7977612 L36.1038902,66.3339105 C36.3345795,66.1022006 36.3345795,65.7542049 36.1038902,65.522495 C35.8727721,65.2903543 35.5267381,65.2903543 35.2956201,65.522495 L34.8338127,65.9863456 L32.2940865,63.4349519 C32.2940865,63.4349519 32.2940865,63.3190969 32.4094311,63.3190969 L35.9881167,63.3190969 L35.9881167,63.8988025 C35.9881167,64.2467981 36.2192348,64.4789388 36.5656976,64.4789388 C36.9117315,64.4789388 37.1428496,64.2467981 37.1428496,63.8988025 L37.1428496,63.3190969 L37.7200016,63.3190969 C38.0664644,63.3190969 38.2971537,63.087387 38.2971537,62.7393913 C38.2971537,62.3913957 38.0664644,62.1596857 37.7200016,62.1596857 L37.1428496,62.1596857 L37.1428496,61.5799801 C37.1428496,61.2319845 36.9117315,61.0002745 36.5656976,61.0002745 C36.2192348,61.0002745 35.9881167,61.2319845 35.9881167,61.5799801 L35.9881167,62.1596857 L32.4094311,62.1596857 C32.4094311,62.1596857 32.4094311,62.0438308 32.2940865,62.0438308 L34.8338127,59.4928677 L35.2956201,59.8404327 C35.5267381,60.0725733 35.8727721,60.0725733 36.1038902,59.8404327 C36.3345795,59.6087227 36.3345795,59.2607271 36.1038902,59.0290171 L35.6420828,58.6810215 L36.1038902,58.2171709 C36.3345795,57.9854609 36.3345795,57.6374653 36.1038902,57.4053246 C35.8727721,57.1736147 35.5267381,57.1736147 35.2956201,57.4053246 L34.8338127,57.8691753 L34.4873499,57.4053246 C34.2566606,57.1736147 33.9101979,57.1736147 33.6795086,57.4053246 C33.4483905,57.6374653 33.4483905,57.9854609 33.6795086,58.2171709 L34.0259713,58.6810215 L31.4858163,61.2319845 C31.4858163,61.2319845 31.3704717,61.2319845 31.3704717,61.1161295 L31.3704717,57.5216103 L31.9476237,57.5216103 C32.2940865,57.5216103 32.5252045,57.2894697 32.5252045,56.9419047 C32.5252045,56.5939091 32.2940865,56.3617684 31.9476237,56.3617684 L31.3704717,56.3617684 L31.3704717,55.7820629 C31.3704717,55.4344979 31.1397824,55.2023573 30.7933196,55.2023573 C30.4468569,55.2023573 30.2161676,55.4344979 30.2161676,55.7820629 L30.2161676,56.3617684 L29.6390156,56.3617684 C29.2925528,56.3617684 29.0618635,56.5939091 29.0618635,56.9419047 C29.0618635,57.2894697 29.2925528,57.5216103 29.6390156,57.5216103 L30.2161676,57.5216103 L30.2161676,61.1161295 C30.2161676,61.1161295 30.100823,61.1161295 30.100823,61.2319845 L27.5610967,58.6810215 L27.9071307,58.2171709 C28.1382488,57.9854609 28.1382488,57.6374653 27.9071307,57.4053246 C27.6764414,57.1736147 27.3299787,57.1736147 27.0992894,57.4053246 L26.7528266,57.8691753 L26.2910192,57.4053246 C26.0603299,57.1736147 25.7138672,57.1736147 25.4827491,57.4053246 C25.2520598,57.6374653 25.2520598,57.9854609 25.4827491,58.2171709 L25.9445565,58.6810215 L25.4827491,59.0290171 C25.2520598,59.2607271 25.2520598,59.6087227 25.4827491,59.8404327 C25.7138672,60.0725733 26.0603299,60.0725733 26.2910192,59.8404327 L26.7528266,59.4928677 L29.2925528,62.0438308 C29.2925528,62.0438308 29.2925528,62.1596857 29.1772082,62.1596857 L25.5985226,62.1596857 L25.5985226,61.5799801 C25.5985226,61.2319845 25.3674045,61.0002745 25.0213705,61.0002745 C24.6749078,61.0002745 24.4437897,61.2319845 24.4437897,61.5799801 L24.4437897,62.1596857 L23.8666377,62.1596857 C23.5206037,62.1596857 23.2894856,62.3913957 23.2894856,62.7393913 C23.2894856,63.087387 23.5206037,63.3190969 23.8666377,63.3190969 L24.4437897,63.3190969 L24.4437897,63.8988025 C24.4437897,64.2467981 24.6749078,64.4789388 25.0213705,64.4789388 C25.3674045,64.4789388 25.5985226,64.2467981 25.5985226,63.8988025 L25.5985226,63.3190969 L29.1772082,63.3190969 C29.1772082,63.3190969 29.1772082,63.4349519 29.2925528,63.4349519 L26.7528266,65.9863456 L26.2910192,65.63835 C26.0603299,65.4062093 25.7138672,65.4062093 25.4827491,65.63835 C25.2520598,65.8700599 25.2520598,66.2180556 25.4827491,66.4497655 L25.9445565,66.7977612 L25.4827491,67.2616118 C25.2520598,67.4937524 25.2520598,67.8413174 25.4827491,68.073458 C25.7138672,68.305168 26.0603299,68.305168 26.2910192,68.073458 L26.7528266,67.6096074 L27.214634,68.073458 C27.4453233,68.305168 27.791786,68.305168 28.0229041,68.073458 C28.2535934,67.8413174 28.2535934,67.4937524 28.0229041,67.2616118 L27.5610967,66.7977612 L30.100823,64.2467981 C30.100823,64.2467981 30.2161676,64.2467981 30.2161676,64.3626531 L30.2161676,67.9571723 L29.6390156,67.9571723 C29.2925528,67.9571723 29.0618635,68.189313 29.0618635,68.5373086 C29.0618635,68.8848736 29.2925528,69.1170142 29.6390156,69.1170142 L30.2161676,69.1170142 L30.2161676,69.6967198 C30.2161676,70.0447154 30.4468569,70.2764254 30.7933196,70.2764254 C31.1397824,70.2764254 31.3704717,70.0447154 31.3704717,69.6967198 L31.3704717,69.1170142 L31.9476237,69.1170142 C32.2940865,69.1170142 32.5252045,68.8848736 32.5252045,68.5373086 C32.5252045,68.189313 32.2940865,67.9571723 31.9476237,67.9571723 L31.3704717,67.9571723 L31.3704717,64.3626531 C31.3704717,64.3626531 31.4858163,64.3626531 31.4858163,64.2467981 L34.0259713,66.7977612 L33.6795086,67.2616118 C33.4483905,67.4937524 33.4483905,67.8413174 33.6795086,68.073458 C33.9101979,68.305168 34.2566606,68.305168 34.4873499,68.073458 L34.9491573,67.6096074 L35.4109647,68.073458 C35.6420828,68.305168 35.9881167,68.305168 36.2192348,68.073458 C36.3345795,67.8413174 36.3345795,67.4937524 36.1038902,67.2616118" id="Fill-210" fill="#9CAAB2"></path>
                <path d="M339.91466,110.10217 L339.91466,110.10217 C339.799315,110.10217 339.568197,110.218025 339.452853,110.218025 C339.337508,110.218025 339.10639,110.10217 339.10639,110.10217 C338.991045,109.986315 338.875701,109.754174 338.875701,109.638319 C338.875701,109.522464 338.991045,109.290324 338.991045,109.174469 C339.10639,109.174469 339.337508,109.058614 339.452853,109.058614 C339.799315,109.058614 340.030005,109.290324 340.030005,109.638319 C340.030005,109.754174 339.91466,109.986315 339.91466,110.10217 M344.763423,114.16054 L344.301616,113.696689 L344.763423,113.232839 C344.994112,113.001129 344.994112,112.653133 344.763423,112.421423 C344.532305,112.189282 344.186271,112.189282 343.955153,112.421423 L343.493346,112.885274 L340.953619,110.33388 C340.953619,110.33388 340.953619,110.218025 341.068964,110.218025 L344.64765,110.218025 L344.64765,110.79773 C344.64765,111.145726 344.878768,111.377867 345.225231,111.377867 C345.571264,111.377867 345.802383,111.145726 345.802383,110.79773 L345.802383,110.218025 L346.379535,110.218025 C346.725997,110.218025 346.956687,109.986315 346.956687,109.638319 C346.956687,109.290324 346.725997,109.058614 346.379535,109.058614 L345.802383,109.058614 L345.802383,108.478908 C345.802383,108.130912 345.571264,107.899203 345.225231,107.899203 C344.878768,107.899203 344.64765,108.130912 344.64765,108.478908 L344.64765,109.058614 L341.068964,109.058614 C341.068964,109.058614 341.068964,108.942759 340.953619,108.942759 L343.493346,106.391796 L343.955153,106.739361 C344.186271,106.971501 344.532305,106.971501 344.763423,106.739361 C344.994112,106.507651 344.994112,106.159655 344.763423,105.927945 L344.301616,105.579949 L344.763423,105.116099 C344.994112,104.884389 344.994112,104.536393 344.763423,104.304253 C344.532305,104.072543 344.186271,104.072543 343.955153,104.304253 L343.493346,104.768103 L343.146883,104.304253 C342.916194,104.072543 342.569731,104.072543 342.339042,104.304253 C342.107923,104.536393 342.107923,104.884389 342.339042,105.116099 L342.685504,105.579949 L340.145349,108.130912 C340.145349,108.130912 340.030005,108.130912 340.030005,108.015058 L340.030005,104.420538 L340.607157,104.420538 C340.953619,104.420538 341.184738,104.188398 341.184738,103.840833 C341.184738,103.492837 340.953619,103.260696 340.607157,103.260696 L340.030005,103.260696 L340.030005,102.680991 C340.030005,102.333426 339.799315,102.101285 339.452853,102.101285 C339.10639,102.101285 338.875701,102.333426 338.875701,102.680991 L338.875701,103.260696 L338.298549,103.260696 C337.952086,103.260696 337.721397,103.492837 337.721397,103.840833 C337.721397,104.188398 337.952086,104.420538 338.298549,104.420538 L338.875701,104.420538 L338.875701,108.015058 C338.875701,108.015058 338.760356,108.015058 338.760356,108.130912 L336.22063,105.579949 L336.566664,105.116099 C336.797782,104.884389 336.797782,104.536393 336.566664,104.304253 C336.335974,104.072543 335.989512,104.072543 335.758822,104.304253 L335.41236,104.768103 L334.950552,104.304253 C334.719863,104.072543 334.3734,104.072543 334.142282,104.304253 C333.911593,104.536393 333.911593,104.884389 334.142282,105.116099 L334.604089,105.579949 L334.142282,105.927945 C333.911593,106.159655 333.911593,106.507651 334.142282,106.739361 C334.3734,106.971501 334.719863,106.971501 334.950552,106.739361 L335.41236,106.391796 L337.952086,108.942759 C337.952086,108.942759 337.952086,109.058614 337.836741,109.058614 L334.258056,109.058614 L334.258056,108.478908 C334.258056,108.130912 334.026937,107.899203 333.680903,107.899203 C333.334441,107.899203 333.103323,108.130912 333.103323,108.478908 L333.103323,109.058614 L332.526171,109.058614 C332.180137,109.058614 331.949019,109.290324 331.949019,109.638319 C331.949019,109.986315 332.180137,110.218025 332.526171,110.218025 L333.103323,110.218025 L333.103323,110.79773 C333.103323,111.145726 333.334441,111.377867 333.680903,111.377867 C334.026937,111.377867 334.258056,111.145726 334.258056,110.79773 L334.258056,110.218025 L337.836741,110.218025 C337.836741,110.218025 337.836741,110.33388 337.952086,110.33388 L335.41236,112.885274 L334.950552,112.537278 C334.719863,112.305137 334.3734,112.305137 334.142282,112.537278 C333.911593,112.768988 333.911593,113.116984 334.142282,113.348694 L334.604089,113.696689 L334.142282,114.16054 C333.911593,114.39268 333.911593,114.740245 334.142282,114.972386 C334.3734,115.204096 334.719863,115.204096 334.950552,114.972386 L335.41236,114.508535 L335.874167,114.972386 C336.104856,115.204096 336.451319,115.204096 336.682437,114.972386 C336.913126,114.740245 336.913126,114.39268 336.682437,114.16054 L336.22063,113.696689 L338.760356,111.145726 C338.760356,111.145726 338.875701,111.145726 338.875701,111.261581 L338.875701,114.8561 L338.298549,114.8561 C337.952086,114.8561 337.721397,115.088241 337.721397,115.436237 C337.721397,115.783802 337.952086,116.015942 338.298549,116.015942 L338.875701,116.015942 L338.875701,116.595648 C338.875701,116.943643 339.10639,117.175353 339.452853,117.175353 C339.799315,117.175353 340.030005,116.943643 340.030005,116.595648 L340.030005,116.015942 L340.607157,116.015942 C340.953619,116.015942 341.184738,115.783802 341.184738,115.436237 C341.184738,115.088241 340.953619,114.8561 340.607157,114.8561 L340.030005,114.8561 L340.030005,111.261581 C340.030005,111.261581 340.145349,111.261581 340.145349,111.145726 L342.685504,113.696689 L342.339042,114.16054 C342.107923,114.39268 342.107923,114.740245 342.339042,114.972386 C342.569731,115.204096 342.916194,115.204096 343.146883,114.972386 L343.60869,114.508535 L344.070498,114.972386 C344.301616,115.204096 344.64765,115.204096 344.878768,114.972386 C344.994112,114.740245 344.994112,114.39268 344.763423,114.16054" id="Fill-216" fill="#9CAAB2"></path>
            </g>
        </g>
    </g>
</svg>