<?xml version="1.0" encoding="UTF-8" standalone="no"?>
<svg width="756px" height="309px" viewBox="0 0 756 309" version="1.1" xmlns="http://www.w3.org/2000/svg" xmlns:xlink="http://www.w3.org/1999/xlink">
    <!-- Generator: Sketch 3.7.1 (28215) - http://www.bohemiancoding.com/sketch -->
    <title>Group 220 Copy 3</title>
    <desc>Created with Sketch.</desc>
    <defs></defs>
    <g id="Page-1" stroke="none" stroke-width="1" fill="none" fill-rule="evenodd">
        <g id="Results_Tablet" transform="translate(-9.000000, 0.000000)">
            <g id="Group-220-Copy-3" transform="translate(-5.000000, -40.000000)">
                <path d="M90.9926222,94.3040793 C90.9926222,96.4207397 89.2845626,98.1373948 87.1766746,98.1373948 C85.0696043,98.1373948 83.3615446,96.4207397 83.3615446,94.3040793 C83.3615446,92.1874189 85.0696043,90.4707638 87.1766746,90.4707638 C89.2845626,90.4707638 90.9926222,92.1874189 90.9926222,94.3040793" id="Fill-2" fill="#CCCCCB"></path>
                <path d="M158.630641,127.199298 C158.630641,129.46709 156.799935,131.306129 154.542418,131.306129 C152.284901,131.306129 150.454195,129.46709 150.454195,127.199298 C150.454195,124.931506 152.284901,123.092468 154.542418,123.092468 C156.799935,123.092468 158.630641,124.931506 158.630641,127.199298" id="Fill-6" fill="#F2F2F2"></path>
                <path d="M111.70626,94.5778406 C111.70626,95.3334974 111.096297,95.9470579 110.343246,95.9470579 C109.591013,95.9470579 108.98105,95.3334974 108.98105,94.5778406 C108.98105,93.8221838 109.591013,93.2086233 110.343246,93.2086233 C111.096297,93.2086233 111.70626,93.8221838 111.70626,94.5778406" id="Fill-8" fill="#F2F2F2"></path>
                <path d="M178.319279,145.154114 C178.319279,145.909771 177.709317,146.523332 176.956266,146.523332 C176.204033,146.523332 175.59407,145.909771 175.59407,145.154114 C175.59407,144.398458 176.204033,143.784897 176.956266,143.784897 C177.709317,143.784897 178.319279,144.398458 178.319279,145.154114" id="Fill-10" fill="#F2F2F2"></path>
                <path d="M138.416012,79.5194898 C138.416012,80.4270993 137.68422,81.1622219 136.780723,81.1622219 C135.877226,81.1622219 135.145434,80.4270993 135.145434,79.5194898 C135.145434,78.6118802 135.877226,77.8767576 136.780723,77.8767576 C137.68422,77.8767576 138.416012,78.6118802 138.416012,79.5194898" id="Fill-14" fill="#CCCCCB"></path>
                <path d="M78.4554314,60.9018311 C78.4554314,61.8094406 77.7236394,62.5445633 76.8201421,62.5445633 C75.9166447,62.5445633 75.1848528,61.8094406 75.1848528,60.9018311 C75.1848528,59.9942216 75.9166447,59.2590989 76.8201421,59.2590989 C77.7236394,59.2590989 78.4554314,59.9942216 78.4554314,60.9018311" id="Fill-16" fill="#CCCCCB"></path>
                <path d="M111.70626,45.2958755 C111.70626,46.0515323 111.096297,46.6650928 110.343246,46.6650928 C109.591013,46.6650928 108.98105,46.0515323 108.98105,45.2958755 C108.98105,44.5402187 109.591013,43.9266582 110.343246,43.9266582 C111.096297,43.9266582 111.70626,44.5402187 111.70626,45.2958755" id="Fill-20" fill="#F2F2F2"></path>
                <path d="M19.020187,187.146209 C17.0194105,187.809873 14.8616463,186.718277 14.2001718,184.708395 C13.5395149,182.698512 14.6261646,180.530105 16.6277588,179.866441 C18.6285352,179.202778 20.7862995,180.294373 21.4469564,182.304256 C22.1076133,184.31496 21.0209635,186.482545 19.020187,187.146209" id="Fill-26" fill="#CCCCCB"></path>
                <path d="M25.2561993,206.99066 C24.5415779,207.228035 23.770539,206.837886 23.5350573,206.120012 C23.298758,205.402138 23.6871392,204.62759 24.4017606,204.391036 C25.1163821,204.153662 25.8866033,204.543811 26.1229026,205.261685 C26.359202,205.979558 25.9708207,206.753285 25.2561993,206.99066" id="Fill-30" fill="#F2F2F2"></path>
                <path d="M47.8653006,227.747238 C47.0075913,228.031431 46.0828352,227.564074 45.7999302,226.702461 C45.5162075,225.840848 45.9822649,224.911882 46.8399742,224.62769 C47.6976834,224.342676 48.6224395,224.810854 48.9053446,225.672467 C49.1882497,226.53408 48.7230098,227.463046 47.8653006,227.747238" id="Fill-32" fill="#CCCCCB"></path>
                <path d="M89.1074607,181.197383 C86.9635964,181.908686 84.6512973,180.739061 83.9432171,178.585439 C83.2359544,176.431817 84.3994628,174.108994 86.5433271,173.397691 C88.688009,172.686388 90.9994905,173.856013 91.7075707,176.009635 C92.415651,178.164078 91.251325,180.48608 89.1074607,181.197383" id="Fill-36" fill="#F2F2F2"></path>
                <path d="M71.8409314,191.538136 C71.12631,191.77551 70.3552711,191.385362 70.1197894,190.667488 C69.8834901,189.949614 70.2718713,189.175065 70.9864927,188.938512 C71.7011142,188.701137 72.4713354,189.091286 72.7076347,189.80916 C72.943934,190.527034 72.5555528,191.300761 71.8409314,191.538136" id="Fill-38" fill="#F2F2F2"></path>
                <path d="M94.4500327,212.294714 C93.5923234,212.578906 92.6675673,212.111549 92.3846623,211.249936 C92.1009396,210.388323 92.566997,209.459358 93.4247063,209.175165 C94.2824155,208.890151 95.2071716,209.35833 95.4900767,210.219943 C95.7729817,211.081556 95.3077419,212.010521 94.4500327,212.294714" id="Fill-40" fill="#CCCCCB"></path>
                <path d="M93.2478497,149.261191 C92.3901405,149.545384 91.4653844,149.078027 91.1824793,148.216414 C90.8987566,147.354801 91.3648141,146.425836 92.2225233,146.141643 C93.0802326,145.856629 94.0049887,146.324807 94.2878938,147.186421 C94.5707988,148.048034 94.105559,148.976999 93.2478497,149.261191" id="Fill-42" fill="#CCCCCB"></path>
                <path d="M143.631195,177.705345 C142.773486,177.989538 141.84873,177.522181 141.565825,176.660568 C141.282102,175.798954 141.74816,174.869989 142.605869,174.585797 C143.463578,174.300783 144.388334,174.768961 144.671239,175.630574 C144.954144,176.492187 144.488905,177.421153 143.631195,177.705345" id="Fill-44" fill="#CCCCCB"></path>
                <path d="M25.6054971,126.63428 C25.3863683,127.357904 24.6259588,127.766123 23.9056139,127.545997 C23.1852689,127.326692 22.7788995,126.562 22.9980283,125.838377 C23.2163394,125.114753 23.9775666,124.706534 24.6979115,124.92666 C25.4174388,125.145965 25.8246259,125.910657 25.6054971,126.63428" id="Fill-50" fill="#F2F2F2"></path>
                <path d="M39.8648929,79.4799821 C39.6457641,80.2036056 38.8853546,80.6118245 38.1650097,80.3916984 C37.4446647,80.1723937 37.0382953,79.4077018 37.2574241,78.6840783 C37.4757352,77.9604548 38.2369624,77.5522358 38.9573073,77.772362 C39.6768346,77.9916667 40.0840217,78.7563585 39.8648929,79.4799821" id="Fill-56" fill="#F2F2F2"></path>
                <path d="M75.1848528,93.7564745 C75.1848528,94.664084 74.4530608,95.3992067 73.5495634,95.3992067 C72.6460661,95.3992067 71.9142741,94.664084 71.9142741,93.7564745 C71.9142741,92.848865 72.6460661,92.1137424 73.5495634,92.1137424 C74.4530608,92.1137424 75.1848528,92.848865 75.1848528,93.7564745" id="Fill-58" fill="#CCCCCB"></path>
                <path d="M111.70626,334.690499 C111.70626,335.446156 111.096297,336.059716 110.343246,336.059716 C109.591013,336.059716 108.98105,335.446156 108.98105,334.690499 C108.98105,333.934842 109.591013,333.321282 110.343246,333.321282 C111.096297,333.321282 111.70626,333.934842 111.70626,334.690499" id="Fill-66" fill="#F2F2F2"></path>
                <path d="M107.345515,265.695748 C107.345515,267.963539 105.514809,269.802578 103.257292,269.802578 C100.999775,269.802578 99.1690688,267.963539 99.1690688,265.695748 C99.1690688,263.427956 100.999775,261.588917 103.257292,261.588917 C105.514809,261.588917 107.345515,263.427956 107.345515,265.695748" id="Fill-70" fill="#F2F2F2"></path>
                <path d="M111.70626,285.408534 C111.70626,286.16419 111.096297,286.777751 110.343246,286.777751 C109.591013,286.777751 108.98105,286.16419 108.98105,285.408534 C108.98105,284.652877 109.591013,284.039316 110.343246,284.039316 C111.096297,284.039316 111.70626,284.652877 111.70626,285.408534" id="Fill-72" fill="#F2F2F2"></path>
                <path d="M78.4554314,251.732524 C78.4554314,252.640134 77.7236394,253.375256 76.8201421,253.375256 C75.9166447,253.375256 75.1848528,252.640134 75.1848528,251.732524 C75.1848528,250.824915 75.9166447,250.089792 76.8201421,250.089792 C77.7236394,250.089792 78.4554314,250.824915 78.4554314,251.732524" id="Fill-80" fill="#CCCCCB"></path>
                <path d="M17.7935565,277.661902 C17.5310926,278.530086 16.6177835,279.01962 15.7535331,278.755961 C14.8892827,278.492303 14.4019665,277.574837 14.6644304,276.706653 C14.9268943,275.838469 15.8402034,275.348935 16.7044538,275.612593 C17.5687042,275.876252 18.0560204,276.793718 17.7935565,277.661902" id="Fill-98" fill="#CCCCCB"></path>
                <path d="M742.927936,94.5778406 C742.927936,95.3334974 742.317973,95.9470579 741.564923,95.9470579 C740.81269,95.9470579 740.202727,95.3334974 740.202727,94.5778406 C740.202727,93.8221838 740.81269,93.2086233 741.564923,93.2086233 C742.317973,93.2086233 742.927936,93.8221838 742.927936,94.5778406" id="Fill-104" fill="#F2F2F2"></path>
                <path d="M769.637689,79.5194898 C769.637689,80.4270993 768.905897,81.1622219 768.0024,81.1622219 C767.098903,81.1622219 766.367111,80.4270993 766.367111,79.5194898 C766.367111,78.6118802 767.098903,77.8767576 768.0024,77.8767576 C768.905897,77.8767576 769.637689,78.6118802 769.637689,79.5194898" id="Fill-106" fill="#CCCCCB"></path>
                <path d="M709.677108,60.9018311 C709.677108,61.8094406 708.945316,62.5445633 708.041819,62.5445633 C707.138321,62.5445633 706.406529,61.8094406 706.406529,60.9018311 C706.406529,59.9942216 707.138321,59.2590989 708.041819,59.2590989 C708.945316,59.2590989 709.677108,59.9942216 709.677108,60.9018311" id="Fill-108" fill="#CCCCCB"></path>
                <path d="M742.927936,45.2958755 C742.927936,46.0515323 742.317973,46.6650928 741.564923,46.6650928 C740.81269,46.6650928 740.202727,46.0515323 740.202727,45.2958755 C740.202727,44.5402187 740.81269,43.9266582 741.564923,43.9266582 C742.317973,43.9266582 742.927936,44.5402187 742.927936,45.2958755" id="Fill-112" fill="#F2F2F2"></path>
                <path d="M715.733484,220.153873 C715.247803,220.731293 714.387641,220.803574 713.812837,220.315682 C713.238032,219.827791 713.16608,218.964535 713.651761,218.386293 C714.137441,217.808873 714.997604,217.736593 715.572408,218.224484 C716.147212,218.712376 716.219165,219.576453 715.733484,220.153873" id="Fill-122" fill="#F2F2F2"></path>
                <path d="M745.809725,225.970705 C745.226744,226.663938 744.194877,226.751003 743.505602,226.165369 C742.81551,225.579735 742.72884,224.543171 743.311821,223.849938 C743.894801,223.157527 744.926669,223.070462 745.615943,223.655274 C746.306035,224.240909 746.392706,225.277473 745.809725,225.970705" id="Fill-124" fill="#CCCCCB"></path>
                <path d="M711.974281,172.872591 C711.3913,173.565824 710.359433,173.652889 709.670158,173.067255 C708.980066,172.481621 708.893396,171.445057 709.476376,170.751824 C710.059357,170.058591 711.091225,169.972348 711.780499,170.55716 C712.470591,171.142794 712.557261,172.179358 711.974281,172.872591" id="Fill-126" fill="#CCCCCB"></path>
                <path d="M756.733866,164.628294 C755.276824,166.360555 752.697155,166.578217 750.972742,165.114542 C749.24833,163.650047 749.031654,161.059458 750.488697,159.326376 C751.945739,157.594114 754.525408,157.376452 756.249821,158.840948 C757.974233,160.304623 758.190909,162.896033 756.733866,164.628294" id="Fill-128" fill="#F2F2F2"></path>
                <path d="M678.768389,118.10199 C677.311346,119.834251 674.731677,120.051913 673.007264,118.588238 C671.282852,117.123743 671.066176,114.533154 672.523219,112.800072 C673.980262,111.06781 676.55993,110.850148 678.284343,112.314644 C680.008756,113.778319 680.225431,116.369729 678.768389,118.10199" id="Fill-128-Copy" fill="#F2F2F2"></path>
                <path d="M532.210634,117.757885 C530.753591,119.490146 528.173923,119.707808 526.44951,118.244134 C524.725097,116.779638 524.508421,114.189049 525.965464,112.455967 C527.422507,110.723706 530.002176,110.506044 531.726589,111.97054 C533.451001,113.434214 533.667677,116.025624 532.210634,117.757885" id="Fill-128-Copy-2" fill="#F2F2F2"></path>
                <path d="M747.398572,182.51239 C746.912891,183.089811 746.052729,183.162091 745.477925,182.674199 C744.903121,182.186308 744.831168,181.323052 745.316849,180.74481 C745.80253,180.16739 746.662692,180.09511 747.237496,180.583001 C747.8123,181.070893 747.884253,181.93497 747.398572,182.51239" id="Fill-132" fill="#F2F2F2"></path>
                <path d="M743.639369,135.231026 C743.056388,135.924259 742.024521,136.011324 741.335246,135.42569 C740.645154,134.840056 740.558484,133.803492 741.141465,133.110259 C741.724445,132.417848 742.756313,132.330783 743.445587,132.915595 C744.135679,133.501229 744.22235,134.537793 743.639369,135.231026" id="Fill-136" fill="#CCCCCB"></path>
                <path d="M738.567192,327.572047 C738.567192,329.839839 736.736486,331.678878 734.478969,331.678878 C732.221452,331.678878 730.390746,329.839839 730.390746,327.572047 C730.390746,325.304256 732.221452,323.465217 734.478969,323.465217 C736.736486,323.465217 738.567192,325.304256 738.567192,327.572047" id="Fill-140" fill="#F2F2F2"></path>
                <path d="M742.927936,347.284834 C742.927936,348.04049 742.317973,348.654051 741.564923,348.654051 C740.81269,348.654051 740.202727,348.04049 740.202727,347.284834 C740.202727,346.529177 740.81269,345.915616 741.564923,345.915616 C742.317973,345.915616 742.927936,346.529177 742.927936,347.284834" id="Fill-142" fill="#F2F2F2"></path>
                <path d="M769.637689,332.226401 C769.637689,333.13401 768.905897,333.869133 768.0024,333.869133 C767.098903,333.869133 766.367111,333.13401 766.367111,332.226401 C766.367111,331.318791 767.098903,330.583668 768.0024,330.583668 C768.905897,330.583668 769.637689,331.318791 769.637689,332.226401" id="Fill-144" fill="#CCCCCB"></path>
                <path d="M709.677108,313.608824 C709.677108,314.516434 708.945316,315.251556 708.041819,315.251556 C707.138321,315.251556 706.406529,314.516434 706.406529,313.608824 C706.406529,312.701215 707.138321,311.966092 708.041819,311.966092 C708.945316,311.966092 709.677108,312.701215 709.677108,313.608824" id="Fill-146" fill="#CCCCCB"></path>
                <path d="M738.567192,278.290082 C738.567192,280.557874 736.736486,282.396913 734.478969,282.396913 C732.221452,282.396913 730.390746,280.557874 730.390746,278.290082 C730.390746,276.022291 732.221452,274.183252 734.478969,274.183252 C736.736486,274.183252 738.567192,276.022291 738.567192,278.290082" id="Fill-150" fill="#F2F2F2"></path>
                <path d="M742.927936,298.002868 C742.927936,298.758525 742.317973,299.372086 741.564923,299.372086 C740.81269,299.372086 740.202727,298.758525 740.202727,298.002868 C740.202727,297.247212 740.81269,296.633651 741.564923,296.633651 C742.317973,296.633651 742.927936,297.247212 742.927936,298.002868" id="Fill-152" fill="#F2F2F2"></path>
                <path d="M769.637689,282.944435 C769.637689,283.852045 768.905897,284.587168 768.0024,284.587168 C767.098903,284.587168 766.367111,283.852045 766.367111,282.944435 C766.367111,282.036826 767.098903,281.301703 768.0024,281.301703 C768.905897,281.301703 769.637689,282.036826 769.637689,282.944435" id="Fill-154" fill="#CCCCCB"></path>
                <path d="M709.677108,264.326859 C709.677108,265.234468 708.945316,265.969591 708.041819,265.969591 C707.138321,265.969591 706.406529,265.234468 706.406529,264.326859 C706.406529,263.419249 707.138321,262.684127 708.041819,262.684127 C708.945316,262.684127 709.677108,263.419249 709.677108,264.326859" id="Fill-156" fill="#CCCCCB"></path>
                <path d="M204.786192,76.7788375 C203.524566,78.4741371 201.132955,78.8207536 199.445337,77.5533858 C197.757718,76.2851965 197.412672,73.8835221 198.674298,72.1882225 C199.936741,70.4929229 202.327534,70.1463064 204.015153,71.4136743 C205.702771,72.6810421 206.047817,75.0835379 204.786192,76.7788375" id="Fill-158" fill="#CCCCCB"></path>
                <path d="M451.028118,77.1284442 C449.766492,78.8237438 447.374882,79.1703603 445.687263,77.9029924 C443.999645,76.6348032 443.654599,74.2331287 444.916224,72.5378291 C446.178668,70.8425295 448.569461,70.495913 450.257079,71.7632809 C451.944698,73.0306488 452.289744,75.4331446 451.028118,77.1284442" id="Fill-158-Copy" fill="#CCCCCB"></path>
                <path d="M221.211447,89.4593336 C220.760924,90.0646804 219.906486,90.1887067 219.303882,89.7361339 C218.701277,89.2827399 218.577813,88.4252337 219.029153,87.8198869 C219.479675,87.2145401 220.333296,87.0905138 220.9359,87.5430865 C221.539322,87.9956592 221.661969,88.8539868 221.211447,89.4593336" id="Fill-160" fill="#F2F2F2"></path>
                <path d="M251.579014,93.4683393 C251.038551,94.1952483 250.013225,94.3430942 249.290427,93.8001712 C248.566812,93.2564269 248.418818,92.2272551 248.960099,91.5011675 C249.500562,90.7742585 250.52507,90.6255913 251.248686,91.1693356 C251.972302,91.7122586 252.119478,92.7414303 251.579014,93.4683393" id="Fill-162" fill="#CCCCCB"></path>
                <path d="M362.94495,93.626522 C362.404487,94.353431 361.379161,94.5012769 360.656363,93.9583539 C359.932747,93.4146095 359.784754,92.3854378 360.326034,91.6593502 C360.866498,90.9324412 361.891006,90.7837739 362.614622,91.3275183 C363.338237,91.8704413 363.485413,92.899613 362.94495,93.626522" id="Fill-162-Copy" fill="#CCCCCB"></path>
                <path d="M214.658679,42.4864749 C214.118216,43.2133839 213.092889,43.3612298 212.370091,42.8183068 C211.646476,42.2745625 211.498482,41.2453908 212.039763,40.5193032 C212.580226,39.7923942 213.604735,39.6437269 214.32835,40.1874713 C215.051966,40.7303943 215.199142,41.759566 214.658679,42.4864749" id="Fill-164" fill="#CCCCCB"></path>
                <path d="M250.591136,49.9920361 C250.140614,50.5973829 249.286175,50.7214092 248.683571,50.2688365 C248.080967,49.8154424 247.957503,48.9579362 248.408843,48.3525894 C248.859365,47.7472426 249.712986,47.6232163 250.31559,48.075789 C250.919012,48.5283617 251.041658,49.3866893 250.591136,49.9920361" id="Fill-168" fill="#F2F2F2"></path>
                <path d="M280.958704,54.0010418 C280.418241,54.7279508 279.392915,54.8757967 278.670117,54.3328737 C277.946501,53.7891294 277.798507,52.7599577 278.339788,52.03387 C278.880251,51.3069611 279.90476,51.1582938 280.628376,51.7020381 C281.351991,52.2449611 281.499167,53.2741328 280.958704,54.0010418" id="Fill-170" fill="#CCCCCB"></path>
                <path d="M585.560857,49.5668149 C583.34831,50.0193876 581.189728,48.584461 580.739206,46.3618444 C580.288684,44.1392278 581.717927,41.9708213 583.929655,41.5182486 C586.142202,41.0656759 588.301601,42.5006024 588.751306,44.7232191 C589.201828,46.9458357 587.773403,49.1142422 585.560857,49.5668149" id="Fill-176" fill="#F2F2F2"></path>
                <path d="M567.201463,57.7911535 C566.463948,57.9422848 565.744421,57.4634284 565.593974,56.7225562 C565.444345,55.981684 565.920214,55.2588818 566.65773,55.1085718 C567.395245,54.9574405 568.114772,55.4354755 568.265219,56.1763478 C568.414848,56.91722 567.938979,57.6400221 567.201463,57.7911535" id="Fill-178" fill="#F2F2F2"></path>
                <path d="M587.21765,81.0800032 C586.332958,81.2607037 585.469526,80.6865688 585.288826,79.7978507 C585.108944,78.9091326 585.680478,78.04177 586.565169,77.8602481 C587.450679,77.6795476 588.314111,78.2536825 588.493993,79.1424006 C588.673875,80.0319401 588.102341,80.8993026 587.21765,81.0800032" id="Fill-180" fill="#CCCCCB"></path>
                <path d="M615.274472,47.9618655 C614.536957,48.1129969 613.817429,47.6341405 613.666983,46.8932683 C613.517354,46.1523961 613.993223,45.4295939 614.730739,45.2792839 C615.468254,45.1281525 616.187781,45.6061876 616.338228,46.3470598 C616.487857,47.087932 616.011988,47.8107342 615.274472,47.9618655" id="Fill-186" fill="#F2F2F2"></path>
                <path d="M635.290659,71.2507152 C634.405967,71.4314158 633.542535,70.8572809 633.361835,69.9685628 C633.181953,69.0798447 633.753487,68.2124821 634.638178,68.0309602 C635.523688,67.8502597 636.38712,68.4243945 636.567002,69.3131126 C636.746884,70.2026521 636.17535,71.0700147 635.290659,71.2507152" id="Fill-188" fill="#CCCCCB"></path>
                <path d="M59.5992373,120.535144 L59.5992373,120.535144 C59.3792909,120.535144 58.9385804,120.756092 58.718634,120.756092 C58.4986876,120.756092 58.0579771,120.535144 58.0579771,120.535144 C57.8380307,120.314197 57.6180843,119.871481 57.6180843,119.650533 C57.6180843,119.429586 57.8380307,118.986869 57.8380307,118.765922 C58.0579771,118.765922 58.4986876,118.544974 58.718634,118.544974 C59.3792909,118.544974 59.8191837,118.986869 59.8191837,119.650533 C59.8191837,119.871481 59.5992373,120.314197 59.5992373,120.535144 M68.8451631,128.274877 L67.9645598,127.390266 L68.8451631,126.505655 C69.285056,126.06376 69.285056,125.400096 68.8451631,124.958201 C68.4044527,124.515485 67.7446134,124.515485 67.303903,124.958201 L66.4232997,125.842812 L61.5803903,120.977039 C61.5803903,120.977039 61.5803903,120.756092 61.8003368,120.756092 L68.6243991,120.756092 L68.6243991,121.861651 C68.6243991,122.525314 69.0651095,122.968031 69.7257664,122.968031 C70.3856057,122.968031 70.8263161,122.525314 70.8263161,121.861651 L70.8263161,120.756092 L71.9268659,120.756092 C72.5875227,120.756092 73.0274156,120.314197 73.0274156,119.650533 C73.0274156,118.986869 72.5875227,118.544974 71.9268659,118.544974 L70.8263161,118.544974 L70.8263161,117.439416 C70.8263161,116.775752 70.3856057,116.333857 69.7257664,116.333857 C69.0651095,116.333857 68.6243991,116.775752 68.6243991,117.439416 L68.6243991,118.544974 L61.8003368,118.544974 C61.8003368,118.544974 61.8003368,118.324027 61.5803903,118.324027 L66.4232997,113.459076 L67.303903,114.121918 C67.7446134,114.564634 68.4044527,114.564634 68.8451631,114.121918 C69.285056,113.680023 69.285056,113.016359 68.8451631,112.574464 L67.9645598,111.910801 L68.8451631,111.026189 C69.285056,110.584294 69.285056,109.920631 68.8451631,109.477914 C68.4044527,109.036019 67.7446134,109.036019 67.303903,109.477914 L66.4232997,110.362525 L65.7626428,109.477914 C65.3227499,109.036019 64.6620931,109.036019 64.2222002,109.477914 C63.7814898,109.920631 63.7814898,110.584294 64.2222002,111.026189 L64.8828571,111.910801 L60.0391302,116.775752 C60.0391302,116.775752 59.8191837,116.775752 59.8191837,116.554804 L59.8191837,109.699683 L60.9197335,109.699683 C61.5803903,109.699683 62.0211008,109.256967 62.0211008,108.594124 C62.0211008,107.930461 61.5803903,107.487744 60.9197335,107.487744 L59.8191837,107.487744 L59.8191837,106.382185 C59.8191837,105.719343 59.3792909,105.276627 58.718634,105.276627 C58.0579771,105.276627 57.6180843,105.719343 57.6180843,106.382185 L57.6180843,107.487744 L56.5175346,107.487744 C55.8568777,107.487744 55.4169849,107.930461 55.4169849,108.594124 C55.4169849,109.256967 55.8568777,109.699683 56.5175346,109.699683 L57.6180843,109.699683 L57.6180843,116.554804 C57.6180843,116.554804 57.3981379,116.554804 57.3981379,116.775752 L52.5552286,111.910801 L53.2150678,111.026189 C53.6557783,110.584294 53.6557783,109.920631 53.2150678,109.477914 C52.775175,109.036019 52.1145181,109.036019 51.6746253,109.477914 L51.0139684,110.362525 L50.1333651,109.477914 C49.6934723,109.036019 49.0328154,109.036019 48.5921049,109.477914 C48.1522121,109.920631 48.1522121,110.584294 48.5921049,111.026189 L49.4727082,111.910801 L48.5921049,112.574464 C48.1522121,113.016359 48.1522121,113.680023 48.5921049,114.121918 C49.0328154,114.564634 49.6934723,114.564634 50.1333651,114.121918 L51.0139684,113.459076 L55.8568777,118.324027 C55.8568777,118.324027 55.8568777,118.544974 55.6369313,118.544974 L48.812869,118.544974 L48.812869,117.439416 C48.812869,116.775752 48.3721585,116.333857 47.7123193,116.333857 C47.0516624,116.333857 46.6109519,116.775752 46.6109519,117.439416 L46.6109519,118.544974 L45.5104022,118.544974 C44.850563,118.544974 44.4098525,118.986869 44.4098525,119.650533 C44.4098525,120.314197 44.850563,120.756092 45.5104022,120.756092 L46.6109519,120.756092 L46.6109519,121.861651 C46.6109519,122.525314 47.0516624,122.968031 47.7123193,122.968031 C48.3721585,122.968031 48.812869,122.525314 48.812869,121.861651 L48.812869,120.756092 L55.6369313,120.756092 C55.6369313,120.756092 55.6369313,120.977039 55.8568777,120.977039 L51.0139684,125.842812 L50.1333651,125.179148 C49.6934723,124.736432 49.0328154,124.736432 48.5921049,125.179148 C48.1522121,125.621043 48.1522121,126.284707 48.5921049,126.726602 L49.4727082,127.390266 L48.5921049,128.274877 C48.1522121,128.717593 48.1522121,129.380436 48.5921049,129.823152 C49.0328154,130.265047 49.6934723,130.265047 50.1333651,129.823152 L51.0139684,128.938541 L51.8945717,129.823152 C52.3344645,130.265047 52.9951214,130.265047 53.4358319,129.823152 C53.8757247,129.380436 53.8757247,128.717593 53.4358319,128.274877 L52.5552286,127.390266 L57.3981379,122.525314 C57.3981379,122.525314 57.6180843,122.525314 57.6180843,122.746262 L57.6180843,129.601383 L56.5175346,129.601383 C55.8568777,129.601383 55.4169849,130.0441 55.4169849,130.707763 C55.4169849,131.370606 55.8568777,131.813322 56.5175346,131.813322 L57.6180843,131.813322 L57.6180843,132.918881 C57.6180843,133.582545 58.0579771,134.02444 58.718634,134.02444 C59.3792909,134.02444 59.8191837,133.582545 59.8191837,132.918881 L59.8191837,131.813322 L60.9197335,131.813322 C61.5803903,131.813322 62.0211008,131.370606 62.0211008,130.707763 C62.0211008,130.0441 61.5803903,129.601383 60.9197335,129.601383 L59.8191837,129.601383 L59.8191837,122.746262 C59.8191837,122.746262 60.0391302,122.746262 60.0391302,122.525314 L64.8828571,127.390266 L64.2222002,128.274877 C63.7814898,128.717593 63.7814898,129.380436 64.2222002,129.823152 C64.6620931,130.265047 65.3227499,130.265047 65.7626428,129.823152 L66.6432461,128.938541 L67.5238494,129.823152 C67.9645598,130.265047 68.6243991,130.265047 69.0651095,129.823152 C69.285056,129.380436 69.285056,128.717593 68.8451631,128.274877" id="Fill-210" fill="#9CAAB2"></path>
                <path d="M483.933758,27.2468486 L483.933758,27.2468486 C483.713811,27.2468486 483.273101,27.4677961 483.053154,27.4677961 C482.833208,27.4677961 482.392498,27.2468486 482.392498,27.2468486 C482.172551,27.0259011 481.952605,26.5831848 481.952605,26.3622373 C481.952605,26.1412898 482.172551,25.6985735 482.172551,25.477626 C482.392498,25.477626 482.833208,25.2566786 483.053154,25.2566786 C483.713811,25.2566786 484.153704,25.6985735 484.153704,26.3622373 C484.153704,26.5831848 483.933758,27.0259011 483.933758,27.2468486 M493.179684,34.9865812 L492.29908,34.1019699 L493.179684,33.2173587 C493.619576,32.7754637 493.619576,32.1117999 493.179684,31.669905 C492.738973,31.2271886 492.079134,31.2271886 491.638423,31.669905 L490.75782,32.5545162 L485.914911,27.6887436 C485.914911,27.6887436 485.914911,27.4677961 486.134857,27.4677961 L492.958919,27.4677961 L492.958919,28.5733548 C492.958919,29.2370186 493.39963,29.6797349 494.060287,29.6797349 C494.720126,29.6797349 495.160837,29.2370186 495.160837,28.5733548 L495.160837,27.4677961 L496.261386,27.4677961 C496.922043,27.4677961 497.361936,27.0259011 497.361936,26.3622373 C497.361936,25.6985735 496.922043,25.2566786 496.261386,25.2566786 L495.160837,25.2566786 L495.160837,24.1511198 C495.160837,23.487456 494.720126,23.0455611 494.060287,23.0455611 C493.39963,23.0455611 492.958919,23.487456 492.958919,24.1511198 L492.958919,25.2566786 L486.134857,25.2566786 C486.134857,25.2566786 486.134857,25.0357311 485.914911,25.0357311 L490.75782,20.1707798 L491.638423,20.8336222 C492.079134,21.2763385 492.738973,21.2763385 493.179684,20.8336222 C493.619576,20.3917273 493.619576,19.7280635 493.179684,19.2861685 L492.29908,18.6225047 L493.179684,17.7378934 C493.619576,17.2959985 493.619576,16.6323347 493.179684,16.1896184 C492.738973,15.7477234 492.079134,15.7477234 491.638423,16.1896184 L490.75782,17.0742296 L490.097163,16.1896184 C489.65727,15.7477234 488.996613,15.7477234 488.556721,16.1896184 C488.11601,16.6323347 488.11601,17.2959985 488.556721,17.7378934 L489.217378,18.6225047 L484.373651,23.487456 C484.373651,23.487456 484.153704,23.487456 484.153704,23.2665085 L484.153704,16.4113872 L485.254254,16.4113872 C485.914911,16.4113872 486.355621,15.9686709 486.355621,15.3058285 C486.355621,14.6421647 485.914911,14.1994483 485.254254,14.1994483 L484.153704,14.1994483 L484.153704,13.0938896 C484.153704,12.4310472 483.713811,11.9883308 483.053154,11.9883308 C482.392498,11.9883308 481.952605,12.4310472 481.952605,13.0938896 L481.952605,14.1994483 L480.852055,14.1994483 C480.191398,14.1994483 479.751505,14.6421647 479.751505,15.3058285 C479.751505,15.9686709 480.191398,16.4113872 480.852055,16.4113872 L481.952605,16.4113872 L481.952605,23.2665085 C481.952605,23.2665085 481.732658,23.2665085 481.732658,23.487456 L476.889749,18.6225047 L477.549588,17.7378934 C477.990299,17.2959985 477.990299,16.6323347 477.549588,16.1896184 C477.109695,15.7477234 476.449039,15.7477234 476.009146,16.1896184 L475.348489,17.0742296 L474.467886,16.1896184 C474.027993,15.7477234 473.367336,15.7477234 472.926625,16.1896184 C472.486733,16.6323347 472.486733,17.2959985 472.926625,17.7378934 L473.807229,18.6225047 L472.926625,19.2861685 C472.486733,19.7280635 472.486733,20.3917273 472.926625,20.8336222 C473.367336,21.2763385 474.027993,21.2763385 474.467886,20.8336222 L475.348489,20.1707798 L480.191398,25.0357311 C480.191398,25.0357311 480.191398,25.2566786 479.971452,25.2566786 L473.147389,25.2566786 L473.147389,24.1511198 C473.147389,23.487456 472.706679,23.0455611 472.04684,23.0455611 C471.386183,23.0455611 470.945472,23.487456 470.945472,24.1511198 L470.945472,25.2566786 L469.844923,25.2566786 C469.185083,25.2566786 468.744373,25.6985735 468.744373,26.3622373 C468.744373,27.0259011 469.185083,27.4677961 469.844923,27.4677961 L470.945472,27.4677961 L470.945472,28.5733548 C470.945472,29.2370186 471.386183,29.6797349 472.04684,29.6797349 C472.706679,29.6797349 473.147389,29.2370186 473.147389,28.5733548 L473.147389,27.4677961 L479.971452,27.4677961 C479.971452,27.4677961 479.971452,27.6887436 480.191398,27.6887436 L475.348489,32.5545162 L474.467886,31.8908524 C474.027993,31.4481361 473.367336,31.4481361 472.926625,31.8908524 C472.486733,32.3327474 472.486733,32.9964112 472.926625,33.4383061 L473.807229,34.1019699 L472.926625,34.9865812 C472.486733,35.4292975 472.486733,36.09214 472.926625,36.5348563 C473.367336,36.9767512 474.027993,36.9767512 474.467886,36.5348563 L475.348489,35.650245 L476.229092,36.5348563 C476.668985,36.9767512 477.329642,36.9767512 477.770352,36.5348563 C478.210245,36.09214 478.210245,35.4292975 477.770352,34.9865812 L476.889749,34.1019699 L481.732658,29.2370186 C481.732658,29.2370186 481.952605,29.2370186 481.952605,29.4579661 L481.952605,36.3130874 L480.852055,36.3130874 C480.191398,36.3130874 479.751505,36.7558038 479.751505,37.4194676 C479.751505,38.08231 480.191398,38.5250263 480.852055,38.5250263 L481.952605,38.5250263 L481.952605,39.6305851 C481.952605,40.2942489 482.392498,40.7361438 483.053154,40.7361438 C483.713811,40.7361438 484.153704,40.2942489 484.153704,39.6305851 L484.153704,38.5250263 L485.254254,38.5250263 C485.914911,38.5250263 486.355621,38.08231 486.355621,37.4194676 C486.355621,36.7558038 485.914911,36.3130874 485.254254,36.3130874 L484.153704,36.3130874 L484.153704,29.4579661 C484.153704,29.4579661 484.373651,29.4579661 484.373651,29.2370186 L489.217378,34.1019699 L488.556721,34.9865812 C488.11601,35.4292975 488.11601,36.09214 488.556721,36.5348563 C488.996613,36.9767512 489.65727,36.9767512 490.097163,36.5348563 L490.977766,35.650245 L491.85837,36.5348563 C492.29908,36.9767512 492.958919,36.9767512 493.39963,36.5348563 C493.619576,36.09214 493.619576,35.4292975 493.179684,34.9865812" id="Fill-212" fill="#9CAAB2"></path>
                <path d="M648.170602,209.976269 L648.170602,209.976269 C647.950655,209.976269 647.509945,210.197217 647.289998,210.197217 C647.070052,210.197217 646.629341,209.976269 646.629341,209.976269 C646.409395,209.755322 646.189449,209.312606 646.189449,209.091658 C646.189449,208.870711 646.409395,208.427994 646.409395,208.207047 C646.629341,208.207047 647.070052,207.986099 647.289998,207.986099 C647.950655,207.986099 648.390548,208.427994 648.390548,209.091658 C648.390548,209.312606 648.170602,209.755322 648.170602,209.976269 M657.416527,217.716002 L656.535924,216.831391 L657.416527,215.946779 C657.85642,215.504885 657.85642,214.841221 657.416527,214.399326 C656.975817,213.956609 656.315978,213.956609 655.875267,214.399326 L654.994664,215.283937 L650.151755,210.418164 C650.151755,210.418164 650.151755,210.197217 650.371701,210.197217 L657.195763,210.197217 L657.195763,211.302776 C657.195763,211.966439 657.636474,212.409156 658.297131,212.409156 C658.95697,212.409156 659.39768,211.966439 659.39768,211.302776 L659.39768,210.197217 L660.49823,210.197217 C661.158887,210.197217 661.59878,209.755322 661.59878,209.091658 C661.59878,208.427994 661.158887,207.986099 660.49823,207.986099 L659.39768,207.986099 L659.39768,206.880541 C659.39768,206.216877 658.95697,205.774982 658.297131,205.774982 C657.636474,205.774982 657.195763,206.216877 657.195763,206.880541 L657.195763,207.986099 L650.371701,207.986099 C650.371701,207.986099 650.371701,207.765152 650.151755,207.765152 L654.994664,202.900201 L655.875267,203.563043 C656.315978,204.005759 656.975817,204.005759 657.416527,203.563043 C657.85642,203.121148 657.85642,202.457484 657.416527,202.015589 L656.535924,201.351926 L657.416527,200.467314 C657.85642,200.025419 657.85642,199.361755 657.416527,198.919039 C656.975817,198.477144 656.315978,198.477144 655.875267,198.919039 L654.994664,199.80365 L654.334007,198.919039 C653.894114,198.477144 653.233457,198.477144 652.793565,198.919039 C652.352854,199.361755 652.352854,200.025419 652.793565,200.467314 L653.454221,201.351926 L648.610494,206.216877 C648.610494,206.216877 648.390548,206.216877 648.390548,205.995929 L648.390548,199.140808 L649.491098,199.140808 C650.151755,199.140808 650.592465,198.698092 650.592465,198.035249 C650.592465,197.371585 650.151755,196.928869 649.491098,196.928869 L648.390548,196.928869 L648.390548,195.82331 C648.390548,195.160468 647.950655,194.717752 647.289998,194.717752 C646.629341,194.717752 646.189449,195.160468 646.189449,195.82331 L646.189449,196.928869 L645.088899,196.928869 C644.428242,196.928869 643.988349,197.371585 643.988349,198.035249 C643.988349,198.698092 644.428242,199.140808 645.088899,199.140808 L646.189449,199.140808 L646.189449,205.995929 C646.189449,205.995929 645.969502,205.995929 645.969502,206.216877 L641.126593,201.351926 L641.786432,200.467314 C642.227143,200.025419 642.227143,199.361755 641.786432,198.919039 C641.346539,198.477144 640.685882,198.477144 640.24599,198.919039 L639.585333,199.80365 L638.704729,198.919039 C638.264837,198.477144 637.60418,198.477144 637.163469,198.919039 C636.723576,199.361755 636.723576,200.025419 637.163469,200.467314 L638.044073,201.351926 L637.163469,202.015589 C636.723576,202.457484 636.723576,203.121148 637.163469,203.563043 C637.60418,204.005759 638.264837,204.005759 638.704729,203.563043 L639.585333,202.900201 L644.428242,207.765152 C644.428242,207.765152 644.428242,207.986099 644.208296,207.986099 L637.384233,207.986099 L637.384233,206.880541 C637.384233,206.216877 636.943523,205.774982 636.283684,205.774982 C635.623027,205.774982 635.182316,206.216877 635.182316,206.880541 L635.182316,207.986099 L634.081767,207.986099 C633.421927,207.986099 632.981217,208.427994 632.981217,209.091658 C632.981217,209.755322 633.421927,210.197217 634.081767,210.197217 L635.182316,210.197217 L635.182316,211.302776 C635.182316,211.966439 635.623027,212.409156 636.283684,212.409156 C636.943523,212.409156 637.384233,211.966439 637.384233,211.302776 L637.384233,210.197217 L644.208296,210.197217 C644.208296,210.197217 644.208296,210.418164 644.428242,210.418164 L639.585333,215.283937 L638.704729,214.620273 C638.264837,214.177557 637.60418,214.177557 637.163469,214.620273 C636.723576,215.062168 636.723576,215.725832 637.163469,216.167727 L638.044073,216.831391 L637.163469,217.716002 C636.723576,218.158718 636.723576,218.821561 637.163469,219.264277 C637.60418,219.706172 638.264837,219.706172 638.704729,219.264277 L639.585333,218.379666 L640.465936,219.264277 C640.905829,219.706172 641.566486,219.706172 642.007196,219.264277 C642.447089,218.821561 642.447089,218.158718 642.007196,217.716002 L641.126593,216.831391 L645.969502,211.966439 C645.969502,211.966439 646.189449,211.966439 646.189449,212.187387 L646.189449,219.042508 L645.088899,219.042508 C644.428242,219.042508 643.988349,219.485225 643.988349,220.148888 C643.988349,220.811731 644.428242,221.254447 645.088899,221.254447 L646.189449,221.254447 L646.189449,222.360006 C646.189449,223.02367 646.629341,223.465565 647.289998,223.465565 C647.950655,223.465565 648.390548,223.02367 648.390548,222.360006 L648.390548,221.254447 L649.491098,221.254447 C650.151755,221.254447 650.592465,220.811731 650.592465,220.148888 C650.592465,219.485225 650.151755,219.042508 649.491098,219.042508 L648.390548,219.042508 L648.390548,212.187387 C648.390548,212.187387 648.610494,212.187387 648.610494,211.966439 L653.454221,216.831391 L652.793565,217.716002 C652.352854,218.158718 652.352854,218.821561 652.793565,219.264277 C653.233457,219.706172 653.894114,219.706172 654.334007,219.264277 L655.21461,218.379666 L656.095214,219.264277 C656.535924,219.706172 657.195763,219.706172 657.636474,219.264277 C657.85642,218.821561 657.85642,218.158718 657.416527,217.716002" id="Fill-216" fill="#9CAAB2"></path>
            </g>
        </g>
    </g>
</svg>