<?xml version="1.0" encoding="UTF-8" standalone="no"?>
<svg width="1437px" height="805px" viewBox="0 0 1437 805" version="1.1" xmlns="http://www.w3.org/2000/svg" xmlns:xlink="http://www.w3.org/1999/xlink">
    <!-- Generator: Sketch 3.7.1 (28215) - http://www.bohemiancoding.com/sketch -->
    <title>Group 3</title>
    <desc>Created with Sketch.</desc>
    <defs></defs>
    <g id="Page-1" stroke="none" stroke-width="1" fill="none" fill-rule="evenodd">
        <g id="Desktop-HD" transform="translate(-1.000000, 0.000000)">
            <g id="Group-Copy" transform="translate(-17.000000, -7.000000)" fill="#F6F7F7">
                <g id="Page-1" transform="translate(0.000000, 0.318176)">
                    <polygon id="Fill-1" points="0 930.654827 1456.06979 930.654827 1456.06979 1.42108547e-13 0 1.42108547e-13"></polygon>
                </g>
            </g>
            <g id="Group-3" transform="translate(1.000000, -509.000000)">
                <g id="Group-220-Copy" transform="translate(0.000000, 609.000000)">
                    <path d="M170.245795,172.731354 C170.245795,176.608319 167.106257,179.752617 163.231806,179.752617 C159.358857,179.752617 156.219319,176.608319 156.219319,172.731354 C156.219319,168.854389 159.358857,165.71009 163.231806,165.71009 C167.106257,165.71009 170.245795,168.854389 170.245795,172.731354" id="Fill-2" fill="#CCCCCB"></path>
                    <path d="M200.303604,137.126011 C200.303604,141.279795 196.938632,144.648256 192.789152,144.648256 C188.639671,144.648256 185.2747,141.279795 185.2747,137.126011 C185.2747,132.972227 188.639671,129.603766 192.789152,129.603766 C196.938632,129.603766 200.303604,132.972227 200.303604,137.126011" id="Fill-4" fill="#F2F2F2"></path>
                    <path d="M294.569399,232.983633 C294.569399,237.137416 291.204427,240.505878 287.054947,240.505878 C282.905466,240.505878 279.540495,237.137416 279.540495,232.983633 C279.540495,228.829849 282.905466,225.461388 287.054947,225.461388 C291.204427,225.461388 294.569399,228.829849 294.569399,232.983633" id="Fill-6" fill="#F2F2F2"></path>
                    <path d="M208.318969,173.232787 C208.318969,174.61688 207.197813,175.740703 205.813651,175.740703 C204.430992,175.740703 203.309835,174.61688 203.309835,173.232787 C203.309835,171.848693 204.430992,170.72487 205.813651,170.72487 C207.197813,170.72487 208.318969,171.848693 208.318969,173.232787" id="Fill-8" fill="#F2F2F2"></path>
                    <path d="M330.758549,265.870436 C330.758549,267.254529 329.637393,268.378352 328.253231,268.378352 C326.870571,268.378352 325.749415,267.254529 325.749415,265.870436 C325.749415,264.486343 326.870571,263.36252 328.253231,263.36252 C329.637393,263.36252 330.758549,264.486343 330.758549,265.870436" id="Fill-10" fill="#F2F2F2"></path>
                    <path d="M593.721087,482.481903 C593.721087,483.865996 592.599931,484.989819 591.215769,484.989819 C589.833109,484.989819 588.711953,483.865996 588.711953,482.481903 C588.711953,481.09781 589.833109,479.973986 591.215769,479.973986 C592.599931,479.973986 593.721087,481.09781 593.721087,482.481903" id="Fill-12" fill="#F2F2F2"></path>
                    <path d="M257.413439,145.651272 C257.413439,147.313688 256.068352,148.66017 254.407658,148.66017 C252.746964,148.66017 251.401877,147.313688 251.401877,145.651272 C251.401877,143.988856 252.746964,142.642374 254.407658,142.642374 C256.068352,142.642374 257.413439,143.988856 257.413439,145.651272" id="Fill-14" fill="#CCCCCB"></path>
                    <path d="M147.201526,111.550378 C147.201526,113.212795 145.856439,114.559276 144.195745,114.559276 C142.535051,114.559276 141.189964,113.212795 141.189964,111.550378 C141.189964,109.887962 142.535051,108.54148 144.195745,108.54148 C145.856439,108.54148 147.201526,109.887962 147.201526,111.550378" id="Fill-16" fill="#CCCCCB"></path>
                    <path d="M200.303604,46.8590723 C200.303604,51.012856 196.938632,54.3813172 192.789152,54.3813172 C188.639671,54.3813172 185.2747,51.012856 185.2747,46.8590723 C185.2747,42.7052887 188.639671,39.3368274 192.789152,39.3368274 C196.938632,39.3368274 200.303604,42.7052887 200.303604,46.8590723" id="Fill-18" fill="#F2F2F2"></path>
                    <path d="M208.318969,82.9658478 C208.318969,84.3499409 207.197813,85.4737643 205.813651,85.4737643 C204.430992,85.4737643 203.309835,84.3499409 203.309835,82.9658478 C203.309835,81.5817548 204.430992,80.4579314 205.813651,80.4579314 C207.197813,80.4579314 208.318969,81.5817548 208.318969,82.9658478" id="Fill-20" fill="#F2F2F2"></path>
                    <path d="M257.413439,55.3843334 C257.413439,57.0467495 256.068352,58.3932313 254.407658,58.3932313 C252.746964,58.3932313 251.401877,57.0467495 251.401877,55.3843334 C251.401877,53.7219172 252.746964,52.3754354 254.407658,52.3754354 C256.068352,52.3754354 257.413439,53.7219172 257.413439,55.3843334" id="Fill-22" fill="#CCCCCB"></path>
                    <path d="M147.201526,21.2834397 C147.201526,22.9458558 145.856439,24.2923377 144.195745,24.2923377 C142.535051,24.2923377 141.189964,22.9458558 141.189964,21.2834397 C141.189964,19.6210236 142.535051,18.2745417 144.195745,18.2745417 C145.856439,18.2745417 147.201526,19.6210236 147.201526,21.2834397" id="Fill-24" fill="#CCCCCB"></path>
                    <path d="M37.9552199,342.784939 C34.2776471,344.000533 30.3115193,342.001121 29.095681,338.319734 C27.8813455,334.638347 29.8786869,330.666602 33.5577626,329.451007 C37.2353354,328.235413 41.2014632,330.234825 42.4157987,333.916212 C43.6301341,337.599103 41.6327928,341.569344 37.9552199,342.784939" id="Fill-26" fill="#CCCCCB"></path>
                    <path d="M81.1546024,360.192316 C77.2140238,361.495169 72.9638497,359.352834 71.6623466,355.408168 C70.3623464,351.463503 72.5009594,347.208921 76.4415381,345.906069 C80.3836196,344.603216 84.6322908,346.745551 85.9337939,350.690216 C87.235297,354.636386 85.095181,358.889463 81.1546024,360.192316" id="Fill-28" fill="#F2F2F2"></path>
                    <path d="M49.4174645,379.132877 C48.1039383,379.567663 46.6867126,378.85305 46.2538802,377.538161 C45.8195449,376.223273 46.5334178,374.804578 47.846944,374.371296 C49.1604702,373.936511 50.576193,374.651124 51.0105283,375.966012 C51.4448637,377.280901 50.7309907,378.698092 49.4174645,379.132877" id="Fill-30" fill="#F2F2F2"></path>
                    <path d="M90.9746386,417.151507 C89.3981066,417.672046 87.6983375,416.816014 87.1783374,415.237848 C86.6568345,413.659681 87.513482,411.958149 89.090014,411.437609 C90.6665461,410.915566 92.3663151,411.773102 92.8863152,413.351268 C93.4063153,414.929435 92.5511707,416.630967 90.9746386,417.151507" id="Fill-32" fill="#CCCCCB"></path>
                    <path d="M88.7650891,301.696481 C87.1885571,302.217021 85.488788,301.360989 84.968788,299.782822 C84.447285,298.204655 85.3039325,296.503123 86.8804646,295.982584 C88.4569966,295.46054 90.1567657,296.318076 90.6767657,297.896243 C91.1967658,299.47441 90.3416212,301.175942 88.7650891,301.696481" id="Fill-34" fill="#CCCCCB"></path>
                    <path d="M166.780731,331.888817 C162.840153,333.191669 158.589979,331.049334 157.288476,327.104669 C155.988475,323.160004 158.127088,318.905422 162.067667,317.602569 C166.009749,316.299716 170.25842,318.442052 171.559923,322.386717 C172.861426,326.332886 170.72131,330.585964 166.780731,331.888817" id="Fill-36" fill="#F2F2F2"></path>
                    <path d="M135.043593,350.829378 C133.730067,351.264164 132.312842,350.54955 131.880009,349.234662 C131.445674,347.919773 132.159547,346.501078 133.473073,346.067797 C134.786599,345.633011 136.202322,346.347624 136.636657,347.662513 C137.070993,348.977401 136.35712,350.394592 135.043593,350.829378" id="Fill-38" fill="#F2F2F2"></path>
                    <path d="M176.600768,388.848007 C175.024236,389.368546 173.324466,388.512515 172.804466,386.934348 C172.282963,385.356181 173.139611,383.654649 174.716143,383.13411 C176.292675,382.612066 177.992444,383.469602 178.512444,385.047769 C179.032444,386.625936 178.1773,388.327468 176.600768,388.848007" id="Fill-40" fill="#CCCCCB"></path>
                    <path d="M174.391068,273.393132 C172.814536,273.913672 171.114767,273.05764 170.594767,271.479473 C170.073264,269.901306 170.929911,268.199774 172.506443,267.679235 C174.082975,267.157191 175.782744,268.014727 176.302744,269.592894 C176.822744,271.171061 175.9676,272.872593 174.391068,273.393132" id="Fill-42" fill="#CCCCCB"></path>
                    <path d="M266.999325,325.492652 C265.422793,326.013191 263.723024,325.15716 263.203024,323.578993 C262.681521,322.000826 263.538168,320.299294 265.1147,319.778754 C266.691232,319.256711 268.391002,320.114247 268.911002,321.692414 C269.431002,323.270581 268.575857,324.972112 266.999325,325.492652" id="Fill-44" fill="#CCCCCB"></path>
                    <path d="M13.775667,220.390943 C12.6500021,224.100915 8.73196683,226.195108 5.02583909,225.068275 C1.31971134,223.941443 -0.772312103,220.019344 0.354855702,216.309373 C1.48052062,212.599402 5.39705302,210.505209 9.10318077,211.632041 C12.8093085,212.760378 14.901332,216.680972 13.775667,220.390943" id="Fill-46" fill="#CCCCCB"></path>
                    <path d="M52.8741124,195.06866 C51.6672914,199.043414 47.4712214,201.286548 43.500585,200.079979 C39.5284456,198.871907 37.287636,194.671485 38.494457,190.695227 C39.6997751,186.720473 43.897348,184.477339 47.8679845,185.685412 C51.838621,186.89198 54.0809334,191.093906 52.8741124,195.06866" id="Fill-48" fill="#F2F2F2"></path>
                    <path d="M50.0594993,231.948722 C49.6567247,233.274142 48.2590366,234.021853 46.9349901,233.618661 C45.6109437,233.216973 44.8640071,231.816331 45.2667818,230.490911 C45.6680535,229.165492 47.0672445,228.41778 48.3912909,228.820973 C49.7138345,229.222661 50.4622739,230.623303 50.0594993,231.948722" id="Fill-50" fill="#F2F2F2"></path>
                    <path d="M9.49062591,155.146451 C9.00819809,156.736654 7.32946951,157.633306 5.74091435,157.150377 C4.15235918,156.667449 3.2566365,154.98698 3.73906432,153.396777 C4.22149214,151.806575 5.90022073,150.909923 7.48877589,151.392851 C9.07733105,151.875779 9.97305373,153.556249 9.49062591,155.146451" id="Fill-52" fill="#CCCCCB"></path>
                    <path d="M79.08392,108.698846 C77.877099,112.6736 73.681029,114.916733 69.7103925,113.710165 C65.7382532,112.502093 63.4974436,108.301671 64.7042646,104.325413 C65.9095827,100.350658 70.1071556,98.107525 74.077792,99.3155976 C78.0484285,100.522166 80.290741,104.724092 79.08392,108.698846" id="Fill-54" fill="#F2F2F2"></path>
                    <path d="M76.2693068,145.578908 C75.8665322,146.904328 74.4688441,147.652039 73.1447977,147.248846 C71.8207512,146.847159 71.0738147,145.446517 71.4765893,144.121097 C71.8778611,142.795677 73.277052,142.047966 74.6010985,142.451159 C75.923642,142.852847 76.6720815,144.253489 76.2693068,145.578908" id="Fill-56" fill="#F2F2F2"></path>
                    <path d="M141.189964,171.728338 C141.189964,173.390754 139.844877,174.737236 138.184184,174.737236 C136.52349,174.737236 135.178403,173.390754 135.178403,171.728338 C135.178403,170.065921 136.52349,168.71944 138.184184,168.71944 C139.844877,168.71944 141.189964,170.065921 141.189964,171.728338" id="Fill-58" fill="#CCCCCB"></path>
                    <path d="M35.7005838,68.7766373 C35.2181559,70.3668399 33.5394273,71.2634915 31.9508722,70.7805633 C30.362317,70.2976352 29.4665943,68.6171657 29.9490222,67.0269631 C30.43145,65.4367606 32.1101786,64.540109 33.6987337,65.0230371 C35.2872889,65.5059652 36.1830116,67.1864347 35.7005838,68.7766373" id="Fill-60" fill="#CCCCCB"></path>
                    <path d="M170.245795,612.531888 C170.245795,616.408853 167.106257,619.553152 163.231806,619.553152 C159.358857,619.553152 156.219319,616.408853 156.219319,612.531888 C156.219319,608.654923 159.358857,605.510625 163.231806,605.510625 C167.106257,605.510625 170.245795,608.654923 170.245795,612.531888" id="Fill-62" fill="#CCCCCB"></path>
                    <path d="M200.303604,576.926546 C200.303604,581.080329 196.938632,584.448791 192.789152,584.448791 C188.639671,584.448791 185.2747,581.080329 185.2747,576.926546 C185.2747,572.772762 188.639671,569.404301 192.789152,569.404301 C196.938632,569.404301 200.303604,572.772762 200.303604,576.926546" id="Fill-64" fill="#F2F2F2"></path>
                    <path d="M208.318969,613.033321 C208.318969,614.417414 207.197813,615.541238 205.813651,615.541238 C204.430992,615.541238 203.309835,614.417414 203.309835,613.033321 C203.309835,611.649228 204.430992,610.525405 205.813651,610.525405 C207.197813,610.525405 208.318969,611.649228 208.318969,613.033321" id="Fill-66" fill="#F2F2F2"></path>
                    <path d="M147.201526,551.350913 C147.201526,553.013329 145.856439,554.359811 144.195745,554.359811 C142.535051,554.359811 141.189964,553.013329 141.189964,551.350913 C141.189964,549.688497 142.535051,548.342015 144.195745,548.342015 C145.856439,548.342015 147.201526,549.688497 147.201526,551.350913" id="Fill-68" fill="#CCCCCB"></path>
                    <path d="M200.303604,486.659607 C200.303604,490.813391 196.938632,494.181852 192.789152,494.181852 C188.639671,494.181852 185.2747,490.813391 185.2747,486.659607 C185.2747,482.505823 188.639671,479.137362 192.789152,479.137362 C196.938632,479.137362 200.303604,482.505823 200.303604,486.659607" id="Fill-70" fill="#F2F2F2"></path>
                    <path d="M208.318969,522.766382 C208.318969,524.150476 207.197813,525.274299 205.813651,525.274299 C204.430992,525.274299 203.309835,524.150476 203.309835,522.766382 C203.309835,521.382289 204.430992,520.258466 205.813651,520.258466 C207.197813,520.258466 208.318969,521.382289 208.318969,522.766382" id="Fill-72" fill="#F2F2F2"></path>
                    <path d="M407.70248,522.26495 C407.70248,526.141915 404.562942,529.286213 400.68849,529.286213 C396.815542,529.286213 393.676004,526.141915 393.676004,522.26495 C393.676004,518.387985 396.815542,515.243686 400.68849,515.243686 C404.562942,515.243686 407.70248,518.387985 407.70248,522.26495" id="Fill-74" fill="#CCCCCB"></path>
                    <path d="M437.760288,486.659607 C437.760288,490.813391 434.395316,494.181852 430.245836,494.181852 C426.096356,494.181852 422.731384,490.813391 422.731384,486.659607 C422.731384,482.505823 426.096356,479.137362 430.245836,479.137362 C434.395316,479.137362 437.760288,482.505823 437.760288,486.659607" id="Fill-76" fill="#F2F2F2"></path>
                    <path d="M445.775653,522.766382 C445.775653,524.150476 444.654497,525.274299 443.270335,525.274299 C441.887676,525.274299 440.76652,524.150476 440.76652,522.766382 C440.76652,521.382289 441.887676,520.258466 443.270335,520.258466 C444.654497,520.258466 445.775653,521.382289 445.775653,522.766382" id="Fill-78" fill="#F2F2F2"></path>
                    <path d="M147.201526,461.083974 C147.201526,462.74639 145.856439,464.092872 144.195745,464.092872 C142.535051,464.092872 141.189964,462.74639 141.189964,461.083974 C141.189964,459.421558 142.535051,458.075076 144.195745,458.075076 C145.856439,458.075076 147.201526,459.421558 147.201526,461.083974" id="Fill-80" fill="#CCCCCB"></path>
                    <path d="M13.775667,660.191628 C12.6500021,663.9016 8.73196683,665.995793 5.02583909,664.86896 C1.31971134,663.742128 -0.772312103,659.82003 0.354855702,656.110058 C1.48052062,652.400087 5.39705302,650.305894 9.10318077,651.432726 C12.8093085,652.561063 14.901332,656.481657 13.775667,660.191628" id="Fill-82" fill="#CCCCCB"></path>
                    <path d="M52.8741124,634.869195 C51.6672914,638.843949 47.4712214,641.087082 43.500585,639.880514 C39.5284456,638.672442 37.287636,634.47202 38.494457,630.495761 C39.6997751,626.521007 43.897348,624.277874 47.8679845,625.485946 C51.838621,626.692514 54.0809334,630.89444 52.8741124,634.869195" id="Fill-84" fill="#F2F2F2"></path>
                    <path d="M50.0594993,671.749257 C49.6567247,673.074676 48.2590366,673.822388 46.9349901,673.419195 C45.6109437,673.017507 44.8640071,671.616865 45.2667818,670.291446 C45.6680535,668.966026 47.0672445,668.218315 48.3912909,668.621507 C49.7138345,669.023195 50.4622739,670.423837 50.0594993,671.749257" id="Fill-86" fill="#F2F2F2"></path>
                    <path d="M105.120595,701.795811 C105.120595,703.458227 103.775508,704.804709 102.114814,704.804709 C100.45412,704.804709 99.1090329,703.458227 99.1090329,701.795811 C99.1090329,700.133395 100.45412,698.786913 102.114814,698.786913 C103.775508,698.786913 105.120595,700.133395 105.120595,701.795811" id="Fill-88" fill="#CCCCCB"></path>
                    <path d="M9.49062591,594.946986 C9.00819809,596.537189 7.32946951,597.43384 5.74091435,596.950912 C4.15235918,596.467984 3.2566365,594.787514 3.73906432,593.197312 C4.22149214,591.607109 5.90022073,590.710458 7.48877589,591.193386 C9.07733105,591.676314 9.97305373,593.356783 9.49062591,594.946986" id="Fill-90" fill="#CCCCCB"></path>
                    <path d="M79.08392,548.49938 C77.877099,552.474135 73.681029,554.717268 69.7103925,553.5107 C65.7382532,552.302627 63.4974436,548.102206 64.7042646,544.125947 C65.9095827,540.151193 70.1071556,537.90806 74.077792,539.116132 C78.0484285,540.3227 80.290741,544.524626 79.08392,548.49938" id="Fill-92" fill="#F2F2F2"></path>
                    <path d="M76.2693068,585.379443 C75.8665322,586.704862 74.4688441,587.452573 73.1447977,587.049381 C71.8207512,586.647693 71.0738147,585.247051 71.4765893,583.921632 C71.8778611,582.596212 73.277052,581.848501 74.6010985,582.251693 C75.923642,582.653381 76.6720815,584.054023 76.2693068,585.379443" id="Fill-94" fill="#F2F2F2"></path>
                    <path d="M141.189964,611.528872 C141.189964,613.191288 139.844877,614.53777 138.184184,614.53777 C136.52349,614.53777 135.178403,613.191288 135.178403,611.528872 C135.178403,609.866456 136.52349,608.519974 138.184184,608.519974 C139.844877,608.519974 141.189964,609.866456 141.189964,611.528872" id="Fill-96" fill="#CCCCCB"></path>
                    <path d="M35.7005838,508.577322 C35.2181559,510.167525 33.5394273,511.064177 31.9508722,510.581248 C30.362317,510.09832 29.4665943,508.417851 29.9490222,506.827648 C30.43145,505.237446 32.1101786,504.340794 33.6987337,504.823722 C35.2872889,505.30665 36.1830116,506.98712 35.7005838,508.577322" id="Fill-98" fill="#CCCCCB"></path>
                    <path d="M1330.47719,172.731354 C1330.47719,176.608319 1327.33765,179.752617 1323.4632,179.752617 C1319.59025,179.752617 1316.45071,176.608319 1316.45071,172.731354 C1316.45071,168.854389 1319.59025,165.71009 1323.4632,165.71009 C1327.33765,165.71009 1330.47719,168.854389 1330.47719,172.731354" id="Fill-100" fill="#CCCCCB"></path>
                    <path d="M1206.58537,243.585635 C1206.58537,247.4626 1203.44583,250.606898 1199.57138,250.606898 C1195.69843,250.606898 1192.55889,247.4626 1192.55889,243.585635 C1192.55889,239.70867 1195.69843,236.564372 1199.57138,236.564372 C1203.44583,236.564372 1206.58537,239.70867 1206.58537,243.585635" id="Fill-102" fill="#CCCCCB"></path>
                    <path d="M1368.55036,173.232787 C1368.55036,174.61688 1367.42921,175.740703 1366.04505,175.740703 C1364.66239,175.740703 1363.54123,174.61688 1363.54123,173.232787 C1363.54123,171.848693 1364.66239,170.72487 1366.04505,170.72487 C1367.42921,170.72487 1368.55036,171.848693 1368.55036,173.232787" id="Fill-104" fill="#F2F2F2"></path>
                    <path d="M1417.64483,145.651272 C1417.64483,147.313688 1416.29975,148.66017 1414.63905,148.66017 C1412.97836,148.66017 1411.63327,147.313688 1411.63327,145.651272 C1411.63327,143.988856 1412.97836,142.642374 1414.63905,142.642374 C1416.29975,142.642374 1417.64483,143.988856 1417.64483,145.651272" id="Fill-106" fill="#CCCCCB"></path>
                    <path d="M1307.43292,111.550378 C1307.43292,113.212795 1306.08783,114.559276 1304.42714,114.559276 C1302.76645,114.559276 1301.42136,113.212795 1301.42136,111.550378 C1301.42136,109.887962 1302.76645,108.54148 1304.42714,108.54148 C1306.08783,108.54148 1307.43292,109.887962 1307.43292,111.550378" id="Fill-108" fill="#CCCCCB"></path>
                    <path d="M1360.535,46.8590723 C1360.535,51.012856 1357.17003,54.3813172 1353.02055,54.3813172 C1348.87107,54.3813172 1345.50609,51.012856 1345.50609,46.8590723 C1345.50609,42.7052887 1348.87107,39.3368274 1353.02055,39.3368274 C1357.17003,39.3368274 1360.535,42.7052887 1360.535,46.8590723" id="Fill-110" fill="#F2F2F2"></path>
                    <path d="M1368.55036,82.9658478 C1368.55036,84.3499409 1367.42921,85.4737643 1366.04505,85.4737643 C1364.66239,85.4737643 1363.54123,84.3499409 1363.54123,82.9658478 C1363.54123,81.5817548 1364.66239,80.4579314 1366.04505,80.4579314 C1367.42921,80.4579314 1368.55036,81.5817548 1368.55036,82.9658478" id="Fill-112" fill="#F2F2F2"></path>
                    <path d="M1417.64483,55.3843334 C1417.64483,57.0467495 1416.29975,58.3932313 1414.63905,58.3932313 C1412.97836,58.3932313 1411.63327,57.0467495 1411.63327,55.3843334 C1411.63327,53.7219172 1412.97836,52.3754354 1414.63905,52.3754354 C1416.29975,52.3754354 1417.64483,53.7219172 1417.64483,55.3843334" id="Fill-114" fill="#CCCCCB"></path>
                    <path d="M1307.43292,21.2834397 C1307.43292,22.9458558 1306.08783,24.2923377 1304.42714,24.2923377 C1302.76645,24.2923377 1301.42136,22.9458558 1301.42136,21.2834397 C1301.42136,19.6210236 1302.76645,18.2745417 1304.42714,18.2745417 C1306.08783,18.2745417 1307.43292,19.6210236 1307.43292,21.2834397" id="Fill-116" fill="#CCCCCB"></path>
                    <path d="M1289.80792,378.260146 C1287.30711,381.222407 1282.8826,381.594005 1279.92492,379.090602 C1276.96573,376.588704 1276.59451,372.158101 1279.09382,369.197346 C1281.59463,366.235086 1286.01914,365.863487 1288.97833,368.365386 C1291.93602,370.868789 1292.30873,375.297886 1289.80792,378.260146" id="Fill-118" fill="#CCCCCB"></path>
                    <path d="M1335.72393,370.485906 C1333.04578,373.658789 1328.30416,374.057468 1325.13457,371.37654 C1321.96497,368.694108 1321.5667,363.949076 1324.24485,360.774688 C1326.923,357.601805 1331.66462,357.203126 1334.83422,359.885559 C1338.00382,362.566487 1338.40208,367.313024 1335.72393,370.485906" id="Fill-120" fill="#F2F2F2"></path>
                    <path d="M1318.56498,403.243177 C1317.67226,404.300804 1316.09122,404.433196 1315.03469,403.539553 C1313.97816,402.64591 1313.8459,401.064735 1314.73862,400.005602 C1315.63134,398.947975 1317.21238,398.815583 1318.26891,399.709226 C1319.32544,400.602869 1319.4577,402.185549 1318.56498,403.243177" id="Fill-122" fill="#F2F2F2"></path>
                    <path d="M1373.8473,413.897534 C1372.77574,415.167289 1370.87909,415.32676 1369.61216,414.254088 C1368.34372,413.181416 1368.18441,411.282802 1369.25597,410.013047 C1370.32753,408.744796 1372.22418,408.585325 1373.49112,409.656492 C1374.75956,410.729164 1374.91886,412.627779 1373.8473,413.897534" id="Fill-124" fill="#CCCCCB"></path>
                    <path d="M1311.65529,316.640775 C1310.58373,317.91053 1308.68708,318.070001 1307.42015,316.997329 C1306.15171,315.924657 1305.9924,314.026042 1307.06396,312.756288 C1308.13552,311.486533 1310.03217,311.328565 1311.29911,312.399733 C1312.56755,313.472405 1312.72685,315.37102 1311.65529,316.640775" id="Fill-126" fill="#CCCCCB"></path>
                    <path d="M1393.92667,301.540169 C1391.24852,304.713052 1386.5069,305.111731 1383.3373,302.430803 C1380.16771,299.74837 1379.76944,295.003338 1382.44759,291.828951 C1385.12574,288.656068 1389.86736,288.257389 1393.03696,290.939822 C1396.20655,293.62075 1396.60482,298.367286 1393.92667,301.540169" id="Fill-128" fill="#F2F2F2"></path>
                    <path d="M1273.1831,233.540429 C1270.50495,236.713312 1265.76333,237.111991 1262.59373,234.431063 C1259.42414,231.74863 1259.02587,227.003598 1261.70402,223.829211 C1264.38217,220.656328 1269.12379,220.257649 1272.29339,222.940082 C1275.46299,225.62101 1275.86125,230.367546 1273.1831,233.540429" id="Fill-130" fill="#F2F2F2"></path>
                    <path d="M1376.76772,334.297439 C1375.875,335.355067 1374.29396,335.487458 1373.23743,334.593816 C1372.1809,333.700173 1372.04864,332.118997 1372.94136,331.059865 C1373.83408,330.002237 1375.41512,329.869846 1376.47165,330.763489 C1377.52818,331.657131 1377.66043,333.239812 1376.76772,334.297439" id="Fill-132" fill="#F2F2F2"></path>
                    <path d="M1432.05019,344.951646 C1430.97863,346.221401 1429.08198,346.380873 1427.81504,345.308201 C1426.5466,344.235528 1426.3873,342.336914 1427.45886,341.067159 C1428.53042,339.798908 1430.42707,339.639437 1431.694,340.710604 C1432.96244,341.783277 1433.12175,343.681891 1432.05019,344.951646" id="Fill-134" fill="#CCCCCB"></path>
                    <path d="M1369.85803,247.694887 C1368.78647,248.964642 1366.88982,249.124114 1365.62288,248.051441 C1364.35444,246.978769 1364.19514,245.080155 1365.2667,243.8104 C1366.33826,242.542149 1368.23491,242.382678 1369.50184,243.453845 C1370.77028,244.526517 1370.92959,246.425132 1369.85803,247.694887" id="Fill-136" fill="#CCCCCB"></path>
                    <path d="M1330.47719,635.600056 C1330.47719,639.477021 1327.33765,642.621319 1323.4632,642.621319 C1319.59025,642.621319 1316.45071,639.477021 1316.45071,635.600056 C1316.45071,631.723091 1319.59025,628.578792 1323.4632,628.578792 C1327.33765,628.578792 1330.47719,631.723091 1330.47719,635.600056" id="Fill-138" fill="#CCCCCB"></path>
                    <path d="M1360.535,599.994864 C1360.535,604.148647 1357.17003,607.517109 1353.02055,607.517109 C1348.87107,607.517109 1345.50609,604.148647 1345.50609,599.994864 C1345.50609,595.84108 1348.87107,592.472619 1353.02055,592.472619 C1357.17003,592.472619 1360.535,595.84108 1360.535,599.994864" id="Fill-140" fill="#F2F2F2"></path>
                    <path d="M1368.55036,636.101639 C1368.55036,637.485732 1367.42921,638.609556 1366.04505,638.609556 C1364.66239,638.609556 1363.54123,637.485732 1363.54123,636.101639 C1363.54123,634.717546 1364.66239,633.593723 1366.04505,633.593723 C1367.42921,633.593723 1368.55036,634.717546 1368.55036,636.101639" id="Fill-142" fill="#F2F2F2"></path>
                    <path d="M1417.64483,608.519974 C1417.64483,610.18239 1416.29975,611.528872 1414.63905,611.528872 C1412.97836,611.528872 1411.63327,610.18239 1411.63327,608.519974 C1411.63327,606.857558 1412.97836,605.511076 1414.63905,605.511076 C1416.29975,605.511076 1417.64483,606.857558 1417.64483,608.519974" id="Fill-144" fill="#CCCCCB"></path>
                    <path d="M1307.43292,574.419231 C1307.43292,576.081647 1306.08783,577.428129 1304.42714,577.428129 C1302.76645,577.428129 1301.42136,576.081647 1301.42136,574.419231 C1301.42136,572.756815 1302.76645,571.410333 1304.42714,571.410333 C1306.08783,571.410333 1307.43292,572.756815 1307.43292,574.419231" id="Fill-146" fill="#CCCCCB"></path>
                    <path d="M1330.47719,545.333117 C1330.47719,549.210082 1327.33765,552.354381 1323.4632,552.354381 C1319.59025,552.354381 1316.45071,549.210082 1316.45071,545.333117 C1316.45071,541.456152 1319.59025,538.311854 1323.4632,538.311854 C1327.33765,538.311854 1330.47719,541.456152 1330.47719,545.333117" id="Fill-148" fill="#CCCCCB"></path>
                    <path d="M1360.535,509.727925 C1360.535,513.881709 1357.17003,517.25017 1353.02055,517.25017 C1348.87107,517.25017 1345.50609,513.881709 1345.50609,509.727925 C1345.50609,505.574141 1348.87107,502.20568 1353.02055,502.20568 C1357.17003,502.20568 1360.535,505.574141 1360.535,509.727925" id="Fill-150" fill="#F2F2F2"></path>
                    <path d="M1368.55036,545.8347 C1368.55036,547.218794 1367.42921,548.342617 1366.04505,548.342617 C1364.66239,548.342617 1363.54123,547.218794 1363.54123,545.8347 C1363.54123,544.450607 1364.66239,543.326784 1366.04505,543.326784 C1367.42921,543.326784 1368.55036,544.450607 1368.55036,545.8347" id="Fill-152" fill="#F2F2F2"></path>
                    <path d="M1417.64483,518.253036 C1417.64483,519.915452 1416.29975,521.261933 1414.63905,521.261933 C1412.97836,521.261933 1411.63327,519.915452 1411.63327,518.253036 C1411.63327,516.590619 1412.97836,515.244138 1414.63905,515.244138 C1416.29975,515.244138 1417.64483,516.590619 1417.64483,518.253036" id="Fill-154" fill="#CCCCCB"></path>
                    <path d="M1307.43292,484.152292 C1307.43292,485.814708 1306.08783,487.16119 1304.42714,487.16119 C1302.76645,487.16119 1301.42136,485.814708 1301.42136,484.152292 C1301.42136,482.489876 1302.76645,481.143394 1304.42714,481.143394 C1306.08783,481.143394 1307.43292,482.489876 1307.43292,484.152292" id="Fill-156" fill="#CCCCCB"></path>
                    <path d="M379.40666,140.631377 C377.087701,143.73656 372.691746,144.371437 369.58978,142.050073 C366.487815,139.727203 365.853595,135.328195 368.172555,132.223012 C370.493017,129.117829 374.887469,128.482952 377.989435,130.804316 C381.091401,133.125681 381.72562,137.526194 379.40666,140.631377" id="Fill-158" fill="#CCCCCB"></path>
                    <path d="M409.597474,163.857512 C408.769382,164.966291 407.198861,165.193463 406.091231,164.364511 C404.983601,163.534055 404.756664,161.963411 405.58626,160.854632 C406.414353,159.745853 407.98337,159.518681 409.091,160.347632 C410.200133,161.176584 410.425567,162.748733 409.597474,163.857512" id="Fill-160" fill="#F2F2F2"></path>
                    <path d="M465.415275,171.200577 C464.421864,172.532014 462.53724,172.802815 461.208685,171.808374 C459.878627,170.812429 459.606604,168.927354 460.601517,167.597422 C461.594928,166.265984 463.478049,165.993679 464.808107,166.989624 C466.138165,167.984065 466.408686,169.86914 465.415275,171.200577" id="Fill-162" fill="#CCCCCB"></path>
                    <path d="M397.55301,77.8200305 C396.5596,79.1514679 394.674975,79.4222687 393.34642,78.4278279 C392.016362,77.4318827 391.744339,75.5468081 392.739252,74.2168752 C393.732663,72.8854379 395.615784,72.6131326 396.945842,73.6090779 C398.2759,74.6035186 398.546421,76.4885932 397.55301,77.8200305" id="Fill-164" fill="#CCCCCB"></path>
                    <path d="M478.781231,57.8463641 C476.29545,61.1727008 471.586894,61.8542162 468.262501,59.3658576 C464.93961,56.877499 464.260304,52.1640603 466.746084,48.8362192 C469.230362,45.5098825 473.940421,44.8298716 477.263312,47.3167257 C480.587705,49.8050843 481.267012,54.5200274 478.781231,57.8463641" id="Fill-166" fill="#F2F2F2"></path>
                    <path d="M463.599483,91.5675349 C462.77139,92.6763138 461.20087,92.9034856 460.093239,92.0745342 C458.985609,91.2440783 458.758673,89.6734336 459.588268,88.5646547 C460.416361,87.4558758 461.985379,87.228704 463.093009,88.0576554 C464.202142,88.8866068 464.427575,90.458756 463.599483,91.5675349" id="Fill-168" fill="#F2F2F2"></path>
                    <path d="M519.417283,98.9105999 C518.423873,100.242037 516.539248,100.512838 515.210693,99.5183973 C513.880635,98.5224521 513.608612,96.6373775 514.603525,95.3074446 C515.596936,93.9760072 517.480058,93.703702 518.810116,94.6996472 C520.140174,95.694088 520.410694,97.5791625 519.417283,98.9105999" id="Fill-170" fill="#CCCCCB"></path>
                    <path d="M451.555169,5.53005356 C450.561758,6.8614909 448.677134,7.13229172 447.348579,6.13785094 C446.018521,5.14190572 445.746497,3.25683115 446.741411,1.92689825 C447.734821,0.595460906 449.617943,0.323155641 450.948001,1.31910086 C452.278059,2.31354164 452.548579,4.19861621 451.555169,5.53005356" id="Fill-172" fill="#CCCCCB"></path>
                    <path d="M1038.4495,68.4057906 C1034.6532,69.1790774 1030.95008,66.7253211 1030.17759,62.9265874 C1029.40511,59.1263493 1031.85632,55.419387 1035.65112,54.6461003 C1039.44742,53.8728135 1043.15054,56.3265698 1043.92303,60.1253034 C1044.69552,63.9255416 1042.2458,67.6325038 1038.4495,68.4057906" id="Fill-174" fill="#CCCCCB"></path>
                    <path d="M1079.29821,90.7886816 C1075.23139,91.617633 1071.26376,88.9893607 1070.43567,84.9183217 C1069.60758,80.8472828 1072.23463,76.8755375 1076.29995,76.0465861 C1080.36677,75.2176347 1084.3359,77.8459071 1085.16249,81.916946 C1085.99059,85.9879849 1083.36504,89.9597302 1079.29821,90.7886816" id="Fill-176" fill="#F2F2F2"></path>
                    <path d="M1045.55231,105.852729 C1044.19671,106.129548 1042.87416,105.252454 1042.59763,103.895441 C1042.3226,102.538428 1043.19728,101.214513 1044.55289,100.939199 C1045.9085,100.66238 1047.23104,101.53797 1047.50757,102.894983 C1047.7826,104.251996 1046.90792,105.575911 1045.55231,105.852729" id="Fill-178" fill="#F2F2F2"></path>
                    <path d="M1082.34352,148.509575 C1080.71739,148.840553 1079.13034,147.788944 1078.7982,146.16113 C1078.46757,144.533316 1079.51809,142.944618 1081.14421,142.612135 C1082.77185,142.281156 1084.3589,143.332766 1084.68953,144.96058 C1085.02017,146.589898 1083.96965,148.178596 1082.34352,148.509575" id="Fill-180" fill="#CCCCCB"></path>
                    <path d="M1126.81119,50.4020497 C1123.01489,51.1753365 1119.31177,48.7215802 1118.53928,44.9228465 C1117.7668,41.1226084 1120.21801,37.4156461 1124.01281,36.6423593 C1127.80911,35.8690726 1131.51223,38.3228288 1132.28472,42.1215625 C1133.05721,45.9218006 1130.60749,49.6287629 1126.81119,50.4020497" id="Fill-182" fill="#CCCCCB"></path>
                    <path d="M1167.6599,72.7850911 C1163.59308,73.6140425 1159.62545,70.9857702 1158.79736,66.9147312 C1157.96927,62.8436923 1160.59632,58.871947 1164.66164,58.0429956 C1168.72846,57.2140442 1172.69759,59.8423166 1173.52418,63.9133555 C1174.35228,67.9843945 1171.72673,71.9561398 1167.6599,72.7850911" id="Fill-184" fill="#F2F2F2"></path>
                    <path d="M1133.914,87.8489883 C1132.5584,88.1258069 1131.23585,87.2487132 1130.95932,85.8917002 C1130.68429,84.5346872 1131.55897,83.2107721 1132.91458,82.935458 C1134.27019,82.6586394 1135.59273,83.5342287 1135.86926,84.8912416 C1136.14429,86.2482546 1135.26961,87.5721697 1133.914,87.8489883" id="Fill-186" fill="#F2F2F2"></path>
                    <path d="M1170.70521,130.505834 C1169.07908,130.836813 1167.49203,129.785203 1167.15989,128.157389 C1166.82926,126.529575 1167.87978,124.940877 1169.5059,124.608394 C1171.13354,124.277415 1172.72059,125.329025 1173.05122,126.956839 C1173.38186,128.586157 1172.33134,130.174855 1170.70521,130.505834" id="Fill-188" fill="#CCCCCB"></path>
                    <path d="M1182.10464,15.5948172 C1180.47851,15.925796 1178.89146,14.8741862 1178.55932,13.2463724 C1178.22868,11.6185586 1179.2792,10.0298605 1180.90533,9.69737723 C1182.53296,9.36639845 1184.12001,10.4180083 1184.45065,12.0458221 C1184.78128,13.6751403 1183.73076,15.2638384 1182.10464,15.5948172" id="Fill-190" fill="#CCCCCB"></path>
                    <path d="M812.15719,31.2076878 C816.028636,31.0888364 819.264359,34.1323367 819.383087,38.0093017 C819.503319,41.8847622 816.461468,45.1223364 812.590023,45.2426924 C808.718577,45.3615438 805.482854,42.3165391 805.362623,38.4410785 C805.243894,34.565618 808.285745,31.3265393 812.15719,31.2076878" id="Fill-192" fill="#CCCCCB"></path>
                    <path d="M775.679034,2.2306465 C779.827012,2.10276834 783.29418,5.36441372 783.421926,9.5166929 C783.549671,13.6704765 780.289902,17.1397359 776.141925,17.267614 C771.993947,17.3954922 768.528282,14.1338468 768.400536,9.98156764 C768.271288,5.82928846 771.531057,2.35852466 775.679034,2.2306465" id="Fill-194" fill="#F2F2F2"></path>
                    <path d="M751.779019,56.1510006 C753.43821,56.0998493 754.825378,57.4042066 754.876476,59.0651182 C754.927574,60.7260299 753.623066,62.1146363 751.963875,62.1657876 C750.304684,62.2169389 748.919019,60.9125816 748.86792,59.2516699 C748.816822,57.5907582 750.119828,56.2021518 751.779019,56.1510006" id="Fill-196" fill="#CCCCCB"></path>
                    <path d="M722.026598,33.9904671 C725.898044,33.8716156 729.133767,36.9151159 729.252495,40.7920809 C729.372727,44.6675415 726.330876,47.9051157 722.459431,48.0254716 C718.587985,48.1443231 715.352262,45.0993184 715.232031,41.2238578 C715.113302,37.3483972 718.155153,34.1093186 722.026598,33.9904671" id="Fill-198" fill="#CCCCCB"></path>
                    <path d="M775.679034,453.674112 C779.827012,453.546234 783.29418,456.807879 783.421926,460.960158 C783.549671,465.113942 780.289902,468.583201 776.141925,468.711079 C771.993947,468.838957 768.528282,465.577312 768.400536,461.425033 C768.271288,457.272754 771.531057,453.80199 775.679034,453.674112" id="Fill-200" fill="#F2F2F2"></path>
                    <path d="M751.779019,507.594466 C753.43821,507.543315 754.825378,508.847672 754.876476,510.508584 C754.927574,512.169495 753.623066,513.558102 751.963875,513.609253 C750.304684,513.660404 748.919019,512.356047 748.86792,510.695135 C748.816822,509.034224 750.119828,507.645617 751.779019,507.594466" id="Fill-202" fill="#CCCCCB"></path>
                    <path d="M722.026598,485.433932 C725.898044,485.315081 729.133767,488.358581 729.252495,492.235546 C729.372727,496.111007 726.330876,499.348581 722.459431,499.468937 C718.587985,499.587788 715.352262,496.542784 715.232031,492.667323 C715.113302,488.791863 718.155153,485.552784 722.026598,485.433932" id="Fill-204" fill="#CCCCCB"></path>
                    <path d="M685.548442,5.01357622 C689.69642,4.88569806 693.163588,8.14734344 693.291334,12.2996226 C693.419079,16.4534063 690.15931,19.9226656 686.011333,20.0505438 C681.863355,20.1784219 678.39769,16.9167765 678.269944,12.7644974 C678.140695,8.61221818 681.400465,5.14145438 685.548442,5.01357622" id="Fill-206" fill="#F2F2F2"></path>
                    <path d="M661.648427,58.9339303 C663.307618,58.882779 664.694786,60.1871363 664.745884,61.848048 C664.796982,63.5089596 663.492474,64.897566 661.833283,64.9487173 C660.174091,64.9998686 658.788427,63.6955113 658.737328,62.0345996 C658.68623,60.373688 659.989236,58.9850816 661.648427,58.9339303" id="Fill-208" fill="#CCCCCB"></path>
                    <path d="M112.542469,220.777286 L112.542469,220.777286 C112.138191,220.777286 111.328133,221.181983 110.923856,221.181983 C110.519578,221.181983 109.70952,220.777286 109.70952,220.777286 C109.305243,220.372589 108.900965,219.561691 108.900965,219.156994 C108.900965,218.752298 109.305243,217.9414 109.305243,217.536703 C109.70952,217.536703 110.519578,217.132006 110.923856,217.132006 C112.138191,217.132006 112.946746,217.9414 112.946746,219.156994 C112.946746,219.561691 112.542469,220.372589 112.542469,220.777286 M129.537153,234.953709 L127.91854,233.333417 L129.537153,231.713125 C130.345708,230.903732 130.345708,229.688137 129.537153,228.878744 C128.727095,228.067846 127.514263,228.067846 126.704205,228.878744 L125.085592,230.499035 L116.183972,221.586679 C116.183972,221.586679 116.183972,221.181983 116.58825,221.181983 L129.131373,221.181983 L129.131373,223.206971 C129.131373,224.422566 129.941431,225.233464 131.155766,225.233464 C132.368599,225.233464 133.178657,224.422566 133.178657,223.206971 L133.178657,221.181983 L135.201547,221.181983 C136.415883,221.181983 137.224438,220.372589 137.224438,219.156994 C137.224438,217.9414 136.415883,217.132006 135.201547,217.132006 L133.178657,217.132006 L133.178657,215.107018 C133.178657,213.891423 132.368599,213.082029 131.155766,213.082029 C129.941431,213.082029 129.131373,213.891423 129.131373,215.107018 L129.131373,217.132006 L116.58825,217.132006 C116.58825,217.132006 116.58825,216.727309 116.183972,216.727309 L125.085592,207.816458 L126.704205,209.030548 C127.514263,209.841446 128.727095,209.841446 129.537153,209.030548 C130.345708,208.221155 130.345708,207.00556 129.537153,206.196166 L127.91854,204.980572 L129.537153,203.36028 C130.345708,202.550886 130.345708,201.335292 129.537153,200.524394 C128.727095,199.715 127.514263,199.715 126.704205,200.524394 L125.085592,202.144685 L123.871256,200.524394 C123.062701,199.715 121.848366,199.715 121.039811,200.524394 C120.229753,201.335292 120.229753,202.550886 121.039811,203.36028 L122.254146,204.980572 L113.351024,213.891423 C113.351024,213.891423 112.946746,213.891423 112.946746,213.486726 L112.946746,200.930595 L114.969637,200.930595 C116.183972,200.930595 116.99403,200.119697 116.99403,198.905607 C116.99403,197.690012 116.183972,196.879114 114.969637,196.879114 L112.946746,196.879114 L112.946746,194.854126 C112.946746,193.640035 112.138191,192.829137 110.923856,192.829137 C109.70952,192.829137 108.900965,193.640035 108.900965,194.854126 L108.900965,196.879114 L106.878075,196.879114 C105.663739,196.879114 104.855184,197.690012 104.855184,198.905607 C104.855184,200.119697 105.663739,200.930595 106.878075,200.930595 L108.900965,200.930595 L108.900965,213.486726 C108.900965,213.486726 108.496688,213.486726 108.496688,213.891423 L99.5950677,204.980572 L100.8079,203.36028 C101.617958,202.550886 101.617958,201.335292 100.8079,200.524394 C99.9993452,199.715 98.7850098,199.715 97.9764547,200.524394 L96.7621193,202.144685 L95.1435063,200.524394 C94.3349513,199.715 93.1206158,199.715 92.3105579,200.524394 C91.5020029,201.335292 91.5020029,202.550886 92.3105579,203.36028 L93.9291709,204.980572 L92.3105579,206.196166 C91.5020029,207.00556 91.5020029,208.221155 92.3105579,209.030548 C93.1206158,209.841446 94.3349513,209.841446 95.1435063,209.030548 L96.7621193,207.816458 L105.663739,216.727309 C105.663739,216.727309 105.663739,217.132006 105.259462,217.132006 L92.7163383,217.132006 L92.7163383,215.107018 C92.7163383,213.891423 91.9062804,213.082029 90.6934478,213.082029 C89.4791124,213.082029 88.6690544,213.891423 88.6690544,215.107018 L88.6690544,217.132006 L86.6461639,217.132006 C85.4333314,217.132006 84.6232735,217.9414 84.6232735,219.156994 C84.6232735,220.372589 85.4333314,221.181983 86.6461639,221.181983 L88.6690544,221.181983 L88.6690544,223.206971 C88.6690544,224.422566 89.4791124,225.233464 90.6934478,225.233464 C91.9062804,225.233464 92.7163383,224.422566 92.7163383,223.206971 L92.7163383,221.181983 L105.259462,221.181983 C105.259462,221.181983 105.259462,221.586679 105.663739,221.586679 L96.7621193,230.499035 L95.1435063,229.28344 C94.3349513,228.472542 93.1206158,228.472542 92.3105579,229.28344 C91.5020029,230.092834 91.5020029,231.308429 92.3105579,232.117822 L93.9291709,233.333417 L92.3105579,234.953709 C91.5020029,235.764607 91.5020029,236.978697 92.3105579,237.789595 C93.1206158,238.598988 94.3349513,238.598988 95.1435063,237.789595 L96.7621193,236.169303 L98.3807323,237.789595 C99.1892873,238.598988 100.403623,238.598988 101.213681,237.789595 C102.022236,236.978697 102.022236,235.764607 101.213681,234.953709 L99.5950677,233.333417 L108.496688,224.422566 C108.496688,224.422566 108.900965,224.422566 108.900965,224.827263 L108.900965,237.383394 L106.878075,237.383394 C105.663739,237.383394 104.855184,238.194292 104.855184,239.409886 C104.855184,240.623977 105.663739,241.434875 106.878075,241.434875 L108.900965,241.434875 L108.900965,243.459863 C108.900965,244.675458 109.70952,245.484851 110.923856,245.484851 C112.138191,245.484851 112.946746,244.675458 112.946746,243.459863 L112.946746,241.434875 L114.969637,241.434875 C116.183972,241.434875 116.99403,240.623977 116.99403,239.409886 C116.99403,238.194292 116.183972,237.383394 114.969637,237.383394 L112.946746,237.383394 L112.946746,224.827263 C112.946746,224.827263 113.351024,224.827263 113.351024,224.422566 L122.254146,233.333417 L121.039811,234.953709 C120.229753,235.764607 120.229753,236.978697 121.039811,237.789595 C121.848366,238.598988 123.062701,238.598988 123.871256,237.789595 L125.489869,236.169303 L127.108482,237.789595 C127.91854,238.598988 129.131373,238.598988 129.941431,237.789595 C130.345708,236.978697 130.345708,235.764607 129.537153,234.953709" id="Fill-210" fill="#9CAAB2"></path>
                    <path d="M892.500209,49.9064842 L892.500209,49.9064842 C892.095931,49.9064842 891.285873,50.311181 890.881596,50.311181 C890.477318,50.311181 889.66726,49.9064842 889.66726,49.9064842 C889.262983,49.5017874 888.858705,48.6908894 888.858705,48.2861926 C888.858705,47.8814959 889.262983,47.0705979 889.262983,46.6659011 C889.66726,46.6659011 890.477318,46.2612043 890.881596,46.2612043 C892.095931,46.2612043 892.904486,47.0705979 892.904486,48.2861926 C892.904486,48.6908894 892.500209,49.5017874 892.500209,49.9064842 M909.494893,64.0829069 L907.87628,62.4626154 L909.494893,60.8423238 C910.303448,60.0329303 910.303448,58.8173355 909.494893,58.0079419 C908.684835,57.1970439 907.472003,57.1970439 906.661945,58.0079419 L905.043332,59.6282335 L896.141712,50.7158777 C896.141712,50.7158777 896.141712,50.311181 896.54599,50.311181 L909.089113,50.311181 L909.089113,52.3361693 C909.089113,53.5517641 909.899171,54.3626621 911.113506,54.3626621 C912.326339,54.3626621 913.136397,53.5517641 913.136397,52.3361693 L913.136397,50.311181 L915.159287,50.311181 C916.373623,50.311181 917.182178,49.5017874 917.182178,48.2861926 C917.182178,47.0705979 916.373623,46.2612043 915.159287,46.2612043 L913.136397,46.2612043 L913.136397,44.236216 C913.136397,43.0206212 912.326339,42.2112277 911.113506,42.2112277 C909.899171,42.2112277 909.089113,43.0206212 909.089113,44.236216 L909.089113,46.2612043 L896.54599,46.2612043 C896.54599,46.2612043 896.54599,45.8565075 896.141712,45.8565075 L905.043332,36.9456562 L906.661945,38.1597466 C907.472003,38.9706446 908.684835,38.9706446 909.494893,38.1597466 C910.303448,37.350353 910.303448,36.1347582 909.494893,35.3253647 L907.87628,34.1097699 L909.494893,32.4894784 C910.303448,31.6800848 910.303448,30.46449 909.494893,29.653592 C908.684835,28.8441985 907.472003,28.8441985 906.661945,29.653592 L905.043332,31.2738836 L903.828997,29.653592 C903.020441,28.8441985 901.806106,28.8441985 900.997551,29.653592 C900.187493,30.46449 900.187493,31.6800848 900.997551,32.4894784 L902.211886,34.1097699 L893.308764,43.0206212 C893.308764,43.0206212 892.904486,43.0206212 892.904486,42.6159244 L892.904486,30.0597933 L894.927377,30.0597933 C896.141712,30.0597933 896.95177,29.2488953 896.95177,28.0348049 C896.95177,26.8192102 896.141712,26.0083122 894.927377,26.0083122 L892.904486,26.0083122 L892.904486,23.9833238 C892.904486,22.7692335 892.095931,21.9583355 890.881596,21.9583355 C889.66726,21.9583355 888.858705,22.7692335 888.858705,23.9833238 L888.858705,26.0083122 L886.835815,26.0083122 C885.621479,26.0083122 884.812924,26.8192102 884.812924,28.0348049 C884.812924,29.2488953 885.621479,30.0597933 886.835815,30.0597933 L888.858705,30.0597933 L888.858705,42.6159244 C888.858705,42.6159244 888.454428,42.6159244 888.454428,43.0206212 L879.552808,34.1097699 L880.76564,32.4894784 C881.575698,31.6800848 881.575698,30.46449 880.76564,29.653592 C879.957085,28.8441985 878.74275,28.8441985 877.934195,29.653592 L876.719859,31.2738836 L875.101246,29.653592 C874.292691,28.8441985 873.078356,28.8441985 872.268298,29.653592 C871.459743,30.46449 871.459743,31.6800848 872.268298,32.4894784 L873.886911,34.1097699 L872.268298,35.3253647 C871.459743,36.1347582 871.459743,37.350353 872.268298,38.1597466 C873.078356,38.9706446 874.292691,38.9706446 875.101246,38.1597466 L876.719859,36.9456562 L885.621479,45.8565075 C885.621479,45.8565075 885.621479,46.2612043 885.217202,46.2612043 L872.674078,46.2612043 L872.674078,44.236216 C872.674078,43.0206212 871.86402,42.2112277 870.651188,42.2112277 C869.436852,42.2112277 868.626795,43.0206212 868.626795,44.236216 L868.626795,46.2612043 L866.603904,46.2612043 C865.391071,46.2612043 864.581014,47.0705979 864.581014,48.2861926 C864.581014,49.5017874 865.391071,50.311181 866.603904,50.311181 L868.626795,50.311181 L868.626795,52.3361693 C868.626795,53.5517641 869.436852,54.3626621 870.651188,54.3626621 C871.86402,54.3626621 872.674078,53.5517641 872.674078,52.3361693 L872.674078,50.311181 L885.217202,50.311181 C885.217202,50.311181 885.217202,50.7158777 885.621479,50.7158777 L876.719859,59.6282335 L875.101246,58.4126387 C874.292691,57.6017407 873.078356,57.6017407 872.268298,58.4126387 C871.459743,59.2220323 871.459743,60.437627 872.268298,61.2470206 L873.886911,62.4626154 L872.268298,64.0829069 C871.459743,64.8938049 871.459743,66.1078952 872.268298,66.9187932 C873.078356,67.7281868 874.292691,67.7281868 875.101246,66.9187932 L876.719859,65.2985017 L878.338472,66.9187932 C879.147027,67.7281868 880.361363,67.7281868 881.171421,66.9187932 C881.979976,66.1078952 881.979976,64.8938049 881.171421,64.0829069 L879.552808,62.4626154 L888.454428,53.5517641 C888.454428,53.5517641 888.858705,53.5517641 888.858705,53.9564608 L888.858705,66.512592 L886.835815,66.512592 C885.621479,66.512592 884.812924,67.32349 884.812924,68.5390848 C884.812924,69.7531751 885.621479,70.5640731 886.835815,70.5640731 L888.858705,70.5640731 L888.858705,72.5890614 C888.858705,73.8046562 889.66726,74.6140498 890.881596,74.6140498 C892.095931,74.6140498 892.904486,73.8046562 892.904486,72.5890614 L892.904486,70.5640731 L894.927377,70.5640731 C896.141712,70.5640731 896.95177,69.7531751 896.95177,68.5390848 C896.95177,67.32349 896.141712,66.512592 894.927377,66.512592 L892.904486,66.512592 L892.904486,53.9564608 C892.904486,53.9564608 893.308764,53.9564608 893.308764,53.5517641 L902.211886,62.4626154 L900.997551,64.0829069 C900.187493,64.8938049 900.187493,66.1078952 900.997551,66.9187932 C901.806106,67.7281868 903.020441,67.7281868 903.828997,66.9187932 L905.447609,65.2985017 L907.066222,66.9187932 C907.87628,67.7281868 909.089113,67.7281868 909.899171,66.9187932 C910.303448,66.1078952 910.303448,64.8938049 909.494893,64.0829069" id="Fill-212" fill="#9CAAB2"></path>
                    <path d="M351.798864,460.281652 L351.798864,460.281652 C351.394587,460.281652 350.584529,460.686348 350.180251,460.686348 C349.775974,460.686348 348.965916,460.281652 348.965916,460.281652 C348.561638,459.876955 348.157361,459.066057 348.157361,458.66136 C348.157361,458.256663 348.561638,457.445765 348.561638,457.041069 C348.965916,457.041069 349.775974,456.636372 350.180251,456.636372 C351.394587,456.636372 352.203142,457.445765 352.203142,458.66136 C352.203142,459.066057 351.798864,459.876955 351.798864,460.281652 M368.793549,474.458074 L367.174936,472.837783 L368.793549,471.217491 C369.602104,470.408098 369.602104,469.192503 368.793549,468.383109 C367.983491,467.572211 366.770658,467.572211 365.960601,468.383109 L364.341988,470.003401 L355.440368,461.091045 C355.440368,461.091045 355.440368,460.686348 355.844645,460.686348 L368.387769,460.686348 L368.387769,462.711337 C368.387769,463.926932 369.197826,464.73783 370.412162,464.73783 C371.624994,464.73783 372.435052,463.926932 372.435052,462.711337 L372.435052,460.686348 L374.457943,460.686348 C375.672278,460.686348 376.480833,459.876955 376.480833,458.66136 C376.480833,457.445765 375.672278,456.636372 374.457943,456.636372 L372.435052,456.636372 L372.435052,454.611384 C372.435052,453.395789 371.624994,452.586395 370.412162,452.586395 C369.197826,452.586395 368.387769,453.395789 368.387769,454.611384 L368.387769,456.636372 L355.844645,456.636372 C355.844645,456.636372 355.844645,456.231675 355.440368,456.231675 L364.341988,447.320824 L365.960601,448.534914 C366.770658,449.345812 367.983491,449.345812 368.793549,448.534914 C369.602104,447.725521 369.602104,446.509926 368.793549,445.700532 L367.174936,444.484937 L368.793549,442.864646 C369.602104,442.055252 369.602104,440.839658 368.793549,440.02876 C367.983491,439.219366 366.770658,439.219366 365.960601,440.02876 L364.341988,441.649051 L363.127652,440.02876 C362.319097,439.219366 361.104762,439.219366 360.296207,440.02876 C359.486149,440.839658 359.486149,442.055252 360.296207,442.864646 L361.510542,444.484937 L352.607419,453.395789 C352.607419,453.395789 352.203142,453.395789 352.203142,452.991092 L352.203142,440.434961 L354.226032,440.434961 C355.440368,440.434961 356.250426,439.624063 356.250426,438.409972 C356.250426,437.194378 355.440368,436.38348 354.226032,436.38348 L352.203142,436.38348 L352.203142,434.358491 C352.203142,433.144401 351.394587,432.333503 350.180251,432.333503 C348.965916,432.333503 348.157361,433.144401 348.157361,434.358491 L348.157361,436.38348 L346.13447,436.38348 C344.920135,436.38348 344.11158,437.194378 344.11158,438.409972 C344.11158,439.624063 344.920135,440.434961 346.13447,440.434961 L348.157361,440.434961 L348.157361,452.991092 C348.157361,452.991092 347.753083,452.991092 347.753083,453.395789 L338.851463,444.484937 L340.064296,442.864646 C340.874354,442.055252 340.874354,440.839658 340.064296,440.02876 C339.255741,439.219366 338.041405,439.219366 337.23285,440.02876 L336.018515,441.649051 L334.399902,440.02876 C333.591347,439.219366 332.377011,439.219366 331.566954,440.02876 C330.758399,440.839658 330.758399,442.055252 331.566954,442.864646 L333.185567,444.484937 L331.566954,445.700532 C330.758399,446.509926 330.758399,447.725521 331.566954,448.534914 C332.377011,449.345812 333.591347,449.345812 334.399902,448.534914 L336.018515,447.320824 L344.920135,456.231675 C344.920135,456.231675 344.920135,456.636372 344.515857,456.636372 L331.972734,456.636372 L331.972734,454.611384 C331.972734,453.395789 331.162676,452.586395 329.949843,452.586395 C328.735508,452.586395 327.92545,453.395789 327.92545,454.611384 L327.92545,456.636372 L325.90256,456.636372 C324.689727,456.636372 323.879669,457.445765 323.879669,458.66136 C323.879669,459.876955 324.689727,460.686348 325.90256,460.686348 L327.92545,460.686348 L327.92545,462.711337 C327.92545,463.926932 328.735508,464.73783 329.949843,464.73783 C331.162676,464.73783 331.972734,463.926932 331.972734,462.711337 L331.972734,460.686348 L344.515857,460.686348 C344.515857,460.686348 344.515857,461.091045 344.920135,461.091045 L336.018515,470.003401 L334.399902,468.787806 C333.591347,467.976908 332.377011,467.976908 331.566954,468.787806 C330.758399,469.5972 330.758399,470.812795 331.566954,471.622188 L333.185567,472.837783 L331.566954,474.458074 C330.758399,475.268972 330.758399,476.483063 331.566954,477.293961 C332.377011,478.103354 333.591347,478.103354 334.399902,477.293961 L336.018515,475.673669 L337.637128,477.293961 C338.445683,478.103354 339.660018,478.103354 340.470076,477.293961 C341.278631,476.483063 341.278631,475.268972 340.470076,474.458074 L338.851463,472.837783 L347.753083,463.926932 C347.753083,463.926932 348.157361,463.926932 348.157361,464.331628 L348.157361,476.88776 L346.13447,476.88776 C344.920135,476.88776 344.11158,477.698658 344.11158,478.914252 C344.11158,480.128343 344.920135,480.939241 346.13447,480.939241 L348.157361,480.939241 L348.157361,482.964229 C348.157361,484.179824 348.965916,484.989217 350.180251,484.989217 C351.394587,484.989217 352.203142,484.179824 352.203142,482.964229 L352.203142,480.939241 L354.226032,480.939241 C355.440368,480.939241 356.250426,480.128343 356.250426,478.914252 C356.250426,477.698658 355.440368,476.88776 354.226032,476.88776 L352.203142,476.88776 L352.203142,464.331628 C352.203142,464.331628 352.607419,464.331628 352.607419,463.926932 L361.510542,472.837783 L360.296207,474.458074 C359.486149,475.268972 359.486149,476.483063 360.296207,477.293961 C361.104762,478.103354 362.319097,478.103354 363.127652,477.293961 L364.746265,475.673669 L366.364878,477.293961 C367.174936,478.103354 368.387769,478.103354 369.197826,477.293961 C369.602104,476.483063 369.602104,475.268972 368.793549,474.458074" id="Fill-214" fill="#9CAAB2"></path>
                    <path d="M1411.40213,460.281652 L1411.40213,460.281652 C1410.99785,460.281652 1410.18779,460.686348 1409.78351,460.686348 C1409.37924,460.686348 1408.56918,460.281652 1408.56918,460.281652 C1408.1649,459.876955 1407.76062,459.066057 1407.76062,458.66136 C1407.76062,458.256663 1408.1649,457.445765 1408.1649,457.041069 C1408.56918,457.041069 1409.37924,456.636372 1409.78351,456.636372 C1410.99785,456.636372 1411.80641,457.445765 1411.80641,458.66136 C1411.80641,459.066057 1411.40213,459.876955 1411.40213,460.281652 M1428.39681,474.458074 L1426.7782,472.837783 L1428.39681,471.217491 C1429.20537,470.408098 1429.20537,469.192503 1428.39681,468.383109 C1427.58675,467.572211 1426.37392,467.572211 1425.56386,468.383109 L1423.94525,470.003401 L1415.04363,461.091045 C1415.04363,461.091045 1415.04363,460.686348 1415.44791,460.686348 L1427.99103,460.686348 L1427.99103,462.711337 C1427.99103,463.926932 1428.80109,464.73783 1430.01543,464.73783 C1431.22826,464.73783 1432.03832,463.926932 1432.03832,462.711337 L1432.03832,460.686348 L1434.06121,460.686348 C1435.27554,460.686348 1436.0841,459.876955 1436.0841,458.66136 C1436.0841,457.445765 1435.27554,456.636372 1434.06121,456.636372 L1432.03832,456.636372 L1432.03832,454.611384 C1432.03832,453.395789 1431.22826,452.586395 1430.01543,452.586395 C1428.80109,452.586395 1427.99103,453.395789 1427.99103,454.611384 L1427.99103,456.636372 L1415.44791,456.636372 C1415.44791,456.636372 1415.44791,456.231675 1415.04363,456.231675 L1423.94525,447.320824 L1425.56386,448.534914 C1426.37392,449.345812 1427.58675,449.345812 1428.39681,448.534914 C1429.20537,447.725521 1429.20537,446.509926 1428.39681,445.700532 L1426.7782,444.484937 L1428.39681,442.864646 C1429.20537,442.055252 1429.20537,440.839658 1428.39681,440.02876 C1427.58675,439.219366 1426.37392,439.219366 1425.56386,440.02876 L1423.94525,441.649051 L1422.73092,440.02876 C1421.92236,439.219366 1420.70803,439.219366 1419.89947,440.02876 C1419.08941,440.839658 1419.08941,442.055252 1419.89947,442.864646 L1421.11381,444.484937 L1412.21068,453.395789 C1412.21068,453.395789 1411.80641,453.395789 1411.80641,452.991092 L1411.80641,440.434961 L1413.8293,440.434961 C1415.04363,440.434961 1415.85369,439.624063 1415.85369,438.409972 C1415.85369,437.194378 1415.04363,436.38348 1413.8293,436.38348 L1411.80641,436.38348 L1411.80641,434.358491 C1411.80641,433.144401 1410.99785,432.333503 1409.78351,432.333503 C1408.56918,432.333503 1407.76062,433.144401 1407.76062,434.358491 L1407.76062,436.38348 L1405.73773,436.38348 C1404.5234,436.38348 1403.71484,437.194378 1403.71484,438.409972 C1403.71484,439.624063 1404.5234,440.434961 1405.73773,440.434961 L1407.76062,440.434961 L1407.76062,452.991092 C1407.76062,452.991092 1407.35635,452.991092 1407.35635,453.395789 L1398.45473,444.484937 L1399.66756,442.864646 C1400.47762,442.055252 1400.47762,440.839658 1399.66756,440.02876 C1398.859,439.219366 1397.64467,439.219366 1396.83611,440.02876 L1395.62178,441.649051 L1394.00317,440.02876 C1393.19461,439.219366 1391.98027,439.219366 1391.17022,440.02876 C1390.36166,440.839658 1390.36166,442.055252 1391.17022,442.864646 L1392.78883,444.484937 L1391.17022,445.700532 C1390.36166,446.509926 1390.36166,447.725521 1391.17022,448.534914 C1391.98027,449.345812 1393.19461,449.345812 1394.00317,448.534914 L1395.62178,447.320824 L1404.5234,456.231675 C1404.5234,456.231675 1404.5234,456.636372 1404.11912,456.636372 L1391.576,456.636372 L1391.576,454.611384 C1391.576,453.395789 1390.76594,452.586395 1389.55311,452.586395 C1388.33877,452.586395 1387.52871,453.395789 1387.52871,454.611384 L1387.52871,456.636372 L1385.50582,456.636372 C1384.29299,456.636372 1383.48293,457.445765 1383.48293,458.66136 C1383.48293,459.876955 1384.29299,460.686348 1385.50582,460.686348 L1387.52871,460.686348 L1387.52871,462.711337 C1387.52871,463.926932 1388.33877,464.73783 1389.55311,464.73783 C1390.76594,464.73783 1391.576,463.926932 1391.576,462.711337 L1391.576,460.686348 L1404.11912,460.686348 C1404.11912,460.686348 1404.11912,461.091045 1404.5234,461.091045 L1395.62178,470.003401 L1394.00317,468.787806 C1393.19461,467.976908 1391.98027,467.976908 1391.17022,468.787806 C1390.36166,469.5972 1390.36166,470.812795 1391.17022,471.622188 L1392.78883,472.837783 L1391.17022,474.458074 C1390.36166,475.268972 1390.36166,476.483063 1391.17022,477.293961 C1391.98027,478.103354 1393.19461,478.103354 1394.00317,477.293961 L1395.62178,475.673669 L1397.24039,477.293961 C1398.04895,478.103354 1399.26328,478.103354 1400.07334,477.293961 C1400.88189,476.483063 1400.88189,475.268972 1400.07334,474.458074 L1398.45473,472.837783 L1407.35635,463.926932 C1407.35635,463.926932 1407.76062,463.926932 1407.76062,464.331628 L1407.76062,476.88776 L1405.73773,476.88776 C1404.5234,476.88776 1403.71484,477.698658 1403.71484,478.914252 C1403.71484,480.128343 1404.5234,480.939241 1405.73773,480.939241 L1407.76062,480.939241 L1407.76062,482.964229 C1407.76062,484.179824 1408.56918,484.989217 1409.78351,484.989217 C1410.99785,484.989217 1411.80641,484.179824 1411.80641,482.964229 L1411.80641,480.939241 L1413.8293,480.939241 C1415.04363,480.939241 1415.85369,480.128343 1415.85369,478.914252 C1415.85369,477.698658 1415.04363,476.88776 1413.8293,476.88776 L1411.80641,476.88776 L1411.80641,464.331628 C1411.80641,464.331628 1412.21068,464.331628 1412.21068,463.926932 L1421.11381,472.837783 L1419.89947,474.458074 C1419.08941,475.268972 1419.08941,476.483063 1419.89947,477.293961 C1420.70803,478.103354 1421.92236,478.103354 1422.73092,477.293961 L1424.34953,475.673669 L1425.96814,477.293961 C1426.7782,478.103354 1427.99103,478.103354 1428.80109,477.293961 C1429.20537,476.483063 1429.20537,475.268972 1428.39681,474.458074" id="Fill-216" fill="#9CAAB2"></path>
                    <path d="M91.8643497,615.174303 L91.8643497,615.174303 C91.4600722,615.174303 90.6500143,615.578999 90.2457368,615.578999 C89.8414592,615.578999 89.0314013,615.174303 89.0314013,615.174303 C88.6271238,614.769606 88.2228463,613.958708 88.2228463,613.554011 C88.2228463,613.149314 88.6271238,612.338416 88.6271238,611.933719 C89.0314013,611.933719 89.8414592,611.529023 90.2457368,611.529023 C91.4600722,611.529023 92.2686273,612.338416 92.2686273,613.554011 C92.2686273,613.958708 91.8643497,614.769606 91.8643497,615.174303 M108.859034,629.350725 L107.240421,627.730434 L108.859034,626.110142 C109.66759,625.300749 109.66759,624.085154 108.859034,623.27576 C108.048977,622.464862 106.836144,622.464862 106.026086,623.27576 L104.407473,624.896052 L95.5058532,615.983696 C95.5058532,615.983696 95.5058532,615.578999 95.9101307,615.578999 L108.453254,615.578999 L108.453254,617.603988 C108.453254,618.819582 109.263312,619.63048 110.477647,619.63048 C111.69048,619.63048 112.500538,618.819582 112.500538,617.603988 L112.500538,615.578999 L114.523428,615.578999 C115.737764,615.578999 116.546319,614.769606 116.546319,613.554011 C116.546319,612.338416 115.737764,611.529023 114.523428,611.529023 L112.500538,611.529023 L112.500538,609.504034 C112.500538,608.28844 111.69048,607.479046 110.477647,607.479046 C109.263312,607.479046 108.453254,608.28844 108.453254,609.504034 L108.453254,611.529023 L95.9101307,611.529023 C95.9101307,611.529023 95.9101307,611.124326 95.5058532,611.124326 L104.407473,602.213475 L106.026086,603.427565 C106.836144,604.238463 108.048977,604.238463 108.859034,603.427565 C109.66759,602.618171 109.66759,601.402577 108.859034,600.593183 L107.240421,599.377588 L108.859034,597.757297 C109.66759,596.947903 109.66759,595.732308 108.859034,594.92141 C108.048977,594.112017 106.836144,594.112017 106.026086,594.92141 L104.407473,596.541702 L103.193138,594.92141 C102.384583,594.112017 101.170247,594.112017 100.361692,594.92141 C99.5516342,595.732308 99.5516342,596.947903 100.361692,597.757297 L101.576028,599.377588 L92.6729048,608.28844 C92.6729048,608.28844 92.2686273,608.28844 92.2686273,607.883743 L92.2686273,595.327612 L94.2915177,595.327612 C95.5058532,595.327612 96.3159111,594.516714 96.3159111,593.302623 C96.3159111,592.087029 95.5058532,591.276131 94.2915177,591.276131 L92.2686273,591.276131 L92.2686273,589.251142 C92.2686273,588.037052 91.4600722,587.226154 90.2457368,587.226154 C89.0314013,587.226154 88.2228463,588.037052 88.2228463,589.251142 L88.2228463,591.276131 L86.1999558,591.276131 C84.9856203,591.276131 84.1770653,592.087029 84.1770653,593.302623 C84.1770653,594.516714 84.9856203,595.327612 86.1999558,595.327612 L88.2228463,595.327612 L88.2228463,607.883743 C88.2228463,607.883743 87.8185688,607.883743 87.8185688,608.28844 L78.9169489,599.377588 L80.1297814,597.757297 C80.9398394,596.947903 80.9398394,595.732308 80.1297814,594.92141 C79.3212264,594.112017 78.1068909,594.112017 77.2983359,594.92141 L76.0840005,596.541702 L74.4653875,594.92141 C73.6568324,594.112017 72.442497,594.112017 71.6324391,594.92141 C70.823884,595.732308 70.823884,596.947903 71.6324391,597.757297 L73.251052,599.377588 L71.6324391,600.593183 C70.823884,601.402577 70.823884,602.618171 71.6324391,603.427565 C72.442497,604.238463 73.6568324,604.238463 74.4653875,603.427565 L76.0840005,602.213475 L84.9856203,611.124326 C84.9856203,611.124326 84.9856203,611.529023 84.5813428,611.529023 L72.0382195,611.529023 L72.0382195,609.504034 C72.0382195,608.28844 71.2281615,607.479046 70.015329,607.479046 C68.8009935,607.479046 67.9909356,608.28844 67.9909356,609.504034 L67.9909356,611.529023 L65.9680451,611.529023 C64.7552126,611.529023 63.9451546,612.338416 63.9451546,613.554011 C63.9451546,614.769606 64.7552126,615.578999 65.9680451,615.578999 L67.9909356,615.578999 L67.9909356,617.603988 C67.9909356,618.819582 68.8009935,619.63048 70.015329,619.63048 C71.2281615,619.63048 72.0382195,618.819582 72.0382195,617.603988 L72.0382195,615.578999 L84.5813428,615.578999 C84.5813428,615.578999 84.5813428,615.983696 84.9856203,615.983696 L76.0840005,624.896052 L74.4653875,623.680457 C73.6568324,622.869559 72.442497,622.869559 71.6324391,623.680457 C70.823884,624.489851 70.823884,625.705445 71.6324391,626.514839 L73.251052,627.730434 L71.6324391,629.350725 C70.823884,630.161623 70.823884,631.375714 71.6324391,632.186612 C72.442497,632.996005 73.6568324,632.996005 74.4653875,632.186612 L76.0840005,630.56632 L77.7026134,632.186612 C78.5111685,632.996005 79.7255039,632.996005 80.5355618,632.186612 C81.3441169,631.375714 81.3441169,630.161623 80.5355618,629.350725 L78.9169489,627.730434 L87.8185688,618.819582 C87.8185688,618.819582 88.2228463,618.819582 88.2228463,619.224279 L88.2228463,631.78041 L86.1999558,631.78041 C84.9856203,631.78041 84.1770653,632.591308 84.1770653,633.806903 C84.1770653,635.020993 84.9856203,635.831891 86.1999558,635.831891 L88.2228463,635.831891 L88.2228463,637.85688 C88.2228463,639.072475 89.0314013,639.881868 90.2457368,639.881868 C91.4600722,639.881868 92.2686273,639.072475 92.2686273,637.85688 L92.2686273,635.831891 L94.2915177,635.831891 C95.5058532,635.831891 96.3159111,635.020993 96.3159111,633.806903 C96.3159111,632.591308 95.5058532,631.78041 94.2915177,631.78041 L92.2686273,631.78041 L92.2686273,619.224279 C92.2686273,619.224279 92.6729048,619.224279 92.6729048,618.819582 L101.576028,627.730434 L100.361692,629.350725 C99.5516342,630.161623 99.5516342,631.375714 100.361692,632.186612 C101.170247,632.996005 102.384583,632.996005 103.193138,632.186612 L104.811751,630.56632 L106.430364,632.186612 C107.240421,632.996005 108.453254,632.996005 109.263312,632.186612 C109.66759,631.375714 109.66759,630.161623 108.859034,629.350725" id="Fill-218" fill="#9CAAB2"></path>
                </g>
                <g id="Group-220-Copy-2" transform="translate(718.500000, 352.500000) scale(-1, 1) translate(-718.500000, -352.500000) ">
                    <path d="M170.245795,612.531888 C170.245795,616.408853 167.106257,619.553152 163.231806,619.553152 C159.358857,619.553152 156.219319,616.408853 156.219319,612.531888 C156.219319,608.654923 159.358857,605.510625 163.231806,605.510625 C167.106257,605.510625 170.245795,608.654923 170.245795,612.531888" id="Fill-62" fill="#CCCCCB"></path>
                    <path d="M200.303604,576.926546 C200.303604,581.080329 196.938632,584.448791 192.789152,584.448791 C188.639671,584.448791 185.2747,581.080329 185.2747,576.926546 C185.2747,572.772762 188.639671,569.404301 192.789152,569.404301 C196.938632,569.404301 200.303604,572.772762 200.303604,576.926546" id="Fill-64" fill="#F2F2F2"></path>
                    <path d="M208.318969,613.033321 C208.318969,614.417414 207.197813,615.541238 205.813651,615.541238 C204.430992,615.541238 203.309835,614.417414 203.309835,613.033321 C203.309835,611.649228 204.430992,610.525405 205.813651,610.525405 C207.197813,610.525405 208.318969,611.649228 208.318969,613.033321" id="Fill-66" fill="#F2F2F2"></path>
                    <path d="M147.201526,551.350913 C147.201526,553.013329 145.856439,554.359811 144.195745,554.359811 C142.535051,554.359811 141.189964,553.013329 141.189964,551.350913 C141.189964,549.688497 142.535051,548.342015 144.195745,548.342015 C145.856439,548.342015 147.201526,549.688497 147.201526,551.350913" id="Fill-68" fill="#CCCCCB"></path>
                    <path d="M208.318969,522.766382 C208.318969,524.150476 207.197813,525.274299 205.813651,525.274299 C204.430992,525.274299 203.309835,524.150476 203.309835,522.766382 C203.309835,521.382289 204.430992,520.258466 205.813651,520.258466 C207.197813,520.258466 208.318969,521.382289 208.318969,522.766382" id="Fill-72" fill="#F2F2F2"></path>
                    <path d="M407.70248,522.26495 C407.70248,526.141915 404.562942,529.286213 400.68849,529.286213 C396.815542,529.286213 393.676004,526.141915 393.676004,522.26495 C393.676004,518.387985 396.815542,515.243686 400.68849,515.243686 C404.562942,515.243686 407.70248,518.387985 407.70248,522.26495" id="Fill-74" fill="#CCCCCB"></path>
                    <path d="M445.775653,522.766382 C445.775653,524.150476 444.654497,525.274299 443.270335,525.274299 C441.887676,525.274299 440.76652,524.150476 440.76652,522.766382 C440.76652,521.382289 441.887676,520.258466 443.270335,520.258466 C444.654497,520.258466 445.775653,521.382289 445.775653,522.766382" id="Fill-78" fill="#F2F2F2"></path>
                    <path d="M13.775667,660.191628 C12.6500021,663.9016 8.73196683,665.995793 5.02583909,664.86896 C1.31971134,663.742128 -0.772312103,659.82003 0.354855702,656.110058 C1.48052062,652.400087 5.39705302,650.305894 9.10318077,651.432726 C12.8093085,652.561063 14.901332,656.481657 13.775667,660.191628" id="Fill-82" fill="#CCCCCB"></path>
                    <path d="M52.8741124,634.869195 C51.6672914,638.843949 47.4712214,641.087082 43.500585,639.880514 C39.5284456,638.672442 37.287636,634.47202 38.494457,630.495761 C39.6997751,626.521007 43.897348,624.277874 47.8679845,625.485946 C51.838621,626.692514 54.0809334,630.89444 52.8741124,634.869195" id="Fill-84" fill="#F2F2F2"></path>
                    <path d="M50.0594993,671.749257 C49.6567247,673.074676 48.2590366,673.822388 46.9349901,673.419195 C45.6109437,673.017507 44.8640071,671.616865 45.2667818,670.291446 C45.6680535,668.966026 47.0672445,668.218315 48.3912909,668.621507 C49.7138345,669.023195 50.4622739,670.423837 50.0594993,671.749257" id="Fill-86" fill="#F2F2F2"></path>
                    <path d="M105.120595,701.795811 C105.120595,703.458227 103.775508,704.804709 102.114814,704.804709 C100.45412,704.804709 99.1090329,703.458227 99.1090329,701.795811 C99.1090329,700.133395 100.45412,698.786913 102.114814,698.786913 C103.775508,698.786913 105.120595,700.133395 105.120595,701.795811" id="Fill-88" fill="#CCCCCB"></path>
                    <path d="M9.49062591,594.946986 C9.00819809,596.537189 7.32946951,597.43384 5.74091435,596.950912 C4.15235918,596.467984 3.2566365,594.787514 3.73906432,593.197312 C4.22149214,591.607109 5.90022073,590.710458 7.48877589,591.193386 C9.07733105,591.676314 9.97305373,593.356783 9.49062591,594.946986" id="Fill-90" fill="#CCCCCB"></path>
                    <path d="M79.08392,548.49938 C77.877099,552.474135 73.681029,554.717268 69.7103925,553.5107 C65.7382532,552.302627 63.4974436,548.102206 64.7042646,544.125947 C65.9095827,540.151193 70.1071556,537.90806 74.077792,539.116132 C78.0484285,540.3227 80.290741,544.524626 79.08392,548.49938" id="Fill-92" fill="#F2F2F2"></path>
                    <path d="M76.2693068,585.379443 C75.8665322,586.704862 74.4688441,587.452573 73.1447977,587.049381 C71.8207512,586.647693 71.0738147,585.247051 71.4765893,583.921632 C71.8778611,582.596212 73.277052,581.848501 74.6010985,582.251693 C75.923642,582.653381 76.6720815,584.054023 76.2693068,585.379443" id="Fill-94" fill="#F2F2F2"></path>
                    <path d="M141.189964,611.528872 C141.189964,613.191288 139.844877,614.53777 138.184184,614.53777 C136.52349,614.53777 135.178403,613.191288 135.178403,611.528872 C135.178403,609.866456 136.52349,608.519974 138.184184,608.519974 C139.844877,608.519974 141.189964,609.866456 141.189964,611.528872" id="Fill-96" fill="#CCCCCB"></path>
                    <path d="M35.7005838,508.577322 C35.2181559,510.167525 33.5394273,511.064177 31.9508722,510.581248 C30.362317,510.09832 29.4665943,508.417851 29.9490222,506.827648 C30.43145,505.237446 32.1101786,504.340794 33.6987337,504.823722 C35.2872889,505.30665 36.1830116,506.98712 35.7005838,508.577322" id="Fill-98" fill="#CCCCCB"></path>
                    <path d="M1330.47719,635.600056 C1330.47719,639.477021 1327.33765,642.621319 1323.4632,642.621319 C1319.59025,642.621319 1316.45071,639.477021 1316.45071,635.600056 C1316.45071,631.723091 1319.59025,628.578792 1323.4632,628.578792 C1327.33765,628.578792 1330.47719,631.723091 1330.47719,635.600056" id="Fill-138" fill="#CCCCCB"></path>
                    <path d="M1360.535,599.994864 C1360.535,604.148647 1357.17003,607.517109 1353.02055,607.517109 C1348.87107,607.517109 1345.50609,604.148647 1345.50609,599.994864 C1345.50609,595.84108 1348.87107,592.472619 1353.02055,592.472619 C1357.17003,592.472619 1360.535,595.84108 1360.535,599.994864" id="Fill-140" fill="#F2F2F2"></path>
                    <path d="M1368.55036,636.101639 C1368.55036,637.485732 1367.42921,638.609556 1366.04505,638.609556 C1364.66239,638.609556 1363.54123,637.485732 1363.54123,636.101639 C1363.54123,634.717546 1364.66239,633.593723 1366.04505,633.593723 C1367.42921,633.593723 1368.55036,634.717546 1368.55036,636.101639" id="Fill-142" fill="#F2F2F2"></path>
                    <path d="M1417.64483,608.519974 C1417.64483,610.18239 1416.29975,611.528872 1414.63905,611.528872 C1412.97836,611.528872 1411.63327,610.18239 1411.63327,608.519974 C1411.63327,606.857558 1412.97836,605.511076 1414.63905,605.511076 C1416.29975,605.511076 1417.64483,606.857558 1417.64483,608.519974" id="Fill-144" fill="#CCCCCB"></path>
                    <path d="M1307.43292,574.419231 C1307.43292,576.081647 1306.08783,577.428129 1304.42714,577.428129 C1302.76645,577.428129 1301.42136,576.081647 1301.42136,574.419231 C1301.42136,572.756815 1302.76645,571.410333 1304.42714,571.410333 C1306.08783,571.410333 1307.43292,572.756815 1307.43292,574.419231" id="Fill-146" fill="#CCCCCB"></path>
                    <path d="M1330.47719,545.333117 C1330.47719,549.210082 1327.33765,552.354381 1323.4632,552.354381 C1319.59025,552.354381 1316.45071,549.210082 1316.45071,545.333117 C1316.45071,541.456152 1319.59025,538.311854 1323.4632,538.311854 C1327.33765,538.311854 1330.47719,541.456152 1330.47719,545.333117" id="Fill-148" fill="#CCCCCB"></path>
                    <path d="M1360.535,509.727925 C1360.535,513.881709 1357.17003,517.25017 1353.02055,517.25017 C1348.87107,517.25017 1345.50609,513.881709 1345.50609,509.727925 C1345.50609,505.574141 1348.87107,502.20568 1353.02055,502.20568 C1357.17003,502.20568 1360.535,505.574141 1360.535,509.727925" id="Fill-150" fill="#F2F2F2"></path>
                    <path d="M1368.55036,545.8347 C1368.55036,547.218794 1367.42921,548.342617 1366.04505,548.342617 C1364.66239,548.342617 1363.54123,547.218794 1363.54123,545.8347 C1363.54123,544.450607 1364.66239,543.326784 1366.04505,543.326784 C1367.42921,543.326784 1368.55036,544.450607 1368.55036,545.8347" id="Fill-152" fill="#F2F2F2"></path>
                    <path d="M1417.64483,518.253036 C1417.64483,519.915452 1416.29975,521.261933 1414.63905,521.261933 C1412.97836,521.261933 1411.63327,519.915452 1411.63327,518.253036 C1411.63327,516.590619 1412.97836,515.244138 1414.63905,515.244138 C1416.29975,515.244138 1417.64483,516.590619 1417.64483,518.253036" id="Fill-154" fill="#CCCCCB"></path>
                    <path d="M751.779019,507.594466 C753.43821,507.543315 754.825378,508.847672 754.876476,510.508584 C754.927574,512.169495 753.623066,513.558102 751.963875,513.609253 C750.304684,513.660404 748.919019,512.356047 748.86792,510.695135 C748.816822,509.034224 750.119828,507.645617 751.779019,507.594466" id="Fill-202" fill="#CCCCCB"></path>
                    <path d="M91.8643497,615.174303 L91.8643497,615.174303 C91.4600722,615.174303 90.6500143,615.578999 90.2457368,615.578999 C89.8414592,615.578999 89.0314013,615.174303 89.0314013,615.174303 C88.6271238,614.769606 88.2228463,613.958708 88.2228463,613.554011 C88.2228463,613.149314 88.6271238,612.338416 88.6271238,611.933719 C89.0314013,611.933719 89.8414592,611.529023 90.2457368,611.529023 C91.4600722,611.529023 92.2686273,612.338416 92.2686273,613.554011 C92.2686273,613.958708 91.8643497,614.769606 91.8643497,615.174303 M108.859034,629.350725 L107.240421,627.730434 L108.859034,626.110142 C109.66759,625.300749 109.66759,624.085154 108.859034,623.27576 C108.048977,622.464862 106.836144,622.464862 106.026086,623.27576 L104.407473,624.896052 L95.5058532,615.983696 C95.5058532,615.983696 95.5058532,615.578999 95.9101307,615.578999 L108.453254,615.578999 L108.453254,617.603988 C108.453254,618.819582 109.263312,619.63048 110.477647,619.63048 C111.69048,619.63048 112.500538,618.819582 112.500538,617.603988 L112.500538,615.578999 L114.523428,615.578999 C115.737764,615.578999 116.546319,614.769606 116.546319,613.554011 C116.546319,612.338416 115.737764,611.529023 114.523428,611.529023 L112.500538,611.529023 L112.500538,609.504034 C112.500538,608.28844 111.69048,607.479046 110.477647,607.479046 C109.263312,607.479046 108.453254,608.28844 108.453254,609.504034 L108.453254,611.529023 L95.9101307,611.529023 C95.9101307,611.529023 95.9101307,611.124326 95.5058532,611.124326 L104.407473,602.213475 L106.026086,603.427565 C106.836144,604.238463 108.048977,604.238463 108.859034,603.427565 C109.66759,602.618171 109.66759,601.402577 108.859034,600.593183 L107.240421,599.377588 L108.859034,597.757297 C109.66759,596.947903 109.66759,595.732308 108.859034,594.92141 C108.048977,594.112017 106.836144,594.112017 106.026086,594.92141 L104.407473,596.541702 L103.193138,594.92141 C102.384583,594.112017 101.170247,594.112017 100.361692,594.92141 C99.5516342,595.732308 99.5516342,596.947903 100.361692,597.757297 L101.576028,599.377588 L92.6729048,608.28844 C92.6729048,608.28844 92.2686273,608.28844 92.2686273,607.883743 L92.2686273,595.327612 L94.2915177,595.327612 C95.5058532,595.327612 96.3159111,594.516714 96.3159111,593.302623 C96.3159111,592.087029 95.5058532,591.276131 94.2915177,591.276131 L92.2686273,591.276131 L92.2686273,589.251142 C92.2686273,588.037052 91.4600722,587.226154 90.2457368,587.226154 C89.0314013,587.226154 88.2228463,588.037052 88.2228463,589.251142 L88.2228463,591.276131 L86.1999558,591.276131 C84.9856203,591.276131 84.1770653,592.087029 84.1770653,593.302623 C84.1770653,594.516714 84.9856203,595.327612 86.1999558,595.327612 L88.2228463,595.327612 L88.2228463,607.883743 C88.2228463,607.883743 87.8185688,607.883743 87.8185688,608.28844 L78.9169489,599.377588 L80.1297814,597.757297 C80.9398394,596.947903 80.9398394,595.732308 80.1297814,594.92141 C79.3212264,594.112017 78.1068909,594.112017 77.2983359,594.92141 L76.0840005,596.541702 L74.4653875,594.92141 C73.6568324,594.112017 72.442497,594.112017 71.6324391,594.92141 C70.823884,595.732308 70.823884,596.947903 71.6324391,597.757297 L73.251052,599.377588 L71.6324391,600.593183 C70.823884,601.402577 70.823884,602.618171 71.6324391,603.427565 C72.442497,604.238463 73.6568324,604.238463 74.4653875,603.427565 L76.0840005,602.213475 L84.9856203,611.124326 C84.9856203,611.124326 84.9856203,611.529023 84.5813428,611.529023 L72.0382195,611.529023 L72.0382195,609.504034 C72.0382195,608.28844 71.2281615,607.479046 70.015329,607.479046 C68.8009935,607.479046 67.9909356,608.28844 67.9909356,609.504034 L67.9909356,611.529023 L65.9680451,611.529023 C64.7552126,611.529023 63.9451546,612.338416 63.9451546,613.554011 C63.9451546,614.769606 64.7552126,615.578999 65.9680451,615.578999 L67.9909356,615.578999 L67.9909356,617.603988 C67.9909356,618.819582 68.8009935,619.63048 70.015329,619.63048 C71.2281615,619.63048 72.0382195,618.819582 72.0382195,617.603988 L72.0382195,615.578999 L84.5813428,615.578999 C84.5813428,615.578999 84.5813428,615.983696 84.9856203,615.983696 L76.0840005,624.896052 L74.4653875,623.680457 C73.6568324,622.869559 72.442497,622.869559 71.6324391,623.680457 C70.823884,624.489851 70.823884,625.705445 71.6324391,626.514839 L73.251052,627.730434 L71.6324391,629.350725 C70.823884,630.161623 70.823884,631.375714 71.6324391,632.186612 C72.442497,632.996005 73.6568324,632.996005 74.4653875,632.186612 L76.0840005,630.56632 L77.7026134,632.186612 C78.5111685,632.996005 79.7255039,632.996005 80.5355618,632.186612 C81.3441169,631.375714 81.3441169,630.161623 80.5355618,629.350725 L78.9169489,627.730434 L87.8185688,618.819582 C87.8185688,618.819582 88.2228463,618.819582 88.2228463,619.224279 L88.2228463,631.78041 L86.1999558,631.78041 C84.9856203,631.78041 84.1770653,632.591308 84.1770653,633.806903 C84.1770653,635.020993 84.9856203,635.831891 86.1999558,635.831891 L88.2228463,635.831891 L88.2228463,637.85688 C88.2228463,639.072475 89.0314013,639.881868 90.2457368,639.881868 C91.4600722,639.881868 92.2686273,639.072475 92.2686273,637.85688 L92.2686273,635.831891 L94.2915177,635.831891 C95.5058532,635.831891 96.3159111,635.020993 96.3159111,633.806903 C96.3159111,632.591308 95.5058532,631.78041 94.2915177,631.78041 L92.2686273,631.78041 L92.2686273,619.224279 C92.2686273,619.224279 92.6729048,619.224279 92.6729048,618.819582 L101.576028,627.730434 L100.361692,629.350725 C99.5516342,630.161623 99.5516342,631.375714 100.361692,632.186612 C101.170247,632.996005 102.384583,632.996005 103.193138,632.186612 L104.811751,630.56632 L106.430364,632.186612 C107.240421,632.996005 108.453254,632.996005 109.263312,632.186612 C109.66759,631.375714 109.66759,630.161623 108.859034,629.350725" id="Fill-218" fill="#9CAAB2"></path>
                </g>
            </g>
        </g>
    </g>
</svg>