<?xml version="1.0" encoding="UTF-8" standalone="no"?>
<svg width="375px" height="388px" viewBox="0 0 375 388" version="1.1" xmlns="http://www.w3.org/2000/svg" xmlns:xlink="http://www.w3.org/1999/xlink">
    <!-- Generator: Sketch 3.7.1 (28215) - http://www.bohemiancoding.com/sketch -->
    <title>Group Copy</title>
    <desc>Created with Sketch.</desc>
    <defs></defs>
    <g id="Page-1" stroke="none" stroke-width="1" fill="none" fill-rule="evenodd">
        <g id="iPhone-6">
            <g id="Group-Copy" transform="translate(-5.484375, 0.000000)">
                <g id="Page-1" transform="translate(0.000000, 0.169862)">
                    <polygon id="Fill-1" fill="#F6F7F7" points="3.86523438 386.445372 382.134766 386.445372 382.134766 4.8316906e-13 3.86523438 4.8316906e-13"></polygon>
                    <g id="Group-220" transform="translate(0.500000, 0.000000)">
                        <path d="M45.788958,46.1383297 C45.788958,47.1739071 44.9494852,48.0137817 43.9135059,48.0137817 C42.8779285,48.0137817 42.0384558,47.1739071 42.0384558,46.1383297 C42.0384558,45.1027523 42.8779285,44.2628777 43.9135059,44.2628777 C44.9494852,44.2628777 45.788958,45.1027523 45.788958,46.1383297" id="Fill-2" fill="#CCCCCB"></path>
                        <path d="M53.8260354,36.6277747 C53.8260354,37.7372933 52.9262845,38.6370441 51.816766,38.6370441 C50.7072475,38.6370441 49.8074967,37.7372933 49.8074967,36.6277747 C49.8074967,35.5182562 50.7072475,34.6185054 51.816766,34.6185054 C52.9262845,34.6185054 53.8260354,35.5182562 53.8260354,36.6277747" id="Fill-4" fill="#F2F2F2"></path>
                        <path d="M79.0315157,62.2323361 C79.0315157,63.3418546 78.1317649,64.2416055 77.0222463,64.2416055 C75.9127278,64.2416055 75.012977,63.3418546 75.012977,62.2323361 C75.012977,61.1228176 75.9127278,60.2230668 77.0222463,60.2230668 C78.1317649,60.2230668 79.0315157,61.1228176 79.0315157,62.2323361" id="Fill-6" fill="#F2F2F2"></path>
                        <path d="M55.9692426,46.2722676 C55.9692426,46.6419732 55.6694596,46.942158 55.2993522,46.942158 C54.9296466,46.942158 54.6298637,46.6419732 54.6298637,46.2722676 C54.6298637,45.902562 54.9296466,45.6023772 55.2993522,45.6023772 C55.6694596,45.6023772 55.9692426,45.902562 55.9692426,46.2722676" id="Fill-8" fill="#F2F2F2"></path>
                        <path d="M88.7080363,71.0167412 C88.7080363,71.3864467 88.4082533,71.6866316 88.0381459,71.6866316 C87.6684403,71.6866316 87.3686574,71.3864467 87.3686574,71.0167412 C87.3686574,70.6470356 87.6684403,70.3468508 88.0381459,70.3468508 C88.4082533,70.3468508 88.7080363,70.6470356 88.7080363,71.0167412" id="Fill-10" fill="#F2F2F2"></path>
                        <path d="M159.02089,128.875903 C159.02089,129.245608 158.721107,129.545793 158.351,129.545793 C157.981294,129.545793 157.681511,129.245608 157.681511,128.875903 C157.681511,128.506197 157.981294,128.206012 158.351,128.206012 C158.721107,128.206012 159.02089,128.506197 159.02089,128.875903" id="Fill-12" fill="#F2F2F2"></path>
                        <path d="M69.0964824,38.90496 C69.0964824,39.3490086 68.7368232,39.7086678 68.2927747,39.7086678 C67.8487262,39.7086678 67.489067,39.3490086 67.489067,38.90496 C67.489067,38.4609115 67.8487262,38.1012523 68.2927747,38.1012523 C68.7368232,38.1012523 69.0964824,38.4609115 69.0964824,38.90496" id="Fill-14" fill="#CCCCCB"></path>
                        <path d="M39.627212,29.7962589 C39.627212,30.2403074 39.2675528,30.5999667 38.8235043,30.5999667 C38.3794557,30.5999667 38.0197965,30.2403074 38.0197965,29.7962589 C38.0197965,29.3522104 38.3794557,28.9925512 38.8235043,28.9925512 C39.2675528,28.9925512 39.627212,29.3522104 39.627212,29.7962589" id="Fill-16" fill="#CCCCCB"></path>
                        <path d="M53.8260354,12.5165425 C53.8260354,13.626061 52.9262845,14.5258119 51.816766,14.5258119 C50.7072475,14.5258119 49.8074967,13.626061 49.8074967,12.5165425 C49.8074967,11.407024 50.7072475,10.5072731 51.816766,10.5072731 C52.9262845,10.5072731 53.8260354,11.407024 53.8260354,12.5165425" id="Fill-18" fill="#F2F2F2"></path>
                        <path d="M55.9692426,22.1610354 C55.9692426,22.5307409 55.6694596,22.8309258 55.2993522,22.8309258 C54.9296466,22.8309258 54.6298637,22.5307409 54.6298637,22.1610354 C54.6298637,21.7913298 54.9296466,21.491145 55.2993522,21.491145 C55.6694596,21.491145 55.9692426,21.7913298 55.9692426,22.1610354" id="Fill-20" fill="#F2F2F2"></path>
                        <path d="M69.0964824,14.7937278 C69.0964824,15.2377764 68.7368232,15.5974356 68.2927747,15.5974356 C67.8487262,15.5974356 67.489067,15.2377764 67.489067,14.7937278 C67.489067,14.3496793 67.8487262,13.9900201 68.2927747,13.9900201 C68.7368232,13.9900201 69.0964824,14.3496793 69.0964824,14.7937278" id="Fill-22" fill="#CCCCCB"></path>
                        <path d="M39.627212,5.6850267 C39.627212,6.12907523 39.2675528,6.48873444 38.8235043,6.48873444 C38.3794557,6.48873444 38.0197965,6.12907523 38.0197965,5.6850267 C38.0197965,5.24097818 38.3794557,4.88131896 38.8235043,4.88131896 C39.2675528,4.88131896 39.627212,5.24097818 39.627212,5.6850267" id="Fill-24" fill="#CCCCCB"></path>
                        <path d="M10.4161327,91.5613997 C9.43279627,91.8860976 8.37230391,91.3520339 8.04720412,90.3686974 C7.7225062,89.385361 8.25656999,88.3244668 9.24030826,87.9997689 C10.2236447,87.6750709 11.284137,88.2091347 11.608835,89.1924712 C11.9335329,90.1762094 11.3994691,91.2367018 10.4161327,91.5613997" id="Fill-26" fill="#CCCCCB"></path>
                        <path d="M21.9671007,96.2110901 C20.9134399,96.5590956 19.7769971,95.9868557 19.4289917,94.9331948 C19.0813881,93.879534 19.6532261,92.7430912 20.706887,92.3950858 C21.7609497,92.0470803 22.8969906,92.6193202 23.244996,93.6729811 C23.5930015,94.7270438 23.0207616,95.8630847 21.9671007,96.2110901" id="Fill-28" fill="#F2F2F2"></path>
                        <path d="M13.4809918,101.27031 C13.1297715,101.386446 12.7508233,101.195565 12.6350894,100.844345 C12.5189536,100.493124 12.7098342,100.114176 13.0610545,99.9984423 C13.4122748,99.8823065 13.7908211,100.073187 13.9069569,100.424407 C14.0230927,100.775628 13.8322121,101.154174 13.4809918,101.27031" id="Fill-30" fill="#F2F2F2"></path>
                        <path d="M24.5928541,111.425479 C24.1713094,111.56452 23.7168126,111.335865 23.5777712,110.91432 C23.4383279,110.492776 23.6673846,110.038279 24.0889293,109.899238 C24.510474,109.759794 24.9649708,109.988851 25.1040122,110.410396 C25.2430536,110.83194 25.0143988,111.286437 24.5928541,111.425479" id="Fill-32" fill="#CCCCCB"></path>
                        <path d="M24.0020485,80.5862481 C23.5805038,80.7252895 23.1260071,80.4966347 22.9869656,80.07509 C22.8475224,79.6535453 23.0765791,79.1990485 23.4981238,79.0600071 C23.9196685,78.9205638 24.3741652,79.1496205 24.5132066,79.5711652 C24.6522481,79.9927099 24.4235932,80.4472067 24.0020485,80.5862481" id="Fill-34" fill="#CCCCCB"></path>
                        <path d="M44.8624437,88.6509329 C43.8087828,88.9989383 42.6723401,88.4266984 42.3243346,87.3730376 C41.976731,86.3193767 42.5485691,85.182934 43.6022299,84.8349285 C44.6562926,84.4869231 45.7923335,85.059163 46.140339,86.1128238 C46.4883444,87.1668865 45.9161045,88.3029274 44.8624437,88.6509329" id="Fill-36" fill="#F2F2F2"></path>
                        <path d="M36.3763348,93.7101525 C36.0251145,93.8262883 35.6461663,93.6354077 35.5304324,93.2841874 C35.4142966,92.9329672 35.6051772,92.554019 35.9563975,92.438285 C36.3076177,92.3221493 36.6861641,92.5130299 36.8022999,92.8642502 C36.9184356,93.2154704 36.727555,93.5940168 36.3763348,93.7101525" id="Fill-38" fill="#F2F2F2"></path>
                        <path d="M47.488197,103.865321 C47.0666523,104.004363 46.6121556,103.775708 46.4731142,103.354163 C46.3336709,102.932619 46.5627276,102.478122 46.9842723,102.33908 C47.405817,102.199637 47.8603137,102.428694 47.9993552,102.850238 C48.1383966,103.271783 47.9097418,103.72628 47.488197,103.865321" id="Fill-40" fill="#CCCCCB"></path>
                        <path d="M46.8973513,73.0261311 C46.4758066,73.1651725 46.0213099,72.9365176 45.8822684,72.5149729 C45.7428251,72.0934282 45.9718818,71.6389315 46.3934265,71.4998901 C46.8149713,71.3604468 47.269468,71.5895035 47.4085094,72.0110482 C47.5475509,72.4325929 47.318896,72.8870896 46.8973513,73.0261311" id="Fill-42" fill="#CCCCCB"></path>
                        <path d="M71.659627,86.9424511 C71.2380823,87.0814926 70.7835855,86.8528377 70.6445441,86.431293 C70.5051008,86.0097483 70.7341575,85.5552516 71.1557022,85.4162101 C71.5772469,85.2767669 72.0317437,85.5058236 72.1707851,85.9273683 C72.3098265,86.348913 72.0811717,86.8034097 71.659627,86.9424511" id="Fill-44" fill="#CCCCCB"></path>
                        <path d="M14.4052557,52.1048551 C14.082567,53.166553 12.960591,53.7657171 11.8988931,53.4434303 C10.8367933,53.1207416 10.2376292,51.9987656 10.5603179,50.9366658 C10.8826047,49.8749679 12.0049825,49.2758038 13.0666804,49.5984925 C14.1283784,49.9207793 14.7279443,51.0431571 14.4052557,52.1048551" id="Fill-48" fill="#F2F2F2"></path>
                        <path d="M13.6526638,61.9559008 C13.5449669,62.3099341 13.1712428,62.5096555 12.8172096,62.4019586 C12.4631763,62.2946636 12.2634549,61.9205377 12.3711518,61.5665044 C12.4784468,61.2124712 12.8525727,61.0127498 13.206606,61.1204466 C13.5602374,61.2277416 13.7603606,61.6018676 13.6526638,61.9559008" id="Fill-50" fill="#F2F2F2"></path>
                        <path d="M21.4134264,29.0345851 C21.0907378,30.096283 19.9687618,30.6954471 18.9070639,30.3731603 C17.8449641,30.0504717 17.2458,28.9284957 17.5684886,27.8663959 C17.8907754,26.804698 19.0131533,26.2055338 20.0748512,26.5282225 C21.1365491,26.8505093 21.7361151,27.9728872 21.4134264,29.0345851" id="Fill-54" fill="#F2F2F2"></path>
                        <path d="M20.6608345,38.8856309 C20.5531377,39.2396641 20.1794136,39.4393855 19.8253803,39.3316887 C19.4713471,39.2243937 19.2716257,38.8502677 19.3793225,38.4962345 C19.4866175,38.1422012 19.8607435,37.9424798 20.2147767,38.0501767 C20.5684081,38.1574717 20.7685314,38.5315976 20.6608345,38.8856309" id="Fill-56" fill="#F2F2F2"></path>
                        <path d="M38.0197965,45.8704137 C38.0197965,46.3144623 37.6601373,46.6741215 37.2160888,46.6741215 C36.7720403,46.6741215 36.412381,46.3144623 36.412381,45.8704137 C36.412381,45.4263652 36.7720403,45.066706 37.2160888,45.066706 C37.6601373,45.066706 38.0197965,45.4263652 38.0197965,45.8704137" id="Fill-58" fill="#CCCCCB"></path>
                        <path d="M9.81327151,18.3709506 C9.68427642,18.7957101 9.23540565,19.0352151 8.81064611,18.90622 C8.38588657,18.7772249 8.14638166,18.3283541 8.27537675,17.9035946 C8.40437184,17.478835 8.85324262,17.2393301 9.27800216,17.3683252 C9.7027617,17.4973203 9.94226661,17.9461911 9.81327151,18.3709506" id="Fill-60" fill="#CCCCCB"></path>
                        <path d="M45.788958,163.613598 C45.788958,164.649175 44.9494852,165.48905 43.9135059,165.48905 C42.8779285,165.48905 42.0384558,164.649175 42.0384558,163.613598 C42.0384558,162.57802 42.8779285,161.738146 43.9135059,161.738146 C44.9494852,161.738146 45.788958,162.57802 45.788958,163.613598" id="Fill-62" fill="#CCCCCB"></path>
                        <path d="M53.8260354,154.103043 C53.8260354,155.212561 52.9262845,156.112312 51.816766,156.112312 C50.7072475,156.112312 49.8074967,155.212561 49.8074967,154.103043 C49.8074967,152.993524 50.7072475,152.093773 51.816766,152.093773 C52.9262845,152.093773 53.8260354,152.993524 53.8260354,154.103043" id="Fill-64" fill="#F2F2F2"></path>
                        <path d="M55.9692426,163.747536 C55.9692426,164.117241 55.6694596,164.417426 55.2993522,164.417426 C54.9296466,164.417426 54.6298637,164.117241 54.6298637,163.747536 C54.6298637,163.37783 54.9296466,163.077645 55.2993522,163.077645 C55.6694596,163.077645 55.9692426,163.37783 55.9692426,163.747536" id="Fill-66" fill="#F2F2F2"></path>
                        <path d="M39.627212,147.271527 C39.627212,147.715575 39.2675528,148.075235 38.8235043,148.075235 C38.3794557,148.075235 38.0197965,147.715575 38.0197965,147.271527 C38.0197965,146.827478 38.3794557,146.467819 38.8235043,146.467819 C39.2675528,146.467819 39.627212,146.827478 39.627212,147.271527" id="Fill-68" fill="#CCCCCB"></path>
                        <path d="M53.8260354,129.991811 C53.8260354,131.101329 52.9262845,132.00108 51.816766,132.00108 C50.7072475,132.00108 49.8074967,131.101329 49.8074967,129.991811 C49.8074967,128.882292 50.7072475,127.982541 51.816766,127.982541 C52.9262845,127.982541 53.8260354,128.882292 53.8260354,129.991811" id="Fill-70" fill="#F2F2F2"></path>
                        <path d="M55.9692426,139.636303 C55.9692426,140.006009 55.6694596,140.306194 55.2993522,140.306194 C54.9296466,140.306194 54.6298637,140.006009 54.6298637,139.636303 C54.6298637,139.266598 54.9296466,138.966413 55.2993522,138.966413 C55.6694596,138.966413 55.9692426,139.266598 55.9692426,139.636303" id="Fill-72" fill="#F2F2F2"></path>
                        <path d="M109.281869,139.502366 C109.281869,140.537943 108.442397,141.377818 107.406417,141.377818 C106.37084,141.377818 105.531367,140.537943 105.531367,139.502366 C105.531367,138.466788 106.37084,137.626914 107.406417,137.626914 C108.442397,137.626914 109.281869,138.466788 109.281869,139.502366" id="Fill-74" fill="#CCCCCB"></path>
                        <path d="M117.318947,129.991811 C117.318947,131.101329 116.419196,132.00108 115.309678,132.00108 C114.200159,132.00108 113.300408,131.101329 113.300408,129.991811 C113.300408,128.882292 114.200159,127.982541 115.309678,127.982541 C116.419196,127.982541 117.318947,128.882292 117.318947,129.991811" id="Fill-76" fill="#F2F2F2"></path>
                        <path d="M119.462154,139.636303 C119.462154,140.006009 119.162371,140.306194 118.792264,140.306194 C118.422558,140.306194 118.122775,140.006009 118.122775,139.636303 C118.122775,139.266598 118.422558,138.966413 118.792264,138.966413 C119.162371,138.966413 119.462154,139.266598 119.462154,139.636303" id="Fill-78" fill="#F2F2F2"></path>
                        <path d="M39.627212,123.160295 C39.627212,123.604343 39.2675528,123.964002 38.8235043,123.964002 C38.3794557,123.964002 38.0197965,123.604343 38.0197965,123.160295 C38.0197965,122.716246 38.3794557,122.356587 38.8235043,122.356587 C39.2675528,122.356587 39.627212,122.716246 39.627212,123.160295" id="Fill-80" fill="#CCCCCB"></path>
                        <path d="M14.4052557,169.580123 C14.082567,170.641821 12.960591,171.240985 11.8988931,170.918698 C10.8367933,170.59601 10.2376292,169.474034 10.5603179,168.411934 C10.8826047,167.350236 12.0049825,166.751072 13.0666804,167.07376 C14.1283784,167.396047 14.7279443,168.518425 14.4052557,169.580123" id="Fill-84" fill="#F2F2F2"></path>
                        <path d="M13.6526638,179.431169 C13.5449669,179.785202 13.1712428,179.984923 12.8172096,179.877227 C12.4631763,179.769932 12.2634549,179.395806 12.3711518,179.041772 C12.4784468,178.687739 12.8525727,178.488018 13.206606,178.595715 C13.5602374,178.70301 13.7603606,179.077136 13.6526638,179.431169" id="Fill-86" fill="#F2F2F2"></path>
                        <path d="M28.3753036,187.456914 C28.3753036,187.900963 28.0156444,188.260622 27.5715959,188.260622 C27.1275474,188.260622 26.7678882,187.900963 26.7678882,187.456914 C26.7678882,187.012865 27.1275474,186.653206 27.5715959,186.653206 C28.0156444,186.653206 28.3753036,187.012865 28.3753036,187.456914" id="Fill-88" fill="#CCCCCB"></path>
                        <path d="M21.4134264,146.509853 C21.0907378,147.571551 19.9687618,148.170715 18.9070639,147.848428 C17.8449641,147.52574 17.2458,146.403764 17.5684886,145.341664 C17.8907754,144.279966 19.0131533,143.680802 20.0748512,144.003491 C21.1365491,144.325777 21.7361151,145.448155 21.4134264,146.509853" id="Fill-92" fill="#F2F2F2"></path>
                        <path d="M20.6608345,156.360899 C20.5531377,156.714932 20.1794136,156.914654 19.8253803,156.806957 C19.4713471,156.699662 19.2716257,156.325536 19.3793225,155.971503 C19.4866175,155.617469 19.8607435,155.417748 20.2147767,155.525445 C20.5684081,155.63274 20.7685314,156.006866 20.6608345,156.360899" id="Fill-94" fill="#F2F2F2"></path>
                        <path d="M38.0197965,163.345682 C38.0197965,163.78973 37.6601373,164.14939 37.2160888,164.14939 C36.7720403,164.14939 36.412381,163.78973 36.412381,163.345682 C36.412381,162.901633 36.7720403,162.541974 37.2160888,162.541974 C37.6601373,162.541974 38.0197965,162.901633 38.0197965,163.345682" id="Fill-96" fill="#CCCCCB"></path>
                        <path d="M9.81327151,135.846259 C9.68427642,136.271018 9.23540565,136.510523 8.81064611,136.381528 C8.38588657,136.252533 8.14638166,135.803662 8.27537675,135.378903 C8.40437184,134.954143 8.85324262,134.714638 9.27800216,134.843633 C9.7027617,134.972629 9.94226661,135.421499 9.81327151,135.846259" id="Fill-98" fill="#CCCCCB"></path>
                        <path d="M356.020146,46.1383297 C356.020146,47.1739071 355.180673,48.0137817 354.144694,48.0137817 C353.109116,48.0137817 352.269644,47.1739071 352.269644,46.1383297 C352.269644,45.1027523 353.109116,44.2628777 354.144694,44.2628777 C355.180673,44.2628777 356.020146,45.1027523 356.020146,46.1383297" id="Fill-100" fill="#CCCCCB"></path>
                        <path d="M322.893041,65.0642405 C322.893041,66.0998179 322.053568,66.9396925 321.017589,66.9396925 C319.982011,66.9396925 319.142539,66.0998179 319.142539,65.0642405 C319.142539,64.0286631 319.982011,63.1887885 321.017589,63.1887885 C322.053568,63.1887885 322.893041,64.0286631 322.893041,65.0642405" id="Fill-102" fill="#CCCCCB"></path>
                        <path d="M366.20043,46.2722676 C366.20043,46.6419732 365.900648,46.942158 365.53054,46.942158 C365.160835,46.942158 364.861052,46.6419732 364.861052,46.2722676 C364.861052,45.902562 365.160835,45.6023772 365.53054,45.6023772 C365.900648,45.6023772 366.20043,45.902562 366.20043,46.2722676" id="Fill-104" fill="#F2F2F2"></path>
                        <path d="M379.32767,38.90496 C379.32767,39.3490086 378.968011,39.7086678 378.523963,39.7086678 C378.079914,39.7086678 377.720255,39.3490086 377.720255,38.90496 C377.720255,38.4609115 378.079914,38.1012523 378.523963,38.1012523 C378.968011,38.1012523 379.32767,38.4609115 379.32767,38.90496" id="Fill-106" fill="#CCCCCB"></path>
                        <path d="M349.8584,29.7962589 C349.8584,30.2403074 349.498741,30.5999667 349.054692,30.5999667 C348.610644,30.5999667 348.250984,30.2403074 348.250984,29.7962589 C348.250984,29.3522104 348.610644,28.9925512 349.054692,28.9925512 C349.498741,28.9925512 349.8584,29.3522104 349.8584,29.7962589" id="Fill-108" fill="#CCCCCB"></path>
                        <path d="M364.057223,12.5165425 C364.057223,13.626061 363.157472,14.5258119 362.047954,14.5258119 C360.938435,14.5258119 360.038685,13.626061 360.038685,12.5165425 C360.038685,11.407024 360.938435,10.5072731 362.047954,10.5072731 C363.157472,10.5072731 364.057223,11.407024 364.057223,12.5165425" id="Fill-110" fill="#F2F2F2"></path>
                        <path d="M366.20043,22.1610354 C366.20043,22.5307409 365.900648,22.8309258 365.53054,22.8309258 C365.160835,22.8309258 364.861052,22.5307409 364.861052,22.1610354 C364.861052,21.7913298 365.160835,21.491145 365.53054,21.491145 C365.900648,21.491145 366.20043,21.7913298 366.20043,22.1610354" id="Fill-112" fill="#F2F2F2"></path>
                        <path d="M379.32767,14.7937278 C379.32767,15.2377764 378.968011,15.5974356 378.523963,15.5974356 C378.079914,15.5974356 377.720255,15.2377764 377.720255,14.7937278 C377.720255,14.3496793 378.079914,13.9900201 378.523963,13.9900201 C378.968011,13.9900201 379.32767,14.3496793 379.32767,14.7937278" id="Fill-114" fill="#CCCCCB"></path>
                        <path d="M349.8584,5.6850267 C349.8584,6.12907523 349.498741,6.48873444 349.054692,6.48873444 C348.610644,6.48873444 348.250984,6.12907523 348.250984,5.6850267 C348.250984,5.24097818 348.610644,4.88131896 349.054692,4.88131896 C349.498741,4.88131896 349.8584,5.24097818 349.8584,5.6850267" id="Fill-116" fill="#CCCCCB"></path>
                        <path d="M345.145699,101.037194 C344.477014,101.828445 343.293956,101.927703 342.503108,101.259018 C341.711857,100.590735 341.6126,99.4072751 342.280883,98.6164266 C342.949567,97.8251764 344.132625,97.7259185 344.923875,98.3942014 C345.714724,99.0628863 345.814384,100.245944 345.145699,101.037194" id="Fill-118" fill="#CCCCCB"></path>
                        <path d="M357.423058,98.9606145 C356.706954,99.8081243 355.439105,99.9146156 354.591596,99.198512 C353.744086,98.4820065 353.637594,97.2145594 354.353698,96.3666477 C355.069802,95.5191379 356.337651,95.4126467 357.18516,96.1291521 C358.03267,96.8452557 358.139161,98.1131047 357.423058,98.9606145" id="Fill-120" fill="#F2F2F2"></path>
                        <path d="M352.834972,107.71042 C352.59627,107.992923 352.17352,108.028286 351.891017,107.789585 C351.608514,107.550884 351.573151,107.128536 351.811852,106.84563 C352.050553,106.563127 352.473303,106.527764 352.755806,106.766465 C353.03831,107.005166 353.073673,107.427917 352.834972,107.71042" id="Fill-122" fill="#F2F2F2"></path>
                        <path d="M367.616764,110.556309 C367.330243,110.895473 366.823103,110.93807 366.48434,110.651548 C366.145176,110.365026 366.102579,109.857887 366.389101,109.518722 C366.675623,109.179959 367.182762,109.137363 367.521525,109.423483 C367.86069,109.710005 367.903286,110.217144 367.616764,110.556309" id="Fill-124" fill="#CCCCCB"></path>
                        <path d="M350.987408,84.5780233 C350.700887,84.917188 350.193747,84.9597845 349.854984,84.6732627 C349.515819,84.3867409 349.473223,83.8796013 349.759745,83.5404367 C350.046267,83.201272 350.553406,83.1590773 350.892169,83.4451973 C351.231334,83.7317191 351.27393,84.2388587 350.987408,84.5780233" id="Fill-126" fill="#CCCCCB"></path>
                        <path d="M372.985733,80.5444955 C372.269629,81.3920053 371.001781,81.4984966 370.154271,80.782393 C369.306761,80.0658875 369.20027,78.7984404 369.916373,77.9505288 C370.632477,77.1030189 371.900326,76.9965277 372.747836,77.7130331 C373.595345,78.4291367 373.701837,79.6969857 372.985733,80.5444955" id="Fill-128" fill="#F2F2F2"></path>
                        <path d="M340.700431,62.3810622 C339.984328,63.228572 338.716479,63.3350633 337.868969,62.6189597 C337.021459,61.9024543 336.914968,60.6350072 337.631072,59.7870955 C338.347175,58.9395857 339.615024,58.8330944 340.462534,59.5495999 C341.310044,60.2657034 341.416535,61.5335524 340.700431,62.3810622" id="Fill-130" fill="#F2F2F2"></path>
                        <path d="M368.397647,89.2943009 C368.158946,89.5768042 367.736195,89.6121673 367.453692,89.3734661 C367.171189,89.1347649 367.135826,88.7124165 367.374527,88.4295114 C367.613228,88.1470081 368.035978,88.111645 368.318482,88.3503462 C368.600985,88.5890474 368.636348,89.0117977 368.397647,89.2943009" id="Fill-132" fill="#F2F2F2"></path>
                        <path d="M366.550084,66.1618642 C366.263562,66.5010288 365.756422,66.5436254 365.417659,66.2571035 C365.078495,65.9705817 365.035898,65.4634421 365.32242,65.1242775 C365.608942,64.7855147 366.116081,64.7429182 366.454844,65.0290381 C366.794009,65.3155599 366.836605,65.8226995 366.550084,66.1618642" id="Fill-136" fill="#CCCCCB"></path>
                        <path d="M356.020146,169.775344 C356.020146,170.810921 355.180673,171.650796 354.144694,171.650796 C353.109116,171.650796 352.269644,170.810921 352.269644,169.775344 C352.269644,168.739766 353.109116,167.899892 354.144694,167.899892 C355.180673,167.899892 356.020146,168.739766 356.020146,169.775344" id="Fill-138" fill="#CCCCCB"></path>
                        <path d="M364.057223,160.264829 C364.057223,161.374347 363.157472,162.274098 362.047954,162.274098 C360.938435,162.274098 360.038685,161.374347 360.038685,160.264829 C360.038685,159.15531 360.938435,158.25556 362.047954,158.25556 C363.157472,158.25556 364.057223,159.15531 364.057223,160.264829" id="Fill-140" fill="#F2F2F2"></path>
                        <path d="M366.20043,169.909322 C366.20043,170.279027 365.900648,170.579212 365.53054,170.579212 C365.160835,170.579212 364.861052,170.279027 364.861052,169.909322 C364.861052,169.539616 365.160835,169.239431 365.53054,169.239431 C365.900648,169.239431 366.20043,169.539616 366.20043,169.909322" id="Fill-142" fill="#F2F2F2"></path>
                        <path d="M379.32767,162.541974 C379.32767,162.986023 378.968011,163.345682 378.523963,163.345682 C378.079914,163.345682 377.720255,162.986023 377.720255,162.541974 C377.720255,162.097925 378.079914,161.738266 378.523963,161.738266 C378.968011,161.738266 379.32767,162.097925 379.32767,162.541974" id="Fill-144" fill="#CCCCCB"></path>
                        <path d="M349.8584,153.433313 C349.8584,153.877362 349.498741,154.237021 349.054692,154.237021 C348.610644,154.237021 348.250984,153.877362 348.250984,153.433313 C348.250984,152.989265 348.610644,152.629605 349.054692,152.629605 C349.498741,152.629605 349.8584,152.989265 349.8584,153.433313" id="Fill-146" fill="#CCCCCB"></path>
                        <path d="M356.020146,145.664111 C356.020146,146.699689 355.180673,147.539563 354.144694,147.539563 C353.109116,147.539563 352.269644,146.699689 352.269644,145.664111 C352.269644,144.628534 353.109116,143.788659 354.144694,143.788659 C355.180673,143.788659 356.020146,144.628534 356.020146,145.664111" id="Fill-148" fill="#CCCCCB"></path>
                        <path d="M364.057223,136.153597 C364.057223,137.263115 363.157472,138.162866 362.047954,138.162866 C360.938435,138.162866 360.038685,137.263115 360.038685,136.153597 C360.038685,135.044078 360.938435,134.144327 362.047954,134.144327 C363.157472,134.144327 364.057223,135.044078 364.057223,136.153597" id="Fill-150" fill="#F2F2F2"></path>
                        <path d="M366.20043,145.79809 C366.20043,146.167795 365.900648,146.46798 365.53054,146.46798 C365.160835,146.46798 364.861052,146.167795 364.861052,145.79809 C364.861052,145.428384 365.160835,145.128199 365.53054,145.128199 C365.900648,145.128199 366.20043,145.428384 366.20043,145.79809" id="Fill-152" fill="#F2F2F2"></path>
                        <path d="M379.32767,138.430742 C379.32767,138.87479 378.968011,139.23445 378.523963,139.23445 C378.079914,139.23445 377.720255,138.87479 377.720255,138.430742 C377.720255,137.986693 378.079914,137.627034 378.523963,137.627034 C378.968011,137.627034 379.32767,137.986693 379.32767,138.430742" id="Fill-154" fill="#CCCCCB"></path>
                        <path d="M349.8584,129.322081 C349.8584,129.766129 349.498741,130.125789 349.054692,130.125789 C348.610644,130.125789 348.250984,129.766129 348.250984,129.322081 C348.250984,128.878032 348.610644,128.518373 349.054692,128.518373 C349.498741,128.518373 349.8584,128.878032 349.8584,129.322081" id="Fill-156" fill="#CCCCCB"></path>
                        <path d="M101.715926,37.5640942 C101.095865,38.3935206 99.9204424,38.563103 99.0910161,37.9430424 C98.2615897,37.3225801 98.0920073,36.1475593 98.7120679,35.318133 C99.3325302,34.4887066 100.507551,34.3191242 101.336977,34.9391848 C102.166404,35.5592453 102.335986,36.7346678 101.715926,37.5640942" id="Fill-158" fill="#CCCCCB"></path>
                        <path d="M109.788567,43.7680348 C109.567146,44.0642011 109.147208,44.1248811 108.851042,43.9034596 C108.554876,43.6816363 108.494196,43.2621008 108.716019,42.9659345 C108.937441,42.6697682 109.356976,42.6090883 109.653142,42.8305098 C109.94971,43.0519312 110.009988,43.4718685 109.788567,43.7680348" id="Fill-160" fill="#F2F2F2"></path>
                        <path d="M124.71354,45.7294434 C124.447915,46.0850841 123.94399,46.1574178 123.588751,45.8917924 C123.233111,45.6257651 123.160375,45.1222422 123.426402,44.7670034 C123.692028,44.4113627 124.195551,44.3386272 124.551191,44.6046544 C124.906832,44.8702798 124.979166,45.3738027 124.71354,45.7294434" id="Fill-162" fill="#CCCCCB"></path>
                        <path d="M106.56803,20.7865344 C106.302404,21.1421751 105.79848,21.2145088 105.443241,20.9488834 C105.0876,20.6828561 105.014865,20.1793332 105.280892,19.8240944 C105.546517,19.4684537 106.05004,19.3957182 106.405681,19.6617454 C106.761321,19.9273708 106.833655,20.4308937 106.56803,20.7865344" id="Fill-164" fill="#CCCCCB"></path>
                        <path d="M128.287428,15.4513617 C127.622761,16.3398606 126.363753,16.5219004 125.474852,15.8572341 C124.586354,15.1925678 124.404716,13.9335596 125.069382,13.0446589 C125.733646,12.1561599 126.993056,11.974522 127.881555,12.6387864 C128.770456,13.3034527 128.952094,14.5628628 128.287428,15.4513617" id="Fill-166" fill="#F2F2F2"></path>
                        <path d="M124.22802,24.4586349 C124.006599,24.7548012 123.586662,24.8154811 123.290495,24.5940596 C122.994329,24.3722363 122.933649,23.9527009 123.155472,23.6565346 C123.376894,23.3603683 123.796429,23.2996883 124.092596,23.5211098 C124.389164,23.7425313 124.449442,24.1624686 124.22802,24.4586349" id="Fill-168" fill="#F2F2F2"></path>
                        <path d="M139.152994,26.4200434 C138.887368,26.7756841 138.383444,26.8480178 138.028205,26.5823924 C137.672564,26.3163651 137.599829,25.8128422 137.865856,25.4576034 C138.131481,25.1019628 138.635004,25.0292272 138.990645,25.2952545 C139.346285,25.5608799 139.418619,26.0644028 139.152994,26.4200434" id="Fill-170" fill="#CCCCCB"></path>
                        <path d="M121.007523,1.47713446 C120.741898,1.83277513 120.237973,1.90510883 119.882734,1.63948342 C119.527094,1.37345616 119.454358,0.869933258 119.720385,0.514694437 C119.986011,0.159053762 120.489534,0.0863182113 120.845174,0.352345473 C121.200815,0.617970882 121.273149,1.12149378 121.007523,1.47713446" id="Fill-172" fill="#CCCCCB"></path>
                        <path d="M277.935639,18.2718936 C276.920556,18.4784465 275.930388,17.8230229 275.723835,16.8083418 C275.517282,15.793259 276.172706,14.803091 277.187387,14.5965381 C278.20247,14.3899852 279.192638,15.0454089 279.399191,16.0600899 C279.605744,17.0751728 278.950722,18.0653407 277.935639,18.2718936" id="Fill-174" fill="#CCCCCB"></path>
                        <path d="M288.858067,24.2505951 C287.770651,24.4720166 286.709757,23.7699779 286.488335,22.6825613 C286.266914,21.5951448 286.969354,20.5342505 288.056369,20.3128291 C289.143785,20.0914076 290.205082,20.7934463 290.426101,21.8808629 C290.647523,22.9682794 289.945484,24.0291737 288.858067,24.2505951" id="Fill-176" fill="#F2F2F2"></path>
                        <path d="M279.834841,28.2743579 C279.472368,28.3482991 279.118737,28.1140183 279.044796,27.7515461 C278.971257,27.3890739 279.205136,27.0354425 279.567608,26.9619032 C279.93008,26.8879621 280.283711,27.121841 280.357652,27.4843132 C280.431192,27.8467854 280.197313,28.2004168 279.834841,28.2743579" id="Fill-178" fill="#F2F2F2"></path>
                        <path d="M289.672344,39.6684422 C289.237538,39.7568501 288.81318,39.4759542 288.724371,39.0411483 C288.635963,38.6063424 288.916859,38.1819847 289.351664,38.093175 C289.786872,38.0047672 290.21123,38.285663 290.299638,38.7204689 C290.388046,39.1556767 290.10715,39.5800344 289.672344,39.6684422" id="Fill-180" fill="#CCCCCB"></path>
                        <path d="M301.562436,13.4629084 C300.547354,13.6694613 299.557186,13.0140376 299.350633,11.9993566 C299.14408,10.9842737 299.799503,9.99410575 300.814184,9.78755287 C301.829267,9.58099998 302.819435,10.2364236 303.025988,11.2511047 C303.232541,12.2661875 302.577519,13.2563555 301.562436,13.4629084" id="Fill-182" fill="#CCCCCB"></path>
                        <path d="M312.484865,19.4416501 C311.397448,19.6630715 310.336554,18.9610328 310.115132,17.8736163 C309.893711,16.7861997 310.596152,15.7253055 311.683166,15.503884 C312.770583,15.2824625 313.831879,15.9845012 314.052899,17.0719178 C314.27432,18.1593344 313.572281,19.2202286 312.484865,19.4416501" id="Fill-184" fill="#F2F2F2"></path>
                        <path d="M303.461638,23.4653727 C303.099166,23.5393138 302.745534,23.305033 302.671593,22.9425608 C302.598054,22.5800886 302.831933,22.2264572 303.194405,22.1529179 C303.556877,22.0789768 303.910509,22.3128558 303.98445,22.675328 C304.057989,23.0378002 303.82411,23.3914316 303.461638,23.4653727" id="Fill-186" fill="#F2F2F2"></path>
                        <path d="M313.299141,34.8594569 C312.864335,34.9478648 312.439978,34.6669689 312.351168,34.2321631 C312.26276,33.7973572 312.543656,33.3729995 312.978462,33.2841898 C313.41367,33.1957819 313.838027,33.4766778 313.926435,33.9114837 C314.014843,34.3466914 313.733947,34.7710491 313.299141,34.8594569" id="Fill-188" fill="#CCCCCB"></path>
                        <path d="M316.347203,4.16553685 C315.912397,4.2539447 315.488039,3.97304885 315.39923,3.53824296 C315.310822,3.10343707 315.591718,2.67907938 316.026523,2.59026968 C316.461731,2.50186183 316.886089,2.78275768 316.974497,3.21756357 C317.062905,3.65277131 316.782009,4.077129 316.347203,4.16553685" id="Fill-190" fill="#CCCCCB"></path>
                        <path d="M217.427939,8.33589594 C218.463115,8.30414949 219.328306,9.11709987 219.360053,10.1526773 C219.392201,11.1878529 218.578849,12.0526424 217.543673,12.0847907 C216.508497,12.1165372 215.643306,11.3031849 215.611158,10.2680094 C215.579411,9.23283378 216.392764,8.3676424 217.427939,8.33589594" id="Fill-192" fill="#CCCCCB"></path>
                        <path d="M207.674142,0.595828734 C208.783259,0.561671155 209.710336,1.43289035 209.744493,2.54200703 C209.778651,3.65152556 208.90703,4.57820059 207.797913,4.61235817 C206.688796,4.64651575 205.762121,3.77529656 205.727964,2.66617987 C205.693404,1.55706319 206.565025,0.629986313 207.674142,0.595828734" id="Fill-194" fill="#F2F2F2"></path>
                        <path d="M201.28358,14.9985126 C201.727227,14.9848495 202.098138,15.3332568 202.111801,15.7769035 C202.125464,16.2205502 201.776655,16.5914613 201.333008,16.6051243 C200.889362,16.6187874 200.518853,16.2703801 200.50519,15.8267334 C200.491526,15.3830867 200.839934,15.0121756 201.28358,14.9985126" id="Fill-196" fill="#CCCCCB"></path>
                        <path d="M193.32816,9.07920505 C194.363335,9.04745859 195.228527,9.86040897 195.260273,10.8959864 C195.292421,11.931162 194.479069,12.7959515 193.443894,12.8280998 C192.408718,12.8598463 191.543527,12.046494 191.511378,11.0113185 C191.479632,9.97614289 192.292984,9.1109515 193.32816,9.07920505" id="Fill-198" fill="#CCCCCB"></path>
                        <path d="M207.674142,121.181044 C208.783259,121.146886 209.710336,122.018105 209.744493,123.127222 C209.778651,124.236741 208.90703,125.163416 207.797913,125.197573 C206.688796,125.231731 205.762121,124.360512 205.727964,123.251395 C205.693404,122.142278 206.565025,121.215201 207.674142,121.181044" id="Fill-200" fill="#F2F2F2"></path>
                        <path d="M201.28358,135.583728 C201.727227,135.570065 202.098138,135.918472 202.111801,136.362119 C202.125464,136.805765 201.776655,137.176676 201.333008,137.190339 C200.889362,137.204002 200.518853,136.855595 200.50519,136.411949 C200.491526,135.968302 200.839934,135.597391 201.28358,135.583728" id="Fill-202" fill="#CCCCCB"></path>
                        <path d="M193.32816,129.66442 C194.363335,129.632674 195.228527,130.445624 195.260273,131.481202 C195.292421,132.516377 194.479069,133.381167 193.443894,133.413315 C192.408718,133.445061 191.543527,132.631709 191.511378,131.596534 C191.479632,130.561358 192.292984,129.696167 193.32816,129.66442" id="Fill-204" fill="#CCCCCB"></path>
                        <path d="M183.574363,1.33917802 C184.683479,1.30502044 185.610556,2.17623963 185.644714,3.28535632 C185.678871,4.39487485 184.80725,5.32154988 183.698134,5.35570746 C182.589017,5.38986504 181.662342,4.51864584 181.628184,3.40952916 C181.593625,2.30041248 182.465246,1.3733356 183.574363,1.33917802" id="Fill-206" fill="#F2F2F2"></path>
                        <path d="M177.183801,15.7418618 C177.627448,15.7281988 177.998359,16.0766061 178.012022,16.5202528 C178.025685,16.9638995 177.676876,17.3348106 177.233229,17.3484736 C176.789582,17.3621367 176.419073,17.0137293 176.40541,16.5700827 C176.391747,16.126436 176.740154,15.7555249 177.183801,15.7418618" id="Fill-208" fill="#CCCCCB"></path>
                        <path d="M30.3598188,58.9718947 L30.3598188,58.9718947 C30.2517201,58.9718947 30.0351209,59.0799934 29.9270222,59.0799934 C29.8189235,59.0799934 29.6023242,58.9718947 29.6023242,58.9718947 C29.4942256,58.863796 29.3861269,58.6471968 29.3861269,58.5390981 C29.3861269,58.4309994 29.4942256,58.2144002 29.4942256,58.1063015 C29.6023242,58.1063015 29.8189235,57.9982028 29.9270222,57.9982028 C30.2517201,57.9982028 30.4679175,58.2144002 30.4679175,58.5390981 C30.4679175,58.6471968 30.3598188,58.863796 30.3598188,58.9718947 M34.9039824,62.7585637 L34.4711857,62.3257671 L34.9039824,61.8929705 C35.1201797,61.6767731 35.1201797,61.3520752 34.9039824,61.1358778 C34.6873831,60.9192786 34.363087,60.9192786 34.1464878,61.1358778 L33.7136912,61.5686744 L31.3335107,59.1880921 C31.3335107,59.1880921 31.3335107,59.0799934 31.4416094,59.0799934 L34.7954818,59.0799934 L34.7954818,59.6208887 C34.7954818,59.9455867 35.012081,60.1621859 35.336779,60.1621859 C35.661075,60.1621859 35.8776743,59.9455867 35.8776743,59.6208887 L35.8776743,59.0799934 L36.4185696,59.0799934 C36.7432675,59.0799934 36.9594649,58.863796 36.9594649,58.5390981 C36.9594649,58.2144002 36.7432675,57.9982028 36.4185696,57.9982028 L35.8776743,57.9982028 L35.8776743,57.4573075 C35.8776743,57.1326096 35.661075,56.9164122 35.336779,56.9164122 C35.012081,56.9164122 34.7954818,57.1326096 34.7954818,57.4573075 L34.7954818,57.9982028 L31.4416094,57.9982028 C31.4416094,57.9982028 31.4416094,57.8901041 31.3335107,57.8901041 L33.7136912,55.5099236 L34.1464878,55.8342197 C34.363087,56.0508189 34.6873831,56.0508189 34.9039824,55.8342197 C35.1201797,55.6180223 35.1201797,55.2933244 34.9039824,55.077127 L34.4711857,54.7524291 L34.9039824,54.3196325 C35.1201797,54.1034351 35.1201797,53.7787372 34.9039824,53.5621379 C34.6873831,53.3459405 34.363087,53.3459405 34.1464878,53.5621379 L33.7136912,53.9949345 L33.3889933,53.5621379 C33.1727959,53.3459405 32.848098,53.3459405 32.6319006,53.5621379 C32.4153013,53.7787372 32.4153013,54.1034351 32.6319006,54.3196325 L32.9565985,54.7524291 L30.5760162,57.1326096 C30.5760162,57.1326096 30.4679175,57.1326096 30.4679175,57.0245109 L30.4679175,53.6706385 L31.0088128,53.6706385 C31.3335107,53.6706385 31.55011,53.4540392 31.55011,53.1297432 C31.55011,52.8050452 31.3335107,52.588446 31.0088128,52.588446 L30.4679175,52.588446 L30.4679175,52.0475507 C30.4679175,51.7232546 30.2517201,51.5066554 29.9270222,51.5066554 C29.6023242,51.5066554 29.3861269,51.7232546 29.3861269,52.0475507 L29.3861269,52.588446 L28.8452316,52.588446 C28.5205336,52.588446 28.3043362,52.8050452 28.3043362,53.1297432 C28.3043362,53.4540392 28.5205336,53.6706385 28.8452316,53.6706385 L29.3861269,53.6706385 L29.3861269,57.0245109 C29.3861269,57.0245109 29.2780282,57.0245109 29.2780282,57.1326096 L26.8978477,54.7524291 L27.2221438,54.3196325 C27.438743,54.1034351 27.438743,53.7787372 27.2221438,53.5621379 C27.0059464,53.3459405 26.6812485,53.3459405 26.4650511,53.5621379 L26.1403532,53.9949345 L25.7075565,53.5621379 C25.4913592,53.3459405 25.1666612,53.3459405 24.950062,53.5621379 C24.7338646,53.7787372 24.7338646,54.1034351 24.950062,54.3196325 L25.3828586,54.7524291 L24.950062,55.077127 C24.7338646,55.2933244 24.7338646,55.6180223 24.950062,55.8342197 C25.1666612,56.0508189 25.4913592,56.0508189 25.7075565,55.8342197 L26.1403532,55.5099236 L28.5205336,57.8901041 C28.5205336,57.8901041 28.5205336,57.9982028 28.4124349,57.9982028 L25.0585625,57.9982028 L25.0585625,57.4573075 C25.0585625,57.1326096 24.8419633,56.9164122 24.5176672,56.9164122 C24.1929693,56.9164122 23.9763701,57.1326096 23.9763701,57.4573075 L23.9763701,57.9982028 L23.4354748,57.9982028 C23.1111787,57.9982028 22.8945794,58.2144002 22.8945794,58.5390981 C22.8945794,58.863796 23.1111787,59.0799934 23.4354748,59.0799934 L23.9763701,59.0799934 L23.9763701,59.6208887 C23.9763701,59.9455867 24.1929693,60.1621859 24.5176672,60.1621859 C24.8419633,60.1621859 25.0585625,59.9455867 25.0585625,59.6208887 L25.0585625,59.0799934 L28.4124349,59.0799934 C28.4124349,59.0799934 28.4124349,59.1880921 28.5205336,59.1880921 L26.1403532,61.5686744 L25.7075565,61.2439765 C25.4913592,61.0273773 25.1666612,61.0273773 24.950062,61.2439765 C24.7338646,61.4601739 24.7338646,61.7848718 24.950062,62.0010692 L25.3828586,62.3257671 L24.950062,62.7585637 C24.7338646,62.975163 24.7338646,63.2994591 24.950062,63.5160583 C25.1666612,63.7322557 25.4913592,63.7322557 25.7075565,63.5160583 L26.1403532,63.0832617 L26.5731498,63.5160583 C26.7893472,63.7322557 27.1140451,63.7322557 27.3306443,63.5160583 C27.5468417,63.2994591 27.5468417,62.975163 27.3306443,62.7585637 L26.8978477,62.3257671 L29.2780282,59.9455867 C29.2780282,59.9455867 29.3861269,59.9455867 29.3861269,60.0536853 L29.3861269,63.4075577 L28.8452316,63.4075577 C28.5205336,63.4075577 28.3043362,63.624157 28.3043362,63.9488549 C28.3043362,64.273151 28.5205336,64.4897502 28.8452316,64.4897502 L29.3861269,64.4897502 L29.3861269,65.0306455 C29.3861269,65.3553435 29.6023242,65.5715408 29.9270222,65.5715408 C30.2517201,65.5715408 30.4679175,65.3553435 30.4679175,65.0306455 L30.4679175,64.4897502 L31.0088128,64.4897502 C31.3335107,64.4897502 31.55011,64.273151 31.55011,63.9488549 C31.55011,63.624157 31.3335107,63.4075577 31.0088128,63.4075577 L30.4679175,63.4075577 L30.4679175,60.0536853 C30.4679175,60.0536853 30.5760162,60.0536853 30.5760162,59.9455867 L32.9565985,62.3257671 L32.6319006,62.7585637 C32.4153013,62.975163 32.4153013,63.2994591 32.6319006,63.5160583 C32.848098,63.7322557 33.1727959,63.7322557 33.3889933,63.5160583 L33.8217899,63.0832617 L34.2545865,63.5160583 C34.4711857,63.7322557 34.7954818,63.7322557 35.012081,63.5160583 C35.1201797,63.2994591 35.1201797,62.975163 34.9039824,62.7585637" id="Fill-210" fill="#9CAAB2"></path>
                        <path d="M238.910645,13.3305377 L238.910645,13.3305377 C238.802547,13.3305377 238.585947,13.4386364 238.477849,13.4386364 C238.36975,13.4386364 238.153151,13.3305377 238.153151,13.3305377 C238.045052,13.222439 237.936953,13.0058398 237.936953,12.8977411 C237.936953,12.7896424 238.045052,12.5730432 238.045052,12.4649445 C238.153151,12.4649445 238.36975,12.3568458 238.477849,12.3568458 C238.802547,12.3568458 239.018744,12.5730432 239.018744,12.8977411 C239.018744,13.0058398 238.910645,13.222439 238.910645,13.3305377 M243.454809,17.1172067 L243.022012,16.6844101 L243.454809,16.2516135 C243.671006,16.0354161 243.671006,15.7107182 243.454809,15.4945208 C243.23821,15.2779216 242.913913,15.2779216 242.697314,15.4945208 L242.264518,15.9273174 L239.884337,13.5467351 C239.884337,13.5467351 239.884337,13.4386364 239.992436,13.4386364 L243.346308,13.4386364 L243.346308,13.9795317 C243.346308,14.3042296 243.562907,14.5208289 243.887605,14.5208289 C244.211901,14.5208289 244.428501,14.3042296 244.428501,13.9795317 L244.428501,13.4386364 L244.969396,13.4386364 C245.294094,13.4386364 245.510291,13.222439 245.510291,12.8977411 C245.510291,12.5730432 245.294094,12.3568458 244.969396,12.3568458 L244.428501,12.3568458 L244.428501,11.8159505 C244.428501,11.4912525 244.211901,11.2750552 243.887605,11.2750552 C243.562907,11.2750552 243.346308,11.4912525 243.346308,11.8159505 L243.346308,12.3568458 L239.992436,12.3568458 C239.992436,12.3568458 239.992436,12.2487471 239.884337,12.2487471 L242.264518,9.86856661 L242.697314,10.1928627 C242.913913,10.4094619 243.23821,10.4094619 243.454809,10.1928627 C243.671006,9.9766653 243.671006,9.65196737 243.454809,9.43576999 L243.022012,9.11107206 L243.454809,8.67827544 C243.671006,8.46207806 243.671006,8.13738013 243.454809,7.9207809 C243.23821,7.70458351 242.913913,7.70458351 242.697314,7.9207809 L242.264518,8.35357751 L241.93982,7.9207809 C241.723622,7.70458351 241.398924,7.70458351 241.182727,7.9207809 C240.966128,8.13738013 240.966128,8.46207806 241.182727,8.67827544 L241.507425,9.11107206 L239.126843,11.4912525 C239.126843,11.4912525 239.018744,11.4912525 239.018744,11.3831538 L239.018744,8.02928144 L239.559639,8.02928144 C239.884337,8.02928144 240.100936,7.81268221 240.100936,7.48838613 C240.100936,7.1636882 239.884337,6.94708897 239.559639,6.94708897 L239.018744,6.94708897 L239.018744,6.40619366 C239.018744,6.08189759 238.802547,5.86529835 238.477849,5.86529835 C238.153151,5.86529835 237.936953,6.08189759 237.936953,6.40619366 L237.936953,6.94708897 L237.396058,6.94708897 C237.07136,6.94708897 236.855163,7.1636882 236.855163,7.48838613 C236.855163,7.81268221 237.07136,8.02928144 237.396058,8.02928144 L237.936953,8.02928144 L237.936953,11.3831538 C237.936953,11.3831538 237.828855,11.3831538 237.828855,11.4912525 L235.448674,9.11107206 L235.77297,8.67827544 C235.989569,8.46207806 235.989569,8.13738013 235.77297,7.9207809 C235.556773,7.70458351 235.232075,7.70458351 235.015877,7.9207809 L234.69118,8.35357751 L234.258383,7.9207809 C234.042186,7.70458351 233.717488,7.70458351 233.500888,7.9207809 C233.284691,8.13738013 233.284691,8.46207806 233.500888,8.67827544 L233.933685,9.11107206 L233.500888,9.43576999 C233.284691,9.65196737 233.284691,9.9766653 233.500888,10.1928627 C233.717488,10.4094619 234.042186,10.4094619 234.258383,10.1928627 L234.69118,9.86856661 L237.07136,12.2487471 C237.07136,12.2487471 237.07136,12.3568458 236.963261,12.3568458 L233.609389,12.3568458 L233.609389,11.8159505 C233.609389,11.4912525 233.39279,11.2750552 233.068494,11.2750552 C232.743796,11.2750552 232.527196,11.4912525 232.527196,11.8159505 L232.527196,12.3568458 L231.986301,12.3568458 C231.662005,12.3568458 231.445406,12.5730432 231.445406,12.8977411 C231.445406,13.222439 231.662005,13.4386364 231.986301,13.4386364 L232.527196,13.4386364 L232.527196,13.9795317 C232.527196,14.3042296 232.743796,14.5208289 233.068494,14.5208289 C233.39279,14.5208289 233.609389,14.3042296 233.609389,13.9795317 L233.609389,13.4386364 L236.963261,13.4386364 C236.963261,13.4386364 236.963261,13.5467351 237.07136,13.5467351 L234.69118,15.9273174 L234.258383,15.6026195 C234.042186,15.3860202 233.717488,15.3860202 233.500888,15.6026195 C233.284691,15.8188169 233.284691,16.1435148 233.500888,16.3597122 L233.933685,16.6844101 L233.500888,17.1172067 C233.284691,17.333806 233.284691,17.658102 233.500888,17.8747013 C233.717488,18.0908986 234.042186,18.0908986 234.258383,17.8747013 L234.69118,17.4419046 L235.123976,17.8747013 C235.340174,18.0908986 235.664871,18.0908986 235.881471,17.8747013 C236.097668,17.658102 236.097668,17.333806 235.881471,17.1172067 L235.448674,16.6844101 L237.828855,14.3042296 C237.828855,14.3042296 237.936953,14.3042296 237.936953,14.4123283 L237.936953,17.7662007 L237.396058,17.7662007 C237.07136,17.7662007 236.855163,17.9828 236.855163,18.3074979 C236.855163,18.631794 237.07136,18.8483932 237.396058,18.8483932 L237.936953,18.8483932 L237.936953,19.3892885 C237.936953,19.7139864 238.153151,19.9301838 238.477849,19.9301838 C238.802547,19.9301838 239.018744,19.7139864 239.018744,19.3892885 L239.018744,18.8483932 L239.559639,18.8483932 C239.884337,18.8483932 240.100936,18.631794 240.100936,18.3074979 C240.100936,17.9828 239.884337,17.7662007 239.559639,17.7662007 L239.018744,17.7662007 L239.018744,14.4123283 C239.018744,14.4123283 239.126843,14.4123283 239.126843,14.3042296 L241.507425,16.6844101 L241.182727,17.1172067 C240.966128,17.333806 240.966128,17.658102 241.182727,17.8747013 C241.398924,18.0908986 241.723622,18.0908986 241.93982,17.8747013 L242.372616,17.4419046 L242.805413,17.8747013 C243.022012,18.0908986 243.346308,18.0908986 243.562907,17.8747013 C243.671006,17.658102 243.671006,17.333806 243.454809,17.1172067" id="Fill-212" fill="#9CAAB2"></path>
                        <path d="M94.3339503,122.945986 L94.3339503,122.945986 C94.2258516,122.945986 94.0092524,123.054085 93.9011537,123.054085 C93.793055,123.054085 93.5764558,122.945986 93.5764558,122.945986 C93.4683571,122.837887 93.3602584,122.621288 93.3602584,122.513189 C93.3602584,122.405091 93.4683571,122.188492 93.4683571,122.080393 C93.5764558,122.080393 93.793055,121.972294 93.9011537,121.972294 C94.2258516,121.972294 94.442049,122.188492 94.442049,122.513189 C94.442049,122.621288 94.3339503,122.837887 94.3339503,122.945986 M98.8781139,126.732655 L98.4453173,126.299858 L98.8781139,125.867062 C99.0943113,125.650864 99.0943113,125.326167 98.8781139,125.109969 C98.6615146,124.89337 98.3372186,124.89337 98.1206193,125.109969 L97.6878227,125.542766 L95.3076422,123.162183 C95.3076422,123.162183 95.3076422,123.054085 95.4157409,123.054085 L98.7696133,123.054085 L98.7696133,123.59498 C98.7696133,123.919678 98.9862126,124.136277 99.3109105,124.136277 C99.6352066,124.136277 99.8518058,123.919678 99.8518058,123.59498 L99.8518058,123.054085 L100.392701,123.054085 C100.717399,123.054085 100.933596,122.837887 100.933596,122.513189 C100.933596,122.188492 100.717399,121.972294 100.392701,121.972294 L99.8518058,121.972294 L99.8518058,121.431399 C99.8518058,121.106701 99.6352066,120.890504 99.3109105,120.890504 C98.9862126,120.890504 98.7696133,121.106701 98.7696133,121.431399 L98.7696133,121.972294 L95.4157409,121.972294 C95.4157409,121.972294 95.4157409,121.864195 95.3076422,121.864195 L97.6878227,119.484015 L98.1206193,119.808311 C98.3372186,120.02491 98.6615146,120.02491 98.8781139,119.808311 C99.0943113,119.592114 99.0943113,119.267416 98.8781139,119.051218 L98.4453173,118.72652 L98.8781139,118.293724 C99.0943113,118.077526 99.0943113,117.752828 98.8781139,117.536229 C98.6615146,117.320032 98.3372186,117.320032 98.1206193,117.536229 L97.6878227,117.969026 L97.3631248,117.536229 C97.1469274,117.320032 96.8222295,117.320032 96.6060321,117.536229 C96.3894329,117.752828 96.3894329,118.077526 96.6060321,118.293724 L96.93073,118.72652 L94.5501477,121.106701 C94.5501477,121.106701 94.442049,121.106701 94.442049,120.998602 L94.442049,117.64473 L94.9829443,117.64473 C95.3076422,117.64473 95.5242415,117.428131 95.5242415,117.103834 C95.5242415,116.779137 95.3076422,116.562537 94.9829443,116.562537 L94.442049,116.562537 L94.442049,116.021642 C94.442049,115.697346 94.2258516,115.480747 93.9011537,115.480747 C93.5764558,115.480747 93.3602584,115.697346 93.3602584,116.021642 L93.3602584,116.562537 L92.8193631,116.562537 C92.4946651,116.562537 92.2784678,116.779137 92.2784678,117.103834 C92.2784678,117.428131 92.4946651,117.64473 92.8193631,117.64473 L93.3602584,117.64473 L93.3602584,120.998602 C93.3602584,120.998602 93.2521597,120.998602 93.2521597,121.106701 L90.8719792,118.72652 L91.1962753,118.293724 C91.4128745,118.077526 91.4128745,117.752828 91.1962753,117.536229 C90.9800779,117.320032 90.65538,117.320032 90.4391826,117.536229 L90.1144847,117.969026 L89.6816881,117.536229 C89.4654907,117.320032 89.1407927,117.320032 88.9241935,117.536229 C88.7079961,117.752828 88.7079961,118.077526 88.9241935,118.293724 L89.3569901,118.72652 L88.9241935,119.051218 C88.7079961,119.267416 88.7079961,119.592114 88.9241935,119.808311 C89.1407927,120.02491 89.4654907,120.02491 89.6816881,119.808311 L90.1144847,119.484015 L92.4946651,121.864195 C92.4946651,121.864195 92.4946651,121.972294 92.3865665,121.972294 L89.0326941,121.972294 L89.0326941,121.431399 C89.0326941,121.106701 88.8160948,120.890504 88.4917987,120.890504 C88.1671008,120.890504 87.9505016,121.106701 87.9505016,121.431399 L87.9505016,121.972294 L87.4096063,121.972294 C87.0853102,121.972294 86.868711,122.188492 86.868711,122.513189 C86.868711,122.837887 87.0853102,123.054085 87.4096063,123.054085 L87.9505016,123.054085 L87.9505016,123.59498 C87.9505016,123.919678 88.1671008,124.136277 88.4917987,124.136277 C88.8160948,124.136277 89.0326941,123.919678 89.0326941,123.59498 L89.0326941,123.054085 L92.3865665,123.054085 C92.3865665,123.054085 92.3865665,123.162183 92.4946651,123.162183 L90.1144847,125.542766 L89.6816881,125.218068 C89.4654907,125.001469 89.1407927,125.001469 88.9241935,125.218068 C88.7079961,125.434265 88.7079961,125.758963 88.9241935,125.975161 L89.3569901,126.299858 L88.9241935,126.732655 C88.7079961,126.949254 88.7079961,127.27355 88.9241935,127.49015 C89.1407927,127.706347 89.4654907,127.706347 89.6816881,127.49015 L90.1144847,127.057353 L90.5472813,127.49015 C90.7634787,127.706347 91.0881766,127.706347 91.3047758,127.49015 C91.5209732,127.27355 91.5209732,126.949254 91.3047758,126.732655 L90.8719792,126.299858 L93.2521597,123.919678 C93.2521597,123.919678 93.3602584,123.919678 93.3602584,124.027777 L93.3602584,127.381649 L92.8193631,127.381649 C92.4946651,127.381649 92.2784678,127.598248 92.2784678,127.922946 C92.2784678,128.247242 92.4946651,128.463842 92.8193631,128.463842 L93.3602584,128.463842 L93.3602584,129.004737 C93.3602584,129.329435 93.5764558,129.545632 93.9011537,129.545632 C94.2258516,129.545632 94.442049,129.329435 94.442049,129.004737 L94.442049,128.463842 L94.9829443,128.463842 C95.3076422,128.463842 95.5242415,128.247242 95.5242415,127.922946 C95.5242415,127.598248 95.3076422,127.381649 94.9829443,127.381649 L94.442049,127.381649 L94.442049,124.027777 C94.442049,124.027777 94.5501477,124.027777 94.5501477,123.919678 L96.93073,126.299858 L96.6060321,126.732655 C96.3894329,126.949254 96.3894329,127.27355 96.6060321,127.49015 C96.8222295,127.706347 97.1469274,127.706347 97.3631248,127.49015 L97.7959214,127.057353 L98.228718,127.49015 C98.4453173,127.706347 98.7696133,127.706347 98.9862126,127.49015 C99.0943113,127.27355 99.0943113,126.949254 98.8781139,126.732655" id="Fill-214" fill="#9CAAB2"></path>
                        <path d="M377.65845,122.945986 L377.65845,122.945986 C377.550351,122.945986 377.333752,123.054085 377.225653,123.054085 C377.117554,123.054085 376.900955,122.945986 376.900955,122.945986 C376.792856,122.837887 376.684758,122.621288 376.684758,122.513189 C376.684758,122.405091 376.792856,122.188492 376.792856,122.080393 C376.900955,122.080393 377.117554,121.972294 377.225653,121.972294 C377.550351,121.972294 377.766548,122.188492 377.766548,122.513189 C377.766548,122.621288 377.65845,122.837887 377.65845,122.945986 M382.202613,126.732655 L381.769817,126.299858 L382.202613,125.867062 C382.418811,125.650864 382.418811,125.326167 382.202613,125.109969 C381.986014,124.89337 381.661718,124.89337 381.445119,125.109969 L381.012322,125.542766 L378.632142,123.162183 C378.632142,123.162183 378.632142,123.054085 378.74024,123.054085 L382.094113,123.054085 L382.094113,123.59498 C382.094113,123.919678 382.310712,124.136277 382.63541,124.136277 C382.959706,124.136277 383.176305,123.919678 383.176305,123.59498 L383.176305,123.054085 L383.717201,123.054085 C384.041898,123.054085 384.258096,122.837887 384.258096,122.513189 C384.258096,122.188492 384.041898,121.972294 383.717201,121.972294 L383.176305,121.972294 L383.176305,121.431399 C383.176305,121.106701 382.959706,120.890504 382.63541,120.890504 C382.310712,120.890504 382.094113,121.106701 382.094113,121.431399 L382.094113,121.972294 L378.74024,121.972294 C378.74024,121.972294 378.74024,121.864195 378.632142,121.864195 L381.012322,119.484015 L381.445119,119.808311 C381.661718,120.02491 381.986014,120.02491 382.202613,119.808311 C382.418811,119.592114 382.418811,119.267416 382.202613,119.051218 L381.769817,118.72652 L382.202613,118.293724 C382.418811,118.077526 382.418811,117.752828 382.202613,117.536229 C381.986014,117.320032 381.661718,117.320032 381.445119,117.536229 L381.012322,117.969026 L380.687624,117.536229 C380.471427,117.320032 380.146729,117.320032 379.930531,117.536229 C379.713932,117.752828 379.713932,118.077526 379.930531,118.293724 L380.255229,118.72652 L377.874647,121.106701 C377.874647,121.106701 377.766548,121.106701 377.766548,120.998602 L377.766548,117.64473 L378.307444,117.64473 C378.632142,117.64473 378.848741,117.428131 378.848741,117.103834 C378.848741,116.779137 378.632142,116.562537 378.307444,116.562537 L377.766548,116.562537 L377.766548,116.021642 C377.766548,115.697346 377.550351,115.480747 377.225653,115.480747 C376.900955,115.480747 376.684758,115.697346 376.684758,116.021642 L376.684758,116.562537 L376.143862,116.562537 C375.819165,116.562537 375.602967,116.779137 375.602967,117.103834 C375.602967,117.428131 375.819165,117.64473 376.143862,117.64473 L376.684758,117.64473 L376.684758,120.998602 C376.684758,120.998602 376.576659,120.998602 376.576659,121.106701 L374.196479,118.72652 L374.520775,118.293724 C374.737374,118.077526 374.737374,117.752828 374.520775,117.536229 C374.304577,117.320032 373.979879,117.320032 373.763682,117.536229 L373.438984,117.969026 L373.006187,117.536229 C372.78999,117.320032 372.465292,117.320032 372.248693,117.536229 C372.032496,117.752828 372.032496,118.077526 372.248693,118.293724 L372.68149,118.72652 L372.248693,119.051218 C372.032496,119.267416 372.032496,119.592114 372.248693,119.808311 C372.465292,120.02491 372.78999,120.02491 373.006187,119.808311 L373.438984,119.484015 L375.819165,121.864195 C375.819165,121.864195 375.819165,121.972294 375.711066,121.972294 L372.357193,121.972294 L372.357193,121.431399 C372.357193,121.106701 372.140594,120.890504 371.816298,120.890504 C371.4916,120.890504 371.275001,121.106701 371.275001,121.431399 L371.275001,121.972294 L370.734106,121.972294 C370.40981,121.972294 370.19321,122.188492 370.19321,122.513189 C370.19321,122.837887 370.40981,123.054085 370.734106,123.054085 L371.275001,123.054085 L371.275001,123.59498 C371.275001,123.919678 371.4916,124.136277 371.816298,124.136277 C372.140594,124.136277 372.357193,123.919678 372.357193,123.59498 L372.357193,123.054085 L375.711066,123.054085 C375.711066,123.054085 375.711066,123.162183 375.819165,123.162183 L373.438984,125.542766 L373.006187,125.218068 C372.78999,125.001469 372.465292,125.001469 372.248693,125.218068 C372.032496,125.434265 372.032496,125.758963 372.248693,125.975161 L372.68149,126.299858 L372.248693,126.732655 C372.032496,126.949254 372.032496,127.27355 372.248693,127.49015 C372.465292,127.706347 372.78999,127.706347 373.006187,127.49015 L373.438984,127.057353 L373.871781,127.49015 C374.087978,127.706347 374.412676,127.706347 374.629275,127.49015 C374.845473,127.27355 374.845473,126.949254 374.629275,126.732655 L374.196479,126.299858 L376.576659,123.919678 C376.576659,123.919678 376.684758,123.919678 376.684758,124.027777 L376.684758,127.381649 L376.143862,127.381649 C375.819165,127.381649 375.602967,127.598248 375.602967,127.922946 C375.602967,128.247242 375.819165,128.463842 376.143862,128.463842 L376.684758,128.463842 L376.684758,129.004737 C376.684758,129.329435 376.900955,129.545632 377.225653,129.545632 C377.550351,129.545632 377.766548,129.329435 377.766548,129.004737 L377.766548,128.463842 L378.307444,128.463842 C378.632142,128.463842 378.848741,128.247242 378.848741,127.922946 C378.848741,127.598248 378.632142,127.381649 378.307444,127.381649 L377.766548,127.381649 L377.766548,124.027777 C377.766548,124.027777 377.874647,124.027777 377.874647,123.919678 L380.255229,126.299858 L379.930531,126.732655 C379.713932,126.949254 379.713932,127.27355 379.930531,127.49015 C380.146729,127.706347 380.471427,127.706347 380.687624,127.49015 L381.120421,127.057353 L381.553217,127.49015 C381.769817,127.706347 382.094113,127.706347 382.310712,127.49015 C382.418811,127.27355 382.418811,126.949254 382.202613,126.732655" id="Fill-216" fill="#9CAAB2"></path>
                        <path d="M24.8307516,164.319414 L24.8307516,164.319414 C24.7226529,164.319414 24.5060536,164.427513 24.397955,164.427513 C24.2898563,164.427513 24.073257,164.319414 24.073257,164.319414 C23.9651583,164.211315 23.8570596,163.994716 23.8570596,163.886617 C23.8570596,163.778519 23.9651583,163.561919 23.9651583,163.453821 C24.073257,163.453821 24.2898563,163.345722 24.397955,163.345722 C24.7226529,163.345722 24.9388503,163.561919 24.9388503,163.886617 C24.9388503,163.994716 24.8307516,164.211315 24.8307516,164.319414 M29.3749151,168.106083 L28.9421185,167.673286 L29.3749151,167.24049 C29.5911125,167.024292 29.5911125,166.699594 29.3749151,166.483397 C29.1583159,166.266798 28.8340198,166.266798 28.6174206,166.483397 L28.184624,166.916194 L25.8044435,164.535611 C25.8044435,164.535611 25.8044435,164.427513 25.9125422,164.427513 L29.2664146,164.427513 L29.2664146,164.968408 C29.2664146,165.293106 29.4830138,165.509705 29.8077118,165.509705 C30.1320078,165.509705 30.3486071,165.293106 30.3486071,164.968408 L30.3486071,164.427513 L30.8895024,164.427513 C31.2142003,164.427513 31.4303977,164.211315 31.4303977,163.886617 C31.4303977,163.561919 31.2142003,163.345722 30.8895024,163.345722 L30.3486071,163.345722 L30.3486071,162.804827 C30.3486071,162.480129 30.1320078,162.263931 29.8077118,162.263931 C29.4830138,162.263931 29.2664146,162.480129 29.2664146,162.804827 L29.2664146,163.345722 L25.9125422,163.345722 C25.9125422,163.345722 25.9125422,163.237623 25.8044435,163.237623 L28.184624,160.857443 L28.6174206,161.181739 C28.8340198,161.398338 29.1583159,161.398338 29.3749151,161.181739 C29.5911125,160.965541 29.5911125,160.640844 29.3749151,160.424646 L28.9421185,160.099948 L29.3749151,159.667152 C29.5911125,159.450954 29.5911125,159.126256 29.3749151,158.909657 C29.1583159,158.69346 28.8340198,158.69346 28.6174206,158.909657 L28.184624,159.342454 L27.859926,158.909657 C27.6437287,158.69346 27.3190307,158.69346 27.1028334,158.909657 C26.8862341,159.126256 26.8862341,159.450954 27.1028334,159.667152 L27.4275313,160.099948 L25.046949,162.480129 C25.046949,162.480129 24.9388503,162.480129 24.9388503,162.37203 L24.9388503,159.018158 L25.4797456,159.018158 C25.8044435,159.018158 26.0210427,158.801558 26.0210427,158.477262 C26.0210427,158.152564 25.8044435,157.935965 25.4797456,157.935965 L24.9388503,157.935965 L24.9388503,157.39507 C24.9388503,157.070774 24.7226529,156.854175 24.397955,156.854175 C24.073257,156.854175 23.8570596,157.070774 23.8570596,157.39507 L23.8570596,157.935965 L23.3161643,157.935965 C22.9914664,157.935965 22.775269,158.152564 22.775269,158.477262 C22.775269,158.801558 22.9914664,159.018158 23.3161643,159.018158 L23.8570596,159.018158 L23.8570596,162.37203 C23.8570596,162.37203 23.748961,162.37203 23.748961,162.480129 L21.3687805,160.099948 L21.6930766,159.667152 C21.9096758,159.450954 21.9096758,159.126256 21.6930766,158.909657 C21.4768792,158.69346 21.1521812,158.69346 20.9359839,158.909657 L20.6112859,159.342454 L20.1784893,158.909657 C19.9622919,158.69346 19.637594,158.69346 19.4209948,158.909657 C19.2047974,159.126256 19.2047974,159.450954 19.4209948,159.667152 L19.8537914,160.099948 L19.4209948,160.424646 C19.2047974,160.640844 19.2047974,160.965541 19.4209948,161.181739 C19.637594,161.398338 19.9622919,161.398338 20.1784893,161.181739 L20.6112859,160.857443 L22.9914664,163.237623 C22.9914664,163.237623 22.9914664,163.345722 22.8833677,163.345722 L19.5294953,163.345722 L19.5294953,162.804827 C19.5294953,162.480129 19.3128961,162.263931 18.9886,162.263931 C18.6639021,162.263931 18.4473028,162.480129 18.4473028,162.804827 L18.4473028,163.345722 L17.9064075,163.345722 C17.5821115,163.345722 17.3655122,163.561919 17.3655122,163.886617 C17.3655122,164.211315 17.5821115,164.427513 17.9064075,164.427513 L18.4473028,164.427513 L18.4473028,164.968408 C18.4473028,165.293106 18.6639021,165.509705 18.9886,165.509705 C19.3128961,165.509705 19.5294953,165.293106 19.5294953,164.968408 L19.5294953,164.427513 L22.8833677,164.427513 C22.8833677,164.427513 22.8833677,164.535611 22.9914664,164.535611 L20.6112859,166.916194 L20.1784893,166.591496 C19.9622919,166.374896 19.637594,166.374896 19.4209948,166.591496 C19.2047974,166.807693 19.2047974,167.132391 19.4209948,167.348588 L19.8537914,167.673286 L19.4209948,168.106083 C19.2047974,168.322682 19.2047974,168.646978 19.4209948,168.863577 C19.637594,169.079775 19.9622919,169.079775 20.1784893,168.863577 L20.6112859,168.430781 L21.0440826,168.863577 C21.2602799,169.079775 21.5849779,169.079775 21.8015771,168.863577 C22.0177745,168.646978 22.0177745,168.322682 21.8015771,168.106083 L21.3687805,167.673286 L23.748961,165.293106 C23.748961,165.293106 23.8570596,165.293106 23.8570596,165.401204 L23.8570596,168.755077 L23.3161643,168.755077 C22.9914664,168.755077 22.775269,168.971676 22.775269,169.296374 C22.775269,169.62067 22.9914664,169.837269 23.3161643,169.837269 L23.8570596,169.837269 L23.8570596,170.378165 C23.8570596,170.702863 24.073257,170.91906 24.397955,170.91906 C24.7226529,170.91906 24.9388503,170.702863 24.9388503,170.378165 L24.9388503,169.837269 L25.4797456,169.837269 C25.8044435,169.837269 26.0210427,169.62067 26.0210427,169.296374 C26.0210427,168.971676 25.8044435,168.755077 25.4797456,168.755077 L24.9388503,168.755077 L24.9388503,165.401204 C24.9388503,165.401204 25.046949,165.401204 25.046949,165.293106 L27.4275313,167.673286 L27.1028334,168.106083 C26.8862341,168.322682 26.8862341,168.646978 27.1028334,168.863577 C27.3190307,169.079775 27.6437287,169.079775 27.859926,168.863577 L28.2927227,168.430781 L28.7255193,168.863577 C28.9421185,169.079775 29.2664146,169.079775 29.4830138,168.863577 C29.5911125,168.646978 29.5911125,168.322682 29.3749151,168.106083" id="Fill-218" fill="#9CAAB2"></path>
                    </g>
                    <g id="Group-220-Copy" transform="translate(3.865234, 223.375060)">
                        <path d="M68.6613329,69.1852219 C68.6613329,70.7380881 67.4025291,71.9974946 65.8490602,71.9974946 C64.296194,71.9974946 63.0373902,70.7380881 63.0373902,69.1852219 C63.0373902,67.6323557 64.296194,66.3729492 65.8490602,66.3729492 C67.4025291,66.3729492 68.6613329,67.6323557 68.6613329,69.1852219" id="Fill-2" fill="#CCCCCB"></path>
                        <path d="M80.7130692,54.9239805 C80.7130692,56.5877227 79.3638773,57.9369146 77.7001352,57.9369146 C76.036393,57.9369146 74.6872011,56.5877227 74.6872011,54.9239805 C74.6872011,53.2602383 76.036393,51.9110464 77.7001352,51.9110464 C79.3638773,51.9110464 80.7130692,53.2602383 80.7130692,54.9239805" id="Fill-4" fill="#F2F2F2"></path>
                        <path d="M118.509122,93.3184623 C118.509122,94.9822045 117.15993,96.3313964 115.496188,96.3313964 C113.832446,96.3313964 112.483254,94.9822045 112.483254,93.3184623 C112.483254,91.6547201 113.832446,90.3055282 115.496188,90.3055282 C117.15993,90.3055282 118.509122,91.6547201 118.509122,93.3184623" id="Fill-6" fill="#F2F2F2"></path>
                        <path d="M83.9268455,69.3860641 C83.9268455,69.9404439 83.4773157,70.3905763 82.9223333,70.3905763 C82.3679534,70.3905763 81.9184236,69.9404439 81.9184236,69.3860641 C81.9184236,68.8316842 82.3679534,68.3815519 82.9223333,68.3815519 C83.4773157,68.3815519 83.9268455,68.8316842 83.9268455,69.3860641" id="Fill-8" fill="#F2F2F2"></path>
                        <path d="M133.019232,106.490829 C133.019232,107.045209 132.569702,107.495342 132.01472,107.495342 C131.46034,107.495342 131.01081,107.045209 131.01081,106.490829 C131.01081,105.936449 131.46034,105.486317 132.01472,105.486317 C132.569702,105.486317 133.019232,105.936449 133.019232,106.490829" id="Fill-10" fill="#F2F2F2"></path>
                        <path d="M103.611368,58.3386592 C103.611368,59.0045176 103.072053,59.5438328 102.406195,59.5438328 C101.740336,59.5438328 101.201021,59.0045176 101.201021,58.3386592 C101.201021,57.6728008 101.740336,57.1334856 102.406195,57.1334856 C103.072053,57.1334856 103.611368,57.6728008 103.611368,58.3386592" id="Fill-14" fill="#CCCCCB"></path>
                        <path d="M59.4216885,44.6800046 C59.4216885,45.3458631 58.8823733,45.8851783 58.2165149,45.8851783 C57.5506564,45.8851783 57.0113412,45.3458631 57.0113412,44.6800046 C57.0113412,44.0141462 57.5506564,43.474831 58.2165149,43.474831 C58.8823733,43.474831 59.4216885,44.0141462 59.4216885,44.6800046" id="Fill-16" fill="#CCCCCB"></path>
                        <path d="M80.7130692,18.7687716 C80.7130692,20.4325137 79.3638773,21.7817056 77.7001352,21.7817056 C76.036393,21.7817056 74.6872011,20.4325137 74.6872011,18.7687716 C74.6872011,17.1050294 76.036393,15.7558375 77.7001352,15.7558375 C79.3638773,15.7558375 80.7130692,17.1050294 80.7130692,18.7687716" id="Fill-18" fill="#F2F2F2"></path>
                        <path d="M83.9268455,33.2308551 C83.9268455,33.785235 83.4773157,34.2353674 82.9223333,34.2353674 C82.3679534,34.2353674 81.9184236,33.785235 81.9184236,33.2308551 C81.9184236,32.6764753 82.3679534,32.2263429 82.9223333,32.2263429 C83.4773157,32.2263429 83.9268455,32.6764753 83.9268455,33.2308551" id="Fill-20" fill="#F2F2F2"></path>
                        <path d="M103.611368,22.1834503 C103.611368,22.8493087 103.072053,23.3886239 102.406195,23.3886239 C101.740336,23.3886239 101.201021,22.8493087 101.201021,22.1834503 C101.201021,21.5175918 101.740336,20.9782766 102.406195,20.9782766 C103.072053,20.9782766 103.611368,21.5175918 103.611368,22.1834503" id="Fill-22" fill="#CCCCCB"></path>
                        <path d="M59.4216885,8.52479568 C59.4216885,9.19065411 58.8823733,9.72996931 58.2165149,9.72996931 C57.5506564,9.72996931 57.0113412,9.19065411 57.0113412,8.52479568 C57.0113412,7.85893725 57.5506564,7.31962205 58.2165149,7.31962205 C58.8823733,7.31962205 59.4216885,7.85893725 59.4216885,8.52479568" id="Fill-24" fill="#CCCCCB"></path>
                        <path d="M15.6191708,137.2979 C14.1446408,137.78479 12.5544142,136.983952 12.0669215,135.509422 C11.5800314,134.034892 12.3808692,132.444063 13.8560018,131.957173 C15.3305317,131.470282 16.9207583,132.27112 17.4076485,133.74565 C17.8945386,135.220783 17.0937007,136.811009 15.6191708,137.2979" id="Fill-26" fill="#CCCCCB"></path>
                        <path d="M32.9400467,144.270191 C31.3600641,144.792031 29.6559486,143.933947 29.1341084,142.353964 C28.6128708,140.773982 29.4703518,139.069866 31.0503345,138.548026 C32.6309197,138.026186 34.3344326,138.88427 34.8562728,140.464252 C35.378113,142.044837 34.5200294,143.74835 32.9400467,144.270191" id="Fill-28" fill="#F2F2F2"></path>
                        <path d="M20.2149799,151.856578 C19.688319,152.030725 19.1200797,151.744497 18.9465347,151.217836 C18.7723871,150.691175 19.0586158,150.122935 19.5852767,149.94939 C20.1119376,149.775243 20.6795743,150.061472 20.8537219,150.588133 C21.0278695,151.114793 20.7416408,151.68243 20.2149799,151.856578" id="Fill-30" fill="#F2F2F2"></path>
                        <path d="M35.9914861,120.84047 C35.3593725,121.048965 34.6778469,120.706093 34.4693518,120.07398 C34.2602542,119.441866 34.6037287,118.760341 35.2358422,118.551845 C35.8679558,118.342748 36.5494815,118.686222 36.7579765,119.318336 C36.9664716,119.950449 36.6235997,120.631975 35.9914861,120.84047" id="Fill-34" fill="#CCCCCB"></path>
                        <path d="M67.2720088,132.933604 C65.6920261,133.455444 63.9879106,132.597361 63.4660704,131.017378 C62.9448328,129.437396 63.8023139,127.73328 65.3822965,127.21144 C66.9628817,126.6896 68.6663946,127.547683 69.1882348,129.127666 C69.710075,130.708251 68.8519914,132.411764 67.2720088,132.933604" id="Fill-36" fill="#F2F2F2"></path>
                        <path d="M54.5469419,140.519991 C54.0202811,140.694139 53.4520417,140.40791 53.2784967,139.881249 C53.1043491,139.354589 53.3905778,138.786349 53.9172387,138.612804 C54.4438996,138.438657 55.0115364,138.724885 55.185684,139.251546 C55.3598315,139.778207 55.0736028,140.345844 54.5469419,140.519991" id="Fill-38" fill="#F2F2F2"></path>
                        <path d="M71.2093713,155.747842 C70.5772577,155.956337 69.895732,155.613466 69.687237,154.981352 C69.4781393,154.349238 69.8216138,153.667713 70.4537274,153.459218 C71.085841,153.25012 71.7673667,153.593595 71.9758617,154.225708 C72.1843567,154.857822 71.8414848,155.539347 71.2093713,155.747842" id="Fill-40" fill="#CCCCCB"></path>
                        <path d="M70.3233879,109.503944 C69.6912743,109.712439 69.0097486,109.369567 68.8012536,108.737454 C68.5921559,108.10534 68.9356304,107.423814 69.567744,107.215319 C70.1998576,107.006222 70.8813833,107.349696 71.0898783,107.98181 C71.2983733,108.613923 70.9555014,109.295449 70.3233879,109.503944" id="Fill-42" fill="#CCCCCB"></path>
                        <path d="M107.454848,130.371706 C106.822734,130.580201 106.141208,130.23733 105.932713,129.605216 C105.723616,128.973102 106.06709,128.291577 106.699204,128.083082 C107.331317,127.873984 108.012843,128.217459 108.221338,128.849572 C108.429833,129.481686 108.086961,130.163211 107.454848,130.371706" id="Fill-44" fill="#CCCCCB"></path>
                        <path d="M5.92433228,88.2746299 C5.47299475,89.760609 3.90205093,90.5994098 2.41607184,90.1480723 C0.93009275,89.6967348 0.0912919026,88.1257909 0.543232014,86.6398119 C0.994569539,85.1538328 2.56491078,84.3150319 4.05088987,84.7663694 C5.53686896,85.2183096 6.3756698,86.7886508 5.92433228,88.2746299" id="Fill-46" fill="#CCCCCB"></path>
                        <path d="M21.6009296,78.1321296 C21.1170524,79.724164 19.43463,80.6226209 17.8425956,80.1393463 C16.2499587,79.6554691 15.3515017,77.9730467 15.8353789,76.3804098 C16.3186536,74.7883754 18.0016785,73.8899185 19.5937129,74.3737957 C21.1857473,74.8570703 22.0848068,76.5400953 21.6009296,78.1321296" id="Fill-48" fill="#F2F2F2"></path>
                        <path d="M20.472405,92.9039428 C20.3109117,93.4348218 19.750506,93.7343075 19.219627,93.5728142 C18.688748,93.4119235 18.3892624,92.8509152 18.5507556,92.3200362 C18.7116463,91.7891572 19.2726546,91.4896716 19.8035336,91.6511649 C20.33381,91.8120555 20.6338983,92.3730639 20.472405,92.9039428" id="Fill-50" fill="#F2F2F2"></path>
                        <path d="M4.20623675,62.1418256 C4.01280638,62.7787599 3.33971691,63.1379016 2.70278264,62.9444713 C2.06584838,62.7510409 1.70670664,62.0779514 1.90013701,61.4410172 C2.09356737,60.8040829 2.76665685,60.4449412 3.40359111,60.6383715 C4.04052538,60.8318019 4.39966712,61.5048914 4.20623675,62.1418256" id="Fill-52" fill="#CCCCCB"></path>
                        <path d="M32.1098026,43.5378616 C31.6259254,45.1298959 29.943503,46.0283529 28.3514686,45.5450783 C26.7588317,45.061201 25.8603748,43.3787787 26.344252,41.7861417 C26.8275266,40.1941073 28.5105516,39.2956504 30.1025859,39.7795276 C31.6946203,40.2628022 32.5936798,41.9458272 32.1098026,43.5378616" id="Fill-54" fill="#F2F2F2"></path>
                        <path d="M30.981278,58.3096748 C30.8197848,58.8405538 30.259379,59.1400394 29.7285,58.9785461 C29.1976211,58.8176555 28.8981354,58.2566471 29.0596287,57.7257682 C29.2205194,57.1948892 29.7815277,56.8954035 30.3124067,57.0568968 C30.8426831,57.2177875 31.1427713,57.7787958 30.981278,58.3096748" id="Fill-56" fill="#F2F2F2"></path>
                        <path d="M57.0113412,68.7834773 C57.0113412,69.4493357 56.472026,69.9886509 55.8061676,69.9886509 C55.1403092,69.9886509 54.600994,69.4493357 54.600994,68.7834773 C54.600994,68.1176188 55.1403092,67.5783036 55.8061676,67.5783036 C56.472026,67.5783036 57.0113412,68.1176188 57.0113412,68.7834773" id="Fill-58" fill="#CCCCCB"></path>
                        <path d="M14.71517,27.5475576 C14.5217397,28.1844918 13.8486502,28.5436336 13.2117159,28.3502032 C12.5747817,28.1567728 12.2156399,27.4836834 12.4090703,26.8467491 C12.6025007,26.2098148 13.2755901,25.8506731 13.9125244,26.0441035 C14.5494587,26.2375338 14.9086004,26.9106233 14.71517,27.5475576" id="Fill-60" fill="#CCCCCB"></path>
                        <path d="M152.524786,56.3280078 C151.594995,57.571747 149.832428,57.8260386 148.588689,56.8962471 C147.34495,55.9658531 147.090658,54.2038893 148.02045,52.9601501 C148.950844,51.7164109 150.712808,51.4621192 151.956547,52.3919107 C153.200286,53.3217022 153.454578,55.0842686 152.524786,56.3280078" id="Fill-158" fill="#CCCCCB"></path>
                        <path d="M164.629852,65.6309238 C164.297826,66.0750303 163.668123,66.1660209 163.224016,65.8339956 C162.77991,65.5013677 162.688919,64.872267 163.021547,64.4281605 C163.353573,63.984054 163.982673,63.8930634 164.42678,64.2250888 C164.871489,64.5571141 164.961877,65.1868173 164.629852,65.6309238" id="Fill-160" fill="#F2F2F2"></path>
                        <path d="M187.010107,68.5720898 C186.611797,69.1053791 185.856153,69.2138448 185.323466,68.8155349 C184.790177,68.4166224 184.681109,67.6615811 185.080021,67.1288944 C185.478331,66.5956051 186.233372,66.4865368 186.766662,66.8854493 C187.299951,67.2837592 187.408417,68.0388005 187.010107,68.5720898" id="Fill-162" fill="#CCCCCB"></path>
                        <path d="M159.8006,31.1697672 C159.40229,31.7030565 158.646647,31.8115221 158.11396,31.4132123 C157.58067,31.0142998 157.471602,30.2592585 157.870515,29.7265718 C158.268825,29.1932824 159.023866,29.0842142 159.557155,29.4831267 C160.090445,29.8814366 160.19891,30.6364779 159.8006,31.1697672" id="Fill-164" fill="#CCCCCB"></path>
                        <path d="M192.369212,23.1695836 C191.372534,24.501903 189.484629,24.7748749 188.151707,23.7781963 C186.819388,22.7815177 186.547019,20.8936132 187.543697,19.5606911 C188.539773,18.2283717 190.42828,17.9560025 191.7606,18.9520785 C193.093522,19.9487571 193.365891,21.8372641 192.369212,23.1695836" id="Fill-166" fill="#F2F2F2"></path>
                        <path d="M186.282061,36.6761452 C185.950036,37.1202517 185.320333,37.2112423 184.876226,36.879217 C184.43212,36.5465891 184.341129,35.9174884 184.673757,35.473382 C185.005782,35.0292755 185.634883,34.9382849 186.078989,35.2703102 C186.523699,35.6023355 186.614087,36.2320388 186.282061,36.6761452" id="Fill-168" fill="#F2F2F2"></path>
                        <path d="M208.662316,39.6173112 C208.264006,40.1506006 207.508363,40.2590662 206.975676,39.8607563 C206.442387,39.4618438 206.333318,38.7068026 206.732231,38.1741158 C207.130541,37.6408265 207.885582,37.5317583 208.418871,37.9306707 C208.952161,38.3289806 209.060626,39.0840219 208.662316,39.6173112" id="Fill-170" fill="#CCCCCB"></path>
                        <path d="M181.45287,2.21498862 C181.05456,2.74827795 180.298916,2.85674358 179.76623,2.45843369 C179.23294,2.05952122 179.123872,1.30447994 179.522785,0.771793194 C179.921095,0.238503862 180.676136,0.129435648 181.209425,0.52834812 C181.742715,0.926658005 181.85118,1.68169929 181.45287,2.21498862" id="Fill-172" fill="#CCCCCB"></path>
                        <path d="M326.036948,12.4998199 C327.589212,12.4522155 328.886581,13.6712486 328.934186,15.2241149 C328.982393,16.7763785 327.762757,18.0731453 326.210493,18.1213523 C324.65823,18.1689566 323.36086,16.9493209 323.312653,15.3970573 C323.265049,13.8447936 324.484685,12.5474242 326.036948,12.4998199" id="Fill-192" fill="#CCCCCB"></path>
                        <path d="M311.410961,0.893455472 C313.074101,0.842235592 314.464268,2.14864381 314.515488,3.81178342 C314.566708,5.47552562 313.259697,6.86509082 311.596558,6.9163107 C309.933418,6.96753057 308.543853,5.66112236 308.492633,3.99798275 C308.440811,2.33484314 309.747821,0.944675351 311.410961,0.893455472" id="Fill-194" fill="#F2F2F2"></path>
                        <path d="M301.828204,22.4905285 C302.49346,22.4700405 303.049647,22.9924833 303.070135,23.6577392 C303.090623,24.322995 302.567578,24.8791826 301.902322,24.8996706 C301.237066,24.9201585 300.681481,24.3977158 300.660993,23.7324599 C300.640505,23.0672041 301.162948,22.5110165 301.828204,22.4905285" id="Fill-196" fill="#CCCCCB"></path>
                        <path d="M289.898913,13.6144247 C291.451177,13.5668203 292.748546,14.7858535 292.79615,16.3387197 C292.844357,17.8909833 291.624722,19.1877502 290.072458,19.2359571 C288.520194,19.2835615 287.222825,18.0639258 287.174618,16.5116621 C287.127014,14.9593985 288.346649,13.6620291 289.898913,13.6144247" id="Fill-198" fill="#CCCCCB"></path>
                        <path d="M275.272926,2.00812056 C276.936065,1.95690068 278.326233,3.2633089 278.377453,4.92644851 C278.428673,6.59019071 277.121662,7.97975591 275.458523,8.03097579 C273.795383,8.08219567 272.405818,6.77578745 272.354598,5.11264784 C272.302775,3.44950823 273.609786,2.05934044 275.272926,2.00812056" id="Fill-206" fill="#F2F2F2"></path>
                        <path d="M265.690168,23.6051936 C266.355424,23.5847056 266.911612,24.1071484 266.9321,24.7724043 C266.952588,25.4376601 266.429542,25.9938477 265.764287,26.0143357 C265.099031,26.0348236 264.543446,25.5123809 264.522958,24.847125 C264.50247,24.1818692 265.024913,23.6256815 265.690168,23.6051936" id="Fill-208" fill="#CCCCCB"></path>
                        <path d="M45.5250724,88.4293742 L45.5250724,88.4293742 C45.3629765,88.4293742 45.0381822,88.59147 44.8760864,88.59147 C44.7139905,88.59147 44.3891962,88.4293742 44.3891962,88.4293742 C44.2271004,88.2672783 44.0650045,87.942484 44.0650045,87.7803882 C44.0650045,87.6182923 44.2271004,87.293498 44.2271004,87.1314022 C44.3891962,87.1314022 44.7139905,86.9693063 44.8760864,86.9693063 C45.3629765,86.9693063 45.6871682,87.293498 45.6871682,87.7803882 C45.6871682,87.942484 45.5250724,88.2672783 45.5250724,88.4293742 M52.3391241,94.1075497 L51.6901381,93.4585637 L52.3391241,92.8095777 C52.6633158,92.485386 52.6633158,91.9984959 52.3391241,91.6743042 C52.0143298,91.3495099 51.5280422,91.3495099 51.2032479,91.6743042 L50.5542619,92.3232902 L46.9851402,88.7535659 C46.9851402,88.7535659 46.9851402,88.59147 47.1472361,88.59147 L52.1764257,88.59147 L52.1764257,89.4025519 C52.1764257,89.889442 52.5012199,90.2142363 52.9881101,90.2142363 C53.4743977,90.2142363 53.7991919,89.889442 53.7991919,89.4025519 L53.7991919,88.59147 L54.6102738,88.59147 C55.0971639,88.59147 55.4213557,88.2672783 55.4213557,87.7803882 C55.4213557,87.293498 55.0971639,86.9693063 54.6102738,86.9693063 L53.7991919,86.9693063 L53.7991919,86.1582245 C53.7991919,85.6713343 53.4743977,85.3471426 52.9881101,85.3471426 C52.5012199,85.3471426 52.1764257,85.6713343 52.1764257,86.1582245 L52.1764257,86.9693063 L47.1472361,86.9693063 C47.1472361,86.9693063 47.1472361,86.8072105 46.9851402,86.8072105 L50.5542619,83.2380888 L51.2032479,83.7243763 C51.5280422,84.0491706 52.0143298,84.0491706 52.3391241,83.7243763 C52.6633158,83.4001846 52.6633158,82.9132945 52.3391241,82.5891028 L51.6901381,82.1022126 L52.3391241,81.4532266 C52.6633158,81.1290349 52.6633158,80.6421448 52.3391241,80.3173505 C52.0143298,79.9931588 51.5280422,79.9931588 51.2032479,80.3173505 L50.5542619,80.9663365 L50.0673718,80.3173505 C49.7431801,79.9931588 49.2562899,79.9931588 48.9320982,80.3173505 C48.6073039,80.6421448 48.6073039,81.1290349 48.9320982,81.4532266 L49.4189884,82.1022126 L45.8492641,85.6713343 C45.8492641,85.6713343 45.6871682,85.6713343 45.6871682,85.5092385 L45.6871682,80.4800489 L46.4982501,80.4800489 C46.9851402,80.4800489 47.3099345,80.1552546 47.3099345,79.6689671 C47.3099345,79.1820769 46.9851402,78.8572826 46.4982501,78.8572826 L45.6871682,78.8572826 L45.6871682,78.0462008 C45.6871682,77.5599132 45.3629765,77.2351189 44.8760864,77.2351189 C44.3891962,77.2351189 44.0650045,77.5599132 44.0650045,78.0462008 L44.0650045,78.8572826 L43.2539227,78.8572826 C42.7670325,78.8572826 42.4428408,79.1820769 42.4428408,79.6689671 C42.4428408,80.1552546 42.7670325,80.4800489 43.2539227,80.4800489 L44.0650045,80.4800489 L44.0650045,85.5092385 C44.0650045,85.5092385 43.9029087,85.5092385 43.9029087,85.6713343 L40.333787,82.1022126 L40.8200745,81.4532266 C41.1448688,81.1290349 41.1448688,80.6421448 40.8200745,80.3173505 C40.4958828,79.9931588 40.0089927,79.9931588 39.684801,80.3173505 L39.1979108,80.9663365 L38.5489248,80.3173505 C38.2247331,79.9931588 37.737843,79.9931588 37.4130487,80.3173505 C37.088857,80.6421448 37.088857,81.1290349 37.4130487,81.4532266 L38.0620347,82.1022126 L37.4130487,82.5891028 C37.088857,82.9132945 37.088857,83.4001846 37.4130487,83.7243763 C37.737843,84.0491706 38.2247331,84.0491706 38.5489248,83.7243763 L39.1979108,83.2380888 L42.7670325,86.8072105 C42.7670325,86.8072105 42.7670325,86.9693063 42.6049367,86.9693063 L37.5757471,86.9693063 L37.5757471,86.1582245 C37.5757471,85.6713343 37.2509528,85.3471426 36.7646653,85.3471426 C36.2777751,85.3471426 35.9529808,85.6713343 35.9529808,86.1582245 L35.9529808,86.9693063 L35.141899,86.9693063 C34.6556114,86.9693063 34.3308171,87.293498 34.3308171,87.7803882 C34.3308171,88.2672783 34.6556114,88.59147 35.141899,88.59147 L35.9529808,88.59147 L35.9529808,89.4025519 C35.9529808,89.889442 36.2777751,90.2142363 36.7646653,90.2142363 C37.2509528,90.2142363 37.5757471,89.889442 37.5757471,89.4025519 L37.5757471,88.59147 L42.6049367,88.59147 C42.6049367,88.59147 42.6049367,88.7535659 42.7670325,88.7535659 L39.1979108,92.3232902 L38.5489248,91.8364 C38.2247331,91.5116057 37.737843,91.5116057 37.4130487,91.8364 C37.088857,92.1605917 37.088857,92.6474819 37.4130487,92.9716736 L38.0620347,93.4585637 L37.4130487,94.1075497 C37.088857,94.432344 37.088857,94.9186316 37.4130487,95.2434259 C37.737843,95.5676176 38.2247331,95.5676176 38.5489248,95.2434259 L39.1979108,94.5944399 L39.8468968,95.2434259 C40.1710885,95.5676176 40.6579787,95.5676176 40.982773,95.2434259 C41.3069647,94.9186316 41.3069647,94.432344 40.982773,94.1075497 L40.333787,93.4585637 L43.9029087,89.889442 C43.9029087,89.889442 44.0650045,89.889442 44.0650045,90.0515379 L44.0650045,95.0807275 L43.2539227,95.0807275 C42.7670325,95.0807275 42.4428408,95.4055217 42.4428408,95.8924119 C42.4428408,96.3786995 42.7670325,96.7034937 43.2539227,96.7034937 L44.0650045,96.7034937 L44.0650045,97.5145756 C44.0650045,98.0014658 44.3891962,98.3256575 44.8760864,98.3256575 C45.3629765,98.3256575 45.6871682,98.0014658 45.6871682,97.5145756 L45.6871682,96.7034937 L46.4982501,96.7034937 C46.9851402,96.7034937 47.3099345,96.3786995 47.3099345,95.8924119 C47.3099345,95.4055217 46.9851402,95.0807275 46.4982501,95.0807275 L45.6871682,95.0807275 L45.6871682,90.0515379 C45.6871682,90.0515379 45.8492641,90.0515379 45.8492641,89.889442 L49.4189884,93.4585637 L48.9320982,94.1075497 C48.6073039,94.432344 48.6073039,94.9186316 48.9320982,95.2434259 C49.2562899,95.5676176 49.7431801,95.5676176 50.0673718,95.2434259 L50.7163578,94.5944399 L51.3653438,95.2434259 C51.6901381,95.5676176 52.1764257,95.5676176 52.5012199,95.2434259 C52.6633158,94.9186316 52.6633158,94.432344 52.3391241,94.1075497" id="Fill-210" fill="#9CAAB2"></path>
                        <path d="M358.250637,19.9893714 L358.250637,19.9893714 C358.088541,19.9893714 357.763747,20.1514673 357.601651,20.1514673 C357.439555,20.1514673 357.114761,19.9893714 357.114761,19.9893714 C356.952665,19.8272756 356.790569,19.5024813 356.790569,19.3403854 C356.790569,19.1782896 356.952665,18.8534953 356.952665,18.6913994 C357.114761,18.6913994 357.439555,18.5293036 357.601651,18.5293036 C358.088541,18.5293036 358.412733,18.8534953 358.412733,19.3403854 C358.412733,19.5024813 358.250637,19.8272756 358.250637,19.9893714 M365.064689,25.667547 L364.415703,25.018561 L365.064689,24.369575 C365.38888,24.0453833 365.38888,23.5584931 365.064689,23.2343014 C364.739894,22.9095071 364.253607,22.9095071 363.928812,23.2343014 L363.279826,23.8832874 L359.710705,20.3135631 C359.710705,20.3135631 359.710705,20.1514673 359.872801,20.1514673 L364.90199,20.1514673 L364.90199,20.9625491 C364.90199,21.4494393 365.226784,21.7742336 365.713675,21.7742336 C366.199962,21.7742336 366.524756,21.4494393 366.524756,20.9625491 L366.524756,20.1514673 L367.335838,20.1514673 C367.822728,20.1514673 368.14692,19.8272756 368.14692,19.3403854 C368.14692,18.8534953 367.822728,18.5293036 367.335838,18.5293036 L366.524756,18.5293036 L366.524756,17.7182217 C366.524756,17.2313315 366.199962,16.9071398 365.713675,16.9071398 C365.226784,16.9071398 364.90199,17.2313315 364.90199,17.7182217 L364.90199,18.5293036 L359.872801,18.5293036 C359.872801,18.5293036 359.872801,18.3672077 359.710705,18.3672077 L363.279826,14.798086 L363.928812,15.2843735 C364.253607,15.6091678 364.739894,15.6091678 365.064689,15.2843735 C365.38888,14.9601818 365.38888,14.4732917 365.064689,14.1491 L364.415703,13.6622098 L365.064689,13.0132238 C365.38888,12.6890321 365.38888,12.202142 365.064689,11.8773477 C364.739894,11.553156 364.253607,11.553156 363.928812,11.8773477 L363.279826,12.5263337 L362.792936,11.8773477 C362.468745,11.553156 361.981854,11.553156 361.657663,11.8773477 C361.332868,12.202142 361.332868,12.6890321 361.657663,13.0132238 L362.144553,13.6622098 L358.574829,17.2313315 C358.574829,17.2313315 358.412733,17.2313315 358.412733,17.0692357 L358.412733,12.0400461 L359.223815,12.0400461 C359.710705,12.0400461 360.035499,11.7152518 360.035499,11.2289643 C360.035499,10.7420741 359.710705,10.4172798 359.223815,10.4172798 L358.412733,10.4172798 L358.412733,9.60619798 C358.412733,9.11991042 358.088541,8.79511613 357.601651,8.79511613 C357.114761,8.79511613 356.790569,9.11991042 356.790569,9.60619798 L356.790569,10.4172798 L355.979487,10.4172798 C355.492597,10.4172798 355.168405,10.7420741 355.168405,11.2289643 C355.168405,11.7152518 355.492597,12.0400461 355.979487,12.0400461 L356.790569,12.0400461 L356.790569,17.0692357 C356.790569,17.0692357 356.628473,17.0692357 356.628473,17.2313315 L353.059351,13.6622098 L353.545639,13.0132238 C353.870433,12.6890321 353.870433,12.202142 353.545639,11.8773477 C353.221447,11.553156 352.734557,11.553156 352.410365,11.8773477 L351.923475,12.5263337 L351.274489,11.8773477 C350.950298,11.553156 350.463407,11.553156 350.138613,11.8773477 C349.814421,12.202142 349.814421,12.6890321 350.138613,13.0132238 L350.787599,13.6622098 L350.138613,14.1491 C349.814421,14.4732917 349.814421,14.9601818 350.138613,15.2843735 C350.463407,15.6091678 350.950298,15.6091678 351.274489,15.2843735 L351.923475,14.798086 L355.492597,18.3672077 C355.492597,18.3672077 355.492597,18.5293036 355.330501,18.5293036 L350.301312,18.5293036 L350.301312,17.7182217 C350.301312,17.2313315 349.976517,16.9071398 349.49023,16.9071398 C349.00334,16.9071398 348.678545,17.2313315 348.678545,17.7182217 L348.678545,18.5293036 L347.867463,18.5293036 C347.381176,18.5293036 347.056382,18.8534953 347.056382,19.3403854 C347.056382,19.8272756 347.381176,20.1514673 347.867463,20.1514673 L348.678545,20.1514673 L348.678545,20.9625491 C348.678545,21.4494393 349.00334,21.7742336 349.49023,21.7742336 C349.976517,21.7742336 350.301312,21.4494393 350.301312,20.9625491 L350.301312,20.1514673 L355.330501,20.1514673 C355.330501,20.1514673 355.330501,20.3135631 355.492597,20.3135631 L351.923475,23.8832874 L351.274489,23.3963973 C350.950298,23.071603 350.463407,23.071603 350.138613,23.3963973 C349.814421,23.720589 349.814421,24.2074791 350.138613,24.5316708 L350.787599,25.018561 L350.138613,25.667547 C349.814421,25.9923413 349.814421,26.4786288 350.138613,26.8034231 C350.463407,27.1276148 350.950298,27.1276148 351.274489,26.8034231 L351.923475,26.1544371 L352.572461,26.8034231 C352.896653,27.1276148 353.383543,27.1276148 353.708337,26.8034231 C354.032529,26.4786288 354.032529,25.9923413 353.708337,25.667547 L353.059351,25.018561 L356.628473,21.4494393 C356.628473,21.4494393 356.790569,21.4494393 356.790569,21.6115351 L356.790569,26.6407247 L355.979487,26.6407247 C355.492597,26.6407247 355.168405,26.965519 355.168405,27.4524091 C355.168405,27.9386967 355.492597,28.263491 355.979487,28.263491 L356.790569,28.263491 L356.790569,29.0745728 C356.790569,29.561463 357.114761,29.8856547 357.601651,29.8856547 C358.088541,29.8856547 358.412733,29.561463 358.412733,29.0745728 L358.412733,28.263491 L359.223815,28.263491 C359.710705,28.263491 360.035499,27.9386967 360.035499,27.4524091 C360.035499,26.965519 359.710705,26.6407247 359.223815,26.6407247 L358.412733,26.6407247 L358.412733,21.6115351 C358.412733,21.6115351 358.574829,21.6115351 358.574829,21.4494393 L362.144553,25.018561 L361.657663,25.667547 C361.332868,25.9923413 361.332868,26.4786288 361.657663,26.8034231 C361.981854,27.1276148 362.468745,27.1276148 362.792936,26.8034231 L363.441922,26.1544371 L364.090908,26.8034231 C364.415703,27.1276148 364.90199,27.1276148 365.226784,26.8034231 C365.38888,26.4786288 365.38888,25.9923413 365.064689,25.667547" id="Fill-212" fill="#9CAAB2"></path>
                    </g>
                </g>
            </g>
        </g>
    </g>
</svg>