<?xml version="1.0" encoding="UTF-8" standalone="no"?>
<svg width="768px" height="433px" viewBox="0 0 768 433" version="1.1" xmlns="http://www.w3.org/2000/svg" xmlns:xlink="http://www.w3.org/1999/xlink">
    <!-- Generator: Sketch 3.7.1 (28215) - http://www.bohemiancoding.com/sketch -->
    <title>Group 220 Copy</title>
    <desc>Created with Sketch.</desc>
    <defs></defs>
    <g id="Page-1" stroke="none" stroke-width="1" fill="none" fill-rule="evenodd">
        <g id="Tablet-Portrait">
            <g id="Group-Copy" transform="translate(0.324219, 0.000000)" fill="#F6F7F7">
                <g id="Page-1" transform="translate(0.000000, 0.169862)">
                    <polygon id="Fill-1" points="0 496.841856 768 496.841856 768 8.52651283e-14 0 8.52651283e-14"></polygon>
                </g>
            </g>
            <g id="Group-220-Copy" transform="translate(-0.820350, 55.937500)">
                <path d="M91.5165438,92.2148191 C91.5165438,94.2845859 89.8387235,95.9632094 87.7681535,95.9632094 C85.6983867,95.9632094 84.0205664,94.2845859 84.0205664,92.2148191 C84.0205664,90.1450522 85.6983867,88.4664287 87.7681535,88.4664287 C89.8387235,88.4664287 91.5165438,90.1450522 91.5165438,92.2148191" id="Fill-2" fill="#CCCCCB"></path>
                <path d="M107.579926,73.2064563 C107.579926,75.4240063 105.781631,77.2223019 103.564081,77.2223019 C101.346531,77.2223019 99.5482351,75.4240063 99.5482351,73.2064563 C99.5482351,70.9889064 101.346531,69.1906107 103.564081,69.1906107 C105.781631,69.1906107 107.579926,70.9889064 107.579926,73.2064563" id="Fill-4" fill="#F2F2F2"></path>
                <path d="M157.957103,124.381261 C157.957103,126.598811 156.158808,128.397106 153.941258,128.397106 C151.723708,128.397106 149.925412,126.598811 149.925412,124.381261 C149.925412,122.163711 151.723708,120.365415 153.941258,120.365415 C156.158808,120.365415 157.957103,122.163711 157.957103,124.381261" id="Fill-6" fill="#F2F2F2"></path>
                <path d="M111.863468,92.4825153 C111.863468,93.2214309 111.264304,93.8213983 110.524585,93.8213983 C109.78567,93.8213983 109.186506,93.2214309 109.186506,92.4825153 C109.186506,91.7435997 109.78567,91.1436324 110.524585,91.1436324 C111.264304,91.1436324 111.863468,91.7435997 111.863468,92.4825153" id="Fill-8" fill="#F2F2F2"></path>
                <path d="M177.297175,141.938297 C177.297175,142.677212 176.698011,143.27718 175.958292,143.27718 C175.219376,143.27718 174.620212,142.677212 174.620212,141.938297 C174.620212,141.199381 175.219376,140.599414 175.958292,140.599414 C176.698011,140.599414 177.297175,141.199381 177.297175,141.938297" id="Fill-10" fill="#F2F2F2"></path>
                <path d="M317.828641,257.579069 C317.828641,258.317985 317.229477,258.917952 316.489758,258.917952 C315.750842,258.917952 315.151678,258.317985 315.151678,257.579069 C315.151678,256.840154 315.750842,256.240186 316.489758,256.240186 C317.229477,256.240186 317.828641,256.840154 317.828641,257.579069" id="Fill-12" fill="#F2F2F2"></path>
                <path d="M138.100353,77.7577748 C138.100353,78.6452767 137.381517,79.364113 136.494015,79.364113 C135.606513,79.364113 134.887677,78.6452767 134.887677,77.7577748 C134.887677,76.8702729 135.606513,76.1514365 136.494015,76.1514365 C137.381517,76.1514365 138.100353,76.8702729 138.100353,77.7577748" id="Fill-14" fill="#CCCCCB"></path>
                <path d="M79.2013107,59.5525812 C79.2013107,60.4400831 78.4824743,61.1589194 77.5949724,61.1589194 C76.7074705,61.1589194 75.9886342,60.4400831 75.9886342,59.5525812 C75.9886342,58.6650793 76.7074705,57.9462429 77.5949724,57.9462429 C78.4824743,57.9462429 79.2013107,58.6650793 79.2013107,59.5525812" id="Fill-16" fill="#CCCCCB"></path>
                <path d="M107.579926,25.0163088 C107.579926,27.2338587 105.781631,29.0321544 103.564081,29.0321544 C101.346531,29.0321544 99.5482351,27.2338587 99.5482351,25.0163088 C99.5482351,22.7987588 101.346531,21.0004631 103.564081,21.0004631 C105.781631,21.0004631 107.579926,22.7987588 107.579926,25.0163088" id="Fill-18" fill="#F2F2F2"></path>
                <path d="M111.863468,44.2923678 C111.863468,45.0312834 111.264304,45.6312507 110.524585,45.6312507 C109.78567,45.6312507 109.186506,45.0312834 109.186506,44.2923678 C109.186506,43.5534522 109.78567,42.9534848 110.524585,42.9534848 C111.264304,42.9534848 111.863468,43.5534522 111.863468,44.2923678" id="Fill-20" fill="#F2F2F2"></path>
                <path d="M138.100353,29.5676272 C138.100353,30.4551291 137.381517,31.1739655 136.494015,31.1739655 C135.606513,31.1739655 134.887677,30.4551291 134.887677,29.5676272 C134.887677,28.6801254 135.606513,27.961289 136.494015,27.961289 C137.381517,27.961289 138.100353,28.6801254 138.100353,29.5676272" id="Fill-22" fill="#CCCCCB"></path>
                <path d="M79.2013107,11.3624336 C79.2013107,12.2499355 78.4824743,12.9687719 77.5949724,12.9687719 C76.7074705,12.9687719 75.9886342,12.2499355 75.9886342,11.3624336 C75.9886342,10.4749317 76.7074705,9.75609537 77.5949724,9.75609537 C78.4824743,9.75609537 79.2013107,10.4749317 79.2013107,11.3624336" id="Fill-24" fill="#CCCCCB"></path>
                <path d="M20.8183044,183.000077 C18.8529495,183.649038 16.7333862,182.581626 16.0836224,180.616271 C15.4346617,178.650917 16.5020735,176.53055 18.4682315,175.881589 C20.4335864,175.232629 22.5531497,176.300041 23.2021103,178.265395 C23.851071,180.231553 22.7836592,182.351117 20.8183044,183.000077" id="Fill-26" fill="#CCCCCB"></path>
                <path d="M43.9047584,192.293226 C41.7988489,192.988771 39.5274866,191.845058 38.8319422,189.739148 C38.1372009,187.633239 39.2801105,185.361877 41.38602,184.666332 C43.4927326,183.970788 45.7632917,185.1145 46.4588362,187.22041 C47.1543806,189.327122 46.0106678,191.597682 43.9047584,192.293226" id="Fill-28" fill="#F2F2F2"></path>
                <path d="M26.9439147,202.404884 C26.2419448,202.637 25.4845564,202.255495 25.2532437,201.553525 C25.0211278,200.851555 25.4026331,200.094167 26.1046029,199.862854 C26.8065727,199.630738 27.5631581,200.012244 27.7952739,200.714213 C28.0273898,201.416183 27.6458845,202.172769 26.9439147,202.404884" id="Fill-30" fill="#F2F2F2"></path>
                <path d="M49.1527457,222.701611 C48.3102213,222.979507 47.4018371,222.522504 47.1239405,221.67998 C46.8452408,220.837455 47.3030472,219.929071 48.1455717,219.651174 C48.9880961,219.372475 49.8964804,219.830281 50.1743769,220.672806 C50.4522734,221.51533 49.9952702,222.423714 49.1527457,222.701611" id="Fill-32" fill="#CCCCCB"></path>
                <path d="M47.9719265,161.064484 C47.1294021,161.342381 46.2210178,160.885378 45.9431213,160.042853 C45.6644216,159.200329 46.122228,158.291945 46.9647524,158.014048 C47.8072768,157.735348 48.7156611,158.193155 48.9935576,159.035679 C49.2714541,159.878204 48.8144509,160.786588 47.9719265,161.064484" id="Fill-34" fill="#CCCCCB"></path>
                <path d="M89.6647571,177.183045 C87.5588476,177.878589 85.2874853,176.734876 84.5919409,174.628967 C83.8971996,172.523057 85.0401093,170.251695 87.1460187,169.556151 C89.2527313,168.860606 91.5232904,170.004319 92.2188349,172.110228 C92.9143794,174.216941 91.7706665,176.4875 89.6647571,177.183045" id="Fill-36" fill="#F2F2F2"></path>
                <path d="M72.7039134,187.294703 C72.0019436,187.526819 71.2445551,187.145314 71.0132424,186.443344 C70.7811265,185.741374 71.1626318,184.983985 71.8646017,184.752673 C72.5665715,184.520557 73.3231568,184.902062 73.5552727,185.604032 C73.7873885,186.306002 73.4058832,187.062587 72.7039134,187.294703" id="Fill-38" fill="#F2F2F2"></path>
                <path d="M94.9127445,207.591429 C94.0702201,207.869326 93.1618358,207.412323 92.8839393,206.569798 C92.6052396,205.727274 93.063046,204.81889 93.9055704,204.540993 C94.7480948,204.262293 95.6564791,204.7201 95.9343756,205.562624 C96.2122721,206.405149 95.7552689,207.313533 94.9127445,207.591429" id="Fill-40" fill="#CCCCCB"></path>
                <path d="M93.7318449,145.954383 C92.8893205,146.23228 91.9809362,145.775277 91.7030397,144.932752 C91.42434,144.090228 91.8821464,143.181844 92.7246708,142.903947 C93.5671952,142.625247 94.4755795,143.083054 94.753476,143.925578 C95.0313726,144.768103 94.5743693,145.676487 93.7318449,145.954383" id="Fill-42" fill="#CCCCCB"></path>
                <path d="M143.223207,173.768371 C142.380682,174.046268 141.472298,173.589264 141.194402,172.74674 C140.915702,171.904216 141.373508,170.995831 142.216033,170.717935 C143.058557,170.439235 143.966941,170.897042 144.244838,171.739566 C144.522734,172.58209 144.065731,173.490475 143.223207,173.768371" id="Fill-44" fill="#CCCCCB"></path>
                <path d="M7.89635726,117.658494 C7.29478359,119.639109 5.20092167,120.757121 3.22030661,120.155547 C1.23969155,119.553973 0.121680123,117.460111 0.724056967,115.479496 C1.32563064,113.498881 3.41868938,112.38087 5.39930445,112.982443 C7.37991951,113.58482 8.49793094,115.677879 7.89635726,117.658494" id="Fill-46" fill="#CCCCCB"></path>
                <path d="M28.7912037,104.139873 C28.1462588,106.261845 25.9038106,107.459371 23.7818378,106.815229 C21.6590618,106.170284 20.4615366,103.927836 21.1064815,101.80506 C21.7506231,99.6830872 23.9938745,98.485562 26.1158473,99.1305068 C28.2378201,99.7746485 29.4361485,102.0179 28.7912037,104.139873" id="Fill-48" fill="#F2F2F2"></path>
                <path d="M27.2870285,123.828761 C27.0717792,124.536353 26.3248319,124.935528 25.6172399,124.720278 C24.9096479,124.505832 24.5104728,123.758082 24.7257222,123.05049 C24.9401683,122.342898 25.6879188,121.943723 26.3955108,122.158972 C27.1022996,122.373418 27.5022778,123.121169 27.2870285,123.828761" id="Fill-50" fill="#F2F2F2"></path>
                <path d="M5.60636145,82.8268964 C5.34854416,83.6758462 4.45140425,84.154535 3.60245448,83.8967177 C2.75350471,83.6389004 2.27481592,82.7417605 2.5326332,81.8928107 C2.79045049,81.043861 3.68759041,80.5651722 4.53654017,80.8229894 C5.38548994,81.0808067 5.86417874,81.9779466 5.60636145,82.8268964" id="Fill-52" fill="#CCCCCB"></path>
                <path d="M42.7981519,58.0302544 C42.1532071,60.1522272 39.9107589,61.3497524 37.7887861,60.7056108 C35.6660101,60.060666 34.4684849,57.8182178 35.1134297,55.6954418 C35.7575714,53.5734689 38.0008228,52.3759438 40.1227956,53.0208886 C42.2447684,53.6650302 43.4430967,55.9082816 42.7981519,58.0302544" id="Fill-54" fill="#F2F2F2"></path>
                <path d="M41.2939768,77.7191424 C41.0787275,78.4267344 40.3317802,78.8259094 39.6241882,78.6106601 C38.9165962,78.3962139 38.5174211,77.6484635 38.7326705,76.9408715 C38.9471166,76.2332795 39.6948671,75.8341044 40.4024591,76.0493537 C41.1092479,76.2637999 41.5092261,77.0115504 41.2939768,77.7191424" id="Fill-56" fill="#F2F2F2"></path>
                <path d="M75.9886342,91.6793462 C75.9886342,92.5668481 75.2697978,93.2856845 74.3822959,93.2856845 C73.494794,93.2856845 72.7759577,92.5668481 72.7759577,91.6793462 C72.7759577,90.7918443 73.494794,90.073008 74.3822959,90.073008 C75.2697978,90.073008 75.9886342,90.7918443 75.9886342,91.6793462" id="Fill-58" fill="#CCCCCB"></path>
                <path d="M19.6133901,36.7172782 C19.3555728,37.5662279 18.4584328,38.0449167 17.6094831,37.7870994 C16.7605333,37.5292822 16.2818445,36.6321422 16.5396618,35.7831925 C16.7974791,34.9342427 17.694619,34.4555539 18.5435688,34.7133712 C19.3925185,34.9711885 19.8712073,35.8683284 19.6133901,36.7172782" id="Fill-60" fill="#CCCCCB"></path>
                <path d="M91.5165438,327.0079 C91.5165438,329.077667 89.8387235,330.75629 87.7681535,330.75629 C85.6983867,330.75629 84.0205664,329.077667 84.0205664,327.0079 C84.0205664,324.938133 85.6983867,323.25951 87.7681535,323.25951 C89.8387235,323.25951 91.5165438,324.938133 91.5165438,327.0079" id="Fill-62" fill="#CCCCCB"></path>
                <path d="M107.579926,307.999537 C107.579926,310.217087 105.781631,312.015383 103.564081,312.015383 C101.346531,312.015383 99.5482351,310.217087 99.5482351,307.999537 C99.5482351,305.781987 101.346531,303.983692 103.564081,303.983692 C105.781631,303.983692 107.579926,305.781987 107.579926,307.999537" id="Fill-64" fill="#F2F2F2"></path>
                <path d="M111.863468,327.275596 C111.863468,328.014512 111.264304,328.614479 110.524585,328.614479 C109.78567,328.614479 109.186506,328.014512 109.186506,327.275596 C109.186506,326.536681 109.78567,325.936713 110.524585,325.936713 C111.264304,325.936713 111.863468,326.536681 111.863468,327.275596" id="Fill-66" fill="#F2F2F2"></path>
                <path d="M79.2013107,294.345662 C79.2013107,295.233164 78.4824743,295.952 77.5949724,295.952 C76.7074705,295.952 75.9886342,295.233164 75.9886342,294.345662 C75.9886342,293.45816 76.7074705,292.739324 77.5949724,292.739324 C78.4824743,292.739324 79.2013107,293.45816 79.2013107,294.345662" id="Fill-68" fill="#CCCCCB"></path>
                <path d="M107.579926,259.80939 C107.579926,262.02694 105.781631,263.825235 103.564081,263.825235 C101.346531,263.825235 99.5482351,262.02694 99.5482351,259.80939 C99.5482351,257.59184 101.346531,255.793544 103.564081,255.793544 C105.781631,255.793544 107.579926,257.59184 107.579926,259.80939" id="Fill-70" fill="#F2F2F2"></path>
                <path d="M111.863468,279.085449 C111.863468,279.824364 111.264304,280.424332 110.524585,280.424332 C109.78567,280.424332 109.186506,279.824364 109.186506,279.085449 C109.186506,278.346533 109.78567,277.746566 110.524585,277.746566 C111.264304,277.746566 111.863468,278.346533 111.863468,279.085449" id="Fill-72" fill="#F2F2F2"></path>
                <path d="M218.417266,278.817753 C218.417266,280.887519 216.739445,282.566143 214.668875,282.566143 C212.599109,282.566143 210.921288,280.887519 210.921288,278.817753 C210.921288,276.747986 212.599109,275.069362 214.668875,275.069362 C216.739445,275.069362 218.417266,276.747986 218.417266,278.817753" id="Fill-74" fill="#CCCCCB"></path>
                <path d="M234.480648,259.80939 C234.480648,262.02694 232.682353,263.825235 230.464803,263.825235 C228.247253,263.825235 226.448957,262.02694 226.448957,259.80939 C226.448957,257.59184 228.247253,255.793544 230.464803,255.793544 C232.682353,255.793544 234.480648,257.59184 234.480648,259.80939" id="Fill-76" fill="#F2F2F2"></path>
                <path d="M238.76419,279.085449 C238.76419,279.824364 238.165026,280.424332 237.425307,280.424332 C236.686392,280.424332 236.087227,279.824364 236.087227,279.085449 C236.087227,278.346533 236.686392,277.746566 237.425307,277.746566 C238.165026,277.746566 238.76419,278.346533 238.76419,279.085449" id="Fill-78" fill="#F2F2F2"></path>
                <path d="M79.2013107,246.155515 C79.2013107,247.043017 78.4824743,247.761853 77.5949724,247.761853 C76.7074705,247.761853 75.9886342,247.043017 75.9886342,246.155515 C75.9886342,245.268013 76.7074705,244.549176 77.5949724,244.549176 C78.4824743,244.549176 79.2013107,245.268013 79.2013107,246.155515" id="Fill-80" fill="#CCCCCB"></path>
                <path d="M7.89635726,352.451655 C7.29478359,354.432271 5.20092167,355.550282 3.22030661,354.948708 C1.23969155,354.347135 0.121680123,352.253273 0.724056967,350.272658 C1.32563064,348.292043 3.41868938,347.174031 5.39930445,347.775605 C7.37991951,348.377982 8.49793094,350.47104 7.89635726,352.451655" id="Fill-82" fill="#CCCCCB"></path>
                <path d="M28.7912037,338.932954 C28.1462588,341.054926 25.9038106,342.252452 23.7818378,341.60831 C21.6590618,340.963365 20.4615366,338.720917 21.1064815,336.598141 C21.7506231,334.476168 23.9938745,333.278643 26.1158473,333.923588 C28.2378201,334.567729 29.4361485,336.810981 28.7912037,338.932954" id="Fill-84" fill="#F2F2F2"></path>
                <path d="M27.2870285,358.621842 C27.0717792,359.329434 26.3248319,359.728609 25.6172399,359.513359 C24.9096479,359.298913 24.5104728,358.551163 24.7257222,357.843571 C24.9401683,357.135979 25.6879188,356.736804 26.3955108,356.952053 C27.1022996,357.166499 27.5022778,357.91425 27.2870285,358.621842" id="Fill-86" fill="#F2F2F2"></path>
                <path d="M56.7125751,374.662575 C56.7125751,375.550077 55.9937388,376.268913 55.1062369,376.268913 C54.218735,376.268913 53.4998986,375.550077 53.4998986,374.662575 C53.4998986,373.775073 54.218735,373.056237 55.1062369,373.056237 C55.9937388,373.056237 56.7125751,373.775073 56.7125751,374.662575" id="Fill-88" fill="#CCCCCB"></path>
                <path d="M5.60636145,317.619977 C5.34854416,318.468927 4.45140425,318.947616 3.60245448,318.689799 C2.75350471,318.431981 2.27481592,317.534841 2.5326332,316.685892 C2.79045049,315.836942 3.68759041,315.358253 4.53654017,315.61607 C5.38548994,315.873888 5.86417874,316.771028 5.60636145,317.619977" id="Fill-90" fill="#CCCCCB"></path>
                <path d="M42.7981519,292.823335 C42.1532071,294.945308 39.9107589,296.142833 37.7887861,295.498692 C35.6660101,294.853747 34.4684849,292.611299 35.1134297,290.488523 C35.7575714,288.36655 38.0008228,287.169025 40.1227956,287.81397 C42.2447684,288.458111 43.4430967,290.701363 42.7981519,292.823335" id="Fill-92" fill="#F2F2F2"></path>
                <path d="M41.2939768,312.512223 C41.0787275,313.219815 40.3317802,313.61899 39.6241882,313.403741 C38.9165962,313.189295 38.5174211,312.441544 38.7326705,311.733952 C38.9471166,311.02636 39.6948671,310.627185 40.4024591,310.842435 C41.1092479,311.056881 41.5092261,311.804631 41.2939768,312.512223" id="Fill-94" fill="#F2F2F2"></path>
                <path d="M75.9886342,326.472427 C75.9886342,327.359929 75.2697978,328.078765 74.3822959,328.078765 C73.494794,328.078765 72.7759577,327.359929 72.7759577,326.472427 C72.7759577,325.584925 73.494794,324.866089 74.3822959,324.866089 C75.2697978,324.866089 75.9886342,325.584925 75.9886342,326.472427" id="Fill-96" fill="#CCCCCB"></path>
                <path d="M19.6133901,271.510439 C19.3555728,272.359389 18.4584328,272.838078 17.6094831,272.580261 C16.7605333,272.322443 16.2818445,271.425304 16.5396618,270.576354 C16.7974791,269.727404 17.694619,269.248715 18.5435688,269.506533 C19.3925185,269.76435 19.8712073,270.66149 19.6133901,271.510439" id="Fill-98" fill="#CCCCCB"></path>
                <path d="M711.563109,92.2148191 C711.563109,94.2845859 709.885289,95.9632094 707.814719,95.9632094 C705.744952,95.9632094 704.067131,94.2845859 704.067131,92.2148191 C704.067131,90.1450522 705.744952,88.4664287 707.814719,88.4664287 C709.885289,88.4664287 711.563109,90.1450522 711.563109,92.2148191" id="Fill-100" fill="#CCCCCB"></path>
                <path d="M645.3533,130.041274 C645.3533,132.111041 643.67548,133.789664 641.60491,133.789664 C639.535143,133.789664 637.857322,132.111041 637.857322,130.041274 C637.857322,127.971507 639.535143,126.292883 641.60491,126.292883 C643.67548,126.292883 645.3533,127.971507 645.3533,130.041274" id="Fill-102" fill="#CCCCCB"></path>
                <path d="M731.910033,92.4825153 C731.910033,93.2214309 731.310869,93.8213983 730.57115,93.8213983 C729.832235,93.8213983 729.233071,93.2214309 729.233071,92.4825153 C729.233071,91.7435997 729.832235,91.1436324 730.57115,91.1436324 C731.310869,91.1436324 731.910033,91.7435997 731.910033,92.4825153" id="Fill-104" fill="#F2F2F2"></path>
                <path d="M758.146918,77.7577748 C758.146918,78.6452767 757.428082,79.364113 756.54058,79.364113 C755.653078,79.364113 754.934242,78.6452767 754.934242,77.7577748 C754.934242,76.8702729 755.653078,76.1514365 756.54058,76.1514365 C757.428082,76.1514365 758.146918,76.8702729 758.146918,77.7577748" id="Fill-106" fill="#CCCCCB"></path>
                <path d="M699.247876,59.5525812 C699.247876,60.4400831 698.529039,61.1589194 697.641538,61.1589194 C696.754036,61.1589194 696.035199,60.4400831 696.035199,59.5525812 C696.035199,58.6650793 696.754036,57.9462429 697.641538,57.9462429 C698.529039,57.9462429 699.247876,58.6650793 699.247876,59.5525812" id="Fill-108" fill="#CCCCCB"></path>
                <path d="M727.626491,25.0163088 C727.626491,27.2338587 725.828196,29.0321544 723.610646,29.0321544 C721.393096,29.0321544 719.5948,27.2338587 719.5948,25.0163088 C719.5948,22.7987588 721.393096,21.0004631 723.610646,21.0004631 C725.828196,21.0004631 727.626491,22.7987588 727.626491,25.0163088" id="Fill-110" fill="#F2F2F2"></path>
                <path d="M731.910033,44.2923678 C731.910033,45.0312834 731.310869,45.6312507 730.57115,45.6312507 C729.832235,45.6312507 729.233071,45.0312834 729.233071,44.2923678 C729.233071,43.5534522 729.832235,42.9534848 730.57115,42.9534848 C731.310869,42.9534848 731.910033,43.5534522 731.910033,44.2923678" id="Fill-112" fill="#F2F2F2"></path>
                <path d="M758.146918,29.5676272 C758.146918,30.4551291 757.428082,31.1739655 756.54058,31.1739655 C755.653078,31.1739655 754.934242,30.4551291 754.934242,29.5676272 C754.934242,28.6801254 755.653078,27.961289 756.54058,27.961289 C757.428082,27.961289 758.146918,28.6801254 758.146918,29.5676272" id="Fill-114" fill="#CCCCCB"></path>
                <path d="M699.247876,11.3624336 C699.247876,12.2499355 698.529039,12.9687719 697.641538,12.9687719 C696.754036,12.9687719 696.035199,12.2499355 696.035199,11.3624336 C696.035199,10.4749317 696.754036,9.75609537 697.641538,9.75609537 C698.529039,9.75609537 699.247876,10.4749317 699.247876,11.3624336" id="Fill-116" fill="#CCCCCB"></path>
                <path d="M689.82879,201.938966 C688.492317,203.520406 686.127787,203.718789 684.54715,202.382315 C682.96571,201.046645 682.767327,198.681312 684.102997,197.100675 C685.439471,195.519235 687.804001,195.320852 689.385441,196.656523 C690.966078,197.992996 691.165264,200.357526 689.82879,201.938966" id="Fill-118" fill="#CCCCCB"></path>
                <path d="M714.367053,197.78859 C712.935805,199.482473 710.401807,199.695313 708.707923,198.264066 C707.014039,196.832015 706.8012,194.29882 708.232447,192.604133 C709.663694,190.910249 712.197693,190.697409 713.891577,192.12946 C715.58546,193.560707 715.7983,196.094706 714.367053,197.78859" id="Fill-120" fill="#F2F2F2"></path>
                <path d="M705.19703,215.276473 C704.719947,215.841101 703.875013,215.91178 703.310386,215.434697 C702.745758,214.957615 702.675079,214.113484 703.152161,213.548053 C703.629244,212.983425 704.474178,212.912746 705.038806,213.389829 C705.603433,213.866911 705.674112,214.711845 705.19703,215.276473" id="Fill-122" fill="#F2F2F2"></path>
                <path d="M734.740803,220.964436 C734.168143,221.642311 733.154544,221.727447 732.477472,221.154787 C731.799598,220.582128 731.714462,219.568528 732.287121,218.890654 C732.859781,218.213582 733.87338,218.128446 734.550452,218.700302 C735.228327,219.272962 735.313463,220.286562 734.740803,220.964436" id="Fill-124" fill="#CCCCCB"></path>
                <path d="M701.504379,169.042685 C700.93172,169.720559 699.91812,169.805695 699.241049,169.233036 C698.563174,168.660376 698.478038,167.646777 699.050698,166.968902 C699.623357,166.291027 700.636957,166.206694 701.314028,166.778551 C701.991903,167.35121 702.077039,168.36481 701.504379,169.042685" id="Fill-126" fill="#CCCCCB"></path>
                <path d="M745.471544,160.981035 C744.040297,162.674919 741.506298,162.887759 739.812414,161.456511 C738.118531,160.024461 737.905691,157.491265 739.336938,155.796578 C740.768186,154.102695 743.302184,153.889855 744.996068,155.321906 C746.689952,156.753153 746.902791,159.287151 745.471544,160.981035" id="Fill-128" fill="#F2F2F2"></path>
                <path d="M680.944214,124.678514 C679.512966,126.372397 676.978968,126.585237 675.285084,125.15399 C673.5912,123.721939 673.37836,121.188744 674.809608,119.494057 C676.240855,117.800173 678.774854,117.587333 680.468738,119.019384 C682.162621,120.450631 682.375461,122.98463 680.944214,124.678514" id="Fill-130" fill="#F2F2F2"></path>
                <path d="M736.301521,178.468918 C735.824439,179.033546 734.979505,179.104225 734.414877,178.627143 C733.850249,178.15006 733.77957,177.30593 734.256653,176.740498 C734.733735,176.175871 735.578669,176.105192 736.143297,176.582274 C736.707925,177.059357 736.778604,177.904291 736.301521,178.468918" id="Fill-132" fill="#F2F2F2"></path>
                <path d="M765.845375,184.156802 C765.272715,184.834676 764.259116,184.919812 763.582044,184.347153 C762.904169,183.774493 762.819033,182.760894 763.391693,182.083019 C763.964353,181.405947 764.977952,181.320811 765.655024,181.892668 C766.332898,182.465327 766.418034,183.478927 765.845375,184.156802" id="Fill-134" fill="#CCCCCB"></path>
                <path d="M732.608871,132.23505 C732.036211,132.912925 731.022612,132.998061 730.34554,132.425401 C729.667665,131.852741 729.58253,130.839142 730.155189,130.161267 C730.727849,129.484196 731.741448,129.39906 732.41852,129.970916 C733.096394,130.543576 733.18153,131.557175 732.608871,132.23505" id="Fill-136" fill="#CCCCCB"></path>
                <path d="M711.563109,339.323133 C711.563109,341.3929 709.885289,343.071524 707.814719,343.071524 C705.744952,343.071524 704.067131,341.3929 704.067131,339.323133 C704.067131,337.253366 705.744952,335.574743 707.814719,335.574743 C709.885289,335.574743 711.563109,337.253366 711.563109,339.323133" id="Fill-138" fill="#CCCCCB"></path>
                <path d="M727.626491,320.314851 C727.626491,322.532401 725.828196,324.330696 723.610646,324.330696 C721.393096,324.330696 719.5948,322.532401 719.5948,320.314851 C719.5948,318.097301 721.393096,316.299005 723.610646,316.299005 C725.828196,316.299005 727.626491,318.097301 727.626491,320.314851" id="Fill-140" fill="#F2F2F2"></path>
                <path d="M731.910033,339.59091 C731.910033,340.329825 731.310869,340.929793 730.57115,340.929793 C729.832235,340.929793 729.233071,340.329825 729.233071,339.59091 C729.233071,338.851994 729.832235,338.252027 730.57115,338.252027 C731.310869,338.252027 731.910033,338.851994 731.910033,339.59091" id="Fill-142" fill="#F2F2F2"></path>
                <path d="M758.146918,324.866089 C758.146918,325.753591 757.428082,326.472427 756.54058,326.472427 C755.653078,326.472427 754.934242,325.753591 754.934242,324.866089 C754.934242,323.978587 755.653078,323.259751 756.54058,323.259751 C757.428082,323.259751 758.146918,323.978587 758.146918,324.866089" id="Fill-144" fill="#CCCCCB"></path>
                <path d="M699.247876,306.660976 C699.247876,307.548478 698.529039,308.267314 697.641538,308.267314 C696.754036,308.267314 696.035199,307.548478 696.035199,306.660976 C696.035199,305.773474 696.754036,305.054637 697.641538,305.054637 C698.529039,305.054637 699.247876,305.773474 699.247876,306.660976" id="Fill-146" fill="#CCCCCB"></path>
                <path d="M711.563109,291.132986 C711.563109,293.202753 709.885289,294.881376 707.814719,294.881376 C705.744952,294.881376 704.067131,293.202753 704.067131,291.132986 C704.067131,289.063219 705.744952,287.384595 707.814719,287.384595 C709.885289,287.384595 711.563109,289.063219 711.563109,291.132986" id="Fill-148" fill="#CCCCCB"></path>
                <path d="M727.626491,272.124703 C727.626491,274.342253 725.828196,276.140549 723.610646,276.140549 C721.393096,276.140549 719.5948,274.342253 719.5948,272.124703 C719.5948,269.907153 721.393096,268.108858 723.610646,268.108858 C725.828196,268.108858 727.626491,269.907153 727.626491,272.124703" id="Fill-150" fill="#F2F2F2"></path>
                <path d="M731.910033,291.400762 C731.910033,292.139678 731.310869,292.739645 730.57115,292.739645 C729.832235,292.739645 729.233071,292.139678 729.233071,291.400762 C729.233071,290.661847 729.832235,290.061879 730.57115,290.061879 C731.310869,290.061879 731.910033,290.661847 731.910033,291.400762" id="Fill-152" fill="#F2F2F2"></path>
                <path d="M758.146918,276.675941 C758.146918,277.563443 757.428082,278.28228 756.54058,278.28228 C755.653078,278.28228 754.934242,277.563443 754.934242,276.675941 C754.934242,275.78844 755.653078,275.069603 756.54058,275.069603 C757.428082,275.069603 758.146918,275.78844 758.146918,276.675941" id="Fill-154" fill="#CCCCCB"></path>
                <path d="M699.247876,258.470828 C699.247876,259.35833 698.529039,260.077166 697.641538,260.077166 C696.754036,260.077166 696.035199,259.35833 696.035199,258.470828 C696.035199,257.583326 696.754036,256.86449 697.641538,256.86449 C698.529039,256.86449 699.247876,257.583326 699.247876,258.470828" id="Fill-156" fill="#CCCCCB"></path>
                <path d="M203.295519,75.0778404 C202.056229,76.7355814 199.706959,77.0745188 198.049218,75.8352289 C196.391477,74.5951357 196.052539,72.2466692 197.291829,70.5889281 C198.531923,68.9311871 200.880389,68.5922497 202.53813,69.8315396 C204.195871,71.0708296 204.534809,73.4200993 203.295519,75.0778404" id="Fill-158" fill="#CCCCCB"></path>
                <path d="M219.429982,87.4774063 C218.987435,88.0693419 218.148124,88.1906205 217.556188,87.7480743 C216.964252,87.3047249 216.842974,86.4662164 217.286323,85.8742807 C217.728869,85.2823451 218.567378,85.1610665 219.159314,85.6036127 C219.752052,86.0461589 219.872528,86.8854706 219.429982,87.4774063" id="Fill-160" fill="#F2F2F2"></path>
                <path d="M249.259924,91.3975945 C248.729029,92.1083992 247.721855,92.2529696 247.011854,91.7220748 C246.301049,91.1903768 246.155675,90.1840059 246.687373,89.4740044 C247.218268,88.7631997 248.224639,88.6178261 248.935444,89.1495241 C249.646248,89.6804189 249.790819,90.6867898 249.259924,91.3975945" id="Fill-162" fill="#CCCCCB"></path>
                <path d="M212.993224,41.5452081 C212.462329,42.2560128 211.455155,42.4005832 210.745153,41.8696884 C210.034349,41.3379905 209.888975,40.3316196 210.420673,39.621618 C210.951568,38.9108134 211.957939,38.7654398 212.668743,39.2971377 C213.379548,39.8280325 213.524118,40.8344034 212.993224,41.5452081" id="Fill-164" fill="#CCCCCB"></path>
                <path d="M256.402909,30.8820135 C255.074467,32.6578205 252.558138,33.0216561 250.781528,31.6932143 C249.005721,30.3647726 248.642688,27.8484437 249.97113,26.0718336 C251.298769,24.2960267 253.815901,23.9329942 255.591708,25.2606328 C257.368318,26.5890745 257.73135,29.1062066 256.402909,30.8820135" id="Fill-166" fill="#F2F2F2"></path>
                <path d="M248.289535,48.8844873 C247.846989,49.4764229 247.007677,49.5977014 246.415741,49.1551553 C245.823806,48.7118059 245.702527,47.8732973 246.145877,47.2813617 C246.588423,46.689426 247.426931,46.5681475 248.018867,47.0106937 C248.611606,47.4532399 248.732081,48.2925516 248.289535,48.8844873" id="Fill-168" fill="#F2F2F2"></path>
                <path d="M278.119477,52.8046754 C277.588582,53.5154801 276.581408,53.6600506 275.871407,53.1291558 C275.160602,52.5974578 275.015229,51.5910869 275.546927,50.8810854 C276.077821,50.1702807 277.084192,50.0249071 277.794997,50.5566051 C278.505802,51.0874999 278.650372,52.0938708 278.119477,52.8046754" id="Fill-170" fill="#CCCCCB"></path>
                <path d="M241.852857,2.95228907 C241.321963,3.66309375 240.314788,3.80766419 239.604787,3.2767694 C238.893982,2.74507144 238.748609,1.73870052 239.280307,1.02869902 C239.811201,0.31789434 240.817572,0.172520728 241.528377,0.70421869 C242.239182,1.23511348 242.383752,2.2414844 241.852857,2.95228907" id="Fill-172" fill="#CCCCCB"></path>
                <path d="M555.498754,36.519297 C553.469949,36.9321259 551.49094,35.6221571 551.078111,33.594155 C550.665282,31.5653498 551.975251,29.5863411 554.003253,29.1735122 C556.032058,28.7606832 558.011067,30.0706521 558.423896,32.0986541 C558.836725,34.1274593 557.527559,36.1064681 555.498754,36.519297" id="Fill-174" fill="#CCCCCB"></path>
                <path d="M577.328971,48.4686866 C575.155595,48.9112328 573.035229,47.5080963 572.592683,45.3347207 C572.150137,43.161345 573.554076,41.0409785 575.726649,40.5984323 C577.900024,40.1558861 580.021194,41.5590226 580.462937,43.7323983 C580.905483,45.9057739 579.502347,48.0261404 577.328971,48.4686866" id="Fill-176" fill="#F2F2F2"></path>
                <path d="M559.294611,56.5108191 C558.570153,56.6586022 557.863364,56.1903546 557.715581,55.465896 C557.568601,54.7414375 558.036045,54.0346486 558.760504,53.8876687 C559.484963,53.7398856 560.191751,54.20733 560.339535,54.9317886 C560.486514,55.6562471 560.01907,56.3630359 559.294611,56.5108191" id="Fill-178" fill="#F2F2F2"></path>
                <path d="M578.956433,79.2837158 C578.087404,79.460413 577.239257,78.8989978 577.061757,78.0299688 C576.885059,77.1609398 577.446475,76.3127932 578.315504,76.1352928 C579.185336,75.9585956 580.033482,76.5200109 580.21018,77.3890398 C580.386877,78.258872 579.825462,79.1070186 578.956433,79.2837158" id="Fill-180" fill="#CCCCCB"></path>
                <path d="M602.720681,26.9077721 C600.691876,27.320601 598.712867,26.0106321 598.300038,23.9826301 C597.887209,21.9538249 599.197178,19.9748162 601.22518,19.5619872 C603.253985,19.1491583 605.232994,20.4591271 605.645823,22.4871292 C606.058652,24.5159344 604.749486,26.4949431 602.720681,26.9077721" id="Fill-182" fill="#CCCCCB"></path>
                <path d="M624.550898,38.857242 C622.377523,39.2997882 620.257156,37.8966517 619.81461,35.7232761 C619.372064,33.5499004 620.776003,31.4295339 622.948576,30.9869877 C625.121951,30.5444415 627.243121,31.947578 627.684864,34.1209537 C628.12741,36.2943293 626.724274,38.4146958 624.550898,38.857242" id="Fill-184" fill="#F2F2F2"></path>
                <path d="M606.516539,46.8992941 C605.79208,47.0470772 605.085291,46.5788296 604.937508,45.8543711 C604.790528,45.1299125 605.257973,44.4231237 605.982431,44.2761438 C606.70689,44.1283606 607.413679,44.5958051 607.561462,45.3202636 C607.708442,46.0447222 607.240997,46.751511 606.516539,46.8992941" id="Fill-186" fill="#F2F2F2"></path>
                <path d="M626.17836,69.6721909 C625.309331,69.8488881 624.461184,69.2874729 624.283684,68.4184439 C624.106987,67.5494149 624.668402,66.7012683 625.537431,66.5237679 C626.407263,66.3470707 627.25541,66.9084859 627.432107,67.7775149 C627.608804,68.6473471 627.047389,69.4954937 626.17836,69.6721909" id="Fill-188" fill="#CCCCCB"></path>
                <path d="M632.270398,8.32549052 C631.401369,8.50218773 630.553222,7.94077251 630.375722,7.07174352 C630.199024,6.20271452 630.76044,5.35456793 631.629469,5.17706755 C632.499301,5.00037034 633.347447,5.56178556 633.524145,6.43081456 C633.700842,7.30064672 633.139427,8.14879332 632.270398,8.32549052" id="Fill-190" fill="#CCCCCB"></path>
                <path d="M434.564454,16.6606191 C436.633418,16.5971687 438.362641,18.2219799 438.426091,20.2917467 C438.490345,22.3607104 436.864731,24.0891303 434.795767,24.1533839 C432.726803,24.2168342 430.99758,22.5912199 430.933327,20.5222562 C430.869876,18.4532926 432.495491,16.7240694 434.564454,16.6606191" id="Fill-192" fill="#CCCCCB"></path>
                <path d="M415.069933,1.19085886 C417.28668,1.12258949 419.139591,2.86386015 419.20786,5.08060694 C419.27613,7.2981569 417.534056,9.1502649 415.317309,9.21853428 C413.100562,9.28680365 411.248454,7.54553299 411.180185,5.3287862 C411.111113,3.11203941 412.853186,1.25912824 415.069933,1.19085886" id="Fill-194" fill="#F2F2F2"></path>
                <path d="M402.297376,29.9769222 C403.184074,29.9496145 403.925399,30.6459621 403.952707,31.5326608 C403.980015,32.4193595 403.282864,33.1606846 402.396165,33.1879924 C401.509467,33.2153001 400.768945,32.5189525 400.741637,31.6322538 C400.714329,30.7455551 401.410677,30.00423 402.297376,29.9769222" id="Fill-196" fill="#CCCCCB"></path>
                <path d="M386.397197,18.146241 C388.466161,18.0827906 390.195384,19.7076018 390.258834,21.7773686 C390.323088,23.8463323 388.697473,25.5747523 386.62851,25.6390058 C384.559546,25.7024561 382.830323,24.0768418 382.766069,22.0078782 C382.702619,19.9389145 384.328233,18.2096914 386.397197,18.146241" id="Fill-198" fill="#CCCCCB"></path>
                <path d="M415.069933,242.199666 C417.28668,242.131396 419.139591,243.872667 419.20786,246.089414 C419.27613,248.306964 417.534056,250.159072 415.317309,250.227341 C413.100562,250.295611 411.248454,248.55434 411.180185,246.337593 C411.111113,244.120846 412.853186,242.267935 415.069933,242.199666" id="Fill-200" fill="#F2F2F2"></path>
                <path d="M402.297376,270.985729 C403.184074,270.958421 403.925399,271.654769 403.952707,272.541468 C403.980015,273.428166 403.282864,274.169492 402.396165,274.196799 C401.509467,274.224107 400.768945,273.527759 400.741637,272.641061 C400.714329,271.754362 401.410677,271.013037 402.297376,270.985729" id="Fill-202" fill="#CCCCCB"></path>
                <path d="M386.397197,259.155048 C388.466161,259.091598 390.195384,260.716409 390.258834,262.786175 C390.323088,264.855139 388.697473,266.583559 386.62851,266.647813 C384.559546,266.711263 382.830323,265.085649 382.766069,263.016685 C382.702619,260.947721 384.328233,259.218498 386.397197,259.155048" id="Fill-204" fill="#CCCCCB"></path>
                <path d="M366.902676,2.67656111 C369.119423,2.60829174 370.972334,4.3495624 371.040603,6.56630919 C371.108873,8.78385914 369.366799,10.6359671 367.150052,10.7042365 C364.933305,10.7725059 363.081197,9.03123524 363.012928,6.81448845 C362.943855,4.59774166 364.685929,2.74483049 366.902676,2.67656111" id="Fill-206" fill="#F2F2F2"></path>
                <path d="M354.130118,31.4626245 C355.016817,31.4353167 355.758142,32.1316644 355.78545,33.0183631 C355.812758,33.9050618 355.115607,34.6463869 354.228908,34.6736946 C353.342209,34.7010024 352.601687,34.0046548 352.57438,33.1179561 C352.547072,32.2312573 353.24342,31.4899322 354.130118,31.4626245" id="Fill-208" fill="#CCCCCB"></path>
                <path d="M60.6789456,117.864748 L60.6789456,117.864748 C60.4628931,117.864748 60.0299849,118.0808 59.8139324,118.0808 C59.5978799,118.0808 59.1649718,117.864748 59.1649718,117.864748 C58.9489193,117.648695 58.7328668,117.215787 58.7328668,116.999735 C58.7328668,116.783682 58.9489193,116.350774 58.9489193,116.134722 C59.1649718,116.134722 59.5978799,115.918669 59.8139324,115.918669 C60.4628931,115.918669 60.894998,116.350774 60.894998,116.999735 C60.894998,117.215787 60.6789456,117.648695 60.6789456,117.864748 M69.761182,125.433011 L68.8961689,124.567997 L69.761182,123.702984 C70.193287,123.270879 70.193287,122.621919 69.761182,122.189814 C69.3282739,121.756906 68.6801164,121.756906 68.2472082,122.189814 L67.3821951,123.054827 L62.6250243,118.296853 C62.6250243,118.296853 62.6250243,118.0808 62.8410768,118.0808 L69.5443264,118.0808 L69.5443264,119.161866 C69.5443264,119.810827 69.9772345,120.243735 70.6261952,120.243735 C71.2743527,120.243735 71.7072608,119.810827 71.7072608,119.161866 L71.7072608,118.0808 L72.7883265,118.0808 C73.4372871,118.0808 73.8693921,117.648695 73.8693921,116.999735 C73.8693921,116.350774 73.4372871,115.918669 72.7883265,115.918669 L71.7072608,115.918669 L71.7072608,114.837604 C71.7072608,114.188643 71.2743527,113.756538 70.6261952,113.756538 C69.9772345,113.756538 69.5443264,114.188643 69.5443264,114.837604 L69.5443264,115.918669 L62.8410768,115.918669 C62.8410768,115.918669 62.8410768,115.702617 62.6250243,115.702617 L67.3821951,110.945446 L68.2472082,111.593603 C68.6801164,112.026512 69.3282739,112.026512 69.761182,111.593603 C70.193287,111.161498 70.193287,110.512538 69.761182,110.080433 L68.8961689,109.431472 L69.761182,108.566459 C70.193287,108.134354 70.193287,107.485393 69.761182,107.052485 C69.3282739,106.62038 68.6801164,106.62038 68.2472082,107.052485 L67.3821951,107.917498 L66.7332344,107.052485 C66.3011294,106.62038 65.6521688,106.62038 65.2200638,107.052485 C64.7871556,107.485393 64.7871556,108.134354 65.2200638,108.566459 L65.8690244,109.431472 L61.1110505,114.188643 C61.1110505,114.188643 60.894998,114.188643 60.894998,113.97259 L60.894998,107.269341 L61.9760637,107.269341 C62.6250243,107.269341 63.0579325,106.836433 63.0579325,106.188275 C63.0579325,105.539315 62.6250243,105.106406 61.9760637,105.106406 L60.894998,105.106406 L60.894998,104.025341 C60.894998,103.377183 60.4628931,102.944275 59.8139324,102.944275 C59.1649718,102.944275 58.7328668,103.377183 58.7328668,104.025341 L58.7328668,105.106406 L57.6518011,105.106406 C57.0028405,105.106406 56.5707355,105.539315 56.5707355,106.188275 C56.5707355,106.836433 57.0028405,107.269341 57.6518011,107.269341 L58.7328668,107.269341 L58.7328668,113.97259 C58.7328668,113.97259 58.5168143,113.97259 58.5168143,114.188643 L53.7596435,109.431472 L54.407801,108.566459 C54.8407092,108.134354 54.8407092,107.485393 54.407801,107.052485 C53.975696,106.62038 53.3267354,106.62038 52.8946304,107.052485 L52.2456697,107.917498 L51.3806566,107.052485 C50.9485516,106.62038 50.2995909,106.62038 49.8666828,107.052485 C49.4345778,107.485393 49.4345778,108.134354 49.8666828,108.566459 L50.7316959,109.431472 L49.8666828,110.080433 C49.4345778,110.512538 49.4345778,111.161498 49.8666828,111.593603 C50.2995909,112.026512 50.9485516,112.026512 51.3806566,111.593603 L52.2456697,110.945446 L57.0028405,115.702617 C57.0028405,115.702617 57.0028405,115.918669 56.786788,115.918669 L50.0835384,115.918669 L50.0835384,114.837604 C50.0835384,114.188643 49.6506303,113.756538 49.0024728,113.756538 C48.3535121,113.756538 47.920604,114.188643 47.920604,114.837604 L47.920604,115.918669 L46.8395383,115.918669 C46.1913809,115.918669 45.7584727,116.350774 45.7584727,116.999735 C45.7584727,117.648695 46.1913809,118.0808 46.8395383,118.0808 L47.920604,118.0808 L47.920604,119.161866 C47.920604,119.810827 48.3535121,120.243735 49.0024728,120.243735 C49.6506303,120.243735 50.0835384,119.810827 50.0835384,119.161866 L50.0835384,118.0808 L56.786788,118.0808 C56.786788,118.0808 56.786788,118.296853 57.0028405,118.296853 L52.2456697,123.054827 L51.3806566,122.405866 C50.9485516,121.972958 50.2995909,121.972958 49.8666828,122.405866 C49.4345778,122.837971 49.4345778,123.486932 49.8666828,123.919037 L50.7316959,124.567997 L49.8666828,125.433011 C49.4345778,125.865919 49.4345778,126.514076 49.8666828,126.946984 C50.2995909,127.379089 50.9485516,127.379089 51.3806566,126.946984 L52.2456697,126.081971 L53.1106829,126.946984 C53.5427879,127.379089 54.1917485,127.379089 54.6246567,126.946984 C55.0567617,126.514076 55.0567617,125.865919 54.6246567,125.433011 L53.7596435,124.567997 L58.5168143,119.810827 C58.5168143,119.810827 58.7328668,119.810827 58.7328668,120.026879 L58.7328668,126.730129 L57.6518011,126.730129 C57.0028405,126.730129 56.5707355,127.163037 56.5707355,127.811998 C56.5707355,128.460155 57.0028405,128.893063 57.6518011,128.893063 L58.7328668,128.893063 L58.7328668,129.974129 C58.7328668,130.62309 59.1649718,131.055194 59.8139324,131.055194 C60.4628931,131.055194 60.894998,130.62309 60.894998,129.974129 L60.894998,128.893063 L61.9760637,128.893063 C62.6250243,128.893063 63.0579325,128.460155 63.0579325,127.811998 C63.0579325,127.163037 62.6250243,126.730129 61.9760637,126.730129 L60.894998,126.730129 L60.894998,120.026879 C60.894998,120.026879 61.1110505,120.026879 61.1110505,119.810827 L65.8690244,124.567997 L65.2200638,125.433011 C64.7871556,125.865919 64.7871556,126.514076 65.2200638,126.946984 C65.6521688,127.379089 66.3011294,127.379089 66.7332344,126.946984 L67.5982476,126.081971 L68.4632607,126.946984 C68.8961689,127.379089 69.5443264,127.379089 69.9772345,126.946984 C70.193287,126.514076 70.193287,125.865919 69.761182,125.433011" id="Fill-210" fill="#9CAAB2"></path>
                <path d="M477.501072,26.6432081 L477.501072,26.6432081 C477.28502,26.6432081 476.852112,26.8592606 476.636059,26.8592606 C476.420007,26.8592606 475.987099,26.6432081 475.987099,26.6432081 C475.771046,26.4271556 475.554994,25.9942475 475.554994,25.778195 C475.554994,25.5621425 475.771046,25.1292343 475.771046,24.9131818 C475.987099,24.9131818 476.420007,24.6971294 476.636059,24.6971294 C477.28502,24.6971294 477.717125,25.1292343 477.717125,25.778195 C477.717125,25.9942475 477.501072,26.4271556 477.501072,26.6432081 M486.583309,34.2114708 L485.718296,33.3464577 L486.583309,32.4814445 C487.015414,32.0493395 487.015414,31.4003789 486.583309,30.9682739 C486.150401,30.5353657 485.502243,30.5353657 485.069335,30.9682739 L484.204322,31.833287 L479.447151,27.0753131 C479.447151,27.0753131 479.447151,26.8592606 479.663204,26.8592606 L486.366453,26.8592606 L486.366453,27.9403263 C486.366453,28.5892869 486.799361,29.0221951 487.448322,29.0221951 C488.09648,29.0221951 488.529388,28.5892869 488.529388,27.9403263 L488.529388,26.8592606 L489.610453,26.8592606 C490.259414,26.8592606 490.691519,26.4271556 490.691519,25.778195 C490.691519,25.1292343 490.259414,24.6971294 489.610453,24.6971294 L488.529388,24.6971294 L488.529388,23.6160637 C488.529388,22.9671031 488.09648,22.5349981 487.448322,22.5349981 C486.799361,22.5349981 486.366453,22.9671031 486.366453,23.6160637 L486.366453,24.6971294 L479.663204,24.6971294 C479.663204,24.6971294 479.663204,24.4810769 479.447151,24.4810769 L484.204322,19.7239061 L485.069335,20.3720636 C485.502243,20.8049718 486.150401,20.8049718 486.583309,20.3720636 C487.015414,19.9399586 487.015414,19.290998 486.583309,18.858893 L485.718296,18.2099323 L486.583309,17.3449192 C487.015414,16.9128142 487.015414,16.2638535 486.583309,15.8309454 C486.150401,15.3988404 485.502243,15.3988404 485.069335,15.8309454 L484.204322,16.6959585 L483.555361,15.8309454 C483.123256,15.3988404 482.474296,15.3988404 482.042191,15.8309454 C481.609283,16.2638535 481.609283,16.9128142 482.042191,17.3449192 L482.691151,18.2099323 L477.933177,22.9671031 C477.933177,22.9671031 477.717125,22.9671031 477.717125,22.7510506 L477.717125,16.047801 L478.798191,16.047801 C479.447151,16.047801 479.880059,15.6148929 479.880059,14.9667354 C479.880059,14.3177747 479.447151,13.8848666 478.798191,13.8848666 L477.717125,13.8848666 L477.717125,12.8038009 C477.717125,12.1556435 477.28502,11.7227353 476.636059,11.7227353 C475.987099,11.7227353 475.554994,12.1556435 475.554994,12.8038009 L475.554994,13.8848666 L474.473928,13.8848666 C473.824967,13.8848666 473.392862,14.3177747 473.392862,14.9667354 C473.392862,15.6148929 473.824967,16.047801 474.473928,16.047801 L475.554994,16.047801 L475.554994,22.7510506 C475.554994,22.7510506 475.338941,22.7510506 475.338941,22.9671031 L470.58177,18.2099323 L471.229928,17.3449192 C471.662836,16.9128142 471.662836,16.2638535 471.229928,15.8309454 C470.797823,15.3988404 470.148862,15.3988404 469.716757,15.8309454 L469.067797,16.6959585 L468.202784,15.8309454 C467.770679,15.3988404 467.121718,15.3988404 466.68881,15.8309454 C466.256705,16.2638535 466.256705,16.9128142 466.68881,17.3449192 L467.553823,18.2099323 L466.68881,18.858893 C466.256705,19.290998 466.256705,19.9399586 466.68881,20.3720636 C467.121718,20.8049718 467.770679,20.8049718 468.202784,20.3720636 L469.067797,19.7239061 L473.824967,24.4810769 C473.824967,24.4810769 473.824967,24.6971294 473.608915,24.6971294 L466.905665,24.6971294 L466.905665,23.6160637 C466.905665,22.9671031 466.472757,22.5349981 465.8246,22.5349981 C465.175639,22.5349981 464.742731,22.9671031 464.742731,23.6160637 L464.742731,24.6971294 L463.661665,24.6971294 C463.013508,24.6971294 462.5806,25.1292343 462.5806,25.778195 C462.5806,26.4271556 463.013508,26.8592606 463.661665,26.8592606 L464.742731,26.8592606 L464.742731,27.9403263 C464.742731,28.5892869 465.175639,29.0221951 465.8246,29.0221951 C466.472757,29.0221951 466.905665,28.5892869 466.905665,27.9403263 L466.905665,26.8592606 L473.608915,26.8592606 C473.608915,26.8592606 473.608915,27.0753131 473.824967,27.0753131 L469.067797,31.833287 L468.202784,31.1843264 C467.770679,30.7514182 467.121718,30.7514182 466.68881,31.1843264 C466.256705,31.6164314 466.256705,32.265392 466.68881,32.697497 L467.553823,33.3464577 L466.68881,34.2114708 C466.256705,34.644379 466.256705,35.2925365 466.68881,35.7254446 C467.121718,36.1575496 467.770679,36.1575496 468.202784,35.7254446 L469.067797,34.8604315 L469.93281,35.7254446 C470.364915,36.1575496 471.013875,36.1575496 471.446784,35.7254446 C471.878889,35.2925365 471.878889,34.644379 471.446784,34.2114708 L470.58177,33.3464577 L475.338941,28.5892869 C475.338941,28.5892869 475.554994,28.5892869 475.554994,28.8053394 L475.554994,35.508589 L474.473928,35.508589 C473.824967,35.508589 473.392862,35.9414971 473.392862,36.5904578 C473.392862,37.2386153 473.824967,37.6715234 474.473928,37.6715234 L475.554994,37.6715234 L475.554994,38.7525891 C475.554994,39.4015497 475.987099,39.8336547 476.636059,39.8336547 C477.28502,39.8336547 477.717125,39.4015497 477.717125,38.7525891 L477.717125,37.6715234 L478.798191,37.6715234 C479.447151,37.6715234 479.880059,37.2386153 479.880059,36.5904578 C479.880059,35.9414971 479.447151,35.508589 478.798191,35.508589 L477.717125,35.508589 L477.717125,28.8053394 C477.717125,28.8053394 477.933177,28.8053394 477.933177,28.5892869 L482.691151,33.3464577 L482.042191,34.2114708 C481.609283,34.644379 481.609283,35.2925365 482.042191,35.7254446 C482.474296,36.1575496 483.123256,36.1575496 483.555361,35.7254446 L484.420374,34.8604315 L485.285388,35.7254446 C485.718296,36.1575496 486.366453,36.1575496 486.799361,35.7254446 C487.015414,35.2925365 487.015414,34.644379 486.583309,34.2114708" id="Fill-212" fill="#9CAAB2"></path>
                <path d="M188.541462,245.727185 L188.541462,245.727185 C188.32541,245.727185 187.892502,245.943237 187.676449,245.943237 C187.460397,245.943237 187.027489,245.727185 187.027489,245.727185 C186.811436,245.511132 186.595384,245.078224 186.595384,244.862171 C186.595384,244.646119 186.811436,244.213211 186.811436,243.997158 C187.027489,243.997158 187.460397,243.781106 187.676449,243.781106 C188.32541,243.781106 188.757515,244.213211 188.757515,244.862171 C188.757515,245.078224 188.541462,245.511132 188.541462,245.727185 M197.623699,253.295447 L196.758686,252.430434 L197.623699,251.565421 C198.055804,251.133316 198.055804,250.484355 197.623699,250.05225 C197.190791,249.619342 196.542633,249.619342 196.109725,250.05225 L195.244712,250.917263 L190.487541,246.15929 C190.487541,246.15929 190.487541,245.943237 190.703594,245.943237 L197.406843,245.943237 L197.406843,247.024303 C197.406843,247.673263 197.839751,248.106171 198.488712,248.106171 C199.13687,248.106171 199.569778,247.673263 199.569778,247.024303 L199.569778,245.943237 L200.650843,245.943237 C201.299804,245.943237 201.731909,245.511132 201.731909,244.862171 C201.731909,244.213211 201.299804,243.781106 200.650843,243.781106 L199.569778,243.781106 L199.569778,242.70004 C199.569778,242.051079 199.13687,241.618974 198.488712,241.618974 C197.839751,241.618974 197.406843,242.051079 197.406843,242.70004 L197.406843,243.781106 L190.703594,243.781106 C190.703594,243.781106 190.703594,243.565053 190.487541,243.565053 L195.244712,238.807883 L196.109725,239.45604 C196.542633,239.888948 197.190791,239.888948 197.623699,239.45604 C198.055804,239.023935 198.055804,238.374974 197.623699,237.942869 L196.758686,237.293909 L197.623699,236.428896 C198.055804,235.996791 198.055804,235.34783 197.623699,234.914922 C197.190791,234.482817 196.542633,234.482817 196.109725,234.914922 L195.244712,235.779935 L194.595751,234.914922 C194.163646,234.482817 193.514686,234.482817 193.082581,234.914922 C192.649673,235.34783 192.649673,235.996791 193.082581,236.428896 L193.731541,237.293909 L188.973567,242.051079 C188.973567,242.051079 188.757515,242.051079 188.757515,241.835027 L188.757515,235.131777 L189.838581,235.131777 C190.487541,235.131777 190.920449,234.698869 190.920449,234.050712 C190.920449,233.401751 190.487541,232.968843 189.838581,232.968843 L188.757515,232.968843 L188.757515,231.887777 C188.757515,231.23962 188.32541,230.806712 187.676449,230.806712 C187.027489,230.806712 186.595384,231.23962 186.595384,231.887777 L186.595384,232.968843 L185.514318,232.968843 C184.865357,232.968843 184.433252,233.401751 184.433252,234.050712 C184.433252,234.698869 184.865357,235.131777 185.514318,235.131777 L186.595384,235.131777 L186.595384,241.835027 C186.595384,241.835027 186.379331,241.835027 186.379331,242.051079 L181.62216,237.293909 L182.270318,236.428896 C182.703226,235.996791 182.703226,235.34783 182.270318,234.914922 C181.838213,234.482817 181.189252,234.482817 180.757147,234.914922 L180.108187,235.779935 L179.243173,234.914922 C178.811069,234.482817 178.162108,234.482817 177.7292,234.914922 C177.297095,235.34783 177.297095,235.996791 177.7292,236.428896 L178.594213,237.293909 L177.7292,237.942869 C177.297095,238.374974 177.297095,239.023935 177.7292,239.45604 C178.162108,239.888948 178.811069,239.888948 179.243173,239.45604 L180.108187,238.807883 L184.865357,243.565053 C184.865357,243.565053 184.865357,243.781106 184.649305,243.781106 L177.946055,243.781106 L177.946055,242.70004 C177.946055,242.051079 177.513147,241.618974 176.86499,241.618974 C176.216029,241.618974 175.783121,242.051079 175.783121,242.70004 L175.783121,243.781106 L174.702055,243.781106 C174.053898,243.781106 173.62099,244.213211 173.62099,244.862171 C173.62099,245.511132 174.053898,245.943237 174.702055,245.943237 L175.783121,245.943237 L175.783121,247.024303 C175.783121,247.673263 176.216029,248.106171 176.86499,248.106171 C177.513147,248.106171 177.946055,247.673263 177.946055,247.024303 L177.946055,245.943237 L184.649305,245.943237 C184.649305,245.943237 184.649305,246.15929 184.865357,246.15929 L180.108187,250.917263 L179.243173,250.268303 C178.811069,249.835395 178.162108,249.835395 177.7292,250.268303 C177.297095,250.700408 177.297095,251.349368 177.7292,251.781473 L178.594213,252.430434 L177.7292,253.295447 C177.297095,253.728355 177.297095,254.376513 177.7292,254.809421 C178.162108,255.241526 178.811069,255.241526 179.243173,254.809421 L180.108187,253.944408 L180.9732,254.809421 C181.405305,255.241526 182.054265,255.241526 182.487174,254.809421 C182.919279,254.376513 182.919279,253.728355 182.487174,253.295447 L181.62216,252.430434 L186.379331,247.673263 C186.379331,247.673263 186.595384,247.673263 186.595384,247.889316 L186.595384,254.592565 L185.514318,254.592565 C184.865357,254.592565 184.433252,255.025474 184.433252,255.674434 C184.433252,256.322592 184.865357,256.7555 185.514318,256.7555 L186.595384,256.7555 L186.595384,257.836565 C186.595384,258.485526 187.027489,258.917631 187.676449,258.917631 C188.32541,258.917631 188.757515,258.485526 188.757515,257.836565 L188.757515,256.7555 L189.838581,256.7555 C190.487541,256.7555 190.920449,256.322592 190.920449,255.674434 C190.920449,255.025474 190.487541,254.592565 189.838581,254.592565 L188.757515,254.592565 L188.757515,247.889316 C188.757515,247.889316 188.973567,247.889316 188.973567,247.673263 L193.731541,252.430434 L193.082581,253.295447 C192.649673,253.728355 192.649673,254.376513 193.082581,254.809421 C193.514686,255.241526 194.163646,255.241526 194.595751,254.809421 L195.460764,253.944408 L196.325778,254.809421 C196.758686,255.241526 197.406843,255.241526 197.839751,254.809421 C198.055804,254.376513 198.055804,253.728355 197.623699,253.295447" id="Fill-214" fill="#9CAAB2"></path>
                <path d="M754.810714,245.727185 L754.810714,245.727185 C754.594662,245.727185 754.161754,245.943237 753.945701,245.943237 C753.729649,245.943237 753.296741,245.727185 753.296741,245.727185 C753.080688,245.511132 752.864636,245.078224 752.864636,244.862171 C752.864636,244.646119 753.080688,244.213211 753.080688,243.997158 C753.296741,243.997158 753.729649,243.781106 753.945701,243.781106 C754.594662,243.781106 755.026767,244.213211 755.026767,244.862171 C755.026767,245.078224 754.810714,245.511132 754.810714,245.727185 M763.892951,253.295447 L763.027938,252.430434 L763.892951,251.565421 C764.325056,251.133316 764.325056,250.484355 763.892951,250.05225 C763.460043,249.619342 762.811885,249.619342 762.378977,250.05225 L761.513964,250.917263 L756.756793,246.15929 C756.756793,246.15929 756.756793,245.943237 756.972846,245.943237 L763.676095,245.943237 L763.676095,247.024303 C763.676095,247.673263 764.109003,248.106171 764.757964,248.106171 C765.406121,248.106171 765.83903,247.673263 765.83903,247.024303 L765.83903,245.943237 L766.920095,245.943237 C767.569056,245.943237 768.001161,245.511132 768.001161,244.862171 C768.001161,244.213211 767.569056,243.781106 766.920095,243.781106 L765.83903,243.781106 L765.83903,242.70004 C765.83903,242.051079 765.406121,241.618974 764.757964,241.618974 C764.109003,241.618974 763.676095,242.051079 763.676095,242.70004 L763.676095,243.781106 L756.972846,243.781106 C756.972846,243.781106 756.972846,243.565053 756.756793,243.565053 L761.513964,238.807883 L762.378977,239.45604 C762.811885,239.888948 763.460043,239.888948 763.892951,239.45604 C764.325056,239.023935 764.325056,238.374974 763.892951,237.942869 L763.027938,237.293909 L763.892951,236.428896 C764.325056,235.996791 764.325056,235.34783 763.892951,234.914922 C763.460043,234.482817 762.811885,234.482817 762.378977,234.914922 L761.513964,235.779935 L760.865003,234.914922 C760.432898,234.482817 759.783938,234.482817 759.351833,234.914922 C758.918924,235.34783 758.918924,235.996791 759.351833,236.428896 L760.000793,237.293909 L755.242819,242.051079 C755.242819,242.051079 755.026767,242.051079 755.026767,241.835027 L755.026767,235.131777 L756.107832,235.131777 C756.756793,235.131777 757.189701,234.698869 757.189701,234.050712 C757.189701,233.401751 756.756793,232.968843 756.107832,232.968843 L755.026767,232.968843 L755.026767,231.887777 C755.026767,231.23962 754.594662,230.806712 753.945701,230.806712 C753.296741,230.806712 752.864636,231.23962 752.864636,231.887777 L752.864636,232.968843 L751.78357,232.968843 C751.134609,232.968843 750.702504,233.401751 750.702504,234.050712 C750.702504,234.698869 751.134609,235.131777 751.78357,235.131777 L752.864636,235.131777 L752.864636,241.835027 C752.864636,241.835027 752.648583,241.835027 752.648583,242.051079 L747.891412,237.293909 L748.53957,236.428896 C748.972478,235.996791 748.972478,235.34783 748.53957,234.914922 C748.107465,234.482817 747.458504,234.482817 747.026399,234.914922 L746.377439,235.779935 L745.512425,234.914922 C745.08032,234.482817 744.43136,234.482817 743.998452,234.914922 C743.566347,235.34783 743.566347,235.996791 743.998452,236.428896 L744.863465,237.293909 L743.998452,237.942869 C743.566347,238.374974 743.566347,239.023935 743.998452,239.45604 C744.43136,239.888948 745.08032,239.888948 745.512425,239.45604 L746.377439,238.807883 L751.134609,243.565053 C751.134609,243.565053 751.134609,243.781106 750.918557,243.781106 L744.215307,243.781106 L744.215307,242.70004 C744.215307,242.051079 743.782399,241.618974 743.134242,241.618974 C742.485281,241.618974 742.052373,242.051079 742.052373,242.70004 L742.052373,243.781106 L740.971307,243.781106 C740.32315,243.781106 739.890241,244.213211 739.890241,244.862171 C739.890241,245.511132 740.32315,245.943237 740.971307,245.943237 L742.052373,245.943237 L742.052373,247.024303 C742.052373,247.673263 742.485281,248.106171 743.134242,248.106171 C743.782399,248.106171 744.215307,247.673263 744.215307,247.024303 L744.215307,245.943237 L750.918557,245.943237 C750.918557,245.943237 750.918557,246.15929 751.134609,246.15929 L746.377439,250.917263 L745.512425,250.268303 C745.08032,249.835395 744.43136,249.835395 743.998452,250.268303 C743.566347,250.700408 743.566347,251.349368 743.998452,251.781473 L744.863465,252.430434 L743.998452,253.295447 C743.566347,253.728355 743.566347,254.376513 743.998452,254.809421 C744.43136,255.241526 745.08032,255.241526 745.512425,254.809421 L746.377439,253.944408 L747.242452,254.809421 C747.674557,255.241526 748.323517,255.241526 748.756425,254.809421 C749.18853,254.376513 749.18853,253.728355 748.756425,253.295447 L747.891412,252.430434 L752.648583,247.673263 C752.648583,247.673263 752.864636,247.673263 752.864636,247.889316 L752.864636,254.592565 L751.78357,254.592565 C751.134609,254.592565 750.702504,255.025474 750.702504,255.674434 C750.702504,256.322592 751.134609,256.7555 751.78357,256.7555 L752.864636,256.7555 L752.864636,257.836565 C752.864636,258.485526 753.296741,258.917631 753.945701,258.917631 C754.594662,258.917631 755.026767,258.485526 755.026767,257.836565 L755.026767,256.7555 L756.107832,256.7555 C756.756793,256.7555 757.189701,256.322592 757.189701,255.674434 C757.189701,255.025474 756.756793,254.592565 756.107832,254.592565 L755.026767,254.592565 L755.026767,247.889316 C755.026767,247.889316 755.242819,247.889316 755.242819,247.673263 L760.000793,252.430434 L759.351833,253.295447 C758.918924,253.728355 758.918924,254.376513 759.351833,254.809421 C759.783938,255.241526 760.432898,255.241526 760.865003,254.809421 L761.730016,253.944408 L762.595029,254.809421 C763.027938,255.241526 763.676095,255.241526 764.109003,254.809421 C764.325056,254.376513 764.325056,253.728355 763.892951,253.295447" id="Fill-216" fill="#9CAAB2"></path>
                <path d="M49.6282219,328.418586 L49.6282219,328.418586 C49.4121694,328.418586 48.9792612,328.634639 48.7632087,328.634639 C48.5471562,328.634639 48.1142481,328.418586 48.1142481,328.418586 C47.8981956,328.202534 47.6821431,327.769626 47.6821431,327.553573 C47.6821431,327.337521 47.8981956,326.904613 47.8981956,326.68856 C48.1142481,326.68856 48.5471562,326.472508 48.7632087,326.472508 C49.4121694,326.472508 49.8442744,326.904613 49.8442744,327.553573 C49.8442744,327.769626 49.6282219,328.202534 49.6282219,328.418586 M58.7104583,335.986849 L57.8454452,335.121836 L58.7104583,334.256823 C59.1425633,333.824718 59.1425633,333.175757 58.7104583,332.743652 C58.2775502,332.310744 57.6293927,332.310744 57.1964845,332.743652 L56.3314714,333.608665 L51.5743007,328.850691 C51.5743007,328.850691 51.5743007,328.634639 51.7903532,328.634639 L58.4936027,328.634639 L58.4936027,329.715704 C58.4936027,330.364665 58.9265108,330.797573 59.5754715,330.797573 C60.223629,330.797573 60.6565371,330.364665 60.6565371,329.715704 L60.6565371,328.634639 L61.7376028,328.634639 C62.3865634,328.634639 62.8186684,328.202534 62.8186684,327.553573 C62.8186684,326.904613 62.3865634,326.472508 61.7376028,326.472508 L60.6565371,326.472508 L60.6565371,325.391442 C60.6565371,324.742481 60.223629,324.310376 59.5754715,324.310376 C58.9265108,324.310376 58.4936027,324.742481 58.4936027,325.391442 L58.4936027,326.472508 L51.7903532,326.472508 C51.7903532,326.472508 51.7903532,326.256455 51.5743007,326.256455 L56.3314714,321.499284 L57.1964845,322.147442 C57.6293927,322.58035 58.2775502,322.58035 58.7104583,322.147442 C59.1425633,321.715337 59.1425633,321.066376 58.7104583,320.634271 L57.8454452,319.98531 L58.7104583,319.120297 C59.1425633,318.688192 59.1425633,318.039232 58.7104583,317.606324 C58.2775502,317.174219 57.6293927,317.174219 57.1964845,317.606324 L56.3314714,318.471337 L55.6825107,317.606324 C55.2504057,317.174219 54.6014451,317.174219 54.1693401,317.606324 C53.7364319,318.039232 53.7364319,318.688192 54.1693401,319.120297 L54.8183008,319.98531 L50.0603269,324.742481 C50.0603269,324.742481 49.8442744,324.742481 49.8442744,324.526429 L49.8442744,317.823179 L50.92534,317.823179 C51.5743007,317.823179 52.0072088,317.390271 52.0072088,316.742114 C52.0072088,316.093153 51.5743007,315.660245 50.92534,315.660245 L49.8442744,315.660245 L49.8442744,314.579179 C49.8442744,313.931022 49.4121694,313.498113 48.7632087,313.498113 C48.1142481,313.498113 47.6821431,313.931022 47.6821431,314.579179 L47.6821431,315.660245 L46.6010774,315.660245 C45.9521168,315.660245 45.5200118,316.093153 45.5200118,316.742114 C45.5200118,317.390271 45.9521168,317.823179 46.6010774,317.823179 L47.6821431,317.823179 L47.6821431,324.526429 C47.6821431,324.526429 47.4660906,324.526429 47.4660906,324.742481 L42.7089198,319.98531 L43.3570773,319.120297 C43.7899855,318.688192 43.7899855,318.039232 43.3570773,317.606324 C42.9249723,317.174219 42.2760117,317.174219 41.8439067,317.606324 L41.194946,318.471337 L40.3299329,317.606324 C39.8978279,317.174219 39.2488673,317.174219 38.8159591,317.606324 C38.3838541,318.039232 38.3838541,318.688192 38.8159591,319.120297 L39.6809722,319.98531 L38.8159591,320.634271 C38.3838541,321.066376 38.3838541,321.715337 38.8159591,322.147442 C39.2488673,322.58035 39.8978279,322.58035 40.3299329,322.147442 L41.194946,321.499284 L45.9521168,326.256455 C45.9521168,326.256455 45.9521168,326.472508 45.7360643,326.472508 L39.0328148,326.472508 L39.0328148,325.391442 C39.0328148,324.742481 38.5999066,324.310376 37.9517491,324.310376 C37.3027885,324.310376 36.8698803,324.742481 36.8698803,325.391442 L36.8698803,326.472508 L35.7888147,326.472508 C35.1406572,326.472508 34.707749,326.904613 34.707749,327.553573 C34.707749,328.202534 35.1406572,328.634639 35.7888147,328.634639 L36.8698803,328.634639 L36.8698803,329.715704 C36.8698803,330.364665 37.3027885,330.797573 37.9517491,330.797573 C38.5999066,330.797573 39.0328148,330.364665 39.0328148,329.715704 L39.0328148,328.634639 L45.7360643,328.634639 C45.7360643,328.634639 45.7360643,328.850691 45.9521168,328.850691 L41.194946,333.608665 L40.3299329,332.959705 C39.8978279,332.526796 39.2488673,332.526796 38.8159591,332.959705 C38.3838541,333.39181 38.3838541,334.04077 38.8159591,334.472875 L39.6809722,335.121836 L38.8159591,335.986849 C38.3838541,336.419757 38.3838541,337.067915 38.8159591,337.500823 C39.2488673,337.932928 39.8978279,337.932928 40.3299329,337.500823 L41.194946,336.63581 L42.0599592,337.500823 C42.4920642,337.932928 43.1410248,337.932928 43.573933,337.500823 C44.006038,337.067915 44.006038,336.419757 43.573933,335.986849 L42.7089198,335.121836 L47.4660906,330.364665 C47.4660906,330.364665 47.6821431,330.364665 47.6821431,330.580718 L47.6821431,337.283967 L46.6010774,337.283967 C45.9521168,337.283967 45.5200118,337.716875 45.5200118,338.365836 C45.5200118,339.013993 45.9521168,339.446902 46.6010774,339.446902 L47.6821431,339.446902 L47.6821431,340.527967 C47.6821431,341.176928 48.1142481,341.609033 48.7632087,341.609033 C49.4121694,341.609033 49.8442744,341.176928 49.8442744,340.527967 L49.8442744,339.446902 L50.92534,339.446902 C51.5743007,339.446902 52.0072088,339.013993 52.0072088,338.365836 C52.0072088,337.716875 51.5743007,337.283967 50.92534,337.283967 L49.8442744,337.283967 L49.8442744,330.580718 C49.8442744,330.580718 50.0603269,330.580718 50.0603269,330.364665 L54.8183008,335.121836 L54.1693401,335.986849 C53.7364319,336.419757 53.7364319,337.067915 54.1693401,337.500823 C54.6014451,337.932928 55.2504057,337.932928 55.6825107,337.500823 L56.5475239,336.63581 L57.412537,337.500823 C57.8454452,337.932928 58.4936027,337.932928 58.9265108,337.500823 C59.1425633,337.067915 59.1425633,336.419757 58.7104583,335.986849" id="Fill-218" fill="#9CAAB2"></path>
            </g>
            <g id="Group-220-Copy-2" transform="translate(383.500000, -79.753906) scale(-1, 1) translate(-383.500000, 79.753906) translate(-1.000000, -268.253906)">
                <path d="M91.5165438,327.0079 C91.5165438,329.077667 89.8387235,330.75629 87.7681535,330.75629 C85.6983867,330.75629 84.0205664,329.077667 84.0205664,327.0079 C84.0205664,324.938133 85.6983867,323.25951 87.7681535,323.25951 C89.8387235,323.25951 91.5165438,324.938133 91.5165438,327.0079" id="Fill-62" fill="#CCCCCB"></path>
                <path d="M107.579926,307.999537 C107.579926,310.217087 105.781631,312.015383 103.564081,312.015383 C101.346531,312.015383 99.5482351,310.217087 99.5482351,307.999537 C99.5482351,305.781987 101.346531,303.983692 103.564081,303.983692 C105.781631,303.983692 107.579926,305.781987 107.579926,307.999537" id="Fill-64" fill="#F2F2F2"></path>
                <path d="M111.863468,327.275596 C111.863468,328.014512 111.264304,328.614479 110.524585,328.614479 C109.78567,328.614479 109.186506,328.014512 109.186506,327.275596 C109.186506,326.536681 109.78567,325.936713 110.524585,325.936713 C111.264304,325.936713 111.863468,326.536681 111.863468,327.275596" id="Fill-66" fill="#F2F2F2"></path>
                <path d="M79.2013107,294.345662 C79.2013107,295.233164 78.4824743,295.952 77.5949724,295.952 C76.7074705,295.952 75.9886342,295.233164 75.9886342,294.345662 C75.9886342,293.45816 76.7074705,292.739324 77.5949724,292.739324 C78.4824743,292.739324 79.2013107,293.45816 79.2013107,294.345662" id="Fill-68" fill="#CCCCCB"></path>
                <path d="M111.863468,279.085449 C111.863468,279.824364 111.264304,280.424332 110.524585,280.424332 C109.78567,280.424332 109.186506,279.824364 109.186506,279.085449 C109.186506,278.346533 109.78567,277.746566 110.524585,277.746566 C111.264304,277.746566 111.863468,278.346533 111.863468,279.085449" id="Fill-72" fill="#F2F2F2"></path>
                <path d="M218.417266,278.817753 C218.417266,280.887519 216.739445,282.566143 214.668875,282.566143 C212.599109,282.566143 210.921288,280.887519 210.921288,278.817753 C210.921288,276.747986 212.599109,275.069362 214.668875,275.069362 C216.739445,275.069362 218.417266,276.747986 218.417266,278.817753" id="Fill-74" fill="#CCCCCB"></path>
                <path d="M238.76419,279.085449 C238.76419,279.824364 238.165026,280.424332 237.425307,280.424332 C236.686392,280.424332 236.087227,279.824364 236.087227,279.085449 C236.087227,278.346533 236.686392,277.746566 237.425307,277.746566 C238.165026,277.746566 238.76419,278.346533 238.76419,279.085449" id="Fill-78" fill="#F2F2F2"></path>
                <path d="M7.89635726,352.451655 C7.29478359,354.432271 5.20092167,355.550282 3.22030661,354.948708 C1.23969155,354.347135 0.121680123,352.253273 0.724056967,350.272658 C1.32563064,348.292043 3.41868938,347.174031 5.39930445,347.775605 C7.37991951,348.377982 8.49793094,350.47104 7.89635726,352.451655" id="Fill-82" fill="#CCCCCB"></path>
                <path d="M28.7912037,338.932954 C28.1462588,341.054926 25.9038106,342.252452 23.7818378,341.60831 C21.6590618,340.963365 20.4615366,338.720917 21.1064815,336.598141 C21.7506231,334.476168 23.9938745,333.278643 26.1158473,333.923588 C28.2378201,334.567729 29.4361485,336.810981 28.7912037,338.932954" id="Fill-84" fill="#F2F2F2"></path>
                <path d="M27.2870285,358.621842 C27.0717792,359.329434 26.3248319,359.728609 25.6172399,359.513359 C24.9096479,359.298913 24.5104728,358.551163 24.7257222,357.843571 C24.9401683,357.135979 25.6879188,356.736804 26.3955108,356.952053 C27.1022996,357.166499 27.5022778,357.91425 27.2870285,358.621842" id="Fill-86" fill="#F2F2F2"></path>
                <path d="M56.7125751,374.662575 C56.7125751,375.550077 55.9937388,376.268913 55.1062369,376.268913 C54.218735,376.268913 53.4998986,375.550077 53.4998986,374.662575 C53.4998986,373.775073 54.218735,373.056237 55.1062369,373.056237 C55.9937388,373.056237 56.7125751,373.775073 56.7125751,374.662575" id="Fill-88" fill="#CCCCCB"></path>
                <path d="M5.60636145,317.619977 C5.34854416,318.468927 4.45140425,318.947616 3.60245448,318.689799 C2.75350471,318.431981 2.27481592,317.534841 2.5326332,316.685892 C2.79045049,315.836942 3.68759041,315.358253 4.53654017,315.61607 C5.38548994,315.873888 5.86417874,316.771028 5.60636145,317.619977" id="Fill-90" fill="#CCCCCB"></path>
                <path d="M42.7981519,292.823335 C42.1532071,294.945308 39.9107589,296.142833 37.7887861,295.498692 C35.6660101,294.853747 34.4684849,292.611299 35.1134297,290.488523 C35.7575714,288.36655 38.0008228,287.169025 40.1227956,287.81397 C42.2447684,288.458111 43.4430967,290.701363 42.7981519,292.823335" id="Fill-92" fill="#F2F2F2"></path>
                <path d="M41.2939768,312.512223 C41.0787275,313.219815 40.3317802,313.61899 39.6241882,313.403741 C38.9165962,313.189295 38.5174211,312.441544 38.7326705,311.733952 C38.9471166,311.02636 39.6948671,310.627185 40.4024591,310.842435 C41.1092479,311.056881 41.5092261,311.804631 41.2939768,312.512223" id="Fill-94" fill="#F2F2F2"></path>
                <path d="M75.9886342,326.472427 C75.9886342,327.359929 75.2697978,328.078765 74.3822959,328.078765 C73.494794,328.078765 72.7759577,327.359929 72.7759577,326.472427 C72.7759577,325.584925 73.494794,324.866089 74.3822959,324.866089 C75.2697978,324.866089 75.9886342,325.584925 75.9886342,326.472427" id="Fill-96" fill="#CCCCCB"></path>
                <path d="M19.6133901,271.510439 C19.3555728,272.359389 18.4584328,272.838078 17.6094831,272.580261 C16.7605333,272.322443 16.2818445,271.425304 16.5396618,270.576354 C16.7974791,269.727404 17.694619,269.248715 18.5435688,269.506533 C19.3925185,269.76435 19.8712073,270.66149 19.6133901,271.510439" id="Fill-98" fill="#CCCCCB"></path>
                <path d="M711.563109,339.323133 C711.563109,341.3929 709.885289,343.071524 707.814719,343.071524 C705.744952,343.071524 704.067131,341.3929 704.067131,339.323133 C704.067131,337.253366 705.744952,335.574743 707.814719,335.574743 C709.885289,335.574743 711.563109,337.253366 711.563109,339.323133" id="Fill-138" fill="#CCCCCB"></path>
                <path d="M727.626491,320.314851 C727.626491,322.532401 725.828196,324.330696 723.610646,324.330696 C721.393096,324.330696 719.5948,322.532401 719.5948,320.314851 C719.5948,318.097301 721.393096,316.299005 723.610646,316.299005 C725.828196,316.299005 727.626491,318.097301 727.626491,320.314851" id="Fill-140" fill="#F2F2F2"></path>
                <path d="M731.910033,339.59091 C731.910033,340.329825 731.310869,340.929793 730.57115,340.929793 C729.832235,340.929793 729.233071,340.329825 729.233071,339.59091 C729.233071,338.851994 729.832235,338.252027 730.57115,338.252027 C731.310869,338.252027 731.910033,338.851994 731.910033,339.59091" id="Fill-142" fill="#F2F2F2"></path>
                <path d="M758.146918,324.866089 C758.146918,325.753591 757.428082,326.472427 756.54058,326.472427 C755.653078,326.472427 754.934242,325.753591 754.934242,324.866089 C754.934242,323.978587 755.653078,323.259751 756.54058,323.259751 C757.428082,323.259751 758.146918,323.978587 758.146918,324.866089" id="Fill-144" fill="#CCCCCB"></path>
                <path d="M699.247876,306.660976 C699.247876,307.548478 698.529039,308.267314 697.641538,308.267314 C696.754036,308.267314 696.035199,307.548478 696.035199,306.660976 C696.035199,305.773474 696.754036,305.054637 697.641538,305.054637 C698.529039,305.054637 699.247876,305.773474 699.247876,306.660976" id="Fill-146" fill="#CCCCCB"></path>
                <path d="M711.563109,291.132986 C711.563109,293.202753 709.885289,294.881376 707.814719,294.881376 C705.744952,294.881376 704.067131,293.202753 704.067131,291.132986 C704.067131,289.063219 705.744952,287.384595 707.814719,287.384595 C709.885289,287.384595 711.563109,289.063219 711.563109,291.132986" id="Fill-148" fill="#CCCCCB"></path>
                <path d="M727.626491,272.124703 C727.626491,274.342253 725.828196,276.140549 723.610646,276.140549 C721.393096,276.140549 719.5948,274.342253 719.5948,272.124703 C719.5948,269.907153 721.393096,268.108858 723.610646,268.108858 C725.828196,268.108858 727.626491,269.907153 727.626491,272.124703" id="Fill-150" fill="#F2F2F2"></path>
                <path d="M731.910033,291.400762 C731.910033,292.139678 731.310869,292.739645 730.57115,292.739645 C729.832235,292.739645 729.233071,292.139678 729.233071,291.400762 C729.233071,290.661847 729.832235,290.061879 730.57115,290.061879 C731.310869,290.061879 731.910033,290.661847 731.910033,291.400762" id="Fill-152" fill="#F2F2F2"></path>
                <path d="M758.146918,276.675941 C758.146918,277.563443 757.428082,278.28228 756.54058,278.28228 C755.653078,278.28228 754.934242,277.563443 754.934242,276.675941 C754.934242,275.78844 755.653078,275.069603 756.54058,275.069603 C757.428082,275.069603 758.146918,275.78844 758.146918,276.675941" id="Fill-154" fill="#CCCCCB"></path>
                <path d="M402.297376,270.985729 C403.184074,270.958421 403.925399,271.654769 403.952707,272.541468 C403.980015,273.428166 403.282864,274.169492 402.396165,274.196799 C401.509467,274.224107 400.768945,273.527759 400.741637,272.641061 C400.714329,271.754362 401.410677,271.013037 402.297376,270.985729" id="Fill-202" fill="#CCCCCB"></path>
                <path d="M49.6282219,328.418586 L49.6282219,328.418586 C49.4121694,328.418586 48.9792612,328.634639 48.7632087,328.634639 C48.5471562,328.634639 48.1142481,328.418586 48.1142481,328.418586 C47.8981956,328.202534 47.6821431,327.769626 47.6821431,327.553573 C47.6821431,327.337521 47.8981956,326.904613 47.8981956,326.68856 C48.1142481,326.68856 48.5471562,326.472508 48.7632087,326.472508 C49.4121694,326.472508 49.8442744,326.904613 49.8442744,327.553573 C49.8442744,327.769626 49.6282219,328.202534 49.6282219,328.418586 M58.7104583,335.986849 L57.8454452,335.121836 L58.7104583,334.256823 C59.1425633,333.824718 59.1425633,333.175757 58.7104583,332.743652 C58.2775502,332.310744 57.6293927,332.310744 57.1964845,332.743652 L56.3314714,333.608665 L51.5743007,328.850691 C51.5743007,328.850691 51.5743007,328.634639 51.7903532,328.634639 L58.4936027,328.634639 L58.4936027,329.715704 C58.4936027,330.364665 58.9265108,330.797573 59.5754715,330.797573 C60.223629,330.797573 60.6565371,330.364665 60.6565371,329.715704 L60.6565371,328.634639 L61.7376028,328.634639 C62.3865634,328.634639 62.8186684,328.202534 62.8186684,327.553573 C62.8186684,326.904613 62.3865634,326.472508 61.7376028,326.472508 L60.6565371,326.472508 L60.6565371,325.391442 C60.6565371,324.742481 60.223629,324.310376 59.5754715,324.310376 C58.9265108,324.310376 58.4936027,324.742481 58.4936027,325.391442 L58.4936027,326.472508 L51.7903532,326.472508 C51.7903532,326.472508 51.7903532,326.256455 51.5743007,326.256455 L56.3314714,321.499284 L57.1964845,322.147442 C57.6293927,322.58035 58.2775502,322.58035 58.7104583,322.147442 C59.1425633,321.715337 59.1425633,321.066376 58.7104583,320.634271 L57.8454452,319.98531 L58.7104583,319.120297 C59.1425633,318.688192 59.1425633,318.039232 58.7104583,317.606324 C58.2775502,317.174219 57.6293927,317.174219 57.1964845,317.606324 L56.3314714,318.471337 L55.6825107,317.606324 C55.2504057,317.174219 54.6014451,317.174219 54.1693401,317.606324 C53.7364319,318.039232 53.7364319,318.688192 54.1693401,319.120297 L54.8183008,319.98531 L50.0603269,324.742481 C50.0603269,324.742481 49.8442744,324.742481 49.8442744,324.526429 L49.8442744,317.823179 L50.92534,317.823179 C51.5743007,317.823179 52.0072088,317.390271 52.0072088,316.742114 C52.0072088,316.093153 51.5743007,315.660245 50.92534,315.660245 L49.8442744,315.660245 L49.8442744,314.579179 C49.8442744,313.931022 49.4121694,313.498113 48.7632087,313.498113 C48.1142481,313.498113 47.6821431,313.931022 47.6821431,314.579179 L47.6821431,315.660245 L46.6010774,315.660245 C45.9521168,315.660245 45.5200118,316.093153 45.5200118,316.742114 C45.5200118,317.390271 45.9521168,317.823179 46.6010774,317.823179 L47.6821431,317.823179 L47.6821431,324.526429 C47.6821431,324.526429 47.4660906,324.526429 47.4660906,324.742481 L42.7089198,319.98531 L43.3570773,319.120297 C43.7899855,318.688192 43.7899855,318.039232 43.3570773,317.606324 C42.9249723,317.174219 42.2760117,317.174219 41.8439067,317.606324 L41.194946,318.471337 L40.3299329,317.606324 C39.8978279,317.174219 39.2488673,317.174219 38.8159591,317.606324 C38.3838541,318.039232 38.3838541,318.688192 38.8159591,319.120297 L39.6809722,319.98531 L38.8159591,320.634271 C38.3838541,321.066376 38.3838541,321.715337 38.8159591,322.147442 C39.2488673,322.58035 39.8978279,322.58035 40.3299329,322.147442 L41.194946,321.499284 L45.9521168,326.256455 C45.9521168,326.256455 45.9521168,326.472508 45.7360643,326.472508 L39.0328148,326.472508 L39.0328148,325.391442 C39.0328148,324.742481 38.5999066,324.310376 37.9517491,324.310376 C37.3027885,324.310376 36.8698803,324.742481 36.8698803,325.391442 L36.8698803,326.472508 L35.7888147,326.472508 C35.1406572,326.472508 34.707749,326.904613 34.707749,327.553573 C34.707749,328.202534 35.1406572,328.634639 35.7888147,328.634639 L36.8698803,328.634639 L36.8698803,329.715704 C36.8698803,330.364665 37.3027885,330.797573 37.9517491,330.797573 C38.5999066,330.797573 39.0328148,330.364665 39.0328148,329.715704 L39.0328148,328.634639 L45.7360643,328.634639 C45.7360643,328.634639 45.7360643,328.850691 45.9521168,328.850691 L41.194946,333.608665 L40.3299329,332.959705 C39.8978279,332.526796 39.2488673,332.526796 38.8159591,332.959705 C38.3838541,333.39181 38.3838541,334.04077 38.8159591,334.472875 L39.6809722,335.121836 L38.8159591,335.986849 C38.3838541,336.419757 38.3838541,337.067915 38.8159591,337.500823 C39.2488673,337.932928 39.8978279,337.932928 40.3299329,337.500823 L41.194946,336.63581 L42.0599592,337.500823 C42.4920642,337.932928 43.1410248,337.932928 43.573933,337.500823 C44.006038,337.067915 44.006038,336.419757 43.573933,335.986849 L42.7089198,335.121836 L47.4660906,330.364665 C47.4660906,330.364665 47.6821431,330.364665 47.6821431,330.580718 L47.6821431,337.283967 L46.6010774,337.283967 C45.9521168,337.283967 45.5200118,337.716875 45.5200118,338.365836 C45.5200118,339.013993 45.9521168,339.446902 46.6010774,339.446902 L47.6821431,339.446902 L47.6821431,340.527967 C47.6821431,341.176928 48.1142481,341.609033 48.7632087,341.609033 C49.4121694,341.609033 49.8442744,341.176928 49.8442744,340.527967 L49.8442744,339.446902 L50.92534,339.446902 C51.5743007,339.446902 52.0072088,339.013993 52.0072088,338.365836 C52.0072088,337.716875 51.5743007,337.283967 50.92534,337.283967 L49.8442744,337.283967 L49.8442744,330.580718 C49.8442744,330.580718 50.0603269,330.580718 50.0603269,330.364665 L54.8183008,335.121836 L54.1693401,335.986849 C53.7364319,336.419757 53.7364319,337.067915 54.1693401,337.500823 C54.6014451,337.932928 55.2504057,337.932928 55.6825107,337.500823 L56.5475239,336.63581 L57.412537,337.500823 C57.8454452,337.932928 58.4936027,337.932928 58.9265108,337.500823 C59.1425633,337.067915 59.1425633,336.419757 58.7104583,335.986849" id="Fill-218" fill="#9CAAB2"></path>
            </g>
        </g>
    </g>
</svg>